<?xml version="1.0" encoding="utf-8" standalone="no"?><!DOCTYPE svg PUBLIC "-//W3C//DTD SVG 1.1//EN" "http://www.w3.org/Graphics/SVG/1.1/DTD/svg11.dtd">
<svg preserveAspectRatio="xMinYMin meet" width="100%" height="100%" viewBox="0 0 1496.250 768.750"  version="1.1" xmlns="http://www.w3.org/2000/svg" xmlns:xlink="http://www.w3.org/1999/xlink">
  <desc>Matlab Figure Converted by PLOT2SVG written by Juerg Schwizer</desc>
  <g id="topgroup">
  <rect x="0" y="0" width="1496.250" height="768.750" fill="#ffffff" stroke="none" />
  <g id ="ID000000">
  <clipPath id="ID000001">
    <rect x="194.513" y="57.656" width="1159.594" height="626.531"/>
  </clipPath>
      <polygon fill="#ffffff" fill-opacity="1.00" stroke="none" stroke-width="0.5pt" stroke-opacity="1.00" stroke-dasharray="none" points="194.513,684.188 1354.106,684.188 1354.106,57.656 194.513,57.656 "/>
      <polygon fill="#ffffff" fill-opacity="1.00" stroke="none" stroke-width="0.5pt" stroke-opacity="1.00" stroke-dasharray="none" points="194.513,57.656 1354.106,57.656 1354.106,57.656 194.513,57.656 "/>
      <polygon fill="#ffffff" fill-opacity="1.00" stroke="none" stroke-width="0.5pt" stroke-opacity="1.00" stroke-dasharray="none" points="194.513,684.188 194.513,684.187 194.513,57.656 194.513,57.656 "/>
    <g>
<g id="ID000002" >
</g>
<g id="ID000003" >
</g>
<g id="ID000004" >
  <g transform="translate(774.310,52.503)">
    <g transform="rotate(-0.0)">
      <text x="0.000" y="0.000" font-family="times new roman" text-anchor="middle" font-size="10pt" font-weight="bold" fill="#000000" >E-field at Time Step 488</text>
    </g>
  </g>
</g>
<g id="ID000005" clip-path="url(#ID000001)" >
      <polyline fill="none" stroke="#000000" stroke-width="1.4pt" stroke-dasharray="none" points="196.445,370.922 198.378,370.922 200.310,370.922 202.243,370.922 204.176,370.922 206.108,370.922 208.041,370.922 209.974,370.922 211.906,370.923 213.839,370.926 215.772,370.935 217.704,370.961 219.637,371.034 221.570,371.217 223.502,371.633 225.435,372.503 227.368,374.162 229.300,377.040 231.233,381.567 233.166,387.985 235.098,396.119 237.031,405.201 238.964,413.883 240.896,420.521 242.829,423.671 244.762,422.599 246.694,417.559 248.627,409.693 250.560,400.614 252.492,391.870 254.425,384.538 256.358,379.075 258.290,375.420 260.223,373.209 262.155,371.993 264.088,371.384 266.021,371.106 267.953,370.989 269.886,370.945 271.819,370.929 273.751,370.924 275.684,370.922 277.617,370.922 279.549,370.922 281.482,370.922 283.415,370.922 285.347,370.922 287.280,370.922 289.213,370.922 291.145,370.922 293.078,370.922 295.011,370.922 296.943,370.922 298.876,370.922 300.809,370.922 302.741,370.922 304.674,370.922 306.607,370.924 308.539,370.929 310.472,370.945 312.405,370.989 314.337,371.106 316.270,371.384 318.202,371.993 320.135,373.209 322.068,375.420 324.000,379.075 325.933,384.538 327.866,391.870 329.798,400.614 331.731,409.693 333.664,417.559 335.596,422.599 337.529,423.671 339.462,420.521 341.394,413.883 343.327,405.201 345.260,396.119 347.192,387.985 349.125,381.567 351.058,377.040 352.990,374.162 354.923,372.503 356.856,371.633 358.788,371.217 360.721,371.034 362.654,370.961 364.586,370.935 366.519,370.926 368.452,370.923 370.384,370.922 372.317,370.922 374.250,370.922 376.182,370.922 378.115,370.922 380.048,370.922 381.980,370.922 383.913,370.922 385.845,370.922 387.778,370.922 389.711,370.922 391.643,370.922 393.576,370.922 395.509,370.922 397.441,370.922 399.374,370.922 401.307,370.922 403.239,370.922 405.172,370.922 407.105,370.922 409.037,370.922 410.970,370.922 412.903,370.922 414.835,370.922 416.768,370.922 418.701,370.922 420.633,370.922 422.566,370.922 424.499,370.922 426.431,370.922 428.364,370.922 430.297,370.922 432.229,370.922 434.162,370.922 436.095,370.921 438.027,370.920 439.960,370.918 441.892,370.912 443.825,370.900 445.758,370.874 447.690,370.821 449.623,370.715 451.556,370.516 453.488,370.155 455.421,369.531 457.354,368.499 459.286,366.876 461.219,364.452 463.152,361.027 465.084,356.477 467.017,350.828 468.950,344.349 470.882,337.607 472.815,331.455 474.748,326.922 476.680,325.001 478.613,326.359 480.546,331.082 482.478,338.546 484.411,347.499 486.344,356.384 488.276,363.781 490.209,368.826 492.142,371.408 494.074,372.078 496.007,371.714 497.940,371.122 499.872,370.765 501.805,370.723 503.738,370.846 505.670,370.956 507.603,370.978 509.535,370.942 511.468,370.907 513.401,370.904 515.333,370.919 517.266,370.929 519.199,370.927 521.131,370.920 523.064,370.918 524.997,370.921 526.929,370.923 528.862,370.922 530.795,370.920 532.727,370.919 534.660,370.916 536.593,370.908 538.525,370.890 540.458,370.852 542.391,370.776 544.323,370.631 546.256,370.362 548.189,369.884 550.121,369.077 552.054,367.775 553.987,365.778 555.919,362.875 557.852,358.896 559.785,353.779 561.717,347.664 563.650,340.963 565.582,334.395 567.515,328.920 569.448,325.583 571.380,325.248 573.313,328.322 575.246,334.538 577.178,342.931 579.111,352.048 581.044,360.339 582.976,366.622 584.909,370.402 586.842,371.930 588.774,371.969 590.707,371.408 592.640,370.901 594.572,370.711 596.505,370.776 598.438,370.910 600.370,370.978 602.303,370.963 604.236,370.921 606.168,370.902 608.101,370.911 610.034,370.926 611.966,370.930 613.899,370.924 615.832,370.919 617.764,370.920 619.697,370.923 621.630,370.923 623.562,370.922 625.495,370.921 627.428,370.921 629.360,370.922 631.293,370.922 633.225,370.922 635.158,370.922 637.091,370.922 639.023,370.922 640.956,370.922 642.889,370.922 644.821,370.922 646.754,370.922 648.687,370.922 650.619,370.922 652.552,370.922 654.485,370.922 656.417,370.922 658.350,370.922 660.283,370.922 662.215,370.922 664.148,370.922 666.081,370.922 668.013,370.921 669.946,370.921 671.879,370.920 673.811,370.918 675.744,370.915 677.677,370.909 679.609,370.894 681.542,370.860 683.475,370.789 685.407,370.652 687.340,370.412 689.273,370.026 691.205,369.468 693.138,368.761 695.070,368.002 697.003,367.381 698.936,367.134 700.868,367.445 702.801,368.318 704.734,369.510 706.666,370.609 708.599,371.250 710.532,371.335 712.464,371.085 714.397,370.843 716.330,370.800 718.262,370.897 720.195,370.969 722.128,370.951 724.060,370.907 725.993,370.905 727.926,370.927 729.858,370.931 731.791,370.920 733.724,370.917 735.656,370.923 737.589,370.922 739.522,370.914 741.454,370.905 743.387,370.882 745.320,370.828 747.252,370.720 749.185,370.520 751.117,370.181 753.050,369.664 754.983,368.973 756.915,368.185 758.848,367.480 760.781,367.109 762.713,367.290 764.646,368.072 766.579,369.242 768.511,370.381 770.444,371.096 772.377,371.261 774.309,371.078 776.242,370.877 778.175,370.839 780.107,370.910 782.040,370.955 783.973,370.934 785.905,370.905 787.838,370.907 789.771,370.920 791.703,370.921 793.636,370.921 795.569,370.921 797.501,370.921 799.434,370.921 801.367,370.921 803.299,370.921 805.232,370.921 807.165,370.921 809.097,370.921 811.030,370.921 812.962,370.921 814.895,370.921 816.828,370.921 818.760,370.921 820.693,370.921 822.626,370.921 824.558,370.921 826.491,370.921 828.424,370.921 830.356,370.921 832.289,370.921 834.222,370.921 836.154,370.921 838.087,370.921 840.020,370.921 841.952,370.921 843.885,370.921 845.818,370.921 847.750,370.921 849.683,370.921 851.616,370.921 853.548,370.921 855.481,370.921 857.414,370.921 859.346,370.921 861.279,370.921 863.212,370.921 865.144,370.921 867.077,370.921 869.010,370.921 870.942,370.921 872.875,370.921 874.808,370.921 876.740,370.921 878.673,370.921 880.605,370.921 882.538,370.921 884.471,370.921 886.403,370.921 888.336,370.921 890.269,370.921 892.201,370.921 894.134,370.921 896.067,370.921 897.999,370.921 899.932,370.921 901.865,370.921 903.797,370.921 905.730,370.921 907.663,370.921 909.595,370.921 911.528,370.921 913.461,370.921 915.393,370.921 917.326,370.921 919.259,370.921 921.191,370.921 923.124,370.921 925.057,370.921 926.989,370.921 928.922,370.921 930.855,370.921 932.787,370.921 934.720,370.921 936.653,370.921 938.585,370.921 940.518,370.921 942.450,370.921 944.383,370.921 946.316,370.921 948.248,370.921 950.181,370.921 952.114,370.921 954.046,370.921 955.979,370.921 957.912,370.921 959.844,370.921 961.777,370.921 963.710,370.921 965.642,370.921 967.575,370.921 969.508,370.921 971.440,370.921 973.373,370.921 975.306,370.921 977.238,370.921 979.171,370.921 981.104,370.921 983.036,370.921 984.969,370.921 986.902,370.921 988.834,370.921 990.767,370.921 992.700,370.921 994.632,370.921 996.565,370.921 998.497,370.921 1000.430,370.921 1002.363,370.921 1004.295,370.921 1006.228,370.921 1008.161,370.921 1010.093,370.921 1012.026,370.921 1013.959,370.921 1015.891,370.921 1017.824,370.921 1019.757,370.921 1021.689,370.921 1023.622,370.921 1025.555,370.921 1027.487,370.921 1029.420,370.921 1031.353,370.921 1033.285,370.921 1035.218,370.921 1037.151,370.921 1039.083,370.921 1041.016,370.921 1042.949,370.921 1044.881,370.921 1046.814,370.921 1048.747,370.921 1050.679,370.921 1052.612,370.921 1054.545,370.921 1056.477,370.921 1058.410,370.921 1060.343,370.921 1062.275,370.921 1064.208,370.921 1066.140,370.921 1068.073,370.921 1070.006,370.921 1071.938,370.921 1073.871,370.921 1075.804,370.921 1077.736,370.921 1079.669,370.921 1081.602,370.921 1083.534,370.921 1085.467,370.921 1087.400,370.921 1089.332,370.921 1091.265,370.921 1093.198,370.921 1095.130,370.921 1097.063,370.921 1098.996,370.921 1100.928,370.921 1102.861,370.921 1104.794,370.921 1106.726,370.921 1108.659,370.921 1110.592,370.921 1112.524,370.921 1114.457,370.921 1116.390,370.921 1118.322,370.921 1120.255,370.921 1122.188,370.921 1124.120,370.921 1126.053,370.921 1127.985,370.921 1129.918,370.921 1131.851,370.921 1133.783,370.921 1135.716,370.921 1137.649,370.921 1139.581,370.921 1141.514,370.921 1143.447,370.921 1145.379,370.921 1147.312,370.921 1149.245,370.921 1151.177,370.921 1153.110,370.921 1155.043,370.921 1156.975,370.921 1158.908,370.921 1160.841,370.921 1162.773,370.921 1164.706,370.921 1166.639,370.921 1168.571,370.921 1170.504,370.921 1172.437,370.921 1174.369,370.921 1176.302,370.921 1178.235,370.921 1180.167,370.921 1182.100,370.921 1184.033,370.921 1185.965,370.921 1187.898,370.921 1189.830,370.921 1191.763,370.921 1193.696,370.921 1195.628,370.921 1197.561,370.921 1199.494,370.921 1201.426,370.921 1203.359,370.921 1205.292,370.921 1207.224,370.921 1209.157,370.921 1211.090,370.921 1213.022,370.921 1214.955,370.921 1216.888,370.921 1218.820,370.921 1220.753,370.921 1222.686,370.921 1224.618,370.921 1226.551,370.921 1228.484,370.921 1230.416,370.921 1232.349,370.921 1234.282,370.921 1236.214,370.921 1238.147,370.921 1240.080,370.921 1242.012,370.921 1243.945,370.921 1245.878,370.921 1247.810,370.921 1249.743,370.921 1251.675,370.921 1253.608,370.921 1255.541,370.921 1257.473,370.921 1259.406,370.921 1261.339,370.921 1263.271,370.921 1265.204,370.921 1267.137,370.921 1269.069,370.921 1271.002,370.921 1272.935,370.921 1274.867,370.921 1276.800,370.921 1278.733,370.921 1280.665,370.921 1282.598,370.921 1284.531,370.921 1286.463,370.921 1288.396,370.921 1290.329,370.921 1292.261,370.921 1294.194,370.921 1296.127,370.921 1298.059,370.921 1299.992,370.921 1301.925,370.921 1303.857,370.921 1305.790,370.921 1307.723,370.921 1309.655,370.921 1311.588,370.921 1313.520,370.921 1315.453,370.921 1317.386,370.921 1319.318,370.921 1321.251,370.921 1323.184,370.921 1325.116,370.921 1327.049,370.921 1328.982,370.921 1330.914,370.921 1332.847,370.921 1334.780,370.921 1336.712,370.921 1338.645,370.921 1340.578,370.921 1342.510,370.921 1344.443,370.921 1346.376,370.921 1348.308,370.921 1350.241,370.921 1352.174,370.921 1354.106,370.929 "/>
<g>
</g>
</g>
<g id="ID000006" clip-path="url(#ID000001)" >
      <polyline fill="none" stroke="#000000" stroke-width="0.5pt" stroke-dasharray="none" points="677.677,684.188 677.677,57.656 "/>
<g>
</g>
</g>
<g id="ID000007" clip-path="url(#ID000001)" >
      <polyline fill="none" stroke="#000000" stroke-width="0.5pt" stroke-dasharray="none" points="791.703,684.188 791.703,57.656 "/>
<g>
</g>
</g>
<g id="ID000008" clip-path="url(#ID000001)" >
      <polyline fill="none" stroke="#d85218" stroke-width="0.5pt" stroke-dasharray="none" points="196.445,370.922 198.378,370.922 200.310,370.922 202.243,370.922 204.176,370.922 206.108,370.922 208.041,370.922 209.974,370.922 211.906,370.923 213.839,370.926 215.772,370.935 217.704,370.961 219.637,371.034 221.570,371.217 223.502,371.633 225.435,372.503 227.368,374.162 229.300,377.040 231.233,381.567 233.166,387.985 235.098,396.119 237.031,405.201 238.964,413.883 240.896,420.521 242.829,423.671 244.762,422.599 246.694,417.559 248.627,409.693 250.560,400.614 252.492,391.870 254.425,384.538 256.358,379.075 258.290,375.420 260.223,373.209 262.155,371.993 264.088,371.384 266.021,371.106 267.953,370.989 269.886,370.945 271.819,370.929 273.751,370.924 275.684,370.922 277.617,370.922 279.549,370.922 281.482,370.922 283.415,370.922 285.347,370.922 287.280,370.922 289.213,370.922 291.145,370.922 293.078,370.922 295.011,370.922 296.943,370.922 298.876,370.922 300.809,370.922 302.741,370.922 304.674,370.922 306.607,370.924 308.539,370.929 310.472,370.945 312.405,370.989 314.337,371.106 316.270,371.384 318.202,371.993 320.135,373.209 322.068,375.420 324.000,379.075 325.933,384.538 327.866,391.870 329.798,400.614 331.731,409.693 333.664,417.559 335.596,422.599 337.529,423.671 339.462,420.521 341.394,413.883 343.327,405.201 345.260,396.119 347.192,387.985 349.125,381.567 351.058,377.040 352.990,374.162 354.923,372.503 356.856,371.633 358.788,371.217 360.721,371.034 362.654,370.961 364.586,370.935 366.519,370.926 368.452,370.923 370.384,370.922 372.317,370.922 374.250,370.922 376.182,370.922 378.115,370.922 380.048,370.922 381.980,370.922 383.913,370.922 385.845,370.922 387.778,370.922 389.711,370.922 391.643,370.922 393.576,370.922 395.509,370.922 397.441,370.922 399.374,370.922 401.307,370.922 403.239,370.922 405.172,370.922 407.105,370.922 409.037,370.922 410.970,370.922 412.903,370.922 414.835,370.922 416.768,370.922 418.701,370.922 420.633,370.922 422.566,370.922 424.499,370.922 426.431,370.922 428.364,370.922 430.297,370.922 432.229,370.922 434.162,370.922 436.095,370.921 438.027,370.920 439.960,370.918 441.892,370.912 443.825,370.900 445.758,370.874 447.690,370.821 449.623,370.715 451.556,370.516 453.488,370.155 455.421,369.531 457.354,368.499 459.286,366.876 461.219,364.452 463.152,361.027 465.084,356.477 467.017,350.828 468.950,344.349 470.882,337.607 472.815,331.455 474.748,326.922 476.680,325.001 478.613,326.359 480.546,331.082 482.478,338.546 484.411,347.499 486.344,356.384 488.276,363.781 490.209,368.826 492.142,371.408 494.074,372.078 496.007,371.714 497.940,371.122 499.872,370.765 501.805,370.723 503.738,370.846 505.670,370.956 507.603,370.978 509.535,370.942 511.468,370.907 513.401,370.904 515.333,370.919 517.266,370.929 519.199,370.927 521.131,370.920 523.064,370.918 524.997,370.921 526.929,370.923 528.862,370.922 530.795,370.920 532.727,370.919 534.660,370.916 536.593,370.908 538.525,370.890 540.458,370.852 542.391,370.776 544.323,370.631 546.256,370.362 548.189,369.884 550.121,369.077 552.054,367.775 553.987,365.778 555.919,362.875 557.852,358.896 559.785,353.779 561.717,347.664 563.650,340.963 565.582,334.395 567.515,328.920 569.448,325.583 571.380,325.248 573.313,328.322 575.246,334.538 577.178,342.931 579.111,352.048 581.044,360.339 582.976,366.622 584.909,370.402 586.842,371.930 588.774,371.969 590.707,371.408 592.640,370.901 594.572,370.711 596.505,370.776 598.438,370.910 600.370,370.978 602.303,370.963 604.236,370.921 606.168,370.902 608.101,370.911 610.034,370.926 611.966,370.930 613.899,370.924 615.832,370.919 617.764,370.920 619.697,370.923 621.630,370.923 623.562,370.922 625.495,370.921 627.428,370.921 629.360,370.922 631.293,370.922 633.225,370.922 635.158,370.922 637.091,370.922 639.023,370.922 640.956,370.922 642.889,370.922 644.821,370.922 646.754,370.922 648.687,370.922 650.619,370.922 652.552,370.922 654.485,370.922 656.417,370.922 658.350,370.922 660.283,370.922 662.215,370.922 664.148,370.922 666.081,370.922 668.013,370.921 669.946,370.921 671.879,370.920 673.811,370.918 675.744,370.915 677.677,370.909 679.609,370.894 681.542,370.860 683.475,370.789 685.407,370.652 687.340,370.412 689.273,370.026 691.205,369.468 693.138,368.761 695.070,368.002 697.003,367.381 698.936,367.134 700.868,367.445 702.801,368.318 704.734,369.510 706.666,370.609 708.599,371.250 710.532,371.335 712.464,371.085 714.397,370.843 716.330,370.800 718.262,370.897 720.195,370.969 722.128,370.951 724.060,370.907 725.993,370.905 727.926,370.927 729.858,370.931 731.791,370.920 733.724,370.917 735.656,370.923 737.589,370.922 739.522,370.914 741.454,370.905 743.387,370.882 745.320,370.828 747.252,370.720 749.185,370.520 751.117,370.181 753.050,369.664 754.983,368.973 756.915,368.185 758.848,367.480 760.781,367.109 762.713,367.290 764.646,368.072 766.579,369.242 768.511,370.381 770.444,371.096 772.377,371.261 774.309,371.078 776.242,370.877 778.175,370.839 780.107,370.910 782.040,370.955 783.973,370.934 785.905,370.905 787.838,370.907 789.771,370.920 791.703,370.921 793.636,370.921 795.569,370.921 797.501,370.921 799.434,370.921 801.367,370.921 803.299,370.921 805.232,370.921 807.165,370.921 809.097,370.921 811.030,370.921 812.962,370.921 814.895,370.921 816.828,370.921 818.760,370.921 820.693,370.921 822.626,370.921 824.558,370.921 826.491,370.921 828.424,370.921 830.356,370.921 832.289,370.921 834.222,370.921 836.154,370.921 838.087,370.921 840.020,370.921 841.952,370.921 843.885,370.921 845.818,370.921 847.750,370.921 849.683,370.921 851.616,370.921 853.548,370.921 855.481,370.921 857.414,370.921 859.346,370.921 861.279,370.921 863.212,370.921 865.144,370.921 867.077,370.921 869.010,370.921 870.942,370.921 872.875,370.921 874.808,370.921 876.740,370.921 878.673,370.921 880.605,370.921 882.538,370.921 884.471,370.921 886.403,370.921 888.336,370.921 890.269,370.921 892.201,370.921 894.134,370.921 896.067,370.921 897.999,370.921 899.932,370.921 901.865,370.921 903.797,370.921 905.730,370.921 907.663,370.921 909.595,370.921 911.528,370.921 913.461,370.921 915.393,370.921 917.326,370.921 919.259,370.921 921.191,370.921 923.124,370.921 925.057,370.921 926.989,370.921 928.922,370.921 930.855,370.921 932.787,370.921 934.720,370.921 936.653,370.921 938.585,370.921 940.518,370.921 942.450,370.921 944.383,370.921 946.316,370.921 948.248,370.921 950.181,370.921 952.114,370.921 954.046,370.921 955.979,370.921 957.912,370.921 959.844,370.921 961.777,370.921 963.710,370.921 965.642,370.921 967.575,370.921 969.508,370.921 971.440,370.921 973.373,370.921 975.306,370.921 977.238,370.921 979.171,370.921 981.104,370.921 983.036,370.921 984.969,370.921 986.902,370.921 988.834,370.921 990.767,370.921 992.700,370.921 994.632,370.921 996.565,370.921 998.497,370.921 1000.430,370.921 1002.363,370.921 1004.295,370.921 1006.228,370.921 1008.161,370.921 1010.093,370.921 1012.026,370.921 1013.959,370.921 1015.891,370.921 1017.824,370.921 1019.757,370.921 1021.689,370.921 1023.622,370.921 1025.555,370.921 1027.487,370.921 1029.420,370.921 1031.353,370.921 1033.285,370.921 1035.218,370.921 1037.151,370.921 1039.083,370.921 1041.016,370.921 1042.949,370.921 1044.881,370.921 1046.814,370.921 1048.747,370.921 1050.679,370.921 1052.612,370.921 1054.545,370.921 1056.477,370.921 1058.410,370.921 1060.343,370.921 1062.275,370.921 1064.208,370.921 1066.140,370.921 1068.073,370.921 1070.006,370.921 1071.938,370.921 1073.871,370.921 1075.804,370.921 1077.736,370.921 1079.669,370.921 1081.602,370.921 1083.534,370.921 1085.467,370.921 1087.400,370.921 1089.332,370.921 1091.265,370.921 1093.198,370.921 1095.130,370.921 1097.063,370.921 1098.996,370.921 1100.928,370.921 1102.861,370.921 1104.794,370.921 1106.726,370.921 1108.659,370.921 1110.592,370.921 1112.524,370.921 1114.457,370.921 1116.390,370.921 1118.322,370.921 1120.255,370.921 1122.188,370.921 1124.120,370.921 1126.053,370.921 1127.985,370.921 1129.918,370.921 1131.851,370.921 1133.783,370.921 1135.716,370.921 1137.649,370.921 1139.581,370.921 1141.514,370.921 1143.447,370.921 1145.379,370.921 1147.312,370.921 1149.245,370.921 1151.177,370.921 1153.110,370.921 1155.043,370.921 1156.975,370.921 1158.908,370.921 1160.841,370.921 1162.773,370.921 1164.706,370.921 1166.639,370.921 1168.571,370.921 1170.504,370.921 1172.437,370.921 1174.369,370.921 1176.302,370.921 1178.235,370.921 1180.167,370.921 1182.100,370.921 1184.033,370.921 1185.965,370.921 1187.898,370.921 1189.830,370.921 1191.763,370.921 1193.696,370.921 1195.628,370.921 1197.561,370.921 1199.494,370.921 1201.426,370.921 1203.359,370.921 1205.292,370.921 1207.224,370.921 1209.157,370.921 1211.090,370.921 1213.022,370.921 1214.955,370.921 1216.888,370.921 1218.820,370.921 1220.753,370.921 1222.686,370.921 1224.618,370.921 1226.551,370.921 1228.484,370.921 1230.416,370.921 1232.349,370.921 1234.282,370.921 1236.214,370.921 1238.147,370.921 1240.080,370.921 1242.012,370.921 1243.945,370.921 1245.878,370.921 1247.810,370.921 1249.743,370.921 1251.675,370.921 1253.608,370.921 1255.541,370.921 1257.473,370.921 1259.406,370.921 1261.339,370.921 1263.271,370.921 1265.204,370.921 1267.137,370.921 1269.069,370.921 1271.002,370.921 1272.935,370.921 1274.867,370.921 1276.800,370.921 1278.733,370.921 1280.665,370.921 1282.598,370.921 1284.531,370.921 1286.463,370.921 1288.396,370.921 1290.329,370.921 1292.261,370.921 1294.194,370.921 1296.127,370.921 1298.059,370.921 1299.992,370.921 1301.925,370.921 1303.857,370.921 1305.790,370.921 1307.723,370.921 1309.655,370.921 1311.588,370.921 1313.520,370.921 1315.453,370.921 1317.386,370.921 1319.318,370.921 1321.251,370.921 1323.184,370.921 1325.116,370.921 1327.049,370.921 1328.982,370.921 1330.914,370.921 1332.847,370.921 1334.780,370.921 1336.712,370.921 1338.645,370.921 1340.578,370.921 1342.510,370.921 1344.443,370.921 1346.376,370.921 1348.308,370.921 1350.241,370.921 1352.174,370.921 1354.106,370.929 "/>
<g>
</g>
</g>
    </g>
    <g>
      <polyline fill="none" stroke="#262626" stroke-width="0.5pt" stroke-dasharray="none" points="194.513,684.188 194.513,672.592 "/>
      <polyline fill="none" stroke="#262626" stroke-width="0.5pt" stroke-dasharray="none" points="387.778,684.188 387.778,672.592 "/>
      <polyline fill="none" stroke="#262626" stroke-width="0.5pt" stroke-dasharray="none" points="581.044,684.188 581.044,672.592 "/>
      <polyline fill="none" stroke="#262626" stroke-width="0.5pt" stroke-dasharray="none" points="774.309,684.188 774.309,672.592 "/>
      <polyline fill="none" stroke="#262626" stroke-width="0.5pt" stroke-dasharray="none" points="967.575,684.188 967.575,672.592 "/>
      <polyline fill="none" stroke="#262626" stroke-width="0.5pt" stroke-dasharray="none" points="1160.841,684.188 1160.841,672.592 "/>
      <polyline fill="none" stroke="#262626" stroke-width="0.5pt" stroke-dasharray="none" points="1354.106,684.188 1354.106,672.592 "/>
      <polyline fill="none" stroke="#262626" stroke-width="0.5pt" stroke-dasharray="none" points="194.513,684.188 1354.106,684.188 "/>
  <g transform="translate(194.513,707.781)">
    <g transform="rotate(-0.0)">
      <text x="0.000" y="0.000" font-family="times new roman" text-anchor="middle" font-size="9pt" fill="#262626" >0</text>
    </g>
  </g>
  <g transform="translate(387.778,707.781)">
    <g transform="rotate(-0.0)">
      <text x="0.000" y="0.000" font-family="times new roman" text-anchor="middle" font-size="9pt" fill="#262626" >100</text>
    </g>
  </g>
  <g transform="translate(581.044,707.781)">
    <g transform="rotate(-0.0)">
      <text x="0.000" y="0.000" font-family="times new roman" text-anchor="middle" font-size="9pt" fill="#262626" >200</text>
    </g>
  </g>
  <g transform="translate(774.309,707.781)">
    <g transform="rotate(-0.0)">
      <text x="0.000" y="0.000" font-family="times new roman" text-anchor="middle" font-size="9pt" fill="#262626" >300</text>
    </g>
  </g>
  <g transform="translate(967.575,707.781)">
    <g transform="rotate(-0.0)">
      <text x="0.000" y="0.000" font-family="times new roman" text-anchor="middle" font-size="9pt" fill="#262626" >400</text>
    </g>
  </g>
  <g transform="translate(1160.841,707.781)">
    <g transform="rotate(-0.0)">
      <text x="0.000" y="0.000" font-family="times new roman" text-anchor="middle" font-size="9pt" fill="#262626" >500</text>
    </g>
  </g>
  <g transform="translate(1354.106,707.781)">
    <g transform="rotate(-0.0)">
      <text x="0.000" y="0.000" font-family="times new roman" text-anchor="middle" font-size="9pt" fill="#262626" >600</text>
    </g>
  </g>
      <polyline fill="none" stroke="#262626" stroke-width="0.5pt" stroke-dasharray="none" points="194.513,684.188 206.108,684.188 "/>
      <polyline fill="none" stroke="#262626" stroke-width="0.5pt" stroke-dasharray="none" points="194.513,621.534 206.108,621.534 "/>
      <polyline fill="none" stroke="#262626" stroke-width="0.5pt" stroke-dasharray="none" points="194.513,558.881 206.108,558.881 "/>
      <polyline fill="none" stroke="#262626" stroke-width="0.5pt" stroke-dasharray="none" points="194.513,496.228 206.108,496.228 "/>
      <polyline fill="none" stroke="#262626" stroke-width="0.5pt" stroke-dasharray="none" points="194.513,433.575 206.108,433.575 "/>
      <polyline fill="none" stroke="#262626" stroke-width="0.5pt" stroke-dasharray="none" points="194.513,370.922 206.108,370.922 "/>
      <polyline fill="none" stroke="#262626" stroke-width="0.5pt" stroke-dasharray="none" points="194.513,308.269 206.108,308.269 "/>
      <polyline fill="none" stroke="#262626" stroke-width="0.5pt" stroke-dasharray="none" points="194.513,245.616 206.108,245.616 "/>
      <polyline fill="none" stroke="#262626" stroke-width="0.5pt" stroke-dasharray="none" points="194.513,182.962 206.108,182.962 "/>
      <polyline fill="none" stroke="#262626" stroke-width="0.5pt" stroke-dasharray="none" points="194.513,120.309 206.108,120.309 "/>
      <polyline fill="none" stroke="#262626" stroke-width="0.5pt" stroke-dasharray="none" points="194.513,57.656 206.108,57.656 "/>
      <polyline fill="none" stroke="#262626" stroke-width="0.5pt" stroke-dasharray="none" points="194.513,684.188 194.513,57.656 "/>
  <g transform="translate(171.321,688.406)">
    <g transform="rotate(-0.0)">
      <text x="0.000" y="0.000" font-family="times new roman" text-anchor="end" font-size="9pt" fill="#262626" >-1</text>
    </g>
  </g>
  <g transform="translate(171.321,625.753)">
    <g transform="rotate(-0.0)">
      <text x="0.000" y="0.000" font-family="times new roman" text-anchor="end" font-size="9pt" fill="#262626" >-0.8</text>
    </g>
  </g>
  <g transform="translate(171.321,563.100)">
    <g transform="rotate(-0.0)">
      <text x="0.000" y="0.000" font-family="times new roman" text-anchor="end" font-size="9pt" fill="#262626" >-0.6</text>
    </g>
  </g>
  <g transform="translate(171.321,500.447)">
    <g transform="rotate(-0.0)">
      <text x="0.000" y="0.000" font-family="times new roman" text-anchor="end" font-size="9pt" fill="#262626" >-0.4</text>
    </g>
  </g>
  <g transform="translate(171.321,437.794)">
    <g transform="rotate(-0.0)">
      <text x="0.000" y="0.000" font-family="times new roman" text-anchor="end" font-size="9pt" fill="#262626" >-0.2</text>
    </g>
  </g>
  <g transform="translate(171.321,375.141)">
    <g transform="rotate(-0.0)">
      <text x="0.000" y="0.000" font-family="times new roman" text-anchor="end" font-size="9pt" fill="#262626" >0</text>
    </g>
  </g>
  <g transform="translate(171.321,312.487)">
    <g transform="rotate(-0.0)">
      <text x="0.000" y="0.000" font-family="times new roman" text-anchor="end" font-size="9pt" fill="#262626" >0.2</text>
    </g>
  </g>
  <g transform="translate(171.321,249.834)">
    <g transform="rotate(-0.0)">
      <text x="0.000" y="0.000" font-family="times new roman" text-anchor="end" font-size="9pt" fill="#262626" >0.4</text>
    </g>
  </g>
  <g transform="translate(171.321,187.181)">
    <g transform="rotate(-0.0)">
      <text x="0.000" y="0.000" font-family="times new roman" text-anchor="end" font-size="9pt" fill="#262626" >0.6</text>
    </g>
  </g>
  <g transform="translate(171.321,124.528)">
    <g transform="rotate(-0.0)">
      <text x="0.000" y="0.000" font-family="times new roman" text-anchor="end" font-size="9pt" fill="#262626" >0.8</text>
    </g>
  </g>
  <g transform="translate(171.321,61.875)">
    <g transform="rotate(-0.0)">
      <text x="0.000" y="0.000" font-family="times new roman" text-anchor="end" font-size="9pt" fill="#262626" >1</text>
    </g>
  </g>
      <polyline fill="none" stroke="#262626" stroke-width="0.5pt" stroke-dasharray="none" points="194.513,684.188 194.513,677.922 "/>
      <polyline fill="none" stroke="#262626" stroke-width="0.5pt" stroke-dasharray="none" points="194.513,684.188 194.513,677.922 "/>
      <polyline fill="none" stroke="#262626" stroke-width="0.5pt" stroke-dasharray="none" points="194.513,684.187 194.513,677.922 "/>
      <polyline fill="none" stroke="#262626" stroke-width="0.5pt" stroke-dasharray="none" points="194.513,684.188 194.513,684.187 "/>
    </g>
  </g>
  </g>
</svg>
