<?xml version="1.0" encoding="utf-8" standalone="no"?><!DOCTYPE svg PUBLIC "-//W3C//DTD SVG 1.1//EN" "http://www.w3.org/Graphics/SVG/1.1/DTD/svg11.dtd">
<svg preserveAspectRatio="xMinYMin meet" width="100%" height="100%" viewBox="0 0 1496.250 768.750"  version="1.1" xmlns="http://www.w3.org/2000/svg" xmlns:xlink="http://www.w3.org/1999/xlink">
  <desc>Matlab Figure Converted by PLOT2SVG written by Juerg Schwizer</desc>
  <g id="topgroup">
  <rect x="0" y="0" width="1496.250" height="768.750" fill="#ffffff" stroke="none" />
  <g id ="ID000000">
  <clipPath id="ID000001">
    <rect x="194.513" y="57.656" width="1159.594" height="626.531"/>
  </clipPath>
      <polygon fill="#ffffff" fill-opacity="1.00" stroke="none" stroke-width="0.5pt" stroke-opacity="1.00" stroke-dasharray="none" points="194.513,684.188 1354.106,684.188 1354.106,57.656 194.513,57.656 "/>
      <polygon fill="#ffffff" fill-opacity="1.00" stroke="none" stroke-width="0.5pt" stroke-opacity="1.00" stroke-dasharray="none" points="194.513,57.656 1354.106,57.656 1354.106,57.656 194.513,57.656 "/>
      <polygon fill="#ffffff" fill-opacity="1.00" stroke="none" stroke-width="0.5pt" stroke-opacity="1.00" stroke-dasharray="none" points="194.513,684.188 194.513,684.187 194.513,57.656 194.513,57.656 "/>
    <g>
<g id="ID000002" >
</g>
<g id="ID000003" >
</g>
<g id="ID000004" >
  <g transform="translate(774.310,52.503)">
    <g transform="rotate(-0.0)">
      <text x="0.000" y="0.000" font-family="times new roman" text-anchor="middle" font-size="10pt" font-weight="bold" fill="#000000" >E-field at Time Step 395</text>
    </g>
  </g>
</g>
<g id="ID000005" clip-path="url(#ID000001)" >
      <polyline fill="none" stroke="#000000" stroke-width="1.4pt" stroke-dasharray="none" points="196.445,370.922 198.378,370.922 200.310,370.922 202.243,370.922 204.176,370.922 206.108,370.922 208.041,370.922 209.974,370.922 211.906,370.922 213.839,370.922 215.772,370.922 217.704,370.922 219.637,370.922 221.570,370.922 223.502,370.922 225.435,370.922 227.368,370.922 229.300,370.922 231.233,370.922 233.166,370.922 235.098,370.922 237.031,370.922 238.964,370.922 240.896,370.922 242.829,370.922 244.762,370.922 246.694,370.922 248.627,370.922 250.560,370.922 252.492,370.922 254.425,370.922 256.358,370.922 258.290,370.922 260.223,370.922 262.155,370.922 264.088,370.922 266.021,370.922 267.953,370.922 269.886,370.922 271.819,370.922 273.751,370.922 275.684,370.922 277.617,370.922 279.549,370.922 281.482,370.922 283.415,370.922 285.347,370.922 287.280,370.922 289.213,370.922 291.145,370.922 293.078,370.922 295.011,370.922 296.943,370.922 298.876,370.922 300.809,370.922 302.741,370.924 304.674,370.929 306.607,370.945 308.539,370.989 310.472,371.106 312.405,371.384 314.337,371.993 316.270,373.209 318.202,375.420 320.135,379.075 322.068,384.538 324.000,391.870 325.933,400.614 327.866,409.693 329.798,417.559 331.731,422.599 333.664,423.671 335.596,420.521 337.529,413.883 339.462,405.201 341.394,396.119 343.327,387.985 345.260,381.567 347.192,377.041 349.125,374.162 351.058,372.503 352.990,371.633 354.923,371.217 356.856,371.034 358.788,370.962 360.721,370.935 362.654,370.926 364.586,370.923 366.519,370.922 368.452,370.922 370.384,370.922 372.317,370.922 374.250,370.922 376.182,370.922 378.115,370.922 380.048,370.922 381.980,370.922 383.913,370.922 385.845,370.922 387.778,370.922 389.711,370.922 391.643,370.922 393.576,370.922 395.509,370.923 397.441,370.926 399.374,370.935 401.307,370.961 403.239,371.034 405.172,371.217 407.105,371.633 409.037,372.503 410.970,374.162 412.903,377.040 414.835,381.567 416.768,387.985 418.701,396.119 420.633,405.201 422.566,413.883 424.499,420.521 426.431,423.671 428.364,422.599 430.297,417.559 432.229,409.693 434.162,400.614 436.095,391.870 438.027,384.538 439.960,379.075 441.892,375.420 443.825,373.209 445.758,371.993 447.690,371.384 449.623,371.106 451.556,370.989 453.488,370.945 455.421,370.929 457.354,370.924 459.286,370.922 461.219,370.922 463.152,370.922 465.084,370.922 467.017,370.922 468.950,370.922 470.882,370.922 472.815,370.922 474.748,370.922 476.680,370.922 478.613,370.922 480.546,370.922 482.478,370.922 484.411,370.922 486.344,370.922 488.276,370.922 490.209,370.922 492.142,370.922 494.074,370.922 496.007,370.922 497.940,370.922 499.872,370.922 501.805,370.922 503.738,370.922 505.670,370.922 507.603,370.922 509.535,370.922 511.468,370.922 513.401,370.922 515.333,370.922 517.266,370.922 519.199,370.922 521.131,370.922 523.064,370.922 524.997,370.921 526.929,370.921 528.862,370.919 530.795,370.916 532.727,370.907 534.660,370.890 536.593,370.852 538.525,370.777 540.458,370.631 542.391,370.361 544.323,369.884 546.256,369.077 548.189,367.775 550.121,365.777 552.054,362.875 553.987,358.896 555.919,353.779 557.852,347.664 559.785,340.963 561.717,334.395 563.650,328.920 565.582,325.583 567.515,325.248 569.448,328.322 571.380,334.538 573.313,342.931 575.246,352.048 577.178,360.339 579.111,366.622 581.044,370.402 582.976,371.930 584.909,371.969 586.842,371.408 588.774,370.901 590.707,370.711 592.640,370.776 594.572,370.910 596.505,370.978 598.438,370.963 600.370,370.921 602.303,370.902 604.236,370.911 606.168,370.926 608.101,370.930 610.034,370.924 611.966,370.919 613.899,370.919 615.832,370.923 617.764,370.923 619.697,370.921 621.630,370.919 623.562,370.917 625.495,370.913 627.428,370.901 629.360,370.874 631.293,370.820 633.225,370.715 635.158,370.516 637.091,370.155 639.023,369.531 640.956,368.499 642.889,366.876 644.821,364.452 646.754,361.027 648.687,356.477 650.619,350.828 652.552,344.349 654.485,337.607 656.417,331.455 658.350,326.922 660.283,325.001 662.215,326.359 664.148,331.082 666.081,338.546 668.013,347.499 669.946,356.384 671.879,363.781 673.811,368.826 675.744,371.408 677.677,372.078 679.609,371.276 681.542,370.594 683.475,370.205 685.407,369.663 687.340,368.819 689.273,367.814 691.205,366.726 693.138,365.553 695.070,364.344 697.003,363.172 698.936,362.087 700.868,361.135 702.801,360.361 704.734,359.793 706.666,359.448 708.599,359.329 710.532,359.429 712.464,359.728 714.397,360.200 716.330,360.814 718.262,361.536 720.195,362.331 722.128,363.166 724.060,364.012 725.993,364.843 727.926,365.639 729.858,366.384 731.791,367.069 733.724,367.685 735.656,368.230 737.589,368.702 739.522,369.099 741.454,369.415 743.387,369.640 745.320,369.748 747.252,369.705 749.185,369.470 751.117,369.022 753.050,368.387 754.983,367.682 756.915,367.121 758.848,366.960 760.781,367.382 762.713,368.356 764.646,369.588 766.579,370.640 768.511,371.183 770.444,371.207 772.377,370.986 774.309,370.829 776.242,370.843 778.175,370.923 780.107,370.950 782.040,370.925 783.973,370.910 785.905,370.922 787.838,370.930 789.771,370.923 791.703,370.915 793.636,370.915 795.569,370.915 797.501,370.915 799.434,370.915 801.367,370.915 803.299,370.915 805.232,370.915 807.165,370.915 809.097,370.915 811.030,370.915 812.962,370.915 814.895,370.915 816.828,370.915 818.760,370.915 820.693,370.915 822.626,370.915 824.558,370.915 826.491,370.915 828.424,370.915 830.356,370.915 832.289,370.915 834.222,370.915 836.154,370.915 838.087,370.915 840.020,370.915 841.952,370.915 843.885,370.915 845.818,370.915 847.750,370.915 849.683,370.915 851.616,370.915 853.548,370.915 855.481,370.915 857.414,370.915 859.346,370.915 861.279,370.915 863.212,370.915 865.144,370.915 867.077,370.915 869.010,370.915 870.942,370.915 872.875,370.915 874.808,370.915 876.740,370.915 878.673,370.915 880.605,370.915 882.538,370.915 884.471,370.915 886.403,370.915 888.336,370.915 890.269,370.915 892.201,370.915 894.134,370.915 896.067,370.915 897.999,370.915 899.932,370.915 901.865,370.915 903.797,370.915 905.730,370.915 907.663,370.915 909.595,370.915 911.528,370.915 913.461,370.915 915.393,370.915 917.326,370.915 919.259,370.915 921.191,370.915 923.124,370.915 925.057,370.915 926.989,370.915 928.922,370.915 930.855,370.915 932.787,370.915 934.720,370.915 936.653,370.915 938.585,370.915 940.518,370.915 942.450,370.915 944.383,370.915 946.316,370.915 948.248,370.915 950.181,370.915 952.114,370.915 954.046,370.915 955.979,370.915 957.912,370.915 959.844,370.915 961.777,370.915 963.710,370.915 965.642,370.915 967.575,370.915 969.508,370.915 971.440,370.915 973.373,370.915 975.306,370.915 977.238,370.915 979.171,370.915 981.104,370.915 983.036,370.915 984.969,370.915 986.902,370.915 988.834,370.915 990.767,370.915 992.700,370.915 994.632,370.915 996.565,370.915 998.497,370.915 1000.430,370.915 1002.363,370.915 1004.295,370.915 1006.228,370.915 1008.161,370.915 1010.093,370.915 1012.026,370.915 1013.959,370.915 1015.891,370.915 1017.824,370.915 1019.757,370.915 1021.689,370.915 1023.622,370.915 1025.555,370.915 1027.487,370.915 1029.420,370.915 1031.353,370.915 1033.285,370.915 1035.218,370.915 1037.151,370.915 1039.083,370.915 1041.016,370.915 1042.949,370.915 1044.881,370.915 1046.814,370.915 1048.747,370.915 1050.679,370.915 1052.612,370.915 1054.545,370.915 1056.477,370.915 1058.410,370.915 1060.343,370.915 1062.275,370.915 1064.208,370.915 1066.140,370.915 1068.073,370.915 1070.006,370.915 1071.938,370.915 1073.871,370.915 1075.804,370.915 1077.736,370.915 1079.669,370.915 1081.602,370.915 1083.534,370.915 1085.467,370.915 1087.400,370.915 1089.332,370.915 1091.265,370.915 1093.198,370.915 1095.130,370.915 1097.063,370.915 1098.996,370.915 1100.928,370.915 1102.861,370.915 1104.794,370.915 1106.726,370.915 1108.659,370.915 1110.592,370.915 1112.524,370.915 1114.457,370.915 1116.390,370.915 1118.322,370.915 1120.255,370.915 1122.188,370.915 1124.120,370.915 1126.053,370.915 1127.985,370.915 1129.918,370.915 1131.851,370.915 1133.783,370.915 1135.716,370.915 1137.649,370.915 1139.581,370.915 1141.514,370.915 1143.447,370.915 1145.379,370.915 1147.312,370.915 1149.245,370.915 1151.177,370.915 1153.110,370.915 1155.043,370.915 1156.975,370.915 1158.908,370.915 1160.841,370.915 1162.773,370.915 1164.706,370.915 1166.639,370.915 1168.571,370.915 1170.504,370.915 1172.437,370.915 1174.369,370.915 1176.302,370.915 1178.235,370.915 1180.167,370.915 1182.100,370.915 1184.033,370.915 1185.965,370.915 1187.898,370.915 1189.830,370.915 1191.763,370.915 1193.696,370.915 1195.628,370.915 1197.561,370.915 1199.494,370.915 1201.426,370.915 1203.359,370.915 1205.292,370.915 1207.224,370.915 1209.157,370.915 1211.090,370.915 1213.022,370.915 1214.955,370.915 1216.888,370.915 1218.820,370.915 1220.753,370.915 1222.686,370.915 1224.618,370.915 1226.551,370.915 1228.484,370.915 1230.416,370.915 1232.349,370.915 1234.282,370.915 1236.214,370.915 1238.147,370.915 1240.080,370.915 1242.012,370.915 1243.945,370.915 1245.878,370.915 1247.810,370.915 1249.743,370.915 1251.675,370.915 1253.608,370.915 1255.541,370.915 1257.473,370.915 1259.406,370.915 1261.339,370.915 1263.271,370.915 1265.204,370.915 1267.137,370.915 1269.069,370.915 1271.002,370.915 1272.935,370.915 1274.867,370.915 1276.800,370.915 1278.733,370.915 1280.665,370.915 1282.598,370.915 1284.531,370.915 1286.463,370.915 1288.396,370.915 1290.329,370.915 1292.261,370.915 1294.194,370.915 1296.127,370.915 1298.059,370.915 1299.992,370.915 1301.925,370.915 1303.857,370.915 1305.790,370.915 1307.723,370.915 1309.655,370.915 1311.588,370.915 1313.520,370.915 1315.453,370.915 1317.386,370.915 1319.318,370.915 1321.251,370.915 1323.184,370.915 1325.116,370.915 1327.049,370.915 1328.982,370.915 1330.914,370.915 1332.847,370.915 1334.780,370.915 1336.712,370.915 1338.645,370.915 1340.578,370.915 1342.510,370.915 1344.443,370.915 1346.376,370.915 1348.308,370.915 1350.241,370.915 1352.174,370.915 1354.106,370.913 "/>
<g>
</g>
</g>
<g id="ID000006" clip-path="url(#ID000001)" >
      <polyline fill="none" stroke="#000000" stroke-width="0.5pt" stroke-dasharray="none" points="677.677,684.188 677.677,57.656 "/>
<g>
</g>
</g>
<g id="ID000007" clip-path="url(#ID000001)" >
      <polyline fill="none" stroke="#000000" stroke-width="0.5pt" stroke-dasharray="none" points="791.703,684.188 791.703,57.656 "/>
<g>
</g>
</g>
<g id="ID000008" clip-path="url(#ID000001)" >
      <polyline fill="none" stroke="#d85218" stroke-width="0.5pt" stroke-dasharray="none" points="196.445,370.922 198.378,370.922 200.310,370.922 202.243,370.922 204.176,370.922 206.108,370.922 208.041,370.922 209.974,370.922 211.906,370.922 213.839,370.922 215.772,370.922 217.704,370.922 219.637,370.922 221.570,370.922 223.502,370.922 225.435,370.922 227.368,370.922 229.300,370.922 231.233,370.922 233.166,370.922 235.098,370.922 237.031,370.922 238.964,370.922 240.896,370.922 242.829,370.922 244.762,370.922 246.694,370.922 248.627,370.922 250.560,370.922 252.492,370.922 254.425,370.922 256.358,370.922 258.290,370.922 260.223,370.922 262.155,370.922 264.088,370.922 266.021,370.922 267.953,370.922 269.886,370.922 271.819,370.922 273.751,370.922 275.684,370.922 277.617,370.922 279.549,370.922 281.482,370.922 283.415,370.922 285.347,370.922 287.280,370.922 289.213,370.922 291.145,370.922 293.078,370.922 295.011,370.922 296.943,370.922 298.876,370.922 300.809,370.922 302.741,370.924 304.674,370.929 306.607,370.945 308.539,370.989 310.472,371.106 312.405,371.384 314.337,371.993 316.270,373.209 318.202,375.420 320.135,379.075 322.068,384.538 324.000,391.870 325.933,400.614 327.866,409.693 329.798,417.559 331.731,422.599 333.664,423.671 335.596,420.521 337.529,413.883 339.462,405.201 341.394,396.119 343.327,387.985 345.260,381.567 347.192,377.041 349.125,374.162 351.058,372.503 352.990,371.633 354.923,371.217 356.856,371.034 358.788,370.962 360.721,370.935 362.654,370.926 364.586,370.923 366.519,370.922 368.452,370.922 370.384,370.922 372.317,370.922 374.250,370.922 376.182,370.922 378.115,370.922 380.048,370.922 381.980,370.922 383.913,370.922 385.845,370.922 387.778,370.922 389.711,370.922 391.643,370.922 393.576,370.922 395.509,370.923 397.441,370.926 399.374,370.935 401.307,370.961 403.239,371.034 405.172,371.217 407.105,371.633 409.037,372.503 410.970,374.162 412.903,377.040 414.835,381.567 416.768,387.985 418.701,396.119 420.633,405.201 422.566,413.883 424.499,420.521 426.431,423.671 428.364,422.599 430.297,417.559 432.229,409.693 434.162,400.614 436.095,391.870 438.027,384.538 439.960,379.075 441.892,375.420 443.825,373.209 445.758,371.993 447.690,371.384 449.623,371.106 451.556,370.989 453.488,370.945 455.421,370.929 457.354,370.924 459.286,370.922 461.219,370.922 463.152,370.922 465.084,370.922 467.017,370.922 468.950,370.922 470.882,370.922 472.815,370.922 474.748,370.922 476.680,370.922 478.613,370.922 480.546,370.922 482.478,370.922 484.411,370.922 486.344,370.922 488.276,370.922 490.209,370.922 492.142,370.922 494.074,370.922 496.007,370.922 497.940,370.922 499.872,370.922 501.805,370.922 503.738,370.922 505.670,370.922 507.603,370.922 509.535,370.922 511.468,370.922 513.401,370.922 515.333,370.922 517.266,370.922 519.199,370.922 521.131,370.922 523.064,370.922 524.997,370.921 526.929,370.921 528.862,370.919 530.795,370.916 532.727,370.907 534.660,370.890 536.593,370.852 538.525,370.777 540.458,370.631 542.391,370.361 544.323,369.884 546.256,369.077 548.189,367.775 550.121,365.777 552.054,362.875 553.987,358.896 555.919,353.779 557.852,347.664 559.785,340.963 561.717,334.395 563.650,328.920 565.582,325.583 567.515,325.248 569.448,328.322 571.380,334.538 573.313,342.931 575.246,352.048 577.178,360.339 579.111,366.622 581.044,370.402 582.976,371.930 584.909,371.969 586.842,371.408 588.774,370.901 590.707,370.711 592.640,370.776 594.572,370.910 596.505,370.978 598.438,370.963 600.370,370.921 602.303,370.902 604.236,370.911 606.168,370.926 608.101,370.930 610.034,370.924 611.966,370.919 613.899,370.919 615.832,370.923 617.764,370.923 619.697,370.921 621.630,370.919 623.562,370.917 625.495,370.913 627.428,370.901 629.360,370.874 631.293,370.820 633.225,370.715 635.158,370.516 637.091,370.155 639.023,369.531 640.956,368.499 642.889,366.876 644.821,364.452 646.754,361.027 648.687,356.477 650.619,350.828 652.552,344.349 654.485,337.607 656.417,331.455 658.350,326.922 660.283,325.001 662.215,326.359 664.148,331.082 666.081,338.546 668.013,347.499 669.946,356.384 671.879,363.781 673.811,368.826 675.744,371.408 677.677,372.078 679.609,371.276 681.542,370.594 683.475,370.205 685.407,369.663 687.340,368.819 689.273,367.814 691.205,366.726 693.138,365.553 695.070,364.344 697.003,363.172 698.936,362.087 700.868,361.135 702.801,360.361 704.734,359.793 706.666,359.448 708.599,359.329 710.532,359.429 712.464,359.728 714.397,360.200 716.330,360.814 718.262,361.536 720.195,362.331 722.128,363.166 724.060,364.012 725.993,364.843 727.926,365.639 729.858,366.384 731.791,367.069 733.724,367.685 735.656,368.230 737.589,368.702 739.522,369.099 741.454,369.415 743.387,369.640 745.320,369.748 747.252,369.705 749.185,369.470 751.117,369.022 753.050,368.387 754.983,367.682 756.915,367.121 758.848,366.960 760.781,367.382 762.713,368.356 764.646,369.588 766.579,370.640 768.511,371.183 770.444,371.207 772.377,370.986 774.309,370.829 776.242,370.843 778.175,370.923 780.107,370.950 782.040,370.925 783.973,370.910 785.905,370.922 787.838,370.930 789.771,370.923 791.703,370.915 793.636,370.915 795.569,370.915 797.501,370.915 799.434,370.915 801.367,370.915 803.299,370.915 805.232,370.915 807.165,370.915 809.097,370.915 811.030,370.915 812.962,370.915 814.895,370.915 816.828,370.915 818.760,370.915 820.693,370.915 822.626,370.915 824.558,370.915 826.491,370.915 828.424,370.915 830.356,370.915 832.289,370.915 834.222,370.915 836.154,370.915 838.087,370.915 840.020,370.915 841.952,370.915 843.885,370.915 845.818,370.915 847.750,370.915 849.683,370.915 851.616,370.915 853.548,370.915 855.481,370.915 857.414,370.915 859.346,370.915 861.279,370.915 863.212,370.915 865.144,370.915 867.077,370.915 869.010,370.915 870.942,370.915 872.875,370.915 874.808,370.915 876.740,370.915 878.673,370.915 880.605,370.915 882.538,370.915 884.471,370.915 886.403,370.915 888.336,370.915 890.269,370.915 892.201,370.915 894.134,370.915 896.067,370.915 897.999,370.915 899.932,370.915 901.865,370.915 903.797,370.915 905.730,370.915 907.663,370.915 909.595,370.915 911.528,370.915 913.461,370.915 915.393,370.915 917.326,370.915 919.259,370.915 921.191,370.915 923.124,370.915 925.057,370.915 926.989,370.915 928.922,370.915 930.855,370.915 932.787,370.915 934.720,370.915 936.653,370.915 938.585,370.915 940.518,370.915 942.450,370.915 944.383,370.915 946.316,370.915 948.248,370.915 950.181,370.915 952.114,370.915 954.046,370.915 955.979,370.915 957.912,370.915 959.844,370.915 961.777,370.915 963.710,370.915 965.642,370.915 967.575,370.915 969.508,370.915 971.440,370.915 973.373,370.915 975.306,370.915 977.238,370.915 979.171,370.915 981.104,370.915 983.036,370.915 984.969,370.915 986.902,370.915 988.834,370.915 990.767,370.915 992.700,370.915 994.632,370.915 996.565,370.915 998.497,370.915 1000.430,370.915 1002.363,370.915 1004.295,370.915 1006.228,370.915 1008.161,370.915 1010.093,370.915 1012.026,370.915 1013.959,370.915 1015.891,370.915 1017.824,370.915 1019.757,370.915 1021.689,370.915 1023.622,370.915 1025.555,370.915 1027.487,370.915 1029.420,370.915 1031.353,370.915 1033.285,370.915 1035.218,370.915 1037.151,370.915 1039.083,370.915 1041.016,370.915 1042.949,370.915 1044.881,370.915 1046.814,370.915 1048.747,370.915 1050.679,370.915 1052.612,370.915 1054.545,370.915 1056.477,370.915 1058.410,370.915 1060.343,370.915 1062.275,370.915 1064.208,370.915 1066.140,370.915 1068.073,370.915 1070.006,370.915 1071.938,370.915 1073.871,370.915 1075.804,370.915 1077.736,370.915 1079.669,370.915 1081.602,370.915 1083.534,370.915 1085.467,370.915 1087.400,370.915 1089.332,370.915 1091.265,370.915 1093.198,370.915 1095.130,370.915 1097.063,370.915 1098.996,370.915 1100.928,370.915 1102.861,370.915 1104.794,370.915 1106.726,370.915 1108.659,370.915 1110.592,370.915 1112.524,370.915 1114.457,370.915 1116.390,370.915 1118.322,370.915 1120.255,370.915 1122.188,370.915 1124.120,370.915 1126.053,370.915 1127.985,370.915 1129.918,370.915 1131.851,370.915 1133.783,370.915 1135.716,370.915 1137.649,370.915 1139.581,370.915 1141.514,370.915 1143.447,370.915 1145.379,370.915 1147.312,370.915 1149.245,370.915 1151.177,370.915 1153.110,370.915 1155.043,370.915 1156.975,370.915 1158.908,370.915 1160.841,370.915 1162.773,370.915 1164.706,370.915 1166.639,370.915 1168.571,370.915 1170.504,370.915 1172.437,370.915 1174.369,370.915 1176.302,370.915 1178.235,370.915 1180.167,370.915 1182.100,370.915 1184.033,370.915 1185.965,370.915 1187.898,370.915 1189.830,370.915 1191.763,370.915 1193.696,370.915 1195.628,370.915 1197.561,370.915 1199.494,370.915 1201.426,370.915 1203.359,370.915 1205.292,370.915 1207.224,370.915 1209.157,370.915 1211.090,370.915 1213.022,370.915 1214.955,370.915 1216.888,370.915 1218.820,370.915 1220.753,370.915 1222.686,370.915 1224.618,370.915 1226.551,370.915 1228.484,370.915 1230.416,370.915 1232.349,370.915 1234.282,370.915 1236.214,370.915 1238.147,370.915 1240.080,370.915 1242.012,370.915 1243.945,370.915 1245.878,370.915 1247.810,370.915 1249.743,370.915 1251.675,370.915 1253.608,370.915 1255.541,370.915 1257.473,370.915 1259.406,370.915 1261.339,370.915 1263.271,370.915 1265.204,370.915 1267.137,370.915 1269.069,370.915 1271.002,370.915 1272.935,370.915 1274.867,370.915 1276.800,370.915 1278.733,370.915 1280.665,370.915 1282.598,370.915 1284.531,370.915 1286.463,370.915 1288.396,370.915 1290.329,370.915 1292.261,370.915 1294.194,370.915 1296.127,370.915 1298.059,370.915 1299.992,370.915 1301.925,370.915 1303.857,370.915 1305.790,370.915 1307.723,370.915 1309.655,370.915 1311.588,370.915 1313.520,370.915 1315.453,370.915 1317.386,370.915 1319.318,370.915 1321.251,370.915 1323.184,370.915 1325.116,370.915 1327.049,370.915 1328.982,370.915 1330.914,370.915 1332.847,370.915 1334.780,370.915 1336.712,370.915 1338.645,370.915 1340.578,370.915 1342.510,370.915 1344.443,370.915 1346.376,370.915 1348.308,370.915 1350.241,370.915 1352.174,370.915 1354.106,370.913 "/>
<g>
</g>
</g>
    </g>
    <g>
      <polyline fill="none" stroke="#262626" stroke-width="0.5pt" stroke-dasharray="none" points="194.513,684.188 194.513,672.592 "/>
      <polyline fill="none" stroke="#262626" stroke-width="0.5pt" stroke-dasharray="none" points="387.778,684.188 387.778,672.592 "/>
      <polyline fill="none" stroke="#262626" stroke-width="0.5pt" stroke-dasharray="none" points="581.044,684.188 581.044,672.592 "/>
      <polyline fill="none" stroke="#262626" stroke-width="0.5pt" stroke-dasharray="none" points="774.309,684.188 774.309,672.592 "/>
      <polyline fill="none" stroke="#262626" stroke-width="0.5pt" stroke-dasharray="none" points="967.575,684.188 967.575,672.592 "/>
      <polyline fill="none" stroke="#262626" stroke-width="0.5pt" stroke-dasharray="none" points="1160.841,684.188 1160.841,672.592 "/>
      <polyline fill="none" stroke="#262626" stroke-width="0.5pt" stroke-dasharray="none" points="1354.106,684.188 1354.106,672.592 "/>
      <polyline fill="none" stroke="#262626" stroke-width="0.5pt" stroke-dasharray="none" points="194.513,684.188 1354.106,684.188 "/>
  <g transform="translate(194.513,707.781)">
    <g transform="rotate(-0.0)">
      <text x="0.000" y="0.000" font-family="times new roman" text-anchor="middle" font-size="9pt" fill="#262626" >0</text>
    </g>
  </g>
  <g transform="translate(387.778,707.781)">
    <g transform="rotate(-0.0)">
      <text x="0.000" y="0.000" font-family="times new roman" text-anchor="middle" font-size="9pt" fill="#262626" >100</text>
    </g>
  </g>
  <g transform="translate(581.044,707.781)">
    <g transform="rotate(-0.0)">
      <text x="0.000" y="0.000" font-family="times new roman" text-anchor="middle" font-size="9pt" fill="#262626" >200</text>
    </g>
  </g>
  <g transform="translate(774.309,707.781)">
    <g transform="rotate(-0.0)">
      <text x="0.000" y="0.000" font-family="times new roman" text-anchor="middle" font-size="9pt" fill="#262626" >300</text>
    </g>
  </g>
  <g transform="translate(967.575,707.781)">
    <g transform="rotate(-0.0)">
      <text x="0.000" y="0.000" font-family="times new roman" text-anchor="middle" font-size="9pt" fill="#262626" >400</text>
    </g>
  </g>
  <g transform="translate(1160.841,707.781)">
    <g transform="rotate(-0.0)">
      <text x="0.000" y="0.000" font-family="times new roman" text-anchor="middle" font-size="9pt" fill="#262626" >500</text>
    </g>
  </g>
  <g transform="translate(1354.106,707.781)">
    <g transform="rotate(-0.0)">
      <text x="0.000" y="0.000" font-family="times new roman" text-anchor="middle" font-size="9pt" fill="#262626" >600</text>
    </g>
  </g>
      <polyline fill="none" stroke="#262626" stroke-width="0.5pt" stroke-dasharray="none" points="194.513,684.188 206.108,684.188 "/>
      <polyline fill="none" stroke="#262626" stroke-width="0.5pt" stroke-dasharray="none" points="194.513,621.534 206.108,621.534 "/>
      <polyline fill="none" stroke="#262626" stroke-width="0.5pt" stroke-dasharray="none" points="194.513,558.881 206.108,558.881 "/>
      <polyline fill="none" stroke="#262626" stroke-width="0.5pt" stroke-dasharray="none" points="194.513,496.228 206.108,496.228 "/>
      <polyline fill="none" stroke="#262626" stroke-width="0.5pt" stroke-dasharray="none" points="194.513,433.575 206.108,433.575 "/>
      <polyline fill="none" stroke="#262626" stroke-width="0.5pt" stroke-dasharray="none" points="194.513,370.922 206.108,370.922 "/>
      <polyline fill="none" stroke="#262626" stroke-width="0.5pt" stroke-dasharray="none" points="194.513,308.269 206.108,308.269 "/>
      <polyline fill="none" stroke="#262626" stroke-width="0.5pt" stroke-dasharray="none" points="194.513,245.616 206.108,245.616 "/>
      <polyline fill="none" stroke="#262626" stroke-width="0.5pt" stroke-dasharray="none" points="194.513,182.962 206.108,182.962 "/>
      <polyline fill="none" stroke="#262626" stroke-width="0.5pt" stroke-dasharray="none" points="194.513,120.309 206.108,120.309 "/>
      <polyline fill="none" stroke="#262626" stroke-width="0.5pt" stroke-dasharray="none" points="194.513,57.656 206.108,57.656 "/>
      <polyline fill="none" stroke="#262626" stroke-width="0.5pt" stroke-dasharray="none" points="194.513,684.188 194.513,57.656 "/>
  <g transform="translate(171.321,688.406)">
    <g transform="rotate(-0.0)">
      <text x="0.000" y="0.000" font-family="times new roman" text-anchor="end" font-size="9pt" fill="#262626" >-1</text>
    </g>
  </g>
  <g transform="translate(171.321,625.753)">
    <g transform="rotate(-0.0)">
      <text x="0.000" y="0.000" font-family="times new roman" text-anchor="end" font-size="9pt" fill="#262626" >-0.8</text>
    </g>
  </g>
  <g transform="translate(171.321,563.100)">
    <g transform="rotate(-0.0)">
      <text x="0.000" y="0.000" font-family="times new roman" text-anchor="end" font-size="9pt" fill="#262626" >-0.6</text>
    </g>
  </g>
  <g transform="translate(171.321,500.447)">
    <g transform="rotate(-0.0)">
      <text x="0.000" y="0.000" font-family="times new roman" text-anchor="end" font-size="9pt" fill="#262626" >-0.4</text>
    </g>
  </g>
  <g transform="translate(171.321,437.794)">
    <g transform="rotate(-0.0)">
      <text x="0.000" y="0.000" font-family="times new roman" text-anchor="end" font-size="9pt" fill="#262626" >-0.2</text>
    </g>
  </g>
  <g transform="translate(171.321,375.141)">
    <g transform="rotate(-0.0)">
      <text x="0.000" y="0.000" font-family="times new roman" text-anchor="end" font-size="9pt" fill="#262626" >0</text>
    </g>
  </g>
  <g transform="translate(171.321,312.487)">
    <g transform="rotate(-0.0)">
      <text x="0.000" y="0.000" font-family="times new roman" text-anchor="end" font-size="9pt" fill="#262626" >0.2</text>
    </g>
  </g>
  <g transform="translate(171.321,249.834)">
    <g transform="rotate(-0.0)">
      <text x="0.000" y="0.000" font-family="times new roman" text-anchor="end" font-size="9pt" fill="#262626" >0.4</text>
    </g>
  </g>
  <g transform="translate(171.321,187.181)">
    <g transform="rotate(-0.0)">
      <text x="0.000" y="0.000" font-family="times new roman" text-anchor="end" font-size="9pt" fill="#262626" >0.6</text>
    </g>
  </g>
  <g transform="translate(171.321,124.528)">
    <g transform="rotate(-0.0)">
      <text x="0.000" y="0.000" font-family="times new roman" text-anchor="end" font-size="9pt" fill="#262626" >0.8</text>
    </g>
  </g>
  <g transform="translate(171.321,61.875)">
    <g transform="rotate(-0.0)">
      <text x="0.000" y="0.000" font-family="times new roman" text-anchor="end" font-size="9pt" fill="#262626" >1</text>
    </g>
  </g>
      <polyline fill="none" stroke="#262626" stroke-width="0.5pt" stroke-dasharray="none" points="194.513,684.188 194.513,677.922 "/>
      <polyline fill="none" stroke="#262626" stroke-width="0.5pt" stroke-dasharray="none" points="194.513,684.188 194.513,677.922 "/>
      <polyline fill="none" stroke="#262626" stroke-width="0.5pt" stroke-dasharray="none" points="194.513,684.187 194.513,677.922 "/>
      <polyline fill="none" stroke="#262626" stroke-width="0.5pt" stroke-dasharray="none" points="194.513,684.188 194.513,684.187 "/>
    </g>
  </g>
  </g>
</svg>
