<?xml version="1.0" encoding="utf-8" standalone="no"?><!DOCTYPE svg PUBLIC "-//W3C//DTD SVG 1.1//EN" "http://www.w3.org/Graphics/SVG/1.1/DTD/svg11.dtd">
<svg preserveAspectRatio="xMinYMin meet" width="100%" height="100%" viewBox="0 0 1496.250 768.750"  version="1.1" xmlns="http://www.w3.org/2000/svg" xmlns:xlink="http://www.w3.org/1999/xlink">
  <desc>Matlab Figure Converted by PLOT2SVG written by Juerg Schwizer</desc>
  <g id="topgroup">
  <rect x="0" y="0" width="1496.250" height="768.750" fill="#ffffff" stroke="none" />
  <g id ="ID000000">
  <clipPath id="ID000001">
    <rect x="194.513" y="57.656" width="1159.594" height="626.531"/>
  </clipPath>
      <polygon fill="#ffffff" fill-opacity="1.00" stroke="none" stroke-width="0.5pt" stroke-opacity="1.00" stroke-dasharray="none" points="194.513,684.188 1354.106,684.188 1354.106,57.656 194.513,57.656 "/>
      <polygon fill="#ffffff" fill-opacity="1.00" stroke="none" stroke-width="0.5pt" stroke-opacity="1.00" stroke-dasharray="none" points="194.513,57.656 1354.106,57.656 1354.106,57.656 194.513,57.656 "/>
      <polygon fill="#ffffff" fill-opacity="1.00" stroke="none" stroke-width="0.5pt" stroke-opacity="1.00" stroke-dasharray="none" points="194.513,684.188 194.513,684.187 194.513,57.656 194.513,57.656 "/>
    <g>
<g id="ID000002" >
</g>
<g id="ID000003" >
</g>
<g id="ID000004" >
  <g transform="translate(774.310,52.503)">
    <g transform="rotate(-0.0)">
      <text x="0.000" y="0.000" font-family="times new roman" text-anchor="middle" font-size="10pt" font-weight="bold" fill="#000000" >E-field at Time Step 215</text>
    </g>
  </g>
</g>
<g id="ID000005" clip-path="url(#ID000001)" >
      <polyline fill="none" stroke="#000000" stroke-width="1.4pt" stroke-dasharray="none" points="196.445,370.922 198.378,370.922 200.310,370.922 202.243,370.922 204.176,370.922 206.108,370.922 208.041,370.922 209.974,370.922 211.906,370.922 213.839,370.922 215.772,370.922 217.704,370.922 219.637,370.922 221.570,370.922 223.502,370.922 225.435,370.922 227.368,370.922 229.300,370.922 231.233,370.922 233.166,370.922 235.098,370.922 237.031,370.922 238.964,370.922 240.896,370.922 242.829,370.922 244.762,370.922 246.694,370.922 248.627,370.922 250.560,370.922 252.492,370.922 254.425,370.922 256.358,370.922 258.290,370.922 260.223,370.922 262.155,370.922 264.088,370.922 266.021,370.922 267.953,370.922 269.886,370.922 271.819,370.922 273.751,370.922 275.684,370.922 277.617,370.922 279.549,370.922 281.482,370.922 283.415,370.922 285.347,370.922 287.280,370.922 289.213,370.922 291.145,370.922 293.078,370.922 295.011,370.922 296.943,370.922 298.876,370.922 300.809,370.922 302.741,370.922 304.674,370.922 306.607,370.922 308.539,370.922 310.472,370.922 312.405,370.922 314.337,370.922 316.270,370.922 318.202,370.922 320.135,370.922 322.068,370.922 324.000,370.922 325.933,370.922 327.866,370.922 329.798,370.922 331.731,370.922 333.664,370.922 335.596,370.922 337.529,370.922 339.462,370.922 341.394,370.922 343.327,370.922 345.260,370.922 347.192,370.922 349.125,370.922 351.058,370.922 352.990,370.922 354.923,370.922 356.856,370.922 358.788,370.922 360.721,370.922 362.654,370.922 364.586,370.922 366.519,370.922 368.452,370.922 370.384,370.922 372.317,370.922 374.250,370.922 376.182,370.922 378.115,370.922 380.048,370.922 381.980,370.922 383.913,370.922 385.845,370.922 387.778,370.922 389.711,370.922 391.643,370.922 393.576,370.922 395.509,370.922 397.441,370.922 399.374,370.922 401.307,370.922 403.239,370.922 405.172,370.922 407.105,370.922 409.037,370.922 410.970,370.922 412.903,370.922 414.835,370.922 416.768,370.922 418.701,370.922 420.633,370.922 422.566,370.922 424.499,370.922 426.431,370.922 428.364,370.922 430.297,370.922 432.229,370.922 434.162,370.922 436.095,370.922 438.027,370.922 439.960,370.922 441.892,370.922 443.825,370.922 445.758,370.922 447.690,370.922 449.623,370.922 451.556,370.922 453.488,370.922 455.421,370.922 457.354,370.922 459.286,370.922 461.219,370.922 463.152,370.922 465.084,370.922 467.017,370.922 468.950,370.922 470.882,370.922 472.815,370.922 474.748,370.922 476.680,370.924 478.613,370.929 480.546,370.945 482.478,370.989 484.411,371.106 486.344,371.384 488.276,371.993 490.209,373.209 492.142,375.420 494.074,379.075 496.007,384.538 497.940,391.870 499.872,400.614 501.805,409.693 503.738,417.559 505.670,422.599 507.603,423.671 509.535,420.521 511.468,413.883 513.401,405.201 515.333,396.119 517.266,387.985 519.199,381.567 521.131,377.041 523.064,374.162 524.997,372.503 526.929,371.633 528.862,371.217 530.795,371.034 532.727,370.962 534.660,370.935 536.593,370.926 538.525,370.923 540.458,370.922 542.391,370.922 544.323,370.922 546.256,370.922 548.189,370.922 550.121,370.922 552.054,370.922 553.987,370.922 555.919,370.922 557.852,370.922 559.785,370.922 561.717,370.922 563.650,370.922 565.582,370.922 567.515,370.922 569.448,370.923 571.380,370.926 573.313,370.935 575.246,370.961 577.178,371.034 579.111,371.217 581.044,371.633 582.976,372.503 584.909,374.162 586.842,377.040 588.774,381.567 590.707,387.985 592.640,396.119 594.572,405.201 596.505,413.883 598.438,420.521 600.370,423.671 602.303,422.599 604.236,417.559 606.168,409.693 608.101,400.614 610.034,391.870 611.966,384.538 613.899,379.075 615.832,375.420 617.764,373.209 619.697,371.993 621.630,371.384 623.562,371.106 625.495,370.989 627.428,370.945 629.360,370.929 631.293,370.924 633.225,370.922 635.158,370.922 637.091,370.922 639.023,370.922 640.956,370.922 642.889,370.922 644.821,370.922 646.754,370.922 648.687,370.922 650.619,370.922 652.552,370.922 654.485,370.922 656.417,370.922 658.350,370.922 660.283,370.922 662.215,370.922 664.148,370.922 666.081,370.922 668.013,370.922 669.946,370.922 671.879,370.922 673.811,370.922 675.744,370.922 677.677,370.922 679.609,370.922 681.542,370.922 683.475,370.922 685.407,370.922 687.340,370.922 689.273,370.922 691.205,370.922 693.138,370.921 695.070,370.919 697.003,370.911 698.936,370.885 700.868,370.808 702.801,370.601 704.734,370.090 706.666,368.958 708.599,366.718 710.532,362.804 712.464,356.880 714.397,349.344 716.330,341.774 718.262,336.786 720.195,336.910 722.128,342.872 724.060,352.608 725.993,362.226 727.926,368.542 729.858,370.991 731.791,371.190 733.724,370.930 735.656,370.882 737.589,370.926 739.522,370.928 741.454,370.919 743.387,370.922 745.320,370.923 747.252,370.922 749.185,370.922 751.117,370.922 753.050,370.922 754.983,370.922 756.915,370.921 758.848,370.918 760.781,370.906 762.713,370.867 764.646,370.747 766.579,370.415 768.511,369.598 770.444,367.819 772.377,364.434 774.309,358.905 776.242,351.364 778.175,343.222 780.107,337.195 782.040,336.162 783.973,341.204 785.905,350.403 787.838,359.849 789.771,366.284 791.703,368.928 793.636,368.928 795.569,368.928 797.501,368.928 799.434,368.928 801.367,368.928 803.299,368.928 805.232,368.928 807.165,368.928 809.097,368.928 811.030,368.928 812.962,368.928 814.895,368.928 816.828,368.928 818.760,368.928 820.693,368.928 822.626,368.928 824.558,368.928 826.491,368.928 828.424,368.928 830.356,368.928 832.289,368.928 834.222,368.928 836.154,368.928 838.087,368.928 840.020,368.928 841.952,368.928 843.885,368.928 845.818,368.928 847.750,368.928 849.683,368.928 851.616,368.928 853.548,368.928 855.481,368.928 857.414,368.928 859.346,368.928 861.279,368.928 863.212,368.928 865.144,368.928 867.077,368.928 869.010,368.928 870.942,368.928 872.875,368.928 874.808,368.928 876.740,368.928 878.673,368.928 880.605,368.928 882.538,368.928 884.471,368.928 886.403,368.928 888.336,368.928 890.269,368.928 892.201,368.928 894.134,368.928 896.067,368.928 897.999,368.928 899.932,368.928 901.865,368.928 903.797,368.928 905.730,368.928 907.663,368.928 909.595,368.928 911.528,368.928 913.461,368.928 915.393,368.928 917.326,368.928 919.259,368.928 921.191,368.928 923.124,368.928 925.057,368.928 926.989,368.928 928.922,368.928 930.855,368.928 932.787,368.928 934.720,368.928 936.653,368.928 938.585,368.928 940.518,368.928 942.450,368.928 944.383,368.928 946.316,368.928 948.248,368.928 950.181,368.928 952.114,368.928 954.046,368.928 955.979,368.928 957.912,368.928 959.844,368.928 961.777,368.928 963.710,368.928 965.642,368.928 967.575,368.928 969.508,368.928 971.440,368.928 973.373,368.928 975.306,368.928 977.238,368.928 979.171,368.928 981.104,368.928 983.036,368.928 984.969,368.928 986.902,368.928 988.834,368.928 990.767,368.928 992.700,368.928 994.632,368.928 996.565,368.928 998.497,368.928 1000.430,368.928 1002.363,368.928 1004.295,368.928 1006.228,368.928 1008.161,368.928 1010.093,368.928 1012.026,368.928 1013.959,368.928 1015.891,368.928 1017.824,368.928 1019.757,368.928 1021.689,368.928 1023.622,368.928 1025.555,368.928 1027.487,368.928 1029.420,368.928 1031.353,368.928 1033.285,368.928 1035.218,368.928 1037.151,368.928 1039.083,368.928 1041.016,368.928 1042.949,368.928 1044.881,368.928 1046.814,368.928 1048.747,368.928 1050.679,368.928 1052.612,368.928 1054.545,368.928 1056.477,368.928 1058.410,368.928 1060.343,368.928 1062.275,368.928 1064.208,368.928 1066.140,368.928 1068.073,368.928 1070.006,368.928 1071.938,368.928 1073.871,368.928 1075.804,368.928 1077.736,368.928 1079.669,368.928 1081.602,368.928 1083.534,368.928 1085.467,368.928 1087.400,368.928 1089.332,368.928 1091.265,368.928 1093.198,368.928 1095.130,368.928 1097.063,368.928 1098.996,368.928 1100.928,368.928 1102.861,368.928 1104.794,368.928 1106.726,368.928 1108.659,368.928 1110.592,368.928 1112.524,368.928 1114.457,368.928 1116.390,368.928 1118.322,368.928 1120.255,368.928 1122.188,368.928 1124.120,368.928 1126.053,368.928 1127.985,368.928 1129.918,368.928 1131.851,368.928 1133.783,368.928 1135.716,368.928 1137.649,368.928 1139.581,368.928 1141.514,368.928 1143.447,368.928 1145.379,368.928 1147.312,368.928 1149.245,368.928 1151.177,368.928 1153.110,368.928 1155.043,368.928 1156.975,368.928 1158.908,368.928 1160.841,368.928 1162.773,368.928 1164.706,368.928 1166.639,368.928 1168.571,368.928 1170.504,368.928 1172.437,368.928 1174.369,368.928 1176.302,368.928 1178.235,368.928 1180.167,368.928 1182.100,368.928 1184.033,368.928 1185.965,368.928 1187.898,368.928 1189.830,368.928 1191.763,368.928 1193.696,368.928 1195.628,368.928 1197.561,368.928 1199.494,368.928 1201.426,368.928 1203.359,368.928 1205.292,368.928 1207.224,368.928 1209.157,368.928 1211.090,368.928 1213.022,368.928 1214.955,368.928 1216.888,368.928 1218.820,368.928 1220.753,368.928 1222.686,368.928 1224.618,368.928 1226.551,368.928 1228.484,368.928 1230.416,368.928 1232.349,368.928 1234.282,368.928 1236.214,368.928 1238.147,368.928 1240.080,368.928 1242.012,368.928 1243.945,368.928 1245.878,368.928 1247.810,368.928 1249.743,368.928 1251.675,368.928 1253.608,368.928 1255.541,368.928 1257.473,368.928 1259.406,368.928 1261.339,368.928 1263.271,368.928 1265.204,368.928 1267.137,368.928 1269.069,368.928 1271.002,368.928 1272.935,368.928 1274.867,368.928 1276.800,368.928 1278.733,368.928 1280.665,368.928 1282.598,368.928 1284.531,368.928 1286.463,368.928 1288.396,368.928 1290.329,368.928 1292.261,368.928 1294.194,368.928 1296.127,368.928 1298.059,368.928 1299.992,368.928 1301.925,368.928 1303.857,368.928 1305.790,368.928 1307.723,368.928 1309.655,368.928 1311.588,368.928 1313.520,368.928 1315.453,368.928 1317.386,368.928 1319.318,368.928 1321.251,368.928 1323.184,368.928 1325.116,368.928 1327.049,368.928 1328.982,368.928 1330.914,368.928 1332.847,368.928 1334.780,368.928 1336.712,368.928 1338.645,368.928 1340.578,368.928 1342.510,368.928 1344.443,368.928 1346.376,368.928 1348.308,368.928 1350.241,368.928 1352.174,368.928 1354.106,367.263 "/>
<g>
</g>
</g>
<g id="ID000006" clip-path="url(#ID000001)" >
      <polyline fill="none" stroke="#000000" stroke-width="0.5pt" stroke-dasharray="none" points="677.677,684.188 677.677,57.656 "/>
<g>
</g>
</g>
<g id="ID000007" clip-path="url(#ID000001)" >
      <polyline fill="none" stroke="#000000" stroke-width="0.5pt" stroke-dasharray="none" points="791.703,684.188 791.703,57.656 "/>
<g>
</g>
</g>
<g id="ID000008" clip-path="url(#ID000001)" >
      <polyline fill="none" stroke="#d85218" stroke-width="0.5pt" stroke-dasharray="none" points="196.445,370.922 198.378,370.922 200.310,370.922 202.243,370.922 204.176,370.922 206.108,370.922 208.041,370.922 209.974,370.922 211.906,370.922 213.839,370.922 215.772,370.922 217.704,370.922 219.637,370.922 221.570,370.922 223.502,370.922 225.435,370.922 227.368,370.922 229.300,370.922 231.233,370.922 233.166,370.922 235.098,370.922 237.031,370.922 238.964,370.922 240.896,370.922 242.829,370.922 244.762,370.922 246.694,370.922 248.627,370.922 250.560,370.922 252.492,370.922 254.425,370.922 256.358,370.922 258.290,370.922 260.223,370.922 262.155,370.922 264.088,370.922 266.021,370.922 267.953,370.922 269.886,370.922 271.819,370.922 273.751,370.922 275.684,370.922 277.617,370.922 279.549,370.922 281.482,370.922 283.415,370.922 285.347,370.922 287.280,370.922 289.213,370.922 291.145,370.922 293.078,370.922 295.011,370.922 296.943,370.922 298.876,370.922 300.809,370.922 302.741,370.922 304.674,370.922 306.607,370.922 308.539,370.922 310.472,370.922 312.405,370.922 314.337,370.922 316.270,370.922 318.202,370.922 320.135,370.922 322.068,370.922 324.000,370.922 325.933,370.922 327.866,370.922 329.798,370.922 331.731,370.922 333.664,370.922 335.596,370.922 337.529,370.922 339.462,370.922 341.394,370.922 343.327,370.922 345.260,370.922 347.192,370.922 349.125,370.922 351.058,370.922 352.990,370.922 354.923,370.922 356.856,370.922 358.788,370.922 360.721,370.922 362.654,370.922 364.586,370.922 366.519,370.922 368.452,370.922 370.384,370.922 372.317,370.922 374.250,370.922 376.182,370.922 378.115,370.922 380.048,370.922 381.980,370.922 383.913,370.922 385.845,370.922 387.778,370.922 389.711,370.922 391.643,370.922 393.576,370.922 395.509,370.922 397.441,370.922 399.374,370.922 401.307,370.922 403.239,370.922 405.172,370.922 407.105,370.922 409.037,370.922 410.970,370.922 412.903,370.922 414.835,370.922 416.768,370.922 418.701,370.922 420.633,370.922 422.566,370.922 424.499,370.922 426.431,370.922 428.364,370.922 430.297,370.922 432.229,370.922 434.162,370.922 436.095,370.922 438.027,370.922 439.960,370.922 441.892,370.922 443.825,370.922 445.758,370.922 447.690,370.922 449.623,370.922 451.556,370.922 453.488,370.922 455.421,370.922 457.354,370.922 459.286,370.922 461.219,370.922 463.152,370.922 465.084,370.922 467.017,370.922 468.950,370.922 470.882,370.922 472.815,370.922 474.748,370.922 476.680,370.924 478.613,370.929 480.546,370.945 482.478,370.989 484.411,371.106 486.344,371.384 488.276,371.993 490.209,373.209 492.142,375.420 494.074,379.075 496.007,384.538 497.940,391.870 499.872,400.614 501.805,409.693 503.738,417.559 505.670,422.599 507.603,423.671 509.535,420.521 511.468,413.883 513.401,405.201 515.333,396.119 517.266,387.985 519.199,381.567 521.131,377.041 523.064,374.162 524.997,372.503 526.929,371.633 528.862,371.217 530.795,371.034 532.727,370.962 534.660,370.935 536.593,370.926 538.525,370.923 540.458,370.922 542.391,370.922 544.323,370.922 546.256,370.922 548.189,370.922 550.121,370.922 552.054,370.922 553.987,370.922 555.919,370.922 557.852,370.922 559.785,370.922 561.717,370.922 563.650,370.922 565.582,370.922 567.515,370.922 569.448,370.923 571.380,370.926 573.313,370.935 575.246,370.961 577.178,371.034 579.111,371.217 581.044,371.633 582.976,372.503 584.909,374.162 586.842,377.040 588.774,381.567 590.707,387.985 592.640,396.119 594.572,405.201 596.505,413.883 598.438,420.521 600.370,423.671 602.303,422.599 604.236,417.559 606.168,409.693 608.101,400.614 610.034,391.870 611.966,384.538 613.899,379.075 615.832,375.420 617.764,373.209 619.697,371.993 621.630,371.384 623.562,371.106 625.495,370.989 627.428,370.945 629.360,370.929 631.293,370.924 633.225,370.922 635.158,370.922 637.091,370.922 639.023,370.922 640.956,370.922 642.889,370.922 644.821,370.922 646.754,370.922 648.687,370.922 650.619,370.922 652.552,370.922 654.485,370.922 656.417,370.922 658.350,370.922 660.283,370.922 662.215,370.922 664.148,370.922 666.081,370.922 668.013,370.922 669.946,370.922 671.879,370.922 673.811,370.922 675.744,370.922 677.677,370.922 679.609,370.922 681.542,370.922 683.475,370.922 685.407,370.922 687.340,370.922 689.273,370.922 691.205,370.922 693.138,370.921 695.070,370.919 697.003,370.911 698.936,370.885 700.868,370.808 702.801,370.601 704.734,370.090 706.666,368.958 708.599,366.718 710.532,362.804 712.464,356.880 714.397,349.344 716.330,341.774 718.262,336.786 720.195,336.910 722.128,342.872 724.060,352.608 725.993,362.226 727.926,368.542 729.858,370.991 731.791,371.190 733.724,370.930 735.656,370.882 737.589,370.926 739.522,370.928 741.454,370.919 743.387,370.922 745.320,370.923 747.252,370.922 749.185,370.922 751.117,370.922 753.050,370.922 754.983,370.922 756.915,370.921 758.848,370.918 760.781,370.906 762.713,370.867 764.646,370.747 766.579,370.415 768.511,369.598 770.444,367.819 772.377,364.434 774.309,358.905 776.242,351.364 778.175,343.222 780.107,337.195 782.040,336.162 783.973,341.204 785.905,350.403 787.838,359.849 789.771,366.284 791.703,368.928 793.636,368.928 795.569,368.928 797.501,368.928 799.434,368.928 801.367,368.928 803.299,368.928 805.232,368.928 807.165,368.928 809.097,368.928 811.030,368.928 812.962,368.928 814.895,368.928 816.828,368.928 818.760,368.928 820.693,368.928 822.626,368.928 824.558,368.928 826.491,368.928 828.424,368.928 830.356,368.928 832.289,368.928 834.222,368.928 836.154,368.928 838.087,368.928 840.020,368.928 841.952,368.928 843.885,368.928 845.818,368.928 847.750,368.928 849.683,368.928 851.616,368.928 853.548,368.928 855.481,368.928 857.414,368.928 859.346,368.928 861.279,368.928 863.212,368.928 865.144,368.928 867.077,368.928 869.010,368.928 870.942,368.928 872.875,368.928 874.808,368.928 876.740,368.928 878.673,368.928 880.605,368.928 882.538,368.928 884.471,368.928 886.403,368.928 888.336,368.928 890.269,368.928 892.201,368.928 894.134,368.928 896.067,368.928 897.999,368.928 899.932,368.928 901.865,368.928 903.797,368.928 905.730,368.928 907.663,368.928 909.595,368.928 911.528,368.928 913.461,368.928 915.393,368.928 917.326,368.928 919.259,368.928 921.191,368.928 923.124,368.928 925.057,368.928 926.989,368.928 928.922,368.928 930.855,368.928 932.787,368.928 934.720,368.928 936.653,368.928 938.585,368.928 940.518,368.928 942.450,368.928 944.383,368.928 946.316,368.928 948.248,368.928 950.181,368.928 952.114,368.928 954.046,368.928 955.979,368.928 957.912,368.928 959.844,368.928 961.777,368.928 963.710,368.928 965.642,368.928 967.575,368.928 969.508,368.928 971.440,368.928 973.373,368.928 975.306,368.928 977.238,368.928 979.171,368.928 981.104,368.928 983.036,368.928 984.969,368.928 986.902,368.928 988.834,368.928 990.767,368.928 992.700,368.928 994.632,368.928 996.565,368.928 998.497,368.928 1000.430,368.928 1002.363,368.928 1004.295,368.928 1006.228,368.928 1008.161,368.928 1010.093,368.928 1012.026,368.928 1013.959,368.928 1015.891,368.928 1017.824,368.928 1019.757,368.928 1021.689,368.928 1023.622,368.928 1025.555,368.928 1027.487,368.928 1029.420,368.928 1031.353,368.928 1033.285,368.928 1035.218,368.928 1037.151,368.928 1039.083,368.928 1041.016,368.928 1042.949,368.928 1044.881,368.928 1046.814,368.928 1048.747,368.928 1050.679,368.928 1052.612,368.928 1054.545,368.928 1056.477,368.928 1058.410,368.928 1060.343,368.928 1062.275,368.928 1064.208,368.928 1066.140,368.928 1068.073,368.928 1070.006,368.928 1071.938,368.928 1073.871,368.928 1075.804,368.928 1077.736,368.928 1079.669,368.928 1081.602,368.928 1083.534,368.928 1085.467,368.928 1087.400,368.928 1089.332,368.928 1091.265,368.928 1093.198,368.928 1095.130,368.928 1097.063,368.928 1098.996,368.928 1100.928,368.928 1102.861,368.928 1104.794,368.928 1106.726,368.928 1108.659,368.928 1110.592,368.928 1112.524,368.928 1114.457,368.928 1116.390,368.928 1118.322,368.928 1120.255,368.928 1122.188,368.928 1124.120,368.928 1126.053,368.928 1127.985,368.928 1129.918,368.928 1131.851,368.928 1133.783,368.928 1135.716,368.928 1137.649,368.928 1139.581,368.928 1141.514,368.928 1143.447,368.928 1145.379,368.928 1147.312,368.928 1149.245,368.928 1151.177,368.928 1153.110,368.928 1155.043,368.928 1156.975,368.928 1158.908,368.928 1160.841,368.928 1162.773,368.928 1164.706,368.928 1166.639,368.928 1168.571,368.928 1170.504,368.928 1172.437,368.928 1174.369,368.928 1176.302,368.928 1178.235,368.928 1180.167,368.928 1182.100,368.928 1184.033,368.928 1185.965,368.928 1187.898,368.928 1189.830,368.928 1191.763,368.928 1193.696,368.928 1195.628,368.928 1197.561,368.928 1199.494,368.928 1201.426,368.928 1203.359,368.928 1205.292,368.928 1207.224,368.928 1209.157,368.928 1211.090,368.928 1213.022,368.928 1214.955,368.928 1216.888,368.928 1218.820,368.928 1220.753,368.928 1222.686,368.928 1224.618,368.928 1226.551,368.928 1228.484,368.928 1230.416,368.928 1232.349,368.928 1234.282,368.928 1236.214,368.928 1238.147,368.928 1240.080,368.928 1242.012,368.928 1243.945,368.928 1245.878,368.928 1247.810,368.928 1249.743,368.928 1251.675,368.928 1253.608,368.928 1255.541,368.928 1257.473,368.928 1259.406,368.928 1261.339,368.928 1263.271,368.928 1265.204,368.928 1267.137,368.928 1269.069,368.928 1271.002,368.928 1272.935,368.928 1274.867,368.928 1276.800,368.928 1278.733,368.928 1280.665,368.928 1282.598,368.928 1284.531,368.928 1286.463,368.928 1288.396,368.928 1290.329,368.928 1292.261,368.928 1294.194,368.928 1296.127,368.928 1298.059,368.928 1299.992,368.928 1301.925,368.928 1303.857,368.928 1305.790,368.928 1307.723,368.928 1309.655,368.928 1311.588,368.928 1313.520,368.928 1315.453,368.928 1317.386,368.928 1319.318,368.928 1321.251,368.928 1323.184,368.928 1325.116,368.928 1327.049,368.928 1328.982,368.928 1330.914,368.928 1332.847,368.928 1334.780,368.928 1336.712,368.928 1338.645,368.928 1340.578,368.928 1342.510,368.928 1344.443,368.928 1346.376,368.928 1348.308,368.928 1350.241,368.928 1352.174,368.928 1354.106,367.263 "/>
<g>
</g>
</g>
    </g>
    <g>
      <polyline fill="none" stroke="#262626" stroke-width="0.5pt" stroke-dasharray="none" points="194.513,684.188 194.513,672.592 "/>
      <polyline fill="none" stroke="#262626" stroke-width="0.5pt" stroke-dasharray="none" points="387.778,684.188 387.778,672.592 "/>
      <polyline fill="none" stroke="#262626" stroke-width="0.5pt" stroke-dasharray="none" points="581.044,684.188 581.044,672.592 "/>
      <polyline fill="none" stroke="#262626" stroke-width="0.5pt" stroke-dasharray="none" points="774.309,684.188 774.309,672.592 "/>
      <polyline fill="none" stroke="#262626" stroke-width="0.5pt" stroke-dasharray="none" points="967.575,684.188 967.575,672.592 "/>
      <polyline fill="none" stroke="#262626" stroke-width="0.5pt" stroke-dasharray="none" points="1160.841,684.188 1160.841,672.592 "/>
      <polyline fill="none" stroke="#262626" stroke-width="0.5pt" stroke-dasharray="none" points="1354.106,684.188 1354.106,672.592 "/>
      <polyline fill="none" stroke="#262626" stroke-width="0.5pt" stroke-dasharray="none" points="194.513,684.188 1354.106,684.188 "/>
  <g transform="translate(194.513,707.781)">
    <g transform="rotate(-0.0)">
      <text x="0.000" y="0.000" font-family="times new roman" text-anchor="middle" font-size="9pt" fill="#262626" >0</text>
    </g>
  </g>
  <g transform="translate(387.778,707.781)">
    <g transform="rotate(-0.0)">
      <text x="0.000" y="0.000" font-family="times new roman" text-anchor="middle" font-size="9pt" fill="#262626" >100</text>
    </g>
  </g>
  <g transform="translate(581.044,707.781)">
    <g transform="rotate(-0.0)">
      <text x="0.000" y="0.000" font-family="times new roman" text-anchor="middle" font-size="9pt" fill="#262626" >200</text>
    </g>
  </g>
  <g transform="translate(774.309,707.781)">
    <g transform="rotate(-0.0)">
      <text x="0.000" y="0.000" font-family="times new roman" text-anchor="middle" font-size="9pt" fill="#262626" >300</text>
    </g>
  </g>
  <g transform="translate(967.575,707.781)">
    <g transform="rotate(-0.0)">
      <text x="0.000" y="0.000" font-family="times new roman" text-anchor="middle" font-size="9pt" fill="#262626" >400</text>
    </g>
  </g>
  <g transform="translate(1160.841,707.781)">
    <g transform="rotate(-0.0)">
      <text x="0.000" y="0.000" font-family="times new roman" text-anchor="middle" font-size="9pt" fill="#262626" >500</text>
    </g>
  </g>
  <g transform="translate(1354.106,707.781)">
    <g transform="rotate(-0.0)">
      <text x="0.000" y="0.000" font-family="times new roman" text-anchor="middle" font-size="9pt" fill="#262626" >600</text>
    </g>
  </g>
      <polyline fill="none" stroke="#262626" stroke-width="0.5pt" stroke-dasharray="none" points="194.513,684.188 206.108,684.188 "/>
      <polyline fill="none" stroke="#262626" stroke-width="0.5pt" stroke-dasharray="none" points="194.513,621.534 206.108,621.534 "/>
      <polyline fill="none" stroke="#262626" stroke-width="0.5pt" stroke-dasharray="none" points="194.513,558.881 206.108,558.881 "/>
      <polyline fill="none" stroke="#262626" stroke-width="0.5pt" stroke-dasharray="none" points="194.513,496.228 206.108,496.228 "/>
      <polyline fill="none" stroke="#262626" stroke-width="0.5pt" stroke-dasharray="none" points="194.513,433.575 206.108,433.575 "/>
      <polyline fill="none" stroke="#262626" stroke-width="0.5pt" stroke-dasharray="none" points="194.513,370.922 206.108,370.922 "/>
      <polyline fill="none" stroke="#262626" stroke-width="0.5pt" stroke-dasharray="none" points="194.513,308.269 206.108,308.269 "/>
      <polyline fill="none" stroke="#262626" stroke-width="0.5pt" stroke-dasharray="none" points="194.513,245.616 206.108,245.616 "/>
      <polyline fill="none" stroke="#262626" stroke-width="0.5pt" stroke-dasharray="none" points="194.513,182.962 206.108,182.962 "/>
      <polyline fill="none" stroke="#262626" stroke-width="0.5pt" stroke-dasharray="none" points="194.513,120.309 206.108,120.309 "/>
      <polyline fill="none" stroke="#262626" stroke-width="0.5pt" stroke-dasharray="none" points="194.513,57.656 206.108,57.656 "/>
      <polyline fill="none" stroke="#262626" stroke-width="0.5pt" stroke-dasharray="none" points="194.513,684.188 194.513,57.656 "/>
  <g transform="translate(171.321,688.406)">
    <g transform="rotate(-0.0)">
      <text x="0.000" y="0.000" font-family="times new roman" text-anchor="end" font-size="9pt" fill="#262626" >-1</text>
    </g>
  </g>
  <g transform="translate(171.321,625.753)">
    <g transform="rotate(-0.0)">
      <text x="0.000" y="0.000" font-family="times new roman" text-anchor="end" font-size="9pt" fill="#262626" >-0.8</text>
    </g>
  </g>
  <g transform="translate(171.321,563.100)">
    <g transform="rotate(-0.0)">
      <text x="0.000" y="0.000" font-family="times new roman" text-anchor="end" font-size="9pt" fill="#262626" >-0.6</text>
    </g>
  </g>
  <g transform="translate(171.321,500.447)">
    <g transform="rotate(-0.0)">
      <text x="0.000" y="0.000" font-family="times new roman" text-anchor="end" font-size="9pt" fill="#262626" >-0.4</text>
    </g>
  </g>
  <g transform="translate(171.321,437.794)">
    <g transform="rotate(-0.0)">
      <text x="0.000" y="0.000" font-family="times new roman" text-anchor="end" font-size="9pt" fill="#262626" >-0.2</text>
    </g>
  </g>
  <g transform="translate(171.321,375.141)">
    <g transform="rotate(-0.0)">
      <text x="0.000" y="0.000" font-family="times new roman" text-anchor="end" font-size="9pt" fill="#262626" >0</text>
    </g>
  </g>
  <g transform="translate(171.321,312.487)">
    <g transform="rotate(-0.0)">
      <text x="0.000" y="0.000" font-family="times new roman" text-anchor="end" font-size="9pt" fill="#262626" >0.2</text>
    </g>
  </g>
  <g transform="translate(171.321,249.834)">
    <g transform="rotate(-0.0)">
      <text x="0.000" y="0.000" font-family="times new roman" text-anchor="end" font-size="9pt" fill="#262626" >0.4</text>
    </g>
  </g>
  <g transform="translate(171.321,187.181)">
    <g transform="rotate(-0.0)">
      <text x="0.000" y="0.000" font-family="times new roman" text-anchor="end" font-size="9pt" fill="#262626" >0.6</text>
    </g>
  </g>
  <g transform="translate(171.321,124.528)">
    <g transform="rotate(-0.0)">
      <text x="0.000" y="0.000" font-family="times new roman" text-anchor="end" font-size="9pt" fill="#262626" >0.8</text>
    </g>
  </g>
  <g transform="translate(171.321,61.875)">
    <g transform="rotate(-0.0)">
      <text x="0.000" y="0.000" font-family="times new roman" text-anchor="end" font-size="9pt" fill="#262626" >1</text>
    </g>
  </g>
      <polyline fill="none" stroke="#262626" stroke-width="0.5pt" stroke-dasharray="none" points="194.513,684.188 194.513,677.922 "/>
      <polyline fill="none" stroke="#262626" stroke-width="0.5pt" stroke-dasharray="none" points="194.513,684.188 194.513,677.922 "/>
      <polyline fill="none" stroke="#262626" stroke-width="0.5pt" stroke-dasharray="none" points="194.513,684.187 194.513,677.922 "/>
      <polyline fill="none" stroke="#262626" stroke-width="0.5pt" stroke-dasharray="none" points="194.513,684.188 194.513,684.187 "/>
    </g>
  </g>
  </g>
</svg>
