<?xml version="1.0" encoding="utf-8" standalone="no"?><!DOCTYPE svg PUBLIC "-//W3C//DTD SVG 1.1//EN" "http://www.w3.org/Graphics/SVG/1.1/DTD/svg11.dtd">
<svg preserveAspectRatio="xMinYMin meet" width="100%" height="100%" viewBox="0 0 1496.250 768.750"  version="1.1" xmlns="http://www.w3.org/2000/svg" xmlns:xlink="http://www.w3.org/1999/xlink">
  <desc>Matlab Figure Converted by PLOT2SVG written by Juerg Schwizer</desc>
  <g id="topgroup">
  <rect x="0" y="0" width="1496.250" height="768.750" fill="#ffffff" stroke="none" />
  <g id ="ID000000">
  <clipPath id="ID000001">
    <rect x="194.513" y="57.656" width="1159.594" height="626.531"/>
  </clipPath>
      <polygon fill="#ffffff" fill-opacity="1.00" stroke="none" stroke-width="0.5pt" stroke-opacity="1.00" stroke-dasharray="none" points="194.513,684.188 1354.106,684.188 1354.106,57.656 194.513,57.656 "/>
      <polygon fill="#ffffff" fill-opacity="1.00" stroke="none" stroke-width="0.5pt" stroke-opacity="1.00" stroke-dasharray="none" points="194.513,57.656 1354.106,57.656 1354.106,57.656 194.513,57.656 "/>
      <polygon fill="#ffffff" fill-opacity="1.00" stroke="none" stroke-width="0.5pt" stroke-opacity="1.00" stroke-dasharray="none" points="194.513,684.188 194.513,684.187 194.513,57.656 194.513,57.656 "/>
    <g>
<g id="ID000002" >
</g>
<g id="ID000003" >
</g>
<g id="ID000004" >
  <g transform="translate(774.310,52.503)">
    <g transform="rotate(-0.0)">
      <text x="0.000" y="0.000" font-family="times new roman" text-anchor="middle" font-size="10pt" font-weight="bold" fill="#000000" >E-field at Time Step 250</text>
    </g>
  </g>
</g>
<g id="ID000005" clip-path="url(#ID000001)" >
      <polyline fill="none" stroke="#000000" stroke-width="1.4pt" stroke-dasharray="none" points="196.445,370.922 198.378,370.922 200.310,370.922 202.243,370.922 204.176,370.922 206.108,370.922 208.041,370.922 209.974,370.922 211.906,370.922 213.839,370.922 215.772,370.922 217.704,370.922 219.637,370.922 221.570,370.922 223.502,370.922 225.435,370.922 227.368,370.922 229.300,370.922 231.233,370.922 233.166,370.922 235.098,370.922 237.031,370.922 238.964,370.922 240.896,370.922 242.829,370.922 244.762,370.922 246.694,370.922 248.627,370.922 250.560,370.922 252.492,370.922 254.425,370.922 256.358,370.922 258.290,370.922 260.223,370.922 262.155,370.922 264.088,370.922 266.021,370.922 267.953,370.922 269.886,370.922 271.819,370.922 273.751,370.922 275.684,370.922 277.617,370.922 279.549,370.922 281.482,370.922 283.415,370.922 285.347,370.922 287.280,370.922 289.213,370.922 291.145,370.922 293.078,370.922 295.011,370.922 296.943,370.922 298.876,370.922 300.809,370.922 302.741,370.922 304.674,370.922 306.607,370.922 308.539,370.922 310.472,370.922 312.405,370.922 314.337,370.922 316.270,370.922 318.202,370.922 320.135,370.922 322.068,370.922 324.000,370.922 325.933,370.922 327.866,370.922 329.798,370.922 331.731,370.922 333.664,370.922 335.596,370.922 337.529,370.922 339.462,370.922 341.394,370.922 343.327,370.922 345.260,370.922 347.192,370.922 349.125,370.922 351.058,370.922 352.990,370.922 354.923,370.922 356.856,370.922 358.788,370.922 360.721,370.922 362.654,370.922 364.586,370.922 366.519,370.922 368.452,370.922 370.384,370.922 372.317,370.922 374.250,370.922 376.182,370.922 378.115,370.922 380.048,370.922 381.980,370.922 383.913,370.922 385.845,370.922 387.778,370.922 389.711,370.922 391.643,370.922 393.576,370.922 395.509,370.922 397.441,370.922 399.374,370.922 401.307,370.922 403.239,370.922 405.172,370.922 407.105,370.922 409.037,370.922 410.970,370.922 412.903,370.922 414.835,370.922 416.768,370.922 418.701,370.922 420.633,370.922 422.566,370.922 424.499,370.922 426.431,370.922 428.364,370.922 430.297,370.922 432.229,370.922 434.162,370.922 436.095,370.922 438.027,370.922 439.960,370.922 441.892,370.923 443.825,370.926 445.758,370.935 447.690,370.961 449.623,371.034 451.556,371.217 453.488,371.633 455.421,372.503 457.354,374.162 459.286,377.040 461.219,381.567 463.152,387.985 465.084,396.119 467.017,405.201 468.950,413.883 470.882,420.521 472.815,423.671 474.748,422.599 476.680,417.559 478.613,409.693 480.546,400.614 482.478,391.870 484.411,384.538 486.344,379.075 488.276,375.420 490.209,373.209 492.142,371.993 494.074,371.384 496.007,371.106 497.940,370.989 499.872,370.945 501.805,370.929 503.738,370.924 505.670,370.922 507.603,370.922 509.535,370.922 511.468,370.922 513.401,370.922 515.333,370.922 517.266,370.922 519.199,370.922 521.131,370.922 523.064,370.922 524.997,370.922 526.929,370.922 528.862,370.922 530.795,370.922 532.727,370.922 534.660,370.922 536.593,370.924 538.525,370.929 540.458,370.945 542.391,370.989 544.323,371.106 546.256,371.384 548.189,371.993 550.121,373.209 552.054,375.420 553.987,379.075 555.919,384.538 557.852,391.870 559.785,400.614 561.717,409.693 563.650,417.559 565.582,422.599 567.515,423.671 569.448,420.521 571.380,413.883 573.313,405.201 575.246,396.119 577.178,387.985 579.111,381.567 581.044,377.040 582.976,374.162 584.909,372.503 586.842,371.633 588.774,371.217 590.707,371.034 592.640,370.961 594.572,370.935 596.505,370.926 598.438,370.923 600.370,370.922 602.303,370.922 604.236,370.922 606.168,370.922 608.101,370.922 610.034,370.922 611.966,370.922 613.899,370.922 615.832,370.922 617.764,370.922 619.697,370.922 621.630,370.922 623.562,370.922 625.495,370.922 627.428,370.922 629.360,370.922 631.293,370.922 633.225,370.922 635.158,370.922 637.091,370.922 639.023,370.922 640.956,370.922 642.889,370.922 644.821,370.922 646.754,370.922 648.687,370.922 650.619,370.922 652.552,370.922 654.485,370.922 656.417,370.922 658.350,370.922 660.283,370.922 662.215,370.922 664.148,370.922 666.081,370.921 668.013,370.920 669.946,370.918 671.879,370.912 673.811,370.900 675.744,370.874 677.677,370.821 679.609,370.664 681.542,370.267 683.475,369.371 685.407,367.557 687.340,364.288 689.273,359.126 691.205,352.153 693.138,344.459 695.070,338.270 697.003,336.258 698.936,340.030 700.868,348.698 702.801,358.922 704.734,366.886 706.666,370.762 708.599,371.455 710.532,371.049 712.464,370.838 714.397,370.899 716.330,370.942 718.262,370.923 720.195,370.917 722.128,370.923 724.060,370.923 725.993,370.921 727.926,370.922 729.858,370.922 731.791,370.922 733.724,370.921 735.656,370.919 737.589,370.910 739.522,370.880 741.454,370.787 743.387,370.531 745.320,369.895 747.252,368.484 749.185,365.722 751.117,361.021 753.050,354.219 754.983,346.181 756.915,339.110 758.848,335.940 760.781,338.670 762.713,346.691 764.646,356.724 766.579,364.921 768.511,369.393 770.444,370.832 772.377,370.968 774.309,370.917 776.242,370.919 778.175,370.924 780.107,370.922 782.040,370.922 783.973,370.922 785.905,370.922 787.838,370.922 789.771,370.922 791.703,370.922 793.636,370.922 795.569,370.922 797.501,370.922 799.434,370.922 801.367,370.922 803.299,370.922 805.232,370.922 807.165,370.922 809.097,370.922 811.030,370.922 812.962,370.922 814.895,370.922 816.828,370.922 818.760,370.922 820.693,370.922 822.626,370.922 824.558,370.922 826.491,370.922 828.424,370.922 830.356,370.922 832.289,370.922 834.222,370.922 836.154,370.922 838.087,370.922 840.020,370.922 841.952,370.922 843.885,370.922 845.818,370.922 847.750,370.922 849.683,370.922 851.616,370.922 853.548,370.922 855.481,370.922 857.414,370.922 859.346,370.922 861.279,370.922 863.212,370.922 865.144,370.922 867.077,370.922 869.010,370.922 870.942,370.922 872.875,370.922 874.808,370.922 876.740,370.922 878.673,370.922 880.605,370.922 882.538,370.922 884.471,370.922 886.403,370.922 888.336,370.922 890.269,370.922 892.201,370.922 894.134,370.922 896.067,370.922 897.999,370.922 899.932,370.922 901.865,370.922 903.797,370.922 905.730,370.922 907.663,370.922 909.595,370.922 911.528,370.922 913.461,370.922 915.393,370.922 917.326,370.922 919.259,370.922 921.191,370.922 923.124,370.922 925.057,370.922 926.989,370.922 928.922,370.922 930.855,370.922 932.787,370.922 934.720,370.922 936.653,370.922 938.585,370.922 940.518,370.922 942.450,370.922 944.383,370.922 946.316,370.922 948.248,370.922 950.181,370.922 952.114,370.922 954.046,370.922 955.979,370.922 957.912,370.922 959.844,370.922 961.777,370.922 963.710,370.922 965.642,370.922 967.575,370.922 969.508,370.922 971.440,370.922 973.373,370.922 975.306,370.922 977.238,370.922 979.171,370.922 981.104,370.922 983.036,370.922 984.969,370.922 986.902,370.922 988.834,370.922 990.767,370.922 992.700,370.922 994.632,370.922 996.565,370.922 998.497,370.922 1000.430,370.922 1002.363,370.922 1004.295,370.922 1006.228,370.922 1008.161,370.922 1010.093,370.922 1012.026,370.922 1013.959,370.922 1015.891,370.922 1017.824,370.922 1019.757,370.922 1021.689,370.922 1023.622,370.922 1025.555,370.922 1027.487,370.922 1029.420,370.922 1031.353,370.922 1033.285,370.922 1035.218,370.922 1037.151,370.922 1039.083,370.922 1041.016,370.922 1042.949,370.922 1044.881,370.922 1046.814,370.922 1048.747,370.922 1050.679,370.922 1052.612,370.922 1054.545,370.922 1056.477,370.922 1058.410,370.922 1060.343,370.922 1062.275,370.922 1064.208,370.922 1066.140,370.922 1068.073,370.922 1070.006,370.922 1071.938,370.922 1073.871,370.922 1075.804,370.922 1077.736,370.922 1079.669,370.922 1081.602,370.922 1083.534,370.922 1085.467,370.922 1087.400,370.922 1089.332,370.922 1091.265,370.922 1093.198,370.922 1095.130,370.922 1097.063,370.922 1098.996,370.922 1100.928,370.922 1102.861,370.922 1104.794,370.922 1106.726,370.922 1108.659,370.922 1110.592,370.922 1112.524,370.922 1114.457,370.922 1116.390,370.922 1118.322,370.922 1120.255,370.922 1122.188,370.922 1124.120,370.922 1126.053,370.922 1127.985,370.922 1129.918,370.922 1131.851,370.922 1133.783,370.922 1135.716,370.922 1137.649,370.922 1139.581,370.922 1141.514,370.922 1143.447,370.922 1145.379,370.922 1147.312,370.922 1149.245,370.922 1151.177,370.922 1153.110,370.922 1155.043,370.922 1156.975,370.922 1158.908,370.922 1160.841,370.922 1162.773,370.922 1164.706,370.922 1166.639,370.922 1168.571,370.922 1170.504,370.922 1172.437,370.922 1174.369,370.922 1176.302,370.922 1178.235,370.922 1180.167,370.922 1182.100,370.922 1184.033,370.922 1185.965,370.922 1187.898,370.922 1189.830,370.922 1191.763,370.922 1193.696,370.922 1195.628,370.922 1197.561,370.922 1199.494,370.922 1201.426,370.922 1203.359,370.922 1205.292,370.922 1207.224,370.922 1209.157,370.922 1211.090,370.922 1213.022,370.922 1214.955,370.922 1216.888,370.922 1218.820,370.922 1220.753,370.922 1222.686,370.922 1224.618,370.922 1226.551,370.922 1228.484,370.922 1230.416,370.922 1232.349,370.922 1234.282,370.922 1236.214,370.922 1238.147,370.922 1240.080,370.922 1242.012,370.922 1243.945,370.922 1245.878,370.922 1247.810,370.922 1249.743,370.922 1251.675,370.922 1253.608,370.922 1255.541,370.922 1257.473,370.922 1259.406,370.922 1261.339,370.922 1263.271,370.922 1265.204,370.922 1267.137,370.922 1269.069,370.922 1271.002,370.922 1272.935,370.922 1274.867,370.922 1276.800,370.922 1278.733,370.922 1280.665,370.922 1282.598,370.922 1284.531,370.922 1286.463,370.922 1288.396,370.922 1290.329,370.922 1292.261,370.922 1294.194,370.922 1296.127,370.922 1298.059,370.922 1299.992,370.922 1301.925,370.922 1303.857,370.922 1305.790,370.922 1307.723,370.922 1309.655,370.922 1311.588,370.922 1313.520,370.922 1315.453,370.922 1317.386,370.922 1319.318,370.922 1321.251,370.922 1323.184,370.922 1325.116,370.922 1327.049,370.922 1328.982,370.922 1330.914,370.922 1332.847,370.922 1334.780,370.922 1336.712,370.922 1338.645,370.922 1340.578,370.922 1342.510,370.922 1344.443,370.922 1346.376,370.922 1348.308,370.922 1350.241,370.922 1352.174,370.922 1354.106,370.922 "/>
<g>
</g>
</g>
<g id="ID000006" clip-path="url(#ID000001)" >
      <polyline fill="none" stroke="#000000" stroke-width="0.5pt" stroke-dasharray="none" points="677.677,684.188 677.677,57.656 "/>
<g>
</g>
</g>
<g id="ID000007" clip-path="url(#ID000001)" >
      <polyline fill="none" stroke="#000000" stroke-width="0.5pt" stroke-dasharray="none" points="791.703,684.188 791.703,57.656 "/>
<g>
</g>
</g>
<g id="ID000008" clip-path="url(#ID000001)" >
      <polyline fill="none" stroke="#d85218" stroke-width="0.5pt" stroke-dasharray="none" points="196.445,370.922 198.378,370.922 200.310,370.922 202.243,370.922 204.176,370.922 206.108,370.922 208.041,370.922 209.974,370.922 211.906,370.922 213.839,370.922 215.772,370.922 217.704,370.922 219.637,370.922 221.570,370.922 223.502,370.922 225.435,370.922 227.368,370.922 229.300,370.922 231.233,370.922 233.166,370.922 235.098,370.922 237.031,370.922 238.964,370.922 240.896,370.922 242.829,370.922 244.762,370.922 246.694,370.922 248.627,370.922 250.560,370.922 252.492,370.922 254.425,370.922 256.358,370.922 258.290,370.922 260.223,370.922 262.155,370.922 264.088,370.922 266.021,370.922 267.953,370.922 269.886,370.922 271.819,370.922 273.751,370.922 275.684,370.922 277.617,370.922 279.549,370.922 281.482,370.922 283.415,370.922 285.347,370.922 287.280,370.922 289.213,370.922 291.145,370.922 293.078,370.922 295.011,370.922 296.943,370.922 298.876,370.922 300.809,370.922 302.741,370.922 304.674,370.922 306.607,370.922 308.539,370.922 310.472,370.922 312.405,370.922 314.337,370.922 316.270,370.922 318.202,370.922 320.135,370.922 322.068,370.922 324.000,370.922 325.933,370.922 327.866,370.922 329.798,370.922 331.731,370.922 333.664,370.922 335.596,370.922 337.529,370.922 339.462,370.922 341.394,370.922 343.327,370.922 345.260,370.922 347.192,370.922 349.125,370.922 351.058,370.922 352.990,370.922 354.923,370.922 356.856,370.922 358.788,370.922 360.721,370.922 362.654,370.922 364.586,370.922 366.519,370.922 368.452,370.922 370.384,370.922 372.317,370.922 374.250,370.922 376.182,370.922 378.115,370.922 380.048,370.922 381.980,370.922 383.913,370.922 385.845,370.922 387.778,370.922 389.711,370.922 391.643,370.922 393.576,370.922 395.509,370.922 397.441,370.922 399.374,370.922 401.307,370.922 403.239,370.922 405.172,370.922 407.105,370.922 409.037,370.922 410.970,370.922 412.903,370.922 414.835,370.922 416.768,370.922 418.701,370.922 420.633,370.922 422.566,370.922 424.499,370.922 426.431,370.922 428.364,370.922 430.297,370.922 432.229,370.922 434.162,370.922 436.095,370.922 438.027,370.922 439.960,370.922 441.892,370.923 443.825,370.926 445.758,370.935 447.690,370.961 449.623,371.034 451.556,371.217 453.488,371.633 455.421,372.503 457.354,374.162 459.286,377.040 461.219,381.567 463.152,387.985 465.084,396.119 467.017,405.201 468.950,413.883 470.882,420.521 472.815,423.671 474.748,422.599 476.680,417.559 478.613,409.693 480.546,400.614 482.478,391.870 484.411,384.538 486.344,379.075 488.276,375.420 490.209,373.209 492.142,371.993 494.074,371.384 496.007,371.106 497.940,370.989 499.872,370.945 501.805,370.929 503.738,370.924 505.670,370.922 507.603,370.922 509.535,370.922 511.468,370.922 513.401,370.922 515.333,370.922 517.266,370.922 519.199,370.922 521.131,370.922 523.064,370.922 524.997,370.922 526.929,370.922 528.862,370.922 530.795,370.922 532.727,370.922 534.660,370.922 536.593,370.924 538.525,370.929 540.458,370.945 542.391,370.989 544.323,371.106 546.256,371.384 548.189,371.993 550.121,373.209 552.054,375.420 553.987,379.075 555.919,384.538 557.852,391.870 559.785,400.614 561.717,409.693 563.650,417.559 565.582,422.599 567.515,423.671 569.448,420.521 571.380,413.883 573.313,405.201 575.246,396.119 577.178,387.985 579.111,381.567 581.044,377.040 582.976,374.162 584.909,372.503 586.842,371.633 588.774,371.217 590.707,371.034 592.640,370.961 594.572,370.935 596.505,370.926 598.438,370.923 600.370,370.922 602.303,370.922 604.236,370.922 606.168,370.922 608.101,370.922 610.034,370.922 611.966,370.922 613.899,370.922 615.832,370.922 617.764,370.922 619.697,370.922 621.630,370.922 623.562,370.922 625.495,370.922 627.428,370.922 629.360,370.922 631.293,370.922 633.225,370.922 635.158,370.922 637.091,370.922 639.023,370.922 640.956,370.922 642.889,370.922 644.821,370.922 646.754,370.922 648.687,370.922 650.619,370.922 652.552,370.922 654.485,370.922 656.417,370.922 658.350,370.922 660.283,370.922 662.215,370.922 664.148,370.922 666.081,370.921 668.013,370.920 669.946,370.918 671.879,370.912 673.811,370.900 675.744,370.874 677.677,370.821 679.609,370.664 681.542,370.267 683.475,369.371 685.407,367.557 687.340,364.288 689.273,359.126 691.205,352.153 693.138,344.459 695.070,338.270 697.003,336.258 698.936,340.030 700.868,348.698 702.801,358.922 704.734,366.886 706.666,370.762 708.599,371.455 710.532,371.049 712.464,370.838 714.397,370.899 716.330,370.942 718.262,370.923 720.195,370.917 722.128,370.923 724.060,370.923 725.993,370.921 727.926,370.922 729.858,370.922 731.791,370.922 733.724,370.921 735.656,370.919 737.589,370.910 739.522,370.880 741.454,370.787 743.387,370.531 745.320,369.895 747.252,368.484 749.185,365.722 751.117,361.021 753.050,354.219 754.983,346.181 756.915,339.110 758.848,335.940 760.781,338.670 762.713,346.691 764.646,356.724 766.579,364.921 768.511,369.393 770.444,370.832 772.377,370.968 774.309,370.917 776.242,370.919 778.175,370.924 780.107,370.922 782.040,370.922 783.973,370.922 785.905,370.922 787.838,370.922 789.771,370.922 791.703,370.922 793.636,370.922 795.569,370.922 797.501,370.922 799.434,370.922 801.367,370.922 803.299,370.922 805.232,370.922 807.165,370.922 809.097,370.922 811.030,370.922 812.962,370.922 814.895,370.922 816.828,370.922 818.760,370.922 820.693,370.922 822.626,370.922 824.558,370.922 826.491,370.922 828.424,370.922 830.356,370.922 832.289,370.922 834.222,370.922 836.154,370.922 838.087,370.922 840.020,370.922 841.952,370.922 843.885,370.922 845.818,370.922 847.750,370.922 849.683,370.922 851.616,370.922 853.548,370.922 855.481,370.922 857.414,370.922 859.346,370.922 861.279,370.922 863.212,370.922 865.144,370.922 867.077,370.922 869.010,370.922 870.942,370.922 872.875,370.922 874.808,370.922 876.740,370.922 878.673,370.922 880.605,370.922 882.538,370.922 884.471,370.922 886.403,370.922 888.336,370.922 890.269,370.922 892.201,370.922 894.134,370.922 896.067,370.922 897.999,370.922 899.932,370.922 901.865,370.922 903.797,370.922 905.730,370.922 907.663,370.922 909.595,370.922 911.528,370.922 913.461,370.922 915.393,370.922 917.326,370.922 919.259,370.922 921.191,370.922 923.124,370.922 925.057,370.922 926.989,370.922 928.922,370.922 930.855,370.922 932.787,370.922 934.720,370.922 936.653,370.922 938.585,370.922 940.518,370.922 942.450,370.922 944.383,370.922 946.316,370.922 948.248,370.922 950.181,370.922 952.114,370.922 954.046,370.922 955.979,370.922 957.912,370.922 959.844,370.922 961.777,370.922 963.710,370.922 965.642,370.922 967.575,370.922 969.508,370.922 971.440,370.922 973.373,370.922 975.306,370.922 977.238,370.922 979.171,370.922 981.104,370.922 983.036,370.922 984.969,370.922 986.902,370.922 988.834,370.922 990.767,370.922 992.700,370.922 994.632,370.922 996.565,370.922 998.497,370.922 1000.430,370.922 1002.363,370.922 1004.295,370.922 1006.228,370.922 1008.161,370.922 1010.093,370.922 1012.026,370.922 1013.959,370.922 1015.891,370.922 1017.824,370.922 1019.757,370.922 1021.689,370.922 1023.622,370.922 1025.555,370.922 1027.487,370.922 1029.420,370.922 1031.353,370.922 1033.285,370.922 1035.218,370.922 1037.151,370.922 1039.083,370.922 1041.016,370.922 1042.949,370.922 1044.881,370.922 1046.814,370.922 1048.747,370.922 1050.679,370.922 1052.612,370.922 1054.545,370.922 1056.477,370.922 1058.410,370.922 1060.343,370.922 1062.275,370.922 1064.208,370.922 1066.140,370.922 1068.073,370.922 1070.006,370.922 1071.938,370.922 1073.871,370.922 1075.804,370.922 1077.736,370.922 1079.669,370.922 1081.602,370.922 1083.534,370.922 1085.467,370.922 1087.400,370.922 1089.332,370.922 1091.265,370.922 1093.198,370.922 1095.130,370.922 1097.063,370.922 1098.996,370.922 1100.928,370.922 1102.861,370.922 1104.794,370.922 1106.726,370.922 1108.659,370.922 1110.592,370.922 1112.524,370.922 1114.457,370.922 1116.390,370.922 1118.322,370.922 1120.255,370.922 1122.188,370.922 1124.120,370.922 1126.053,370.922 1127.985,370.922 1129.918,370.922 1131.851,370.922 1133.783,370.922 1135.716,370.922 1137.649,370.922 1139.581,370.922 1141.514,370.922 1143.447,370.922 1145.379,370.922 1147.312,370.922 1149.245,370.922 1151.177,370.922 1153.110,370.922 1155.043,370.922 1156.975,370.922 1158.908,370.922 1160.841,370.922 1162.773,370.922 1164.706,370.922 1166.639,370.922 1168.571,370.922 1170.504,370.922 1172.437,370.922 1174.369,370.922 1176.302,370.922 1178.235,370.922 1180.167,370.922 1182.100,370.922 1184.033,370.922 1185.965,370.922 1187.898,370.922 1189.830,370.922 1191.763,370.922 1193.696,370.922 1195.628,370.922 1197.561,370.922 1199.494,370.922 1201.426,370.922 1203.359,370.922 1205.292,370.922 1207.224,370.922 1209.157,370.922 1211.090,370.922 1213.022,370.922 1214.955,370.922 1216.888,370.922 1218.820,370.922 1220.753,370.922 1222.686,370.922 1224.618,370.922 1226.551,370.922 1228.484,370.922 1230.416,370.922 1232.349,370.922 1234.282,370.922 1236.214,370.922 1238.147,370.922 1240.080,370.922 1242.012,370.922 1243.945,370.922 1245.878,370.922 1247.810,370.922 1249.743,370.922 1251.675,370.922 1253.608,370.922 1255.541,370.922 1257.473,370.922 1259.406,370.922 1261.339,370.922 1263.271,370.922 1265.204,370.922 1267.137,370.922 1269.069,370.922 1271.002,370.922 1272.935,370.922 1274.867,370.922 1276.800,370.922 1278.733,370.922 1280.665,370.922 1282.598,370.922 1284.531,370.922 1286.463,370.922 1288.396,370.922 1290.329,370.922 1292.261,370.922 1294.194,370.922 1296.127,370.922 1298.059,370.922 1299.992,370.922 1301.925,370.922 1303.857,370.922 1305.790,370.922 1307.723,370.922 1309.655,370.922 1311.588,370.922 1313.520,370.922 1315.453,370.922 1317.386,370.922 1319.318,370.922 1321.251,370.922 1323.184,370.922 1325.116,370.922 1327.049,370.922 1328.982,370.922 1330.914,370.922 1332.847,370.922 1334.780,370.922 1336.712,370.922 1338.645,370.922 1340.578,370.922 1342.510,370.922 1344.443,370.922 1346.376,370.922 1348.308,370.922 1350.241,370.922 1352.174,370.922 1354.106,370.922 "/>
<g>
</g>
</g>
    </g>
    <g>
      <polyline fill="none" stroke="#262626" stroke-width="0.5pt" stroke-dasharray="none" points="194.513,684.188 194.513,672.592 "/>
      <polyline fill="none" stroke="#262626" stroke-width="0.5pt" stroke-dasharray="none" points="387.778,684.188 387.778,672.592 "/>
      <polyline fill="none" stroke="#262626" stroke-width="0.5pt" stroke-dasharray="none" points="581.044,684.188 581.044,672.592 "/>
      <polyline fill="none" stroke="#262626" stroke-width="0.5pt" stroke-dasharray="none" points="774.309,684.188 774.309,672.592 "/>
      <polyline fill="none" stroke="#262626" stroke-width="0.5pt" stroke-dasharray="none" points="967.575,684.188 967.575,672.592 "/>
      <polyline fill="none" stroke="#262626" stroke-width="0.5pt" stroke-dasharray="none" points="1160.841,684.188 1160.841,672.592 "/>
      <polyline fill="none" stroke="#262626" stroke-width="0.5pt" stroke-dasharray="none" points="1354.106,684.188 1354.106,672.592 "/>
      <polyline fill="none" stroke="#262626" stroke-width="0.5pt" stroke-dasharray="none" points="194.513,684.188 1354.106,684.188 "/>
  <g transform="translate(194.513,707.781)">
    <g transform="rotate(-0.0)">
      <text x="0.000" y="0.000" font-family="times new roman" text-anchor="middle" font-size="9pt" fill="#262626" >0</text>
    </g>
  </g>
  <g transform="translate(387.778,707.781)">
    <g transform="rotate(-0.0)">
      <text x="0.000" y="0.000" font-family="times new roman" text-anchor="middle" font-size="9pt" fill="#262626" >100</text>
    </g>
  </g>
  <g transform="translate(581.044,707.781)">
    <g transform="rotate(-0.0)">
      <text x="0.000" y="0.000" font-family="times new roman" text-anchor="middle" font-size="9pt" fill="#262626" >200</text>
    </g>
  </g>
  <g transform="translate(774.309,707.781)">
    <g transform="rotate(-0.0)">
      <text x="0.000" y="0.000" font-family="times new roman" text-anchor="middle" font-size="9pt" fill="#262626" >300</text>
    </g>
  </g>
  <g transform="translate(967.575,707.781)">
    <g transform="rotate(-0.0)">
      <text x="0.000" y="0.000" font-family="times new roman" text-anchor="middle" font-size="9pt" fill="#262626" >400</text>
    </g>
  </g>
  <g transform="translate(1160.841,707.781)">
    <g transform="rotate(-0.0)">
      <text x="0.000" y="0.000" font-family="times new roman" text-anchor="middle" font-size="9pt" fill="#262626" >500</text>
    </g>
  </g>
  <g transform="translate(1354.106,707.781)">
    <g transform="rotate(-0.0)">
      <text x="0.000" y="0.000" font-family="times new roman" text-anchor="middle" font-size="9pt" fill="#262626" >600</text>
    </g>
  </g>
      <polyline fill="none" stroke="#262626" stroke-width="0.5pt" stroke-dasharray="none" points="194.513,684.188 206.108,684.188 "/>
      <polyline fill="none" stroke="#262626" stroke-width="0.5pt" stroke-dasharray="none" points="194.513,621.534 206.108,621.534 "/>
      <polyline fill="none" stroke="#262626" stroke-width="0.5pt" stroke-dasharray="none" points="194.513,558.881 206.108,558.881 "/>
      <polyline fill="none" stroke="#262626" stroke-width="0.5pt" stroke-dasharray="none" points="194.513,496.228 206.108,496.228 "/>
      <polyline fill="none" stroke="#262626" stroke-width="0.5pt" stroke-dasharray="none" points="194.513,433.575 206.108,433.575 "/>
      <polyline fill="none" stroke="#262626" stroke-width="0.5pt" stroke-dasharray="none" points="194.513,370.922 206.108,370.922 "/>
      <polyline fill="none" stroke="#262626" stroke-width="0.5pt" stroke-dasharray="none" points="194.513,308.269 206.108,308.269 "/>
      <polyline fill="none" stroke="#262626" stroke-width="0.5pt" stroke-dasharray="none" points="194.513,245.616 206.108,245.616 "/>
      <polyline fill="none" stroke="#262626" stroke-width="0.5pt" stroke-dasharray="none" points="194.513,182.962 206.108,182.962 "/>
      <polyline fill="none" stroke="#262626" stroke-width="0.5pt" stroke-dasharray="none" points="194.513,120.309 206.108,120.309 "/>
      <polyline fill="none" stroke="#262626" stroke-width="0.5pt" stroke-dasharray="none" points="194.513,57.656 206.108,57.656 "/>
      <polyline fill="none" stroke="#262626" stroke-width="0.5pt" stroke-dasharray="none" points="194.513,684.188 194.513,57.656 "/>
  <g transform="translate(171.321,688.406)">
    <g transform="rotate(-0.0)">
      <text x="0.000" y="0.000" font-family="times new roman" text-anchor="end" font-size="9pt" fill="#262626" >-1</text>
    </g>
  </g>
  <g transform="translate(171.321,625.753)">
    <g transform="rotate(-0.0)">
      <text x="0.000" y="0.000" font-family="times new roman" text-anchor="end" font-size="9pt" fill="#262626" >-0.8</text>
    </g>
  </g>
  <g transform="translate(171.321,563.100)">
    <g transform="rotate(-0.0)">
      <text x="0.000" y="0.000" font-family="times new roman" text-anchor="end" font-size="9pt" fill="#262626" >-0.6</text>
    </g>
  </g>
  <g transform="translate(171.321,500.447)">
    <g transform="rotate(-0.0)">
      <text x="0.000" y="0.000" font-family="times new roman" text-anchor="end" font-size="9pt" fill="#262626" >-0.4</text>
    </g>
  </g>
  <g transform="translate(171.321,437.794)">
    <g transform="rotate(-0.0)">
      <text x="0.000" y="0.000" font-family="times new roman" text-anchor="end" font-size="9pt" fill="#262626" >-0.2</text>
    </g>
  </g>
  <g transform="translate(171.321,375.141)">
    <g transform="rotate(-0.0)">
      <text x="0.000" y="0.000" font-family="times new roman" text-anchor="end" font-size="9pt" fill="#262626" >0</text>
    </g>
  </g>
  <g transform="translate(171.321,312.487)">
    <g transform="rotate(-0.0)">
      <text x="0.000" y="0.000" font-family="times new roman" text-anchor="end" font-size="9pt" fill="#262626" >0.2</text>
    </g>
  </g>
  <g transform="translate(171.321,249.834)">
    <g transform="rotate(-0.0)">
      <text x="0.000" y="0.000" font-family="times new roman" text-anchor="end" font-size="9pt" fill="#262626" >0.4</text>
    </g>
  </g>
  <g transform="translate(171.321,187.181)">
    <g transform="rotate(-0.0)">
      <text x="0.000" y="0.000" font-family="times new roman" text-anchor="end" font-size="9pt" fill="#262626" >0.6</text>
    </g>
  </g>
  <g transform="translate(171.321,124.528)">
    <g transform="rotate(-0.0)">
      <text x="0.000" y="0.000" font-family="times new roman" text-anchor="end" font-size="9pt" fill="#262626" >0.8</text>
    </g>
  </g>
  <g transform="translate(171.321,61.875)">
    <g transform="rotate(-0.0)">
      <text x="0.000" y="0.000" font-family="times new roman" text-anchor="end" font-size="9pt" fill="#262626" >1</text>
    </g>
  </g>
      <polyline fill="none" stroke="#262626" stroke-width="0.5pt" stroke-dasharray="none" points="194.513,684.188 194.513,677.922 "/>
      <polyline fill="none" stroke="#262626" stroke-width="0.5pt" stroke-dasharray="none" points="194.513,684.188 194.513,677.922 "/>
      <polyline fill="none" stroke="#262626" stroke-width="0.5pt" stroke-dasharray="none" points="194.513,684.187 194.513,677.922 "/>
      <polyline fill="none" stroke="#262626" stroke-width="0.5pt" stroke-dasharray="none" points="194.513,684.188 194.513,684.187 "/>
    </g>
  </g>
  </g>
</svg>
