<?xml version="1.0" encoding="utf-8" standalone="no"?><!DOCTYPE svg PUBLIC "-//W3C//DTD SVG 1.1//EN" "http://www.w3.org/Graphics/SVG/1.1/DTD/svg11.dtd">
<svg preserveAspectRatio="xMinYMin meet" width="100%" height="100%" viewBox="0 0 1496.250 768.750"  version="1.1" xmlns="http://www.w3.org/2000/svg" xmlns:xlink="http://www.w3.org/1999/xlink">
  <desc>Matlab Figure Converted by PLOT2SVG written by Juerg Schwizer</desc>
  <g id="topgroup">
  <rect x="0" y="0" width="1496.250" height="768.750" fill="#ffffff" stroke="none" />
  <g id ="ID000000">
  <clipPath id="ID000001">
    <rect x="194.513" y="57.656" width="1159.594" height="626.531"/>
  </clipPath>
      <polygon fill="#ffffff" fill-opacity="1.00" stroke="none" stroke-width="0.5pt" stroke-opacity="1.00" stroke-dasharray="none" points="194.513,684.188 1354.106,684.188 1354.106,57.656 194.513,57.656 "/>
      <polygon fill="#ffffff" fill-opacity="1.00" stroke="none" stroke-width="0.5pt" stroke-opacity="1.00" stroke-dasharray="none" points="194.513,57.656 1354.106,57.656 1354.106,57.656 194.513,57.656 "/>
      <polygon fill="#ffffff" fill-opacity="1.00" stroke="none" stroke-width="0.5pt" stroke-opacity="1.00" stroke-dasharray="none" points="194.513,684.188 194.513,684.187 194.513,57.656 194.513,57.656 "/>
    <g>
<g id="ID000002" >
</g>
<g id="ID000003" >
</g>
<g id="ID000004" >
  <g transform="translate(774.310,52.503)">
    <g transform="rotate(-0.0)">
      <text x="0.000" y="0.000" font-family="times new roman" text-anchor="middle" font-size="10pt" font-weight="bold" fill="#000000" >E-field at Time Step 373</text>
    </g>
  </g>
</g>
<g id="ID000005" clip-path="url(#ID000001)" >
      <polyline fill="none" stroke="#000000" stroke-width="1.4pt" stroke-dasharray="none" points="196.445,370.922 198.378,370.922 200.310,370.922 202.243,370.922 204.176,370.922 206.108,370.922 208.041,370.922 209.974,370.922 211.906,370.922 213.839,370.922 215.772,370.922 217.704,370.922 219.637,370.922 221.570,370.922 223.502,370.922 225.435,370.922 227.368,370.922 229.300,370.922 231.233,370.922 233.166,370.922 235.098,370.922 237.031,370.922 238.964,370.922 240.896,370.922 242.829,370.922 244.762,370.922 246.694,370.922 248.627,370.922 250.560,370.922 252.492,370.922 254.425,370.922 256.358,370.922 258.290,370.922 260.223,370.922 262.155,370.922 264.088,370.922 266.021,370.922 267.953,370.922 269.886,370.922 271.819,370.922 273.751,370.922 275.684,370.922 277.617,370.922 279.549,370.922 281.482,370.922 283.415,370.922 285.347,370.922 287.280,370.922 289.213,370.922 291.145,370.922 293.078,370.922 295.011,370.922 296.943,370.922 298.876,370.922 300.809,370.922 302.741,370.922 304.674,370.922 306.607,370.922 308.539,370.922 310.472,370.922 312.405,370.922 314.337,370.922 316.270,370.922 318.202,370.922 320.135,370.922 322.068,370.922 324.000,370.924 325.933,370.929 327.866,370.945 329.798,370.989 331.731,371.106 333.664,371.384 335.596,371.993 337.529,373.209 339.462,375.420 341.394,379.075 343.327,384.538 345.260,391.870 347.192,400.614 349.125,409.693 351.058,417.559 352.990,422.599 354.923,423.671 356.856,420.521 358.788,413.883 360.721,405.201 362.654,396.119 364.586,387.985 366.519,381.567 368.452,377.041 370.384,374.162 372.317,372.503 374.250,371.633 376.182,371.217 378.115,371.034 380.048,370.962 381.980,370.935 383.913,370.926 385.845,370.923 387.778,370.922 389.711,370.922 391.643,370.922 393.576,370.922 395.509,370.922 397.441,370.922 399.374,370.922 401.307,370.922 403.239,370.922 405.172,370.922 407.105,370.922 409.037,370.922 410.970,370.922 412.903,370.922 414.835,370.922 416.768,370.923 418.701,370.926 420.633,370.935 422.566,370.961 424.499,371.034 426.431,371.217 428.364,371.633 430.297,372.503 432.229,374.162 434.162,377.040 436.095,381.567 438.027,387.985 439.960,396.119 441.892,405.201 443.825,413.883 445.758,420.521 447.690,423.671 449.623,422.599 451.556,417.559 453.488,409.693 455.421,400.614 457.354,391.870 459.286,384.538 461.219,379.075 463.152,375.420 465.084,373.209 467.017,371.993 468.950,371.384 470.882,371.106 472.815,370.989 474.748,370.945 476.680,370.929 478.613,370.924 480.546,370.922 482.478,370.922 484.411,370.922 486.344,370.922 488.276,370.922 490.209,370.922 492.142,370.922 494.074,370.922 496.007,370.922 497.940,370.922 499.872,370.922 501.805,370.922 503.738,370.922 505.670,370.922 507.603,370.922 509.535,370.922 511.468,370.922 513.401,370.922 515.333,370.922 517.266,370.922 519.199,370.922 521.131,370.922 523.064,370.922 524.997,370.922 526.929,370.922 528.862,370.922 530.795,370.922 532.727,370.922 534.660,370.922 536.593,370.922 538.525,370.922 540.458,370.922 542.391,370.922 544.323,370.922 546.256,370.921 548.189,370.921 550.121,370.919 552.054,370.916 553.987,370.907 555.919,370.890 557.852,370.852 559.785,370.777 561.717,370.631 563.650,370.361 565.582,369.884 567.515,369.077 569.448,367.775 571.380,365.777 573.313,362.875 575.246,358.896 577.178,353.779 579.111,347.664 581.044,340.963 582.976,334.395 584.909,328.920 586.842,325.583 588.774,325.248 590.707,328.322 592.640,334.538 594.572,342.931 596.505,352.048 598.438,360.339 600.370,366.622 602.303,370.402 604.236,371.930 606.168,371.969 608.101,371.408 610.034,370.901 611.966,370.711 613.899,370.776 615.832,370.910 617.764,370.978 619.697,370.963 621.630,370.921 623.562,370.902 625.495,370.911 627.428,370.926 629.360,370.930 631.293,370.924 633.225,370.919 635.158,370.919 637.091,370.923 639.023,370.923 640.956,370.921 642.889,370.919 644.821,370.917 646.754,370.913 648.687,370.901 650.619,370.874 652.552,370.820 654.485,370.715 656.417,370.516 658.350,370.155 660.283,369.531 662.215,368.499 664.148,366.876 666.081,364.452 668.013,361.027 669.946,356.477 671.879,350.828 673.811,344.349 675.744,337.607 677.677,331.455 679.609,328.533 681.542,330.979 683.475,338.940 685.407,349.910 687.340,359.945 689.273,366.157 691.205,368.402 693.138,368.611 695.070,368.655 697.003,369.066 698.936,369.523 700.868,369.816 702.801,370.032 704.734,370.234 706.666,370.397 708.599,370.518 710.532,370.617 712.464,370.694 714.397,370.752 716.330,370.796 718.262,370.830 720.195,370.855 722.128,370.874 724.060,370.888 725.993,370.898 727.926,370.905 729.858,370.910 731.791,370.914 733.724,370.916 735.656,370.917 737.589,370.918 739.522,370.919 741.454,370.921 743.387,370.922 745.320,370.923 747.252,370.923 749.185,370.921 751.117,370.915 753.050,370.903 754.983,370.878 756.915,370.825 758.848,370.720 760.781,370.524 762.713,370.188 764.646,369.673 766.579,368.977 768.511,368.181 770.444,367.466 772.377,367.090 774.309,367.274 776.242,368.066 778.175,369.242 780.107,370.381 782.040,371.093 783.973,371.267 785.905,371.111 787.838,370.944 789.771,370.921 791.703,370.975 793.636,370.975 795.569,370.975 797.501,370.975 799.434,370.975 801.367,370.975 803.299,370.975 805.232,370.975 807.165,370.975 809.097,370.975 811.030,370.975 812.962,370.975 814.895,370.975 816.828,370.975 818.760,370.975 820.693,370.975 822.626,370.975 824.558,370.975 826.491,370.975 828.424,370.975 830.356,370.975 832.289,370.975 834.222,370.975 836.154,370.975 838.087,370.975 840.020,370.975 841.952,370.975 843.885,370.975 845.818,370.975 847.750,370.975 849.683,370.975 851.616,370.975 853.548,370.975 855.481,370.975 857.414,370.975 859.346,370.975 861.279,370.975 863.212,370.975 865.144,370.975 867.077,370.975 869.010,370.975 870.942,370.975 872.875,370.975 874.808,370.975 876.740,370.975 878.673,370.975 880.605,370.975 882.538,370.975 884.471,370.975 886.403,370.975 888.336,370.975 890.269,370.975 892.201,370.975 894.134,370.975 896.067,370.975 897.999,370.975 899.932,370.975 901.865,370.975 903.797,370.975 905.730,370.975 907.663,370.975 909.595,370.975 911.528,370.975 913.461,370.975 915.393,370.975 917.326,370.975 919.259,370.975 921.191,370.975 923.124,370.975 925.057,370.975 926.989,370.975 928.922,370.975 930.855,370.975 932.787,370.975 934.720,370.975 936.653,370.975 938.585,370.975 940.518,370.975 942.450,370.975 944.383,370.975 946.316,370.975 948.248,370.975 950.181,370.975 952.114,370.975 954.046,370.975 955.979,370.975 957.912,370.975 959.844,370.975 961.777,370.975 963.710,370.975 965.642,370.975 967.575,370.975 969.508,370.975 971.440,370.975 973.373,370.975 975.306,370.975 977.238,370.975 979.171,370.975 981.104,370.975 983.036,370.975 984.969,370.975 986.902,370.975 988.834,370.975 990.767,370.975 992.700,370.975 994.632,370.975 996.565,370.975 998.497,370.975 1000.430,370.975 1002.363,370.975 1004.295,370.975 1006.228,370.975 1008.161,370.975 1010.093,370.975 1012.026,370.975 1013.959,370.975 1015.891,370.975 1017.824,370.975 1019.757,370.975 1021.689,370.975 1023.622,370.975 1025.555,370.975 1027.487,370.975 1029.420,370.975 1031.353,370.975 1033.285,370.975 1035.218,370.975 1037.151,370.975 1039.083,370.975 1041.016,370.975 1042.949,370.975 1044.881,370.975 1046.814,370.975 1048.747,370.975 1050.679,370.975 1052.612,370.975 1054.545,370.975 1056.477,370.975 1058.410,370.975 1060.343,370.975 1062.275,370.975 1064.208,370.975 1066.140,370.975 1068.073,370.975 1070.006,370.975 1071.938,370.975 1073.871,370.975 1075.804,370.975 1077.736,370.975 1079.669,370.975 1081.602,370.975 1083.534,370.975 1085.467,370.975 1087.400,370.975 1089.332,370.975 1091.265,370.975 1093.198,370.975 1095.130,370.975 1097.063,370.975 1098.996,370.975 1100.928,370.975 1102.861,370.975 1104.794,370.975 1106.726,370.975 1108.659,370.975 1110.592,370.975 1112.524,370.975 1114.457,370.975 1116.390,370.975 1118.322,370.975 1120.255,370.975 1122.188,370.975 1124.120,370.975 1126.053,370.975 1127.985,370.975 1129.918,370.975 1131.851,370.975 1133.783,370.975 1135.716,370.975 1137.649,370.975 1139.581,370.975 1141.514,370.975 1143.447,370.975 1145.379,370.975 1147.312,370.975 1149.245,370.975 1151.177,370.975 1153.110,370.975 1155.043,370.975 1156.975,370.975 1158.908,370.975 1160.841,370.975 1162.773,370.975 1164.706,370.975 1166.639,370.975 1168.571,370.975 1170.504,370.975 1172.437,370.975 1174.369,370.975 1176.302,370.975 1178.235,370.975 1180.167,370.975 1182.100,370.975 1184.033,370.975 1185.965,370.975 1187.898,370.975 1189.830,370.975 1191.763,370.975 1193.696,370.975 1195.628,370.975 1197.561,370.975 1199.494,370.975 1201.426,370.975 1203.359,370.975 1205.292,370.975 1207.224,370.975 1209.157,370.975 1211.090,370.975 1213.022,370.975 1214.955,370.975 1216.888,370.975 1218.820,370.975 1220.753,370.975 1222.686,370.975 1224.618,370.975 1226.551,370.975 1228.484,370.975 1230.416,370.975 1232.349,370.975 1234.282,370.975 1236.214,370.975 1238.147,370.975 1240.080,370.975 1242.012,370.975 1243.945,370.975 1245.878,370.975 1247.810,370.975 1249.743,370.975 1251.675,370.975 1253.608,370.975 1255.541,370.975 1257.473,370.975 1259.406,370.975 1261.339,370.975 1263.271,370.975 1265.204,370.975 1267.137,370.975 1269.069,370.975 1271.002,370.975 1272.935,370.975 1274.867,370.975 1276.800,370.975 1278.733,370.975 1280.665,370.975 1282.598,370.975 1284.531,370.975 1286.463,370.975 1288.396,370.975 1290.329,370.975 1292.261,370.975 1294.194,370.975 1296.127,370.975 1298.059,370.975 1299.992,370.975 1301.925,370.975 1303.857,370.975 1305.790,370.975 1307.723,370.975 1309.655,370.975 1311.588,370.975 1313.520,370.975 1315.453,370.975 1317.386,370.975 1319.318,370.975 1321.251,370.975 1323.184,370.975 1325.116,370.975 1327.049,370.975 1328.982,370.975 1330.914,370.975 1332.847,370.975 1334.780,370.975 1336.712,370.975 1338.645,370.975 1340.578,370.975 1342.510,370.975 1344.443,370.975 1346.376,370.975 1348.308,370.975 1350.241,370.975 1352.174,370.975 1354.106,370.914 "/>
<g>
</g>
</g>
<g id="ID000006" clip-path="url(#ID000001)" >
      <polyline fill="none" stroke="#000000" stroke-width="0.5pt" stroke-dasharray="none" points="677.677,684.188 677.677,57.656 "/>
<g>
</g>
</g>
<g id="ID000007" clip-path="url(#ID000001)" >
      <polyline fill="none" stroke="#000000" stroke-width="0.5pt" stroke-dasharray="none" points="791.703,684.188 791.703,57.656 "/>
<g>
</g>
</g>
<g id="ID000008" clip-path="url(#ID000001)" >
      <polyline fill="none" stroke="#d85218" stroke-width="0.5pt" stroke-dasharray="none" points="196.445,370.922 198.378,370.922 200.310,370.922 202.243,370.922 204.176,370.922 206.108,370.922 208.041,370.922 209.974,370.922 211.906,370.922 213.839,370.922 215.772,370.922 217.704,370.922 219.637,370.922 221.570,370.922 223.502,370.922 225.435,370.922 227.368,370.922 229.300,370.922 231.233,370.922 233.166,370.922 235.098,370.922 237.031,370.922 238.964,370.922 240.896,370.922 242.829,370.922 244.762,370.922 246.694,370.922 248.627,370.922 250.560,370.922 252.492,370.922 254.425,370.922 256.358,370.922 258.290,370.922 260.223,370.922 262.155,370.922 264.088,370.922 266.021,370.922 267.953,370.922 269.886,370.922 271.819,370.922 273.751,370.922 275.684,370.922 277.617,370.922 279.549,370.922 281.482,370.922 283.415,370.922 285.347,370.922 287.280,370.922 289.213,370.922 291.145,370.922 293.078,370.922 295.011,370.922 296.943,370.922 298.876,370.922 300.809,370.922 302.741,370.922 304.674,370.922 306.607,370.922 308.539,370.922 310.472,370.922 312.405,370.922 314.337,370.922 316.270,370.922 318.202,370.922 320.135,370.922 322.068,370.922 324.000,370.924 325.933,370.929 327.866,370.945 329.798,370.989 331.731,371.106 333.664,371.384 335.596,371.993 337.529,373.209 339.462,375.420 341.394,379.075 343.327,384.538 345.260,391.870 347.192,400.614 349.125,409.693 351.058,417.559 352.990,422.599 354.923,423.671 356.856,420.521 358.788,413.883 360.721,405.201 362.654,396.119 364.586,387.985 366.519,381.567 368.452,377.041 370.384,374.162 372.317,372.503 374.250,371.633 376.182,371.217 378.115,371.034 380.048,370.962 381.980,370.935 383.913,370.926 385.845,370.923 387.778,370.922 389.711,370.922 391.643,370.922 393.576,370.922 395.509,370.922 397.441,370.922 399.374,370.922 401.307,370.922 403.239,370.922 405.172,370.922 407.105,370.922 409.037,370.922 410.970,370.922 412.903,370.922 414.835,370.922 416.768,370.923 418.701,370.926 420.633,370.935 422.566,370.961 424.499,371.034 426.431,371.217 428.364,371.633 430.297,372.503 432.229,374.162 434.162,377.040 436.095,381.567 438.027,387.985 439.960,396.119 441.892,405.201 443.825,413.883 445.758,420.521 447.690,423.671 449.623,422.599 451.556,417.559 453.488,409.693 455.421,400.614 457.354,391.870 459.286,384.538 461.219,379.075 463.152,375.420 465.084,373.209 467.017,371.993 468.950,371.384 470.882,371.106 472.815,370.989 474.748,370.945 476.680,370.929 478.613,370.924 480.546,370.922 482.478,370.922 484.411,370.922 486.344,370.922 488.276,370.922 490.209,370.922 492.142,370.922 494.074,370.922 496.007,370.922 497.940,370.922 499.872,370.922 501.805,370.922 503.738,370.922 505.670,370.922 507.603,370.922 509.535,370.922 511.468,370.922 513.401,370.922 515.333,370.922 517.266,370.922 519.199,370.922 521.131,370.922 523.064,370.922 524.997,370.922 526.929,370.922 528.862,370.922 530.795,370.922 532.727,370.922 534.660,370.922 536.593,370.922 538.525,370.922 540.458,370.922 542.391,370.922 544.323,370.922 546.256,370.921 548.189,370.921 550.121,370.919 552.054,370.916 553.987,370.907 555.919,370.890 557.852,370.852 559.785,370.777 561.717,370.631 563.650,370.361 565.582,369.884 567.515,369.077 569.448,367.775 571.380,365.777 573.313,362.875 575.246,358.896 577.178,353.779 579.111,347.664 581.044,340.963 582.976,334.395 584.909,328.920 586.842,325.583 588.774,325.248 590.707,328.322 592.640,334.538 594.572,342.931 596.505,352.048 598.438,360.339 600.370,366.622 602.303,370.402 604.236,371.930 606.168,371.969 608.101,371.408 610.034,370.901 611.966,370.711 613.899,370.776 615.832,370.910 617.764,370.978 619.697,370.963 621.630,370.921 623.562,370.902 625.495,370.911 627.428,370.926 629.360,370.930 631.293,370.924 633.225,370.919 635.158,370.919 637.091,370.923 639.023,370.923 640.956,370.921 642.889,370.919 644.821,370.917 646.754,370.913 648.687,370.901 650.619,370.874 652.552,370.820 654.485,370.715 656.417,370.516 658.350,370.155 660.283,369.531 662.215,368.499 664.148,366.876 666.081,364.452 668.013,361.027 669.946,356.477 671.879,350.828 673.811,344.349 675.744,337.607 677.677,331.455 679.609,328.533 681.542,330.979 683.475,338.940 685.407,349.910 687.340,359.945 689.273,366.157 691.205,368.402 693.138,368.611 695.070,368.655 697.003,369.066 698.936,369.523 700.868,369.816 702.801,370.032 704.734,370.234 706.666,370.397 708.599,370.518 710.532,370.617 712.464,370.694 714.397,370.752 716.330,370.796 718.262,370.830 720.195,370.855 722.128,370.874 724.060,370.888 725.993,370.898 727.926,370.905 729.858,370.910 731.791,370.914 733.724,370.916 735.656,370.917 737.589,370.918 739.522,370.919 741.454,370.921 743.387,370.922 745.320,370.923 747.252,370.923 749.185,370.921 751.117,370.915 753.050,370.903 754.983,370.878 756.915,370.825 758.848,370.720 760.781,370.524 762.713,370.188 764.646,369.673 766.579,368.977 768.511,368.181 770.444,367.466 772.377,367.090 774.309,367.274 776.242,368.066 778.175,369.242 780.107,370.381 782.040,371.093 783.973,371.267 785.905,371.111 787.838,370.944 789.771,370.921 791.703,370.975 793.636,370.975 795.569,370.975 797.501,370.975 799.434,370.975 801.367,370.975 803.299,370.975 805.232,370.975 807.165,370.975 809.097,370.975 811.030,370.975 812.962,370.975 814.895,370.975 816.828,370.975 818.760,370.975 820.693,370.975 822.626,370.975 824.558,370.975 826.491,370.975 828.424,370.975 830.356,370.975 832.289,370.975 834.222,370.975 836.154,370.975 838.087,370.975 840.020,370.975 841.952,370.975 843.885,370.975 845.818,370.975 847.750,370.975 849.683,370.975 851.616,370.975 853.548,370.975 855.481,370.975 857.414,370.975 859.346,370.975 861.279,370.975 863.212,370.975 865.144,370.975 867.077,370.975 869.010,370.975 870.942,370.975 872.875,370.975 874.808,370.975 876.740,370.975 878.673,370.975 880.605,370.975 882.538,370.975 884.471,370.975 886.403,370.975 888.336,370.975 890.269,370.975 892.201,370.975 894.134,370.975 896.067,370.975 897.999,370.975 899.932,370.975 901.865,370.975 903.797,370.975 905.730,370.975 907.663,370.975 909.595,370.975 911.528,370.975 913.461,370.975 915.393,370.975 917.326,370.975 919.259,370.975 921.191,370.975 923.124,370.975 925.057,370.975 926.989,370.975 928.922,370.975 930.855,370.975 932.787,370.975 934.720,370.975 936.653,370.975 938.585,370.975 940.518,370.975 942.450,370.975 944.383,370.975 946.316,370.975 948.248,370.975 950.181,370.975 952.114,370.975 954.046,370.975 955.979,370.975 957.912,370.975 959.844,370.975 961.777,370.975 963.710,370.975 965.642,370.975 967.575,370.975 969.508,370.975 971.440,370.975 973.373,370.975 975.306,370.975 977.238,370.975 979.171,370.975 981.104,370.975 983.036,370.975 984.969,370.975 986.902,370.975 988.834,370.975 990.767,370.975 992.700,370.975 994.632,370.975 996.565,370.975 998.497,370.975 1000.430,370.975 1002.363,370.975 1004.295,370.975 1006.228,370.975 1008.161,370.975 1010.093,370.975 1012.026,370.975 1013.959,370.975 1015.891,370.975 1017.824,370.975 1019.757,370.975 1021.689,370.975 1023.622,370.975 1025.555,370.975 1027.487,370.975 1029.420,370.975 1031.353,370.975 1033.285,370.975 1035.218,370.975 1037.151,370.975 1039.083,370.975 1041.016,370.975 1042.949,370.975 1044.881,370.975 1046.814,370.975 1048.747,370.975 1050.679,370.975 1052.612,370.975 1054.545,370.975 1056.477,370.975 1058.410,370.975 1060.343,370.975 1062.275,370.975 1064.208,370.975 1066.140,370.975 1068.073,370.975 1070.006,370.975 1071.938,370.975 1073.871,370.975 1075.804,370.975 1077.736,370.975 1079.669,370.975 1081.602,370.975 1083.534,370.975 1085.467,370.975 1087.400,370.975 1089.332,370.975 1091.265,370.975 1093.198,370.975 1095.130,370.975 1097.063,370.975 1098.996,370.975 1100.928,370.975 1102.861,370.975 1104.794,370.975 1106.726,370.975 1108.659,370.975 1110.592,370.975 1112.524,370.975 1114.457,370.975 1116.390,370.975 1118.322,370.975 1120.255,370.975 1122.188,370.975 1124.120,370.975 1126.053,370.975 1127.985,370.975 1129.918,370.975 1131.851,370.975 1133.783,370.975 1135.716,370.975 1137.649,370.975 1139.581,370.975 1141.514,370.975 1143.447,370.975 1145.379,370.975 1147.312,370.975 1149.245,370.975 1151.177,370.975 1153.110,370.975 1155.043,370.975 1156.975,370.975 1158.908,370.975 1160.841,370.975 1162.773,370.975 1164.706,370.975 1166.639,370.975 1168.571,370.975 1170.504,370.975 1172.437,370.975 1174.369,370.975 1176.302,370.975 1178.235,370.975 1180.167,370.975 1182.100,370.975 1184.033,370.975 1185.965,370.975 1187.898,370.975 1189.830,370.975 1191.763,370.975 1193.696,370.975 1195.628,370.975 1197.561,370.975 1199.494,370.975 1201.426,370.975 1203.359,370.975 1205.292,370.975 1207.224,370.975 1209.157,370.975 1211.090,370.975 1213.022,370.975 1214.955,370.975 1216.888,370.975 1218.820,370.975 1220.753,370.975 1222.686,370.975 1224.618,370.975 1226.551,370.975 1228.484,370.975 1230.416,370.975 1232.349,370.975 1234.282,370.975 1236.214,370.975 1238.147,370.975 1240.080,370.975 1242.012,370.975 1243.945,370.975 1245.878,370.975 1247.810,370.975 1249.743,370.975 1251.675,370.975 1253.608,370.975 1255.541,370.975 1257.473,370.975 1259.406,370.975 1261.339,370.975 1263.271,370.975 1265.204,370.975 1267.137,370.975 1269.069,370.975 1271.002,370.975 1272.935,370.975 1274.867,370.975 1276.800,370.975 1278.733,370.975 1280.665,370.975 1282.598,370.975 1284.531,370.975 1286.463,370.975 1288.396,370.975 1290.329,370.975 1292.261,370.975 1294.194,370.975 1296.127,370.975 1298.059,370.975 1299.992,370.975 1301.925,370.975 1303.857,370.975 1305.790,370.975 1307.723,370.975 1309.655,370.975 1311.588,370.975 1313.520,370.975 1315.453,370.975 1317.386,370.975 1319.318,370.975 1321.251,370.975 1323.184,370.975 1325.116,370.975 1327.049,370.975 1328.982,370.975 1330.914,370.975 1332.847,370.975 1334.780,370.975 1336.712,370.975 1338.645,370.975 1340.578,370.975 1342.510,370.975 1344.443,370.975 1346.376,370.975 1348.308,370.975 1350.241,370.975 1352.174,370.975 1354.106,370.914 "/>
<g>
</g>
</g>
    </g>
    <g>
      <polyline fill="none" stroke="#262626" stroke-width="0.5pt" stroke-dasharray="none" points="194.513,684.188 194.513,672.592 "/>
      <polyline fill="none" stroke="#262626" stroke-width="0.5pt" stroke-dasharray="none" points="387.778,684.188 387.778,672.592 "/>
      <polyline fill="none" stroke="#262626" stroke-width="0.5pt" stroke-dasharray="none" points="581.044,684.188 581.044,672.592 "/>
      <polyline fill="none" stroke="#262626" stroke-width="0.5pt" stroke-dasharray="none" points="774.309,684.188 774.309,672.592 "/>
      <polyline fill="none" stroke="#262626" stroke-width="0.5pt" stroke-dasharray="none" points="967.575,684.188 967.575,672.592 "/>
      <polyline fill="none" stroke="#262626" stroke-width="0.5pt" stroke-dasharray="none" points="1160.841,684.188 1160.841,672.592 "/>
      <polyline fill="none" stroke="#262626" stroke-width="0.5pt" stroke-dasharray="none" points="1354.106,684.188 1354.106,672.592 "/>
      <polyline fill="none" stroke="#262626" stroke-width="0.5pt" stroke-dasharray="none" points="194.513,684.188 1354.106,684.188 "/>
  <g transform="translate(194.513,707.781)">
    <g transform="rotate(-0.0)">
      <text x="0.000" y="0.000" font-family="times new roman" text-anchor="middle" font-size="9pt" fill="#262626" >0</text>
    </g>
  </g>
  <g transform="translate(387.778,707.781)">
    <g transform="rotate(-0.0)">
      <text x="0.000" y="0.000" font-family="times new roman" text-anchor="middle" font-size="9pt" fill="#262626" >100</text>
    </g>
  </g>
  <g transform="translate(581.044,707.781)">
    <g transform="rotate(-0.0)">
      <text x="0.000" y="0.000" font-family="times new roman" text-anchor="middle" font-size="9pt" fill="#262626" >200</text>
    </g>
  </g>
  <g transform="translate(774.309,707.781)">
    <g transform="rotate(-0.0)">
      <text x="0.000" y="0.000" font-family="times new roman" text-anchor="middle" font-size="9pt" fill="#262626" >300</text>
    </g>
  </g>
  <g transform="translate(967.575,707.781)">
    <g transform="rotate(-0.0)">
      <text x="0.000" y="0.000" font-family="times new roman" text-anchor="middle" font-size="9pt" fill="#262626" >400</text>
    </g>
  </g>
  <g transform="translate(1160.841,707.781)">
    <g transform="rotate(-0.0)">
      <text x="0.000" y="0.000" font-family="times new roman" text-anchor="middle" font-size="9pt" fill="#262626" >500</text>
    </g>
  </g>
  <g transform="translate(1354.106,707.781)">
    <g transform="rotate(-0.0)">
      <text x="0.000" y="0.000" font-family="times new roman" text-anchor="middle" font-size="9pt" fill="#262626" >600</text>
    </g>
  </g>
      <polyline fill="none" stroke="#262626" stroke-width="0.5pt" stroke-dasharray="none" points="194.513,684.188 206.108,684.188 "/>
      <polyline fill="none" stroke="#262626" stroke-width="0.5pt" stroke-dasharray="none" points="194.513,621.534 206.108,621.534 "/>
      <polyline fill="none" stroke="#262626" stroke-width="0.5pt" stroke-dasharray="none" points="194.513,558.881 206.108,558.881 "/>
      <polyline fill="none" stroke="#262626" stroke-width="0.5pt" stroke-dasharray="none" points="194.513,496.228 206.108,496.228 "/>
      <polyline fill="none" stroke="#262626" stroke-width="0.5pt" stroke-dasharray="none" points="194.513,433.575 206.108,433.575 "/>
      <polyline fill="none" stroke="#262626" stroke-width="0.5pt" stroke-dasharray="none" points="194.513,370.922 206.108,370.922 "/>
      <polyline fill="none" stroke="#262626" stroke-width="0.5pt" stroke-dasharray="none" points="194.513,308.269 206.108,308.269 "/>
      <polyline fill="none" stroke="#262626" stroke-width="0.5pt" stroke-dasharray="none" points="194.513,245.616 206.108,245.616 "/>
      <polyline fill="none" stroke="#262626" stroke-width="0.5pt" stroke-dasharray="none" points="194.513,182.962 206.108,182.962 "/>
      <polyline fill="none" stroke="#262626" stroke-width="0.5pt" stroke-dasharray="none" points="194.513,120.309 206.108,120.309 "/>
      <polyline fill="none" stroke="#262626" stroke-width="0.5pt" stroke-dasharray="none" points="194.513,57.656 206.108,57.656 "/>
      <polyline fill="none" stroke="#262626" stroke-width="0.5pt" stroke-dasharray="none" points="194.513,684.188 194.513,57.656 "/>
  <g transform="translate(171.321,688.406)">
    <g transform="rotate(-0.0)">
      <text x="0.000" y="0.000" font-family="times new roman" text-anchor="end" font-size="9pt" fill="#262626" >-1</text>
    </g>
  </g>
  <g transform="translate(171.321,625.753)">
    <g transform="rotate(-0.0)">
      <text x="0.000" y="0.000" font-family="times new roman" text-anchor="end" font-size="9pt" fill="#262626" >-0.8</text>
    </g>
  </g>
  <g transform="translate(171.321,563.100)">
    <g transform="rotate(-0.0)">
      <text x="0.000" y="0.000" font-family="times new roman" text-anchor="end" font-size="9pt" fill="#262626" >-0.6</text>
    </g>
  </g>
  <g transform="translate(171.321,500.447)">
    <g transform="rotate(-0.0)">
      <text x="0.000" y="0.000" font-family="times new roman" text-anchor="end" font-size="9pt" fill="#262626" >-0.4</text>
    </g>
  </g>
  <g transform="translate(171.321,437.794)">
    <g transform="rotate(-0.0)">
      <text x="0.000" y="0.000" font-family="times new roman" text-anchor="end" font-size="9pt" fill="#262626" >-0.2</text>
    </g>
  </g>
  <g transform="translate(171.321,375.141)">
    <g transform="rotate(-0.0)">
      <text x="0.000" y="0.000" font-family="times new roman" text-anchor="end" font-size="9pt" fill="#262626" >0</text>
    </g>
  </g>
  <g transform="translate(171.321,312.487)">
    <g transform="rotate(-0.0)">
      <text x="0.000" y="0.000" font-family="times new roman" text-anchor="end" font-size="9pt" fill="#262626" >0.2</text>
    </g>
  </g>
  <g transform="translate(171.321,249.834)">
    <g transform="rotate(-0.0)">
      <text x="0.000" y="0.000" font-family="times new roman" text-anchor="end" font-size="9pt" fill="#262626" >0.4</text>
    </g>
  </g>
  <g transform="translate(171.321,187.181)">
    <g transform="rotate(-0.0)">
      <text x="0.000" y="0.000" font-family="times new roman" text-anchor="end" font-size="9pt" fill="#262626" >0.6</text>
    </g>
  </g>
  <g transform="translate(171.321,124.528)">
    <g transform="rotate(-0.0)">
      <text x="0.000" y="0.000" font-family="times new roman" text-anchor="end" font-size="9pt" fill="#262626" >0.8</text>
    </g>
  </g>
  <g transform="translate(171.321,61.875)">
    <g transform="rotate(-0.0)">
      <text x="0.000" y="0.000" font-family="times new roman" text-anchor="end" font-size="9pt" fill="#262626" >1</text>
    </g>
  </g>
      <polyline fill="none" stroke="#262626" stroke-width="0.5pt" stroke-dasharray="none" points="194.513,684.188 194.513,677.922 "/>
      <polyline fill="none" stroke="#262626" stroke-width="0.5pt" stroke-dasharray="none" points="194.513,684.188 194.513,677.922 "/>
      <polyline fill="none" stroke="#262626" stroke-width="0.5pt" stroke-dasharray="none" points="194.513,684.187 194.513,677.922 "/>
      <polyline fill="none" stroke="#262626" stroke-width="0.5pt" stroke-dasharray="none" points="194.513,684.188 194.513,684.187 "/>
    </g>
  </g>
  </g>
</svg>
