<?xml version="1.0" encoding="utf-8" standalone="no"?><!DOCTYPE svg PUBLIC "-//W3C//DTD SVG 1.1//EN" "http://www.w3.org/Graphics/SVG/1.1/DTD/svg11.dtd">
<svg preserveAspectRatio="xMinYMin meet" width="100%" height="100%" viewBox="0 0 1496.250 768.750"  version="1.1" xmlns="http://www.w3.org/2000/svg" xmlns:xlink="http://www.w3.org/1999/xlink">
  <desc>Matlab Figure Converted by PLOT2SVG written by Juerg Schwizer</desc>
  <g id="topgroup">
  <rect x="0" y="0" width="1496.250" height="768.750" fill="#ffffff" stroke="none" />
  <g id ="ID000000">
  <clipPath id="ID000001">
    <rect x="194.513" y="57.656" width="1159.594" height="626.531"/>
  </clipPath>
      <polygon fill="#ffffff" fill-opacity="1.00" stroke="none" stroke-width="0.5pt" stroke-opacity="1.00" stroke-dasharray="none" points="194.513,684.188 1354.106,684.188 1354.106,57.656 194.513,57.656 "/>
      <polygon fill="#ffffff" fill-opacity="1.00" stroke="none" stroke-width="0.5pt" stroke-opacity="1.00" stroke-dasharray="none" points="194.513,57.656 1354.106,57.656 1354.106,57.656 194.513,57.656 "/>
      <polygon fill="#ffffff" fill-opacity="1.00" stroke="none" stroke-width="0.5pt" stroke-opacity="1.00" stroke-dasharray="none" points="194.513,684.188 194.513,684.187 194.513,57.656 194.513,57.656 "/>
    <g>
<g id="ID000002" >
</g>
<g id="ID000003" >
</g>
<g id="ID000004" >
  <g transform="translate(774.310,52.503)">
    <g transform="rotate(-0.0)">
      <text x="0.000" y="0.000" font-family="times new roman" text-anchor="middle" font-size="10pt" font-weight="bold" fill="#000000" >E-field at Time Step 320</text>
    </g>
  </g>
</g>
<g id="ID000005" clip-path="url(#ID000001)" >
      <polyline fill="none" stroke="#000000" stroke-width="1.4pt" stroke-dasharray="none" points="196.445,370.922 198.378,370.922 200.310,370.922 202.243,370.922 204.176,370.922 206.108,370.922 208.041,370.922 209.974,370.922 211.906,370.922 213.839,370.922 215.772,370.922 217.704,370.922 219.637,370.922 221.570,370.922 223.502,370.922 225.435,370.922 227.368,370.922 229.300,370.922 231.233,370.922 233.166,370.922 235.098,370.922 237.031,370.922 238.964,370.922 240.896,370.922 242.829,370.922 244.762,370.922 246.694,370.922 248.627,370.922 250.560,370.922 252.492,370.922 254.425,370.922 256.358,370.922 258.290,370.922 260.223,370.922 262.155,370.922 264.088,370.922 266.021,370.922 267.953,370.922 269.886,370.922 271.819,370.922 273.751,370.922 275.684,370.922 277.617,370.922 279.549,370.922 281.482,370.922 283.415,370.922 285.347,370.922 287.280,370.922 289.213,370.922 291.145,370.922 293.078,370.922 295.011,370.922 296.943,370.922 298.876,370.922 300.809,370.922 302.741,370.922 304.674,370.922 306.607,370.922 308.539,370.922 310.472,370.922 312.405,370.922 314.337,370.922 316.270,370.922 318.202,370.922 320.135,370.922 322.068,370.922 324.000,370.922 325.933,370.922 327.866,370.922 329.798,370.922 331.731,370.922 333.664,370.922 335.596,370.922 337.529,370.922 339.462,370.922 341.394,370.922 343.327,370.922 345.260,370.922 347.192,370.922 349.125,370.922 351.058,370.922 352.990,370.922 354.923,370.922 356.856,370.922 358.788,370.922 360.721,370.922 362.654,370.922 364.586,370.922 366.519,370.922 368.452,370.922 370.384,370.922 372.317,370.922 374.250,370.923 376.182,370.926 378.115,370.935 380.048,370.961 381.980,371.034 383.913,371.217 385.845,371.633 387.778,372.503 389.711,374.162 391.643,377.040 393.576,381.567 395.509,387.985 397.441,396.119 399.374,405.201 401.307,413.883 403.239,420.521 405.172,423.671 407.105,422.599 409.037,417.559 410.970,409.693 412.903,400.614 414.835,391.870 416.768,384.538 418.701,379.075 420.633,375.420 422.566,373.209 424.499,371.993 426.431,371.384 428.364,371.106 430.297,370.989 432.229,370.945 434.162,370.929 436.095,370.924 438.027,370.922 439.960,370.922 441.892,370.922 443.825,370.922 445.758,370.922 447.690,370.922 449.623,370.922 451.556,370.922 453.488,370.922 455.421,370.922 457.354,370.922 459.286,370.922 461.219,370.922 463.152,370.922 465.084,370.922 467.017,370.922 468.950,370.924 470.882,370.929 472.815,370.945 474.748,370.989 476.680,371.106 478.613,371.384 480.546,371.993 482.478,373.209 484.411,375.420 486.344,379.075 488.276,384.538 490.209,391.870 492.142,400.614 494.074,409.693 496.007,417.559 497.940,422.599 499.872,423.671 501.805,420.521 503.738,413.883 505.670,405.201 507.603,396.119 509.535,387.985 511.468,381.567 513.401,377.040 515.333,374.162 517.266,372.503 519.199,371.633 521.131,371.217 523.064,371.034 524.997,370.961 526.929,370.935 528.862,370.926 530.795,370.923 532.727,370.922 534.660,370.922 536.593,370.922 538.525,370.922 540.458,370.922 542.391,370.922 544.323,370.922 546.256,370.922 548.189,370.922 550.121,370.922 552.054,370.922 553.987,370.922 555.919,370.922 557.852,370.922 559.785,370.922 561.717,370.922 563.650,370.922 565.582,370.922 567.515,370.922 569.448,370.922 571.380,370.922 573.313,370.922 575.246,370.922 577.178,370.922 579.111,370.922 581.044,370.922 582.976,370.922 584.909,370.922 586.842,370.922 588.774,370.922 590.707,370.922 592.640,370.922 594.572,370.922 596.505,370.922 598.438,370.921 600.370,370.920 602.303,370.918 604.236,370.912 606.168,370.900 608.101,370.874 610.034,370.821 611.966,370.715 613.899,370.516 615.832,370.155 617.764,369.531 619.697,368.499 621.630,366.876 623.562,364.452 625.495,361.027 627.428,356.477 629.360,350.828 631.293,344.349 633.225,337.607 635.158,331.455 637.091,326.922 639.023,325.001 640.956,326.359 642.889,331.082 644.821,338.546 646.754,347.499 648.687,356.384 650.619,363.781 652.552,368.826 654.485,371.408 656.417,372.078 658.350,371.714 660.283,371.122 662.215,370.765 664.148,370.723 666.081,370.846 668.013,370.956 669.946,370.978 671.879,370.942 673.811,370.907 675.744,370.904 677.677,370.919 679.609,370.920 681.542,370.913 683.475,370.917 685.407,370.926 687.340,370.933 689.273,370.940 691.205,370.939 693.138,370.916 695.070,370.847 697.003,370.669 698.936,370.252 700.868,369.340 702.801,367.513 704.734,364.227 706.666,359.035 708.599,352.031 710.532,344.355 712.464,338.311 714.397,336.603 716.330,340.733 718.262,349.590 720.195,359.658 722.128,367.159 724.060,370.477 725.993,370.639 727.926,369.630 729.858,368.588 731.791,367.589 733.724,366.463 735.656,365.248 737.589,364.044 739.522,362.898 741.454,361.853 743.387,360.959 745.320,360.252 747.252,359.752 749.185,359.472 751.117,359.410 753.050,359.554 754.983,359.886 756.915,360.377 758.848,360.997 760.781,361.714 762.713,362.495 764.646,363.310 766.579,364.131 768.511,364.937 770.444,365.707 772.377,366.429 774.309,367.092 776.242,367.692 778.175,368.224 780.107,368.691 782.040,369.094 783.973,369.437 785.905,369.722 787.838,369.951 789.771,370.121 791.703,370.219 793.636,370.219 795.569,370.219 797.501,370.219 799.434,370.219 801.367,370.219 803.299,370.219 805.232,370.219 807.165,370.219 809.097,370.219 811.030,370.219 812.962,370.219 814.895,370.219 816.828,370.219 818.760,370.219 820.693,370.219 822.626,370.219 824.558,370.219 826.491,370.219 828.424,370.219 830.356,370.219 832.289,370.219 834.222,370.219 836.154,370.219 838.087,370.219 840.020,370.219 841.952,370.219 843.885,370.219 845.818,370.219 847.750,370.219 849.683,370.219 851.616,370.219 853.548,370.219 855.481,370.219 857.414,370.219 859.346,370.219 861.279,370.219 863.212,370.219 865.144,370.219 867.077,370.219 869.010,370.219 870.942,370.219 872.875,370.219 874.808,370.219 876.740,370.219 878.673,370.219 880.605,370.219 882.538,370.219 884.471,370.219 886.403,370.219 888.336,370.219 890.269,370.219 892.201,370.219 894.134,370.219 896.067,370.219 897.999,370.219 899.932,370.219 901.865,370.219 903.797,370.219 905.730,370.219 907.663,370.219 909.595,370.219 911.528,370.219 913.461,370.219 915.393,370.219 917.326,370.219 919.259,370.219 921.191,370.219 923.124,370.219 925.057,370.219 926.989,370.219 928.922,370.219 930.855,370.219 932.787,370.219 934.720,370.219 936.653,370.219 938.585,370.219 940.518,370.219 942.450,370.219 944.383,370.219 946.316,370.219 948.248,370.219 950.181,370.219 952.114,370.219 954.046,370.219 955.979,370.219 957.912,370.219 959.844,370.219 961.777,370.219 963.710,370.219 965.642,370.219 967.575,370.219 969.508,370.219 971.440,370.219 973.373,370.219 975.306,370.219 977.238,370.219 979.171,370.219 981.104,370.219 983.036,370.219 984.969,370.219 986.902,370.219 988.834,370.219 990.767,370.219 992.700,370.219 994.632,370.219 996.565,370.219 998.497,370.219 1000.430,370.219 1002.363,370.219 1004.295,370.219 1006.228,370.219 1008.161,370.219 1010.093,370.219 1012.026,370.219 1013.959,370.219 1015.891,370.219 1017.824,370.219 1019.757,370.219 1021.689,370.219 1023.622,370.219 1025.555,370.219 1027.487,370.219 1029.420,370.219 1031.353,370.219 1033.285,370.219 1035.218,370.219 1037.151,370.219 1039.083,370.219 1041.016,370.219 1042.949,370.219 1044.881,370.219 1046.814,370.219 1048.747,370.219 1050.679,370.219 1052.612,370.219 1054.545,370.219 1056.477,370.219 1058.410,370.219 1060.343,370.219 1062.275,370.219 1064.208,370.219 1066.140,370.219 1068.073,370.219 1070.006,370.219 1071.938,370.219 1073.871,370.219 1075.804,370.219 1077.736,370.219 1079.669,370.219 1081.602,370.219 1083.534,370.219 1085.467,370.219 1087.400,370.219 1089.332,370.219 1091.265,370.219 1093.198,370.219 1095.130,370.219 1097.063,370.219 1098.996,370.219 1100.928,370.219 1102.861,370.219 1104.794,370.219 1106.726,370.219 1108.659,370.219 1110.592,370.219 1112.524,370.219 1114.457,370.219 1116.390,370.219 1118.322,370.219 1120.255,370.219 1122.188,370.219 1124.120,370.219 1126.053,370.219 1127.985,370.219 1129.918,370.219 1131.851,370.219 1133.783,370.219 1135.716,370.219 1137.649,370.219 1139.581,370.219 1141.514,370.219 1143.447,370.219 1145.379,370.219 1147.312,370.219 1149.245,370.219 1151.177,370.219 1153.110,370.219 1155.043,370.219 1156.975,370.219 1158.908,370.219 1160.841,370.219 1162.773,370.219 1164.706,370.219 1166.639,370.219 1168.571,370.219 1170.504,370.219 1172.437,370.219 1174.369,370.219 1176.302,370.219 1178.235,370.219 1180.167,370.219 1182.100,370.219 1184.033,370.219 1185.965,370.219 1187.898,370.219 1189.830,370.219 1191.763,370.219 1193.696,370.219 1195.628,370.219 1197.561,370.219 1199.494,370.219 1201.426,370.219 1203.359,370.219 1205.292,370.219 1207.224,370.219 1209.157,370.219 1211.090,370.219 1213.022,370.219 1214.955,370.219 1216.888,370.219 1218.820,370.219 1220.753,370.219 1222.686,370.219 1224.618,370.219 1226.551,370.219 1228.484,370.219 1230.416,370.219 1232.349,370.219 1234.282,370.219 1236.214,370.219 1238.147,370.219 1240.080,370.219 1242.012,370.219 1243.945,370.219 1245.878,370.219 1247.810,370.219 1249.743,370.219 1251.675,370.219 1253.608,370.219 1255.541,370.219 1257.473,370.219 1259.406,370.219 1261.339,370.219 1263.271,370.219 1265.204,370.219 1267.137,370.219 1269.069,370.219 1271.002,370.219 1272.935,370.219 1274.867,370.219 1276.800,370.219 1278.733,370.219 1280.665,370.219 1282.598,370.219 1284.531,370.219 1286.463,370.219 1288.396,370.219 1290.329,370.219 1292.261,370.219 1294.194,370.219 1296.127,370.219 1298.059,370.219 1299.992,370.219 1301.925,370.219 1303.857,370.219 1305.790,370.219 1307.723,370.219 1309.655,370.219 1311.588,370.219 1313.520,370.219 1315.453,370.219 1317.386,370.219 1319.318,370.219 1321.251,370.219 1323.184,370.219 1325.116,370.219 1327.049,370.219 1328.982,370.219 1330.914,370.219 1332.847,370.219 1334.780,370.219 1336.712,370.219 1338.645,370.219 1340.578,370.219 1342.510,370.219 1344.443,370.219 1346.376,370.219 1348.308,370.219 1350.241,370.219 1352.174,370.219 1354.106,370.378 "/>
<g>
</g>
</g>
<g id="ID000006" clip-path="url(#ID000001)" >
      <polyline fill="none" stroke="#000000" stroke-width="0.5pt" stroke-dasharray="none" points="677.677,684.188 677.677,57.656 "/>
<g>
</g>
</g>
<g id="ID000007" clip-path="url(#ID000001)" >
      <polyline fill="none" stroke="#000000" stroke-width="0.5pt" stroke-dasharray="none" points="791.703,684.188 791.703,57.656 "/>
<g>
</g>
</g>
<g id="ID000008" clip-path="url(#ID000001)" >
      <polyline fill="none" stroke="#d85218" stroke-width="0.5pt" stroke-dasharray="none" points="196.445,370.922 198.378,370.922 200.310,370.922 202.243,370.922 204.176,370.922 206.108,370.922 208.041,370.922 209.974,370.922 211.906,370.922 213.839,370.922 215.772,370.922 217.704,370.922 219.637,370.922 221.570,370.922 223.502,370.922 225.435,370.922 227.368,370.922 229.300,370.922 231.233,370.922 233.166,370.922 235.098,370.922 237.031,370.922 238.964,370.922 240.896,370.922 242.829,370.922 244.762,370.922 246.694,370.922 248.627,370.922 250.560,370.922 252.492,370.922 254.425,370.922 256.358,370.922 258.290,370.922 260.223,370.922 262.155,370.922 264.088,370.922 266.021,370.922 267.953,370.922 269.886,370.922 271.819,370.922 273.751,370.922 275.684,370.922 277.617,370.922 279.549,370.922 281.482,370.922 283.415,370.922 285.347,370.922 287.280,370.922 289.213,370.922 291.145,370.922 293.078,370.922 295.011,370.922 296.943,370.922 298.876,370.922 300.809,370.922 302.741,370.922 304.674,370.922 306.607,370.922 308.539,370.922 310.472,370.922 312.405,370.922 314.337,370.922 316.270,370.922 318.202,370.922 320.135,370.922 322.068,370.922 324.000,370.922 325.933,370.922 327.866,370.922 329.798,370.922 331.731,370.922 333.664,370.922 335.596,370.922 337.529,370.922 339.462,370.922 341.394,370.922 343.327,370.922 345.260,370.922 347.192,370.922 349.125,370.922 351.058,370.922 352.990,370.922 354.923,370.922 356.856,370.922 358.788,370.922 360.721,370.922 362.654,370.922 364.586,370.922 366.519,370.922 368.452,370.922 370.384,370.922 372.317,370.922 374.250,370.923 376.182,370.926 378.115,370.935 380.048,370.961 381.980,371.034 383.913,371.217 385.845,371.633 387.778,372.503 389.711,374.162 391.643,377.040 393.576,381.567 395.509,387.985 397.441,396.119 399.374,405.201 401.307,413.883 403.239,420.521 405.172,423.671 407.105,422.599 409.037,417.559 410.970,409.693 412.903,400.614 414.835,391.870 416.768,384.538 418.701,379.075 420.633,375.420 422.566,373.209 424.499,371.993 426.431,371.384 428.364,371.106 430.297,370.989 432.229,370.945 434.162,370.929 436.095,370.924 438.027,370.922 439.960,370.922 441.892,370.922 443.825,370.922 445.758,370.922 447.690,370.922 449.623,370.922 451.556,370.922 453.488,370.922 455.421,370.922 457.354,370.922 459.286,370.922 461.219,370.922 463.152,370.922 465.084,370.922 467.017,370.922 468.950,370.924 470.882,370.929 472.815,370.945 474.748,370.989 476.680,371.106 478.613,371.384 480.546,371.993 482.478,373.209 484.411,375.420 486.344,379.075 488.276,384.538 490.209,391.870 492.142,400.614 494.074,409.693 496.007,417.559 497.940,422.599 499.872,423.671 501.805,420.521 503.738,413.883 505.670,405.201 507.603,396.119 509.535,387.985 511.468,381.567 513.401,377.040 515.333,374.162 517.266,372.503 519.199,371.633 521.131,371.217 523.064,371.034 524.997,370.961 526.929,370.935 528.862,370.926 530.795,370.923 532.727,370.922 534.660,370.922 536.593,370.922 538.525,370.922 540.458,370.922 542.391,370.922 544.323,370.922 546.256,370.922 548.189,370.922 550.121,370.922 552.054,370.922 553.987,370.922 555.919,370.922 557.852,370.922 559.785,370.922 561.717,370.922 563.650,370.922 565.582,370.922 567.515,370.922 569.448,370.922 571.380,370.922 573.313,370.922 575.246,370.922 577.178,370.922 579.111,370.922 581.044,370.922 582.976,370.922 584.909,370.922 586.842,370.922 588.774,370.922 590.707,370.922 592.640,370.922 594.572,370.922 596.505,370.922 598.438,370.921 600.370,370.920 602.303,370.918 604.236,370.912 606.168,370.900 608.101,370.874 610.034,370.821 611.966,370.715 613.899,370.516 615.832,370.155 617.764,369.531 619.697,368.499 621.630,366.876 623.562,364.452 625.495,361.027 627.428,356.477 629.360,350.828 631.293,344.349 633.225,337.607 635.158,331.455 637.091,326.922 639.023,325.001 640.956,326.359 642.889,331.082 644.821,338.546 646.754,347.499 648.687,356.384 650.619,363.781 652.552,368.826 654.485,371.408 656.417,372.078 658.350,371.714 660.283,371.122 662.215,370.765 664.148,370.723 666.081,370.846 668.013,370.956 669.946,370.978 671.879,370.942 673.811,370.907 675.744,370.904 677.677,370.919 679.609,370.920 681.542,370.913 683.475,370.917 685.407,370.926 687.340,370.933 689.273,370.940 691.205,370.939 693.138,370.916 695.070,370.847 697.003,370.669 698.936,370.252 700.868,369.340 702.801,367.513 704.734,364.227 706.666,359.035 708.599,352.031 710.532,344.355 712.464,338.311 714.397,336.603 716.330,340.733 718.262,349.590 720.195,359.658 722.128,367.159 724.060,370.477 725.993,370.639 727.926,369.630 729.858,368.588 731.791,367.589 733.724,366.463 735.656,365.248 737.589,364.044 739.522,362.898 741.454,361.853 743.387,360.959 745.320,360.252 747.252,359.752 749.185,359.472 751.117,359.410 753.050,359.554 754.983,359.886 756.915,360.377 758.848,360.997 760.781,361.714 762.713,362.495 764.646,363.310 766.579,364.131 768.511,364.937 770.444,365.707 772.377,366.429 774.309,367.092 776.242,367.692 778.175,368.224 780.107,368.691 782.040,369.094 783.973,369.437 785.905,369.722 787.838,369.951 789.771,370.121 791.703,370.219 793.636,370.219 795.569,370.219 797.501,370.219 799.434,370.219 801.367,370.219 803.299,370.219 805.232,370.219 807.165,370.219 809.097,370.219 811.030,370.219 812.962,370.219 814.895,370.219 816.828,370.219 818.760,370.219 820.693,370.219 822.626,370.219 824.558,370.219 826.491,370.219 828.424,370.219 830.356,370.219 832.289,370.219 834.222,370.219 836.154,370.219 838.087,370.219 840.020,370.219 841.952,370.219 843.885,370.219 845.818,370.219 847.750,370.219 849.683,370.219 851.616,370.219 853.548,370.219 855.481,370.219 857.414,370.219 859.346,370.219 861.279,370.219 863.212,370.219 865.144,370.219 867.077,370.219 869.010,370.219 870.942,370.219 872.875,370.219 874.808,370.219 876.740,370.219 878.673,370.219 880.605,370.219 882.538,370.219 884.471,370.219 886.403,370.219 888.336,370.219 890.269,370.219 892.201,370.219 894.134,370.219 896.067,370.219 897.999,370.219 899.932,370.219 901.865,370.219 903.797,370.219 905.730,370.219 907.663,370.219 909.595,370.219 911.528,370.219 913.461,370.219 915.393,370.219 917.326,370.219 919.259,370.219 921.191,370.219 923.124,370.219 925.057,370.219 926.989,370.219 928.922,370.219 930.855,370.219 932.787,370.219 934.720,370.219 936.653,370.219 938.585,370.219 940.518,370.219 942.450,370.219 944.383,370.219 946.316,370.219 948.248,370.219 950.181,370.219 952.114,370.219 954.046,370.219 955.979,370.219 957.912,370.219 959.844,370.219 961.777,370.219 963.710,370.219 965.642,370.219 967.575,370.219 969.508,370.219 971.440,370.219 973.373,370.219 975.306,370.219 977.238,370.219 979.171,370.219 981.104,370.219 983.036,370.219 984.969,370.219 986.902,370.219 988.834,370.219 990.767,370.219 992.700,370.219 994.632,370.219 996.565,370.219 998.497,370.219 1000.430,370.219 1002.363,370.219 1004.295,370.219 1006.228,370.219 1008.161,370.219 1010.093,370.219 1012.026,370.219 1013.959,370.219 1015.891,370.219 1017.824,370.219 1019.757,370.219 1021.689,370.219 1023.622,370.219 1025.555,370.219 1027.487,370.219 1029.420,370.219 1031.353,370.219 1033.285,370.219 1035.218,370.219 1037.151,370.219 1039.083,370.219 1041.016,370.219 1042.949,370.219 1044.881,370.219 1046.814,370.219 1048.747,370.219 1050.679,370.219 1052.612,370.219 1054.545,370.219 1056.477,370.219 1058.410,370.219 1060.343,370.219 1062.275,370.219 1064.208,370.219 1066.140,370.219 1068.073,370.219 1070.006,370.219 1071.938,370.219 1073.871,370.219 1075.804,370.219 1077.736,370.219 1079.669,370.219 1081.602,370.219 1083.534,370.219 1085.467,370.219 1087.400,370.219 1089.332,370.219 1091.265,370.219 1093.198,370.219 1095.130,370.219 1097.063,370.219 1098.996,370.219 1100.928,370.219 1102.861,370.219 1104.794,370.219 1106.726,370.219 1108.659,370.219 1110.592,370.219 1112.524,370.219 1114.457,370.219 1116.390,370.219 1118.322,370.219 1120.255,370.219 1122.188,370.219 1124.120,370.219 1126.053,370.219 1127.985,370.219 1129.918,370.219 1131.851,370.219 1133.783,370.219 1135.716,370.219 1137.649,370.219 1139.581,370.219 1141.514,370.219 1143.447,370.219 1145.379,370.219 1147.312,370.219 1149.245,370.219 1151.177,370.219 1153.110,370.219 1155.043,370.219 1156.975,370.219 1158.908,370.219 1160.841,370.219 1162.773,370.219 1164.706,370.219 1166.639,370.219 1168.571,370.219 1170.504,370.219 1172.437,370.219 1174.369,370.219 1176.302,370.219 1178.235,370.219 1180.167,370.219 1182.100,370.219 1184.033,370.219 1185.965,370.219 1187.898,370.219 1189.830,370.219 1191.763,370.219 1193.696,370.219 1195.628,370.219 1197.561,370.219 1199.494,370.219 1201.426,370.219 1203.359,370.219 1205.292,370.219 1207.224,370.219 1209.157,370.219 1211.090,370.219 1213.022,370.219 1214.955,370.219 1216.888,370.219 1218.820,370.219 1220.753,370.219 1222.686,370.219 1224.618,370.219 1226.551,370.219 1228.484,370.219 1230.416,370.219 1232.349,370.219 1234.282,370.219 1236.214,370.219 1238.147,370.219 1240.080,370.219 1242.012,370.219 1243.945,370.219 1245.878,370.219 1247.810,370.219 1249.743,370.219 1251.675,370.219 1253.608,370.219 1255.541,370.219 1257.473,370.219 1259.406,370.219 1261.339,370.219 1263.271,370.219 1265.204,370.219 1267.137,370.219 1269.069,370.219 1271.002,370.219 1272.935,370.219 1274.867,370.219 1276.800,370.219 1278.733,370.219 1280.665,370.219 1282.598,370.219 1284.531,370.219 1286.463,370.219 1288.396,370.219 1290.329,370.219 1292.261,370.219 1294.194,370.219 1296.127,370.219 1298.059,370.219 1299.992,370.219 1301.925,370.219 1303.857,370.219 1305.790,370.219 1307.723,370.219 1309.655,370.219 1311.588,370.219 1313.520,370.219 1315.453,370.219 1317.386,370.219 1319.318,370.219 1321.251,370.219 1323.184,370.219 1325.116,370.219 1327.049,370.219 1328.982,370.219 1330.914,370.219 1332.847,370.219 1334.780,370.219 1336.712,370.219 1338.645,370.219 1340.578,370.219 1342.510,370.219 1344.443,370.219 1346.376,370.219 1348.308,370.219 1350.241,370.219 1352.174,370.219 1354.106,370.378 "/>
<g>
</g>
</g>
    </g>
    <g>
      <polyline fill="none" stroke="#262626" stroke-width="0.5pt" stroke-dasharray="none" points="194.513,684.188 194.513,672.592 "/>
      <polyline fill="none" stroke="#262626" stroke-width="0.5pt" stroke-dasharray="none" points="387.778,684.188 387.778,672.592 "/>
      <polyline fill="none" stroke="#262626" stroke-width="0.5pt" stroke-dasharray="none" points="581.044,684.188 581.044,672.592 "/>
      <polyline fill="none" stroke="#262626" stroke-width="0.5pt" stroke-dasharray="none" points="774.309,684.188 774.309,672.592 "/>
      <polyline fill="none" stroke="#262626" stroke-width="0.5pt" stroke-dasharray="none" points="967.575,684.188 967.575,672.592 "/>
      <polyline fill="none" stroke="#262626" stroke-width="0.5pt" stroke-dasharray="none" points="1160.841,684.188 1160.841,672.592 "/>
      <polyline fill="none" stroke="#262626" stroke-width="0.5pt" stroke-dasharray="none" points="1354.106,684.188 1354.106,672.592 "/>
      <polyline fill="none" stroke="#262626" stroke-width="0.5pt" stroke-dasharray="none" points="194.513,684.188 1354.106,684.188 "/>
  <g transform="translate(194.513,707.781)">
    <g transform="rotate(-0.0)">
      <text x="0.000" y="0.000" font-family="times new roman" text-anchor="middle" font-size="9pt" fill="#262626" >0</text>
    </g>
  </g>
  <g transform="translate(387.778,707.781)">
    <g transform="rotate(-0.0)">
      <text x="0.000" y="0.000" font-family="times new roman" text-anchor="middle" font-size="9pt" fill="#262626" >100</text>
    </g>
  </g>
  <g transform="translate(581.044,707.781)">
    <g transform="rotate(-0.0)">
      <text x="0.000" y="0.000" font-family="times new roman" text-anchor="middle" font-size="9pt" fill="#262626" >200</text>
    </g>
  </g>
  <g transform="translate(774.309,707.781)">
    <g transform="rotate(-0.0)">
      <text x="0.000" y="0.000" font-family="times new roman" text-anchor="middle" font-size="9pt" fill="#262626" >300</text>
    </g>
  </g>
  <g transform="translate(967.575,707.781)">
    <g transform="rotate(-0.0)">
      <text x="0.000" y="0.000" font-family="times new roman" text-anchor="middle" font-size="9pt" fill="#262626" >400</text>
    </g>
  </g>
  <g transform="translate(1160.841,707.781)">
    <g transform="rotate(-0.0)">
      <text x="0.000" y="0.000" font-family="times new roman" text-anchor="middle" font-size="9pt" fill="#262626" >500</text>
    </g>
  </g>
  <g transform="translate(1354.106,707.781)">
    <g transform="rotate(-0.0)">
      <text x="0.000" y="0.000" font-family="times new roman" text-anchor="middle" font-size="9pt" fill="#262626" >600</text>
    </g>
  </g>
      <polyline fill="none" stroke="#262626" stroke-width="0.5pt" stroke-dasharray="none" points="194.513,684.188 206.108,684.188 "/>
      <polyline fill="none" stroke="#262626" stroke-width="0.5pt" stroke-dasharray="none" points="194.513,621.534 206.108,621.534 "/>
      <polyline fill="none" stroke="#262626" stroke-width="0.5pt" stroke-dasharray="none" points="194.513,558.881 206.108,558.881 "/>
      <polyline fill="none" stroke="#262626" stroke-width="0.5pt" stroke-dasharray="none" points="194.513,496.228 206.108,496.228 "/>
      <polyline fill="none" stroke="#262626" stroke-width="0.5pt" stroke-dasharray="none" points="194.513,433.575 206.108,433.575 "/>
      <polyline fill="none" stroke="#262626" stroke-width="0.5pt" stroke-dasharray="none" points="194.513,370.922 206.108,370.922 "/>
      <polyline fill="none" stroke="#262626" stroke-width="0.5pt" stroke-dasharray="none" points="194.513,308.269 206.108,308.269 "/>
      <polyline fill="none" stroke="#262626" stroke-width="0.5pt" stroke-dasharray="none" points="194.513,245.616 206.108,245.616 "/>
      <polyline fill="none" stroke="#262626" stroke-width="0.5pt" stroke-dasharray="none" points="194.513,182.962 206.108,182.962 "/>
      <polyline fill="none" stroke="#262626" stroke-width="0.5pt" stroke-dasharray="none" points="194.513,120.309 206.108,120.309 "/>
      <polyline fill="none" stroke="#262626" stroke-width="0.5pt" stroke-dasharray="none" points="194.513,57.656 206.108,57.656 "/>
      <polyline fill="none" stroke="#262626" stroke-width="0.5pt" stroke-dasharray="none" points="194.513,684.188 194.513,57.656 "/>
  <g transform="translate(171.321,688.406)">
    <g transform="rotate(-0.0)">
      <text x="0.000" y="0.000" font-family="times new roman" text-anchor="end" font-size="9pt" fill="#262626" >-1</text>
    </g>
  </g>
  <g transform="translate(171.321,625.753)">
    <g transform="rotate(-0.0)">
      <text x="0.000" y="0.000" font-family="times new roman" text-anchor="end" font-size="9pt" fill="#262626" >-0.8</text>
    </g>
  </g>
  <g transform="translate(171.321,563.100)">
    <g transform="rotate(-0.0)">
      <text x="0.000" y="0.000" font-family="times new roman" text-anchor="end" font-size="9pt" fill="#262626" >-0.6</text>
    </g>
  </g>
  <g transform="translate(171.321,500.447)">
    <g transform="rotate(-0.0)">
      <text x="0.000" y="0.000" font-family="times new roman" text-anchor="end" font-size="9pt" fill="#262626" >-0.4</text>
    </g>
  </g>
  <g transform="translate(171.321,437.794)">
    <g transform="rotate(-0.0)">
      <text x="0.000" y="0.000" font-family="times new roman" text-anchor="end" font-size="9pt" fill="#262626" >-0.2</text>
    </g>
  </g>
  <g transform="translate(171.321,375.141)">
    <g transform="rotate(-0.0)">
      <text x="0.000" y="0.000" font-family="times new roman" text-anchor="end" font-size="9pt" fill="#262626" >0</text>
    </g>
  </g>
  <g transform="translate(171.321,312.487)">
    <g transform="rotate(-0.0)">
      <text x="0.000" y="0.000" font-family="times new roman" text-anchor="end" font-size="9pt" fill="#262626" >0.2</text>
    </g>
  </g>
  <g transform="translate(171.321,249.834)">
    <g transform="rotate(-0.0)">
      <text x="0.000" y="0.000" font-family="times new roman" text-anchor="end" font-size="9pt" fill="#262626" >0.4</text>
    </g>
  </g>
  <g transform="translate(171.321,187.181)">
    <g transform="rotate(-0.0)">
      <text x="0.000" y="0.000" font-family="times new roman" text-anchor="end" font-size="9pt" fill="#262626" >0.6</text>
    </g>
  </g>
  <g transform="translate(171.321,124.528)">
    <g transform="rotate(-0.0)">
      <text x="0.000" y="0.000" font-family="times new roman" text-anchor="end" font-size="9pt" fill="#262626" >0.8</text>
    </g>
  </g>
  <g transform="translate(171.321,61.875)">
    <g transform="rotate(-0.0)">
      <text x="0.000" y="0.000" font-family="times new roman" text-anchor="end" font-size="9pt" fill="#262626" >1</text>
    </g>
  </g>
      <polyline fill="none" stroke="#262626" stroke-width="0.5pt" stroke-dasharray="none" points="194.513,684.188 194.513,677.922 "/>
      <polyline fill="none" stroke="#262626" stroke-width="0.5pt" stroke-dasharray="none" points="194.513,684.188 194.513,677.922 "/>
      <polyline fill="none" stroke="#262626" stroke-width="0.5pt" stroke-dasharray="none" points="194.513,684.187 194.513,677.922 "/>
      <polyline fill="none" stroke="#262626" stroke-width="0.5pt" stroke-dasharray="none" points="194.513,684.188 194.513,684.187 "/>
    </g>
  </g>
  </g>
</svg>
