<?xml version="1.0" encoding="utf-8" standalone="no"?><!DOCTYPE svg PUBLIC "-//W3C//DTD SVG 1.1//EN" "http://www.w3.org/Graphics/SVG/1.1/DTD/svg11.dtd">
<svg preserveAspectRatio="xMinYMin meet" width="100%" height="100%" viewBox="0 0 525.000 393.750"  version="1.1" xmlns="http://www.w3.org/2000/svg" xmlns:xlink="http://www.w3.org/1999/xlink">
  <desc>Matlab Figure Converted by PLOT2SVG written by Juerg Schwizer</desc>
  <g id="topgroup">
  <rect x="0" y="0" width="525.000" height="393.750" fill="#ffffff" stroke="none" />
  <g id ="ID000000">
  <clipPath id="ID000001">
    <rect x="68.250" y="29.531" width="406.875" height="320.906"/>
  </clipPath>
      <polygon fill="#ffffff" fill-opacity="1.00" stroke="none" stroke-width="0.5pt" stroke-opacity="1.00" stroke-dasharray="none" points="68.250,350.438 475.125,350.438 475.125,29.531 68.250,29.531 "/>
      <polygon fill="#ffffff" fill-opacity="1.00" stroke="none" stroke-width="0.5pt" stroke-opacity="1.00" stroke-dasharray="none" points="68.250,29.531 475.125,29.531 475.125,29.531 68.250,29.531 "/>
      <polygon fill="#ffffff" fill-opacity="1.00" stroke="none" stroke-width="0.5pt" stroke-opacity="1.00" stroke-dasharray="none" points="68.250,350.438 68.250,350.437 68.250,29.531 68.250,29.531 "/>
    <g>
<g id="ID000002" >
  <g transform="translate(42.859,189.984)">
    <g transform="rotate(-90.0)">
      <text x="0.000" y="0.000" font-family="Helvetica" text-anchor="middle" font-size="10pt" fill="#262626" ><tspan>&#915;</tspan><tspan></tspan></text>
    </g>
  </g>
</g>
<g id="ID000003" >
  <g transform="translate(271.688,384.748)">
    <g transform="rotate(-0.0)">
      <text x="0.000" y="0.000" font-family="Helvetica" text-anchor="middle" font-size="10pt" fill="#262626" >Frequency [GHz]</text>
    </g>
  </g>
</g>
<g id="ID000004" >
  <g transform="translate(271.688,24.380)">
    <g transform="rotate(-0.0)">
      <text x="0.000" y="0.000" font-family="Helvetica" text-anchor="middle" font-size="10pt" font-weight="bold" fill="#000000" >Reflection Coefficient</text>
    </g>
  </g>
</g>
<g id="ID000005" clip-path="url(#ID000001)" >
      <polyline fill="none" stroke="#0071bc" stroke-width="0.5pt" stroke-dasharray="none" points="68.453,349.035 68.657,349.483 68.860,349.223 69.064,343.956 69.267,348.793 69.471,349.492 69.674,349.380 69.877,347.308 70.081,348.434 70.284,349.507 70.488,349.517 70.691,348.464 70.895,347.775 71.098,349.524 71.302,349.637 71.505,349.062 71.708,345.984 71.912,349.535 72.115,349.740 72.319,349.427 72.522,318.335 72.726,349.529 72.929,349.824 73.133,349.664 73.336,345.834 73.539,349.480 73.743,349.883 73.946,349.816 74.150,348.506 74.353,349.335 74.557,349.908 74.760,349.902 74.963,349.233 75.167,348.947 75.370,349.887 75.574,349.932 75.777,349.513 75.981,347.740 76.184,349.806 76.388,349.915 76.591,349.621 76.794,337.039 76.998,349.650 77.201,349.862 77.405,349.652 77.608,344.620 77.812,349.390 78.015,349.779 78.218,349.645 78.422,347.671 78.625,348.959 78.829,349.671 79.032,349.618 79.236,348.455 79.439,348.163 79.643,349.536 79.846,349.582 80.049,348.809 80.253,346.258 80.456,349.367 80.660,349.540 80.863,349.013 81.067,335.374 81.270,349.153 81.473,349.496 81.677,349.153 81.880,339.100 82.084,348.869 82.287,349.453 82.491,349.262 82.694,346.157 82.897,348.463 83.101,349.414 83.304,349.358 83.508,347.800 83.711,347.795 83.915,349.379 84.118,349.450 84.322,348.568 84.525,346.356 84.728,349.346 84.932,349.539 85.135,349.031 85.339,339.944 85.542,349.309 85.746,349.625 85.949,349.348 86.153,338.467 86.356,349.253 86.559,349.703 86.763,349.575 86.966,347.151 87.170,349.141 87.373,349.765 87.577,349.735 87.780,348.687 87.983,348.886 88.187,349.800 88.390,349.839 88.594,349.278 88.797,348.193 89.001,349.790 89.204,349.889 89.407,349.544 89.611,345.120 89.814,349.716 90.018,349.889 90.221,349.659 90.425,337.646 90.628,349.551 90.832,349.847 91.035,349.694 91.238,347.181 91.442,349.250 91.645,349.768 91.849,349.687 92.052,348.371 92.256,348.699 92.459,349.657 92.662,349.658 92.866,348.811 93.069,347.521 93.273,349.509 93.476,349.615 93.680,349.031 93.883,343.513 94.087,349.314 94.290,349.561 94.493,349.160 94.697,312.294 94.900,349.048 95.104,349.498 95.307,349.244 95.511,344.745 95.714,348.663 95.918,349.426 96.121,349.304 96.324,347.216 96.528,348.045 96.731,349.345 96.935,349.352 97.138,348.148 97.342,346.847 97.545,349.253 97.748,349.395 97.952,348.657 98.155,343.309 98.359,349.146 98.562,349.438 98.766,348.992 98.969,67.377 99.172,349.015 99.376,349.484 99.579,349.241 99.783,344.249 99.986,348.839 100.190,349.531 100.393,349.437 100.597,347.531 100.800,348.558 101.003,349.577 101.207,349.594 101.410,348.652 101.614,347.995 101.817,349.609 102.021,349.715 102.224,349.200 102.428,346.311 102.631,349.612 102.834,349.795 103.038,349.497 103.241,313.746 103.445,349.554 103.648,349.829 103.852,349.651 104.055,345.732 104.258,349.394 104.462,349.814 104.665,349.715 104.869,348.134 105.072,349.049 105.276,349.751 105.479,349.724 105.682,348.794 105.886,348.316 106.089,349.643 106.293,349.698 106.496,349.075 106.700,346.331 106.903,349.486 107.107,349.653 107.310,349.218 107.513,328.583 107.717,349.266 107.920,349.592 108.124,349.300 108.327,342.353 108.531,348.947 108.734,349.518 108.938,349.348 109.141,346.733 109.344,348.449 109.548,349.428 109.751,349.377 109.955,347.926 110.158,347.549 110.362,349.318 110.565,349.394 110.768,348.489 110.972,345.397 111.175,349.182 111.379,349.402 111.582,348.823 111.786,332.492 111.989,349.007 112.193,349.405 112.396,349.050 112.599,338.769 112.803,348.769 113.006,349.406 113.210,349.221 113.413,346.106 113.617,348.417 113.820,349.405 114.023,349.361 114.227,347.847 114.430,347.816 114.634,349.402 114.837,349.481 115.041,348.647 115.244,346.468 115.447,349.395 115.651,349.585 115.854,349.113 116.058,340.101 116.261,349.371 116.465,349.672 116.668,349.413 116.872,339.689 117.075,349.306 117.278,349.734 117.482,349.606 117.685,347.277 117.889,349.145 118.092,349.759 118.296,349.718 118.499,348.619 118.703,348.760 118.906,349.736 119.109,349.765 119.313,349.108 119.516,347.750 119.720,349.654 119.923,349.762 120.127,349.323 120.330,343.431 120.533,349.505 120.737,349.725 120.940,349.423 121.144,334.884 121.347,349.270 121.551,349.664 121.754,349.470 121.958,346.290 122.161,348.900 122.364,349.583 122.568,349.491 122.771,347.876 122.975,348.268 123.178,349.481 123.382,349.496 123.585,348.506 123.788,346.950 123.992,349.352 124.195,349.490 124.399,348.844 124.602,342.423 124.806,349.185 125.009,349.475 125.213,349.056 125.416,314.710 125.619,348.959 125.823,349.452 126.026,349.203 126.230,344.714 126.433,348.627 126.637,349.421 126.840,349.313 127.043,347.299 127.247,348.087 127.450,349.381 127.654,349.400 127.857,348.279 128.061,347.018 128.264,349.329 128.468,349.472 128.671,348.807 128.874,343.764 129.078,349.262 129.281,349.536 129.485,349.146 129.688,224.109 129.892,349.169 130.095,349.593 130.298,349.385 130.502,345.118 130.705,349.028 130.909,349.643 131.112,349.563 131.316,347.920 131.519,348.777 131.723,349.679 131.926,349.694 132.129,348.863 132.333,348.230 132.536,349.689 132.740,349.780 132.943,349.304 133.147,346.506 133.350,349.654 133.553,349.821 133.757,349.525 133.960,304.780 134.164,349.547 134.367,349.818 134.571,349.628 134.774,345.653 134.977,349.332 135.181,349.775 135.384,349.668 135.588,347.998 135.791,348.937 135.995,349.700 136.198,349.673 136.402,348.694 136.605,348.156 136.808,349.595 137.012,349.660 137.215,349.020 137.419,346.094 137.622,349.456 137.826,349.636 138.029,349.208 138.232,326.266 138.436,349.269 138.639,349.604 138.843,349.330 139.046,342.860 139.250,349.003 139.453,349.564 139.657,349.416 139.860,347.033 140.063,348.590 140.267,349.513 140.470,349.478 140.674,348.202 140.877,347.844 141.081,349.449 141.284,349.526 141.487,348.758 141.691,346.032 141.894,349.365 142.098,349.563 142.301,349.089 142.505,334.552 142.708,349.252 142.912,349.591 143.115,349.311 143.318,341.358 143.522,349.092 143.725,349.613 143.929,349.475 144.132,347.070 144.336,348.843 144.539,349.630 144.743,349.603 144.946,348.450 145.149,348.399 145.353,349.641 145.556,349.705 145.760,349.077 145.963,347.361 146.167,349.640 146.370,349.788 146.573,349.432 146.777,342.171 146.980,349.618 147.184,349.849 147.387,349.648 147.591,342.486 147.794,349.548 147.998,349.882 148.201,349.777 148.404,347.938 148.608,349.382 148.811,349.881 149.015,349.842 149.218,348.929 149.422,349.008 149.625,349.839 149.828,349.861 150.032,349.297 150.235,348.073 150.439,349.754 150.642,349.849 150.846,349.468 151.049,344.099 151.252,349.622 151.456,349.818 151.659,349.561 151.863,337.915 152.066,349.430 152.270,349.776 152.473,349.617 152.677,346.993 152.880,349.139 153.083,349.724 153.287,349.655 153.490,348.351 153.694,348.652 153.897,349.661 154.101,349.681 154.304,348.905 154.507,347.638 154.711,349.582 154.914,349.698 155.118,349.210 155.321,344.097 155.525,349.480 155.728,349.710 155.932,349.405 156.135,326.825 156.338,349.340 156.542,349.715 156.745,349.542 156.949,346.383 157.152,349.133 157.356,349.713 157.559,349.644 157.762,348.258 157.966,348.787 158.169,349.705 158.373,349.725 158.576,348.974 158.780,348.089 158.983,349.688 159.187,349.791 159.390,349.356 159.593,345.900 159.797,349.660 160.000,349.846 160.204,349.596 160.407,295.613 160.611,349.612 160.814,349.892 161.017,349.761 161.221,347.090 161.424,349.527 161.628,349.927 161.831,349.877 162.035,348.837 162.238,349.360 162.442,349.947 162.645,349.956 162.848,349.419 163.052,348.975 163.255,349.943 163.459,350.001 163.662,349.682 163.866,347.721 164.069,349.902 164.273,350.014 164.476,349.807 164.679,307.481 164.883,349.809 165.086,349.998 165.290,349.863 165.493,347.105 165.697,349.641 165.900,349.962 166.103,349.886 166.307,348.706 166.510,349.353 166.714,349.908 166.917,349.892 167.121,349.205 167.324,348.802 167.528,349.841 167.731,349.891 167.934,349.451 168.138,347.356 168.341,349.756 168.545,349.887 168.748,349.600 168.952,332.148 169.155,349.646 169.358,349.879 169.562,349.702 169.765,345.577 169.969,349.492 170.172,349.868 170.376,349.778 170.579,348.279 170.783,349.252 170.986,349.852 171.189,349.836 171.393,349.055 171.596,348.817 171.800,349.829 172.003,349.882 172.207,349.427 172.410,347.746 172.613,349.797 172.817,349.920 173.020,349.649 173.224,340.546 173.427,349.749 173.631,349.951 173.834,349.797 174.038,345.479 174.241,349.677 174.444,349.977 174.648,349.904 174.851,348.605 175.055,349.557 175.258,349.997 175.462,349.985 175.665,349.374 175.868,349.332 176.072,350.010 176.275,350.047 176.479,349.718 176.682,348.780 176.886,350.014 177.089,350.094 177.292,349.907 177.496,345.835 177.699,350.000 177.903,350.123 178.106,350.015 178.310,346.334 178.513,349.951 178.717,350.132 178.920,350.072 179.123,349.058 179.327,349.837 179.530,350.119 179.734,350.095 179.937,349.567 180.141,349.592 180.344,350.083 180.548,350.095 180.751,349.761 180.954,349.001 181.158,350.026 181.361,350.084 181.565,349.857 181.768,346.484 181.972,349.946 182.175,350.067 182.378,349.916 182.582,343.456 182.785,349.837 182.989,350.047 183.192,349.957 183.396,348.459 183.599,349.679 183.802,350.025 184.006,349.989 184.209,349.259 184.413,349.418 184.616,350.000 184.820,350.015 185.023,349.593 185.227,348.877 185.430,349.969 185.633,350.037 185.837,349.780 186.040,346.951 186.244,349.930 186.447,350.055 186.651,349.902 186.854,339.478 187.058,349.874 187.261,350.070 187.464,349.988 187.668,348.452 187.871,349.788 188.075,350.082 188.278,350.052 188.482,349.397 188.685,349.642 188.888,350.090 189.092,350.103 189.295,349.759 189.499,349.338 189.702,350.093 189.906,350.143 190.109,349.951 190.313,348.351 190.516,350.090 190.719,350.176 190.923,350.069 191.126,332.483 191.330,350.077 191.533,350.201 191.737,350.147 191.940,349.028 192.143,350.044 192.347,350.218 192.550,350.197 192.754,349.753 192.957,349.966 193.161,350.222 193.364,350.225 193.568,349.986 193.771,349.769 193.974,350.211 194.178,350.235 194.381,350.084 194.585,349.113 194.788,350.178 194.992,350.230 195.195,350.127 195.398,317.601 195.602,350.119 195.805,350.215 196.009,350.145 196.212,348.773 196.416,350.027 196.619,350.193 196.823,350.154 197.026,349.558 197.229,349.878 197.433,350.167 197.636,350.160 197.840,349.817 198.043,349.603 198.247,350.137 198.450,350.165 198.653,349.950 198.857,348.888 199.060,350.103 199.264,350.170 199.467,350.035 199.671,340.564 199.874,350.061 200.077,350.175 200.281,350.096 200.484,348.256 200.688,350.002 200.891,350.179 201.095,350.142 201.298,349.489 201.502,349.912 201.705,350.182 201.908,350.178 202.112,349.851 202.315,349.745 202.519,350.182 202.722,350.208 202.926,350.026 203.129,349.327 203.333,350.180 203.536,350.232 203.739,350.129 203.943,346.318 204.146,350.172 204.350,350.253 204.553,350.198 204.757,348.659 204.960,350.156 205.163,350.270 205.367,350.246 205.570,349.792 205.774,350.124 205.977,350.283 206.181,350.280 206.384,350.072 206.588,350.052 206.791,350.290 206.994,350.303 207.198,350.191 207.401,349.855 207.605,350.290 207.808,350.317 208.012,350.250 208.215,348.696 208.418,350.277 208.622,350.320 208.825,350.277 209.029,348.913 209.232,350.243 209.436,350.314 209.639,350.287 209.843,349.865 210.046,350.178 210.249,350.299 210.453,350.286 210.656,350.053 210.860,350.054 211.063,350.277 211.267,350.282 211.470,350.131 211.673,349.774 211.877,350.250 212.080,350.277 212.284,350.176 212.487,348.587 212.691,350.217 212.894,350.272 213.098,350.207 213.301,347.555 213.504,350.175 213.708,350.269 213.911,350.232 214.115,349.613 214.318,350.117 214.522,350.266 214.725,350.253 214.928,349.963 215.132,350.024 215.335,350.263 215.539,350.272 215.742,350.112 215.946,349.831 216.149,350.260 216.353,350.288 216.556,350.196 216.759,349.128 216.963,350.255 217.166,350.302 217.370,350.251 217.573,347.009 217.777,350.245 217.980,350.315 218.183,350.289 218.387,349.804 218.590,350.228 218.794,350.325 218.997,350.318 219.201,350.122 219.404,350.195 219.608,350.334 219.811,350.339 220.014,350.242 220.218,350.118 220.421,350.340 220.625,350.355 220.828,350.303 221.032,349.844 221.235,350.341 221.438,350.365 221.642,350.336 221.845,346.446 222.049,350.336 222.252,350.370 222.456,350.354 222.659,350.030 222.863,350.318 223.066,350.369 223.269,350.360 223.473,350.213 223.676,350.274 223.880,350.361 224.083,350.360 224.287,350.268 224.490,350.175 224.693,350.347 224.897,350.355 225.100,350.292 225.304,349.868 225.507,350.327 225.711,350.349 225.914,350.304 226.118,320.319 226.321,350.300 226.524,350.342 226.728,350.313 226.931,349.745 227.135,350.263 227.338,350.335 227.542,350.320 227.745,350.079 227.948,350.208 228.152,350.328 228.355,350.327 228.559,350.195 228.762,350.110 228.966,350.322 229.169,350.335 229.373,350.257 229.576,349.857 229.779,350.316 229.983,350.342 230.186,350.297 230.390,346.533 230.593,350.309 230.797,350.350 231.000,350.326 231.203,349.755 231.407,350.299 231.610,350.357 231.814,350.347 232.017,350.157 232.221,350.282 232.424,350.364 232.628,350.364 232.831,350.276 233.034,350.247 233.238,350.369 233.441,350.377 233.645,350.332 233.848,350.152 234.052,350.373 234.255,350.387 234.458,350.363 234.662,349.377 234.865,350.375 235.069,350.394 235.272,350.382 235.476,350.036 235.679,350.371 235.882,350.398 236.086,350.391 236.289,350.281 236.493,350.358 236.696,350.397 236.900,350.395 237.103,350.336 237.307,350.324 237.510,350.392 237.713,350.395 237.917,350.355 238.120,350.230 238.324,350.383 238.527,350.391 238.731,350.363 238.934,349.683 239.138,350.369 239.341,350.387 239.544,350.367 239.748,349.780 239.951,350.349 240.155,350.381 240.358,350.368 240.562,350.178 240.765,350.318 240.968,350.374 241.172,350.370 241.375,350.267 241.579,350.267 241.782,350.368 241.986,350.371 242.189,350.309 242.393,350.157 242.596,350.361 242.799,350.373 243.003,350.335 243.206,349.690 243.410,350.353 243.613,350.376 243.817,350.353 244.020,349.459 244.223,350.345 244.427,350.379 244.630,350.368 244.834,350.168 245.037,350.333 245.241,350.383 245.444,350.380 245.648,350.294 245.851,350.313 246.054,350.387 246.258,350.390 246.461,350.347 246.665,350.270 246.868,350.390 247.072,350.399 247.275,350.376 247.478,350.100 247.682,350.393 247.885,350.405 248.089,350.393 248.292,349.704 248.496,350.393 248.699,350.409 248.903,350.404 249.106,350.295 249.309,350.389 249.513,350.411 249.716,350.409 249.920,350.362 250.123,350.376 250.327,350.411 250.530,350.411 250.733,350.383 250.937,350.342 251.140,350.407 251.344,350.410 251.547,350.391 251.751,350.213 251.954,350.400 252.158,350.408 252.361,350.394 252.564,348.939 252.768,350.390 252.971,350.405 253.175,350.395 253.378,350.230 253.582,350.374 253.785,350.401 253.988,350.396 254.192,350.316 254.395,350.348 254.599,350.396 254.802,350.395 255.006,350.347 255.209,350.297 255.413,350.390 255.616,350.395 255.819,350.364 256.023,350.149 256.226,350.384 256.430,350.395 256.633,350.376 256.837,240.989 257.040,350.376 257.243,350.396 257.447,350.385 257.650,350.156 257.854,350.366 258.057,350.397 258.261,350.392 258.464,350.303 258.668,350.352 258.871,350.398 259.074,350.398 259.278,350.354 259.481,350.326 259.685,350.399 259.888,350.404 260.092,350.381 260.295,350.255 260.498,350.401 260.702,350.410 260.905,350.397 261.109,349.147 261.312,350.402 261.516,350.414 261.719,350.408 261.923,350.262 262.126,350.401 262.329,350.417 262.533,350.414 262.736,350.366 262.940,350.397 263.143,350.418 263.347,350.418 263.550,350.393 263.753,350.383 263.957,350.417 264.160,350.419 264.364,350.404 264.567,350.338 264.771,350.414 264.974,350.418 265.178,350.408 265.381,349.948 265.584,350.409 265.788,350.417 265.991,350.410 266.195,350.233 266.398,350.401 266.602,350.415 266.805,350.410 267.008,350.343 267.212,350.387 267.415,350.412 267.619,350.410 267.822,350.372 268.026,350.363 268.229,350.408 268.433,350.410 268.636,350.386 268.839,350.305 269.043,350.404 269.246,350.410 269.450,350.394 269.653,349.975 269.857,350.399 270.060,350.409 270.263,350.399 270.467,350.103 270.670,350.391 270.874,350.409 271.077,350.403 271.281,350.314 271.484,350.381 271.688,350.408 271.891,350.407 272.094,350.364 272.298,350.364 272.501,350.408 272.705,350.410 272.908,350.386 273.112,350.326 273.315,350.408 273.518,350.413 273.722,350.400 273.925,350.159 274.129,350.408 274.332,350.416 274.536,350.409 274.739,350.133 274.943,350.407 275.146,350.419 275.349,350.416 275.553,350.356 275.756,350.406 275.960,350.421 276.163,350.420 276.367,350.395 276.570,350.400 276.773,350.422 276.977,350.423 277.180,350.410 277.384,350.383 277.587,350.422 277.791,350.424 277.994,350.416 278.198,350.307 278.401,350.420 278.604,350.424 278.808,350.418 279.011,350.128 279.215,350.416 279.418,350.423 279.622,350.420 279.825,350.359 280.028,350.409 280.232,350.422 280.435,350.420 280.639,350.389 280.842,350.397 281.046,350.420 281.249,350.420 281.452,350.401 281.656,350.373 281.859,350.417 282.063,350.420 282.266,350.407 282.470,350.289 282.673,350.414 282.877,350.419 283.080,350.411 283.283,349.671 283.487,350.409 283.690,350.419 283.894,350.414 284.097,350.326 284.301,350.403 284.504,350.418 284.707,350.416 284.911,350.377 285.114,350.393 285.318,350.417 285.521,350.418 285.725,350.396 285.928,350.373 286.132,350.417 286.335,350.419 286.538,350.407 286.742,350.315 286.945,350.416 287.149,350.421 287.352,350.413 287.556,346.245 287.759,350.414 287.962,350.422 288.166,350.418 288.369,350.340 288.573,350.413 288.776,350.423 288.980,350.422 289.183,350.394 289.387,350.409 289.590,350.425 289.793,350.425 289.997,350.411 290.200,350.402 290.404,350.426 290.607,350.427 290.811,350.420 291.014,350.378 291.217,350.426 291.421,350.428 291.624,350.424 291.828,349.886 292.031,350.424 292.235,350.428 292.438,350.426 292.642,350.367 292.845,350.422 293.048,350.428 293.252,350.426 293.455,350.402 293.659,350.416 293.862,350.427 294.066,350.427 294.269,350.413 294.473,350.405 294.676,350.426 294.879,350.427 295.083,350.417 295.286,350.377 295.490,350.424 295.693,350.426 295.897,350.420 296.100,350.128 296.303,350.421 296.507,350.426 296.710,350.422 296.914,350.330 297.117,350.418 297.321,350.425 297.524,350.423 297.727,350.390 297.931,350.412 298.134,350.425 298.338,350.424 298.541,350.407 298.745,350.403 298.948,350.424 299.152,350.425 299.355,350.415 299.558,350.380 299.762,350.423 299.965,350.426 300.169,350.420 300.372,350.242 300.576,350.422 300.779,350.427 300.982,350.423 301.186,350.318 301.389,350.421 301.593,350.427 301.796,350.426 302.000,350.395 302.203,350.418 302.407,350.428 302.610,350.427 302.813,350.414 303.017,350.414 303.220,350.428 303.424,350.429 303.627,350.422 303.831,350.403 304.034,350.429 304.237,350.430 304.441,350.426 304.644,350.352 304.848,350.429 305.051,350.431 305.255,350.429 305.458,350.350 305.662,350.428 305.865,350.432 306.068,350.430 306.272,350.411 306.475,350.426 306.679,350.432 306.882,350.431 307.086,350.421 307.289,350.422 307.493,350.431 307.696,350.431 307.899,350.425 308.103,350.412 308.306,350.430 308.510,350.431 308.713,350.427 308.917,350.371 309.120,350.429 309.323,350.431 309.527,350.428 309.730,350.296 309.934,350.427 310.137,350.431 310.341,350.429 310.544,350.401 310.748,350.424 310.951,350.430 311.154,350.430 311.358,350.416 311.561,350.420 311.765,350.430 311.968,350.430 312.172,350.422 312.375,350.410 312.578,350.429 312.782,350.430 312.985,350.426 313.189,350.379 313.392,350.428 313.596,350.431 313.799,350.428 314.003,350.195 314.206,350.427 314.409,350.431 314.613,350.429 314.816,350.400 315.020,350.426 315.223,350.431 315.427,350.431 315.630,350.418 315.833,350.423 316.037,350.431 316.240,350.431 316.444,350.425 316.647,350.418 316.851,350.431 317.054,350.432 317.258,350.429 317.461,350.403 317.664,350.431 317.868,350.433 318.071,350.431 318.275,349.854 318.478,350.431 318.682,350.433 318.885,350.433 319.088,350.413 319.292,350.431 319.495,350.434 319.699,350.433 319.902,350.426 320.106,350.430 320.309,350.434 320.513,350.434 320.716,350.430 320.919,350.427 321.123,350.434 321.326,350.434 321.530,350.431 321.733,350.416 321.937,350.433 322.140,350.434 322.343,350.432 322.547,350.165 322.750,350.432 322.954,350.434 323.157,350.433 323.361,350.409 323.564,350.431 323.768,350.434 323.971,350.433 324.174,350.423 324.378,350.429 324.581,350.433 324.785,350.433 324.988,350.428 325.192,350.425 325.395,350.433 325.598,350.433 325.802,350.430 326.005,350.415 326.209,350.433 326.412,350.434 326.616,350.432 326.819,350.322 327.022,350.432 327.226,350.434 327.429,350.433 327.633,350.404 327.836,350.431 328.040,350.434 328.243,350.433 328.447,350.423 328.650,350.430 328.853,350.434 329.057,350.434 329.260,350.429 329.464,350.428 329.667,350.434 329.871,350.434 330.074,350.432 330.277,350.422 330.481,350.434 330.684,350.435 330.888,350.433 331.091,350.386 331.295,350.434 331.498,350.435 331.702,350.434 331.905,350.411 332.108,350.434 332.312,350.435 332.515,350.435 332.719,350.428 332.922,350.433 333.126,350.435 333.329,350.435 333.533,350.432 333.736,350.432 333.939,350.435 334.143,350.436 334.346,350.434 334.550,350.429 334.753,350.435 334.957,350.436 335.160,350.435 335.363,350.414 335.567,350.435 335.770,350.436 335.974,350.435 336.177,350.412 336.381,350.435 336.584,350.436 336.788,350.435 336.991,350.429 337.194,350.434 337.398,350.435 337.601,350.435 337.805,350.432 338.008,350.432 338.212,350.435 338.415,350.435 338.618,350.433 338.822,350.429 339.025,350.435 339.229,350.435 339.432,350.434 339.636,350.416 339.839,350.435 340.043,350.435 340.246,350.435 340.449,350.398 340.653,350.434 340.856,350.435 341.060,350.435 341.263,350.427 341.467,350.434 341.670,350.436 341.873,350.435 342.077,350.432 342.280,350.433 342.484,350.436 342.687,350.436 342.891,350.434 343.094,350.431 343.298,350.435 343.501,350.436 343.704,350.435 343.908,350.423 344.111,350.435 344.315,350.436 344.518,350.435 344.722,350.391 344.925,350.435 345.128,350.436 345.332,350.436 345.535,350.430 345.739,350.435 345.942,350.436 346.146,350.436 346.349,350.434 346.553,350.435 346.756,350.436 346.959,350.436 347.163,350.435 347.366,350.434 347.570,350.436 347.773,350.437 347.977,350.436 348.180,350.431 348.383,350.436 348.587,350.437 348.790,350.436 348.994,350.359 349.197,350.436 349.401,350.437 349.604,350.436 349.808,350.432 350.011,350.436 350.214,350.437 350.418,350.436 350.621,350.434 350.825,350.435 351.028,350.437 351.232,350.436 351.435,350.435 351.638,350.434 351.842,350.436 352.045,350.436 352.249,350.436 352.452,350.431 352.656,350.436 352.859,350.436 353.063,350.436 353.266,350.333 353.469,350.436 353.673,350.437 353.876,350.436 354.080,350.430 354.283,350.436 354.487,350.437 354.690,350.436 354.893,350.434 355.097,350.435 355.300,350.436 355.504,350.436 355.707,350.435 355.911,350.435 356.114,350.436 356.318,350.437 356.521,350.436 356.724,350.433 356.928,350.436 357.131,350.437 357.335,350.436 357.538,350.412 357.742,350.436 357.945,350.437 358.148,350.437 358.352,350.431 358.555,350.436 358.759,350.437 358.962,350.437 359.166,350.435 359.369,350.436 359.572,350.437 359.776,350.437 359.979,350.436 360.183,350.436 360.386,350.437 360.590,350.437 360.793,350.437 360.997,350.435 361.200,350.437 361.403,350.437 361.607,350.437 361.810,350.429 362.014,350.437 362.217,350.437 362.421,350.437 362.624,350.434 362.828,350.437 363.031,350.437 363.234,350.437 363.438,350.436 363.641,350.437 363.845,350.437 364.048,350.437 364.252,350.436 364.455,350.436 364.658,350.437 364.862,350.437 365.065,350.437 365.269,350.436 365.472,350.437 365.676,350.437 365.879,350.437 366.083,350.431 366.286,350.437 366.489,350.437 366.693,350.437 366.896,350.431 367.100,350.437 367.303,350.437 367.507,350.437 367.710,350.435 367.913,350.437 368.117,350.437 368.320,350.437 368.524,350.436 368.727,350.436 368.931,350.437 369.134,350.437 369.338,350.437 369.541,350.436 369.744,350.437 369.948,350.437 370.151,350.437 370.355,350.433 370.558,350.437 370.762,350.437 370.965,350.437 371.168,350.431 371.372,350.437 371.575,350.437 371.779,350.437 371.982,350.436 372.186,350.437 372.389,350.437 372.592,350.437 372.796,350.437 372.999,350.437 373.203,350.437 373.406,350.437 373.610,350.437 373.813,350.437 374.017,350.437 374.220,350.437 374.423,350.437 374.627,350.436 374.830,350.437 375.034,350.437 375.237,350.437 375.441,350.433 375.644,350.437 375.847,350.437 376.051,350.437 376.254,350.437 376.458,350.437 376.661,350.437 376.865,350.437 377.068,350.437 377.272,350.437 377.475,350.437 377.678,350.437 377.882,350.437 378.085,350.437 378.289,350.437 378.492,350.437 378.696,350.437 378.899,350.436 379.103,350.437 379.306,350.437 379.509,350.437 379.713,350.424 379.916,350.437 380.120,350.437 380.323,350.437 380.527,350.436 380.730,350.437 380.933,350.437 381.137,350.437 381.340,350.437 381.544,350.437 381.747,350.437 381.951,350.437 382.154,350.437 382.358,350.437 382.561,350.437 382.764,350.437 382.968,350.437 383.171,350.436 383.375,350.437 383.578,350.437 383.782,350.437 383.985,350.411 384.188,350.437 384.392,350.437 384.595,350.437 384.799,350.436 385.002,350.437 385.206,350.437 385.409,350.437 385.613,350.437 385.816,350.437 386.019,350.437 386.223,350.437 386.426,350.437 386.630,350.437 386.833,350.437 387.037,350.437 387.240,350.437 387.443,350.437 387.647,350.437 387.850,350.437 388.054,350.437 388.257,350.435 388.461,350.437 388.664,350.437 388.868,350.437 389.071,350.437 389.274,350.437 389.478,350.437 389.681,350.437 389.885,350.437 390.088,350.437 390.292,350.437 390.495,350.437 390.698,350.437 390.902,350.437 391.105,350.437 391.309,350.437 391.512,350.437 391.716,350.437 391.919,350.437 392.123,350.437 392.326,350.437 392.529,350.436 392.733,350.437 392.936,350.437 393.140,350.437 393.343,350.437 393.547,350.437 393.750,350.437 393.953,350.437 394.157,350.437 394.360,350.437 394.564,350.437 394.767,350.437 394.971,350.437 395.174,350.437 395.378,350.437 395.581,350.437 395.784,350.437 395.988,350.437 396.191,350.437 396.395,350.437 396.598,350.437 396.802,350.436 397.005,350.437 397.208,350.437 397.412,350.437 397.615,350.437 397.819,350.437 398.022,350.437 398.226,350.437 398.429,350.437 398.633,350.437 398.836,350.437 399.039,350.437 399.243,350.437 399.446,350.437 399.650,350.437 399.853,350.437 400.057,350.437 400.260,350.437 400.463,350.437 400.667,350.437 400.870,350.437 401.074,350.437 401.277,350.437 401.481,350.437 401.684,350.437 401.887,350.437 402.091,350.437 402.294,350.437 402.498,350.437 402.701,350.437 402.905,350.437 403.108,350.437 403.312,350.437 403.515,350.437 403.718,350.437 403.922,350.437 404.125,350.437 404.329,350.437 404.532,350.437 404.736,350.437 404.939,350.437 405.142,350.437 405.346,350.437 405.549,350.437 405.753,350.437 405.956,350.437 406.160,350.437 406.363,350.437 406.567,350.437 406.770,350.437 406.973,350.437 407.177,350.437 407.380,350.437 407.584,350.437 407.787,350.437 407.991,350.437 408.194,350.437 408.398,350.437 408.601,350.437 408.804,350.437 409.008,350.437 409.211,350.437 409.415,350.437 409.618,350.437 409.822,350.437 410.025,350.437 410.228,350.437 410.432,350.436 410.635,350.437 410.839,350.437 411.042,350.437 411.246,350.437 411.449,350.437 411.653,350.437 411.856,350.437 412.059,350.437 412.263,350.437 412.466,350.437 412.670,350.437 412.873,350.437 413.077,350.437 413.280,350.437 413.483,350.437 413.687,350.437 413.890,350.437 414.094,350.437 414.297,350.437 414.501,350.437 414.704,350.434 414.908,350.437 415.111,350.437 415.314,350.437 415.518,350.437 415.721,350.437 415.925,350.437 416.128,350.437 416.332,350.437 416.535,350.437 416.738,350.437 416.942,350.437 417.145,350.437 417.349,350.437 417.552,350.437 417.756,350.437 417.959,350.437 418.162,350.437 418.366,350.437 418.569,350.437 418.773,350.437 418.976,350.437 419.180,350.437 419.383,350.437 419.587,350.437 419.790,350.437 419.993,350.437 420.197,350.437 420.400,350.437 420.604,350.437 420.807,350.437 421.011,350.437 421.214,350.437 421.417,350.437 421.621,350.437 421.824,350.437 422.028,350.437 422.231,350.437 422.435,350.437 422.638,350.437 422.842,350.437 423.045,350.437 423.248,350.437 423.452,350.437 423.655,350.437 423.859,350.437 424.062,350.437 424.266,350.437 424.469,350.437 424.673,350.437 424.876,350.437 425.079,350.437 425.283,350.437 425.486,350.437 425.690,350.437 425.893,350.437 426.097,350.437 426.300,350.437 426.503,350.437 426.707,350.437 426.910,350.437 427.114,350.437 427.317,350.437 427.521,350.437 427.724,350.437 427.928,350.437 428.131,350.437 428.334,350.437 428.538,350.437 428.741,350.437 428.945,350.437 429.148,350.437 429.352,350.437 429.555,350.437 429.758,350.437 429.962,350.437 430.165,350.437 430.369,350.437 430.572,350.437 430.776,350.437 430.979,350.437 431.183,350.437 431.386,350.437 431.589,350.437 431.793,350.437 431.996,350.437 432.200,350.437 432.403,350.437 432.607,350.437 432.810,350.437 433.013,350.437 433.217,350.437 433.420,350.437 433.624,350.437 433.827,350.437 434.031,350.437 434.234,350.437 434.438,350.437 434.641,350.437 434.844,350.437 435.048,350.437 435.251,350.437 435.455,350.437 435.658,350.437 435.862,350.437 436.065,350.437 436.268,350.437 436.472,350.437 436.675,350.437 436.879,350.437 437.082,350.437 437.286,350.437 437.489,350.437 437.693,350.437 437.896,350.437 438.099,350.437 438.303,350.437 438.506,350.437 438.710,350.437 438.913,350.437 439.117,350.437 439.320,350.437 439.523,350.437 439.727,350.437 439.930,350.437 440.134,350.437 440.337,350.437 440.541,350.437 440.744,350.437 440.948,350.437 441.151,350.437 441.354,350.437 441.558,350.437 441.761,350.437 441.965,350.437 442.168,350.437 442.372,350.437 442.575,350.437 442.778,350.437 442.982,350.437 443.185,350.437 443.389,350.437 443.592,350.437 443.796,350.437 443.999,350.437 444.203,350.437 444.406,350.437 444.609,350.437 444.813,350.437 445.016,350.437 445.220,350.437 445.423,350.433 445.627,350.437 445.830,350.437 446.033,350.437 446.237,350.437 446.440,350.437 446.644,350.437 446.847,350.437 447.051,350.437 447.254,350.437 447.458,350.437 447.661,350.437 447.864,350.437 448.068,350.437 448.271,350.437 448.475,350.437 448.678,350.437 448.882,350.437 449.085,350.437 449.288,350.437 449.492,350.437 449.695,350.437 449.899,350.437 450.102,350.437 450.306,350.437 450.509,350.437 450.712,350.437 450.916,350.437 451.119,350.437 451.323,350.437 451.526,350.437 451.730,350.437 451.933,350.437 452.137,350.437 452.340,350.437 452.543,350.437 452.747,350.437 452.950,350.437 453.154,350.437 453.357,350.437 453.561,350.437 453.764,350.437 453.968,350.437 454.171,350.437 454.374,350.437 454.578,350.437 454.781,350.437 454.985,350.437 455.188,350.437 455.392,350.437 455.595,350.437 455.798,350.437 456.002,350.437 456.205,350.437 456.409,350.437 456.612,350.437 456.816,350.437 457.019,350.437 457.223,350.437 457.426,350.437 457.629,350.437 457.833,350.437 458.036,350.437 458.240,350.437 458.443,350.437 458.647,350.437 458.850,350.437 459.053,350.437 459.257,350.437 459.460,350.437 459.664,350.437 459.867,350.437 460.071,350.437 460.274,350.437 460.478,350.437 460.681,350.437 460.884,350.437 461.088,350.437 461.291,350.437 461.495,350.437 461.698,350.437 461.902,350.437 462.105,350.437 462.308,350.437 462.512,350.437 462.715,350.437 462.919,350.437 463.122,350.437 463.326,350.437 463.529,350.437 463.732,350.437 463.936,350.437 464.139,350.437 464.343,350.437 464.546,350.437 464.750,350.437 464.953,350.437 465.157,350.437 465.360,350.437 465.563,350.437 465.767,350.437 465.970,350.437 466.174,350.437 466.377,350.437 466.581,350.437 466.784,350.437 466.987,350.437 467.191,350.437 467.394,350.437 467.598,350.437 467.801,350.437 468.005,350.437 468.208,350.437 468.412,350.437 468.615,350.437 468.818,350.437 469.022,350.437 469.225,350.437 469.429,350.437 469.632,350.437 469.836,350.437 470.039,350.437 470.243,350.437 470.446,350.437 470.649,350.437 470.853,350.437 471.056,350.437 471.260,350.437 471.463,350.437 471.667,350.437 471.870,350.437 472.073,350.437 472.277,350.437 472.480,350.437 472.684,350.437 472.887,350.437 473.091,350.437 473.294,350.437 473.498,350.437 473.701,350.437 473.904,350.437 474.108,350.437 474.311,350.437 474.515,350.437 474.718,350.437 474.922,350.437 475.125,350.437 "/>
<g>
</g>
</g>
    </g>
    <g>
      <polyline fill="none" stroke="#262626" stroke-width="0.5pt" stroke-dasharray="none" points="108.938,350.438 108.938,346.369 "/>
      <polyline fill="none" stroke="#262626" stroke-width="0.5pt" stroke-dasharray="none" points="149.625,350.438 149.625,346.369 "/>
      <polyline fill="none" stroke="#262626" stroke-width="0.5pt" stroke-dasharray="none" points="190.313,350.438 190.313,346.369 "/>
      <polyline fill="none" stroke="#262626" stroke-width="0.5pt" stroke-dasharray="none" points="231.000,350.438 231.000,346.369 "/>
      <polyline fill="none" stroke="#262626" stroke-width="0.5pt" stroke-dasharray="none" points="271.688,350.438 271.688,346.369 "/>
      <polyline fill="none" stroke="#262626" stroke-width="0.5pt" stroke-dasharray="none" points="312.375,350.438 312.375,346.369 "/>
      <polyline fill="none" stroke="#262626" stroke-width="0.5pt" stroke-dasharray="none" points="353.063,350.438 353.063,346.369 "/>
      <polyline fill="none" stroke="#262626" stroke-width="0.5pt" stroke-dasharray="none" points="393.750,350.438 393.750,346.369 "/>
      <polyline fill="none" stroke="#262626" stroke-width="0.5pt" stroke-dasharray="none" points="434.438,350.438 434.438,346.369 "/>
      <polyline fill="none" stroke="#262626" stroke-width="0.5pt" stroke-dasharray="none" points="68.250,350.438 475.125,350.438 "/>
      <polyline fill="none" stroke="#262626" stroke-width="0.5pt" stroke-dasharray="none" points="108.938,29.531 108.938,33.600 "/>
      <polyline fill="none" stroke="#262626" stroke-width="0.5pt" stroke-dasharray="none" points="149.625,29.531 149.625,33.600 "/>
      <polyline fill="none" stroke="#262626" stroke-width="0.5pt" stroke-dasharray="none" points="190.313,29.531 190.313,33.600 "/>
      <polyline fill="none" stroke="#262626" stroke-width="0.5pt" stroke-dasharray="none" points="231.000,29.531 231.000,33.600 "/>
      <polyline fill="none" stroke="#262626" stroke-width="0.5pt" stroke-dasharray="none" points="271.688,29.531 271.688,33.600 "/>
      <polyline fill="none" stroke="#262626" stroke-width="0.5pt" stroke-dasharray="none" points="312.375,29.531 312.375,33.600 "/>
      <polyline fill="none" stroke="#262626" stroke-width="0.5pt" stroke-dasharray="none" points="353.063,29.531 353.063,33.600 "/>
      <polyline fill="none" stroke="#262626" stroke-width="0.5pt" stroke-dasharray="none" points="393.750,29.531 393.750,33.600 "/>
      <polyline fill="none" stroke="#262626" stroke-width="0.5pt" stroke-dasharray="none" points="434.438,29.531 434.438,33.600 "/>
      <polyline fill="none" stroke="#262626" stroke-width="0.5pt" stroke-dasharray="none" points="68.250,29.531 475.125,29.531 "/>
  <g transform="translate(68.250,367.918)">
    <g transform="rotate(-0.0)">
      <text x="0.000" y="0.000" font-family="Helvetica" text-anchor="middle" font-size="9pt" fill="#262626" >0</text>
    </g>
  </g>
  <g transform="translate(108.938,367.918)">
    <g transform="rotate(-0.0)">
      <text x="0.000" y="0.000" font-family="Helvetica" text-anchor="middle" font-size="9pt" fill="#262626" >0.5</text>
    </g>
  </g>
  <g transform="translate(149.625,367.918)">
    <g transform="rotate(-0.0)">
      <text x="0.000" y="0.000" font-family="Helvetica" text-anchor="middle" font-size="9pt" fill="#262626" >1</text>
    </g>
  </g>
  <g transform="translate(190.313,367.918)">
    <g transform="rotate(-0.0)">
      <text x="0.000" y="0.000" font-family="Helvetica" text-anchor="middle" font-size="9pt" fill="#262626" >1.5</text>
    </g>
  </g>
  <g transform="translate(231.000,367.918)">
    <g transform="rotate(-0.0)">
      <text x="0.000" y="0.000" font-family="Helvetica" text-anchor="middle" font-size="9pt" fill="#262626" >2</text>
    </g>
  </g>
  <g transform="translate(271.688,367.918)">
    <g transform="rotate(-0.0)">
      <text x="0.000" y="0.000" font-family="Helvetica" text-anchor="middle" font-size="9pt" fill="#262626" >2.5</text>
    </g>
  </g>
  <g transform="translate(312.375,367.918)">
    <g transform="rotate(-0.0)">
      <text x="0.000" y="0.000" font-family="Helvetica" text-anchor="middle" font-size="9pt" fill="#262626" >3</text>
    </g>
  </g>
  <g transform="translate(353.063,367.918)">
    <g transform="rotate(-0.0)">
      <text x="0.000" y="0.000" font-family="Helvetica" text-anchor="middle" font-size="9pt" fill="#262626" >3.5</text>
    </g>
  </g>
  <g transform="translate(393.750,367.918)">
    <g transform="rotate(-0.0)">
      <text x="0.000" y="0.000" font-family="Helvetica" text-anchor="middle" font-size="9pt" fill="#262626" >4</text>
    </g>
  </g>
  <g transform="translate(434.438,367.918)">
    <g transform="rotate(-0.0)">
      <text x="0.000" y="0.000" font-family="Helvetica" text-anchor="middle" font-size="9pt" fill="#262626" >4.5</text>
    </g>
  </g>
  <g transform="translate(475.125,367.918)">
    <g transform="rotate(-0.0)">
      <text x="0.000" y="0.000" font-family="Helvetica" text-anchor="middle" font-size="9pt" fill="#262626" >5</text>
    </g>
  </g>
      <polyline fill="none" stroke="#262626" stroke-width="0.5pt" stroke-dasharray="none" points="68.250,296.953 72.319,296.953 "/>
      <polyline fill="none" stroke="#262626" stroke-width="0.5pt" stroke-dasharray="none" points="68.250,243.469 72.319,243.469 "/>
      <polyline fill="none" stroke="#262626" stroke-width="0.5pt" stroke-dasharray="none" points="68.250,189.984 72.319,189.984 "/>
      <polyline fill="none" stroke="#262626" stroke-width="0.5pt" stroke-dasharray="none" points="68.250,136.500 72.319,136.500 "/>
      <polyline fill="none" stroke="#262626" stroke-width="0.5pt" stroke-dasharray="none" points="68.250,83.016 72.319,83.016 "/>
      <polyline fill="none" stroke="#262626" stroke-width="0.5pt" stroke-dasharray="none" points="68.250,350.438 68.250,29.531 "/>
      <polyline fill="none" stroke="#262626" stroke-width="0.5pt" stroke-dasharray="none" points="475.125,296.953 471.056,296.953 "/>
      <polyline fill="none" stroke="#262626" stroke-width="0.5pt" stroke-dasharray="none" points="475.125,243.469 471.056,243.469 "/>
      <polyline fill="none" stroke="#262626" stroke-width="0.5pt" stroke-dasharray="none" points="475.125,189.984 471.056,189.984 "/>
      <polyline fill="none" stroke="#262626" stroke-width="0.5pt" stroke-dasharray="none" points="475.125,136.500 471.056,136.500 "/>
      <polyline fill="none" stroke="#262626" stroke-width="0.5pt" stroke-dasharray="none" points="475.125,83.016 471.056,83.016 "/>
      <polyline fill="none" stroke="#262626" stroke-width="0.5pt" stroke-dasharray="none" points="475.125,350.438 475.125,29.531 "/>
  <g transform="translate(60.112,354.656)">
    <g transform="rotate(-0.0)">
      <text x="0.000" y="0.000" font-family="Helvetica" text-anchor="end" font-size="9pt" fill="#262626" >0</text>
    </g>
  </g>
  <g transform="translate(60.112,301.172)">
    <g transform="rotate(-0.0)">
      <text x="0.000" y="0.000" font-family="Helvetica" text-anchor="end" font-size="9pt" fill="#262626" >2</text>
    </g>
  </g>
  <g transform="translate(60.112,247.688)">
    <g transform="rotate(-0.0)">
      <text x="0.000" y="0.000" font-family="Helvetica" text-anchor="end" font-size="9pt" fill="#262626" >4</text>
    </g>
  </g>
  <g transform="translate(60.112,194.203)">
    <g transform="rotate(-0.0)">
      <text x="0.000" y="0.000" font-family="Helvetica" text-anchor="end" font-size="9pt" fill="#262626" >6</text>
    </g>
  </g>
  <g transform="translate(60.112,140.719)">
    <g transform="rotate(-0.0)">
      <text x="0.000" y="0.000" font-family="Helvetica" text-anchor="end" font-size="9pt" fill="#262626" >8</text>
    </g>
  </g>
  <g transform="translate(60.112,87.234)">
    <g transform="rotate(-0.0)">
      <text x="0.000" y="0.000" font-family="Helvetica" text-anchor="end" font-size="9pt" fill="#262626" >10</text>
    </g>
  </g>
  <g transform="translate(60.112,33.750)">
    <g transform="rotate(-0.0)">
      <text x="0.000" y="0.000" font-family="Helvetica" text-anchor="end" font-size="9pt" fill="#262626" >12</text>
    </g>
  </g>
      <polyline fill="none" stroke="#262626" stroke-width="0.5pt" stroke-dasharray="none" points="68.250,350.438 68.250,347.228 "/>
      <polyline fill="none" stroke="#262626" stroke-width="0.5pt" stroke-dasharray="none" points="68.250,350.438 68.250,350.437 "/>
  <g transform="translate(68.250,22.187)">
    <g transform="rotate(-0.0)">
      <text x="0.000" y="0.000" font-family="Helvetica" text-anchor="start" font-size="9pt" fill="#262626" >&#215; 10<tspan font-size="7.0pt" dy="-7.0pt">9</tspan></text>
    </g>
  </g>
    </g>
  </g>
  </g>
</svg>
