<?xml version="1.0" encoding="utf-8" standalone="no"?><!DOCTYPE svg PUBLIC "-//W3C//DTD SVG 1.1//EN" "http://www.w3.org/Graphics/SVG/1.1/DTD/svg11.dtd">
<svg preserveAspectRatio="xMinYMin meet" width="100%" height="100%" viewBox="0 0 525.000 393.750"  version="1.1" xmlns="http://www.w3.org/2000/svg" xmlns:xlink="http://www.w3.org/1999/xlink">
  <desc>Matlab Figure Converted by PLOT2SVG written by Juerg Schwizer</desc>
  <g id="topgroup">
  <rect x="0" y="0" width="525.000" height="393.750" fill="#ffffff" stroke="none" />
  <g id ="ID000000">
  <clipPath id="ID000001">
    <rect x="78.875" y="29.531" width="396.250" height="320.906"/>
  </clipPath>
      <polygon fill="#ffffff" fill-opacity="1.00" stroke="none" stroke-width="0.5pt" stroke-opacity="1.00" stroke-dasharray="none" points="78.875,350.438 475.125,350.438 475.125,29.531 78.875,29.531 "/>
      <polygon fill="#ffffff" fill-opacity="1.00" stroke="none" stroke-width="0.5pt" stroke-opacity="1.00" stroke-dasharray="none" points="78.875,29.531 475.125,29.531 475.125,29.531 78.875,29.531 "/>
      <polygon fill="#ffffff" fill-opacity="1.00" stroke="none" stroke-width="0.5pt" stroke-opacity="1.00" stroke-dasharray="none" points="78.875,350.438 78.875,350.438 78.875,29.531 78.875,29.531 "/>
    <g>
<g id="ID000002" >
  <g transform="translate(16.032,189.984)">
    <g transform="rotate(-90.0)">
      <text x="0.000" y="0.000" font-family="Helvetica" text-anchor="middle" font-size="10pt" fill="#262626" ><tspan>&#915;</tspan><tspan></tspan></text>
    </g>
  </g>
</g>
<g id="ID000003" >
  <g transform="translate(277.000,384.748)">
    <g transform="rotate(-0.0)">
      <text x="0.000" y="0.000" font-family="Helvetica" text-anchor="middle" font-size="10pt" fill="#262626" >Frequency [GHz]</text>
    </g>
  </g>
</g>
<g id="ID000004" >
  <g transform="translate(277.000,24.380)">
    <g transform="rotate(-0.0)">
      <text x="0.000" y="0.000" font-family="Helvetica" text-anchor="middle" font-size="10pt" font-weight="bold" fill="#000000" >Reflection Coefficient</text>
    </g>
  </g>
</g>
<g id="ID000005" clip-path="url(#ID000001)" >
      <polyline fill="none" stroke="#0071bc" stroke-width="0.5pt" stroke-dasharray="none" points="79.566,328.897 80.256,318.979 80.947,307.301 81.637,295.030 82.328,282.561 83.018,270.068 83.709,257.645 84.399,245.354 85.090,233.240 85.780,221.343 86.471,209.695 87.161,198.326 87.852,187.266 88.542,176.538 89.233,166.170 89.923,156.183 90.614,146.600 91.304,137.443 91.995,128.732 92.686,120.485 93.376,112.721 94.067,105.457 94.757,98.707 95.448,92.488 96.138,86.811 96.829,81.690 97.519,77.136 98.210,73.157 98.900,69.763 99.591,66.962 100.281,64.758 100.972,63.157 101.662,62.162 102.353,61.775 103.043,61.998 103.734,62.829 104.425,64.267 105.115,66.309 105.806,68.951 106.496,72.186 107.187,76.008 107.877,80.409 108.568,85.380 109.258,90.909 109.949,96.984 110.639,103.594 111.330,110.723 112.020,118.356 112.711,126.477 113.401,135.067 114.092,144.109 114.782,153.582 115.473,163.465 116.163,173.737 116.854,184.374 117.545,195.352 118.235,206.644 118.926,218.225 119.616,230.063 120.307,242.127 120.997,254.380 121.688,266.778 122.378,279.264 123.069,291.756 123.759,304.108 124.450,316.009 125.140,326.596 125.831,333.092 126.521,330.815 127.212,321.798 127.902,310.403 128.593,298.225 129.283,285.779 129.974,273.274 130.665,260.817 131.355,248.478 132.046,236.306 132.736,224.340 133.427,212.616 134.117,201.163 134.808,190.012 135.498,179.188 136.189,168.717 136.879,158.631 137.570,148.905 138.260,139.636 138.951,130.802 139.641,122.427 140.332,114.530 141.022,107.129 141.713,100.239 142.403,93.876 143.094,88.054 143.785,82.785 144.475,78.080 145.166,73.949 145.856,70.402 146.547,67.446 147.237,65.088 147.928,63.332 148.618,62.182 149.309,61.641 149.999,61.711 150.690,62.390 151.380,63.677 152.071,65.571 152.761,68.066 153.452,71.158 154.142,74.839 154.833,79.102 155.524,83.939 156.214,89.338 156.905,95.287 157.595,101.775 158.286,108.787 158.976,116.309 159.667,124.323 160.357,132.812 161.048,141.758 161.738,151.142 162.429,160.942 163.119,171.136 163.810,181.703 164.500,192.617 165.191,203.853 165.881,215.384 166.572,227.181 167.262,239.213 167.953,251.443 168.644,263.829 169.334,276.319 170.025,288.837 170.715,301.256 171.406,313.320 172.096,324.355 172.787,332.204 173.477,332.073 174.168,324.081 174.858,312.998 175.549,300.915 176.239,288.485 176.930,275.960 177.620,263.465 178.311,251.073 179.001,238.838 179.692,226.801 180.382,214.999 181.073,203.463 181.764,192.221 182.454,181.302 183.145,170.730 183.835,160.531 184.526,150.726 185.216,141.338 185.907,132.388 186.597,123.895 187.288,115.879 187.978,108.356 188.669,101.342 189.359,94.854 190.050,88.905 190.740,83.509 191.431,78.676 192.121,74.417 192.812,70.742 193.503,67.658 194.193,65.172 194.884,63.290 195.574,62.015 196.265,61.351 196.955,61.298 197.646,61.858 198.336,63.028 199.027,64.807 199.717,67.191 200.408,70.174 201.098,73.751 201.789,77.913 202.479,82.652 203.170,87.957 203.860,93.818 204.551,100.222 205.241,107.154 205.932,114.600 206.623,122.544 207.313,130.968 208.004,139.855 208.694,149.184 209.385,158.935 210.075,169.086 210.766,179.615 211.456,190.498 212.147,201.708 212.837,213.219 213.528,225.003 214.218,237.027 214.909,249.257 215.599,261.652 216.290,274.160 216.980,286.710 217.671,299.187 218.361,311.362 219.052,322.662 219.743,331.285 220.433,332.648 221.124,325.520 221.814,314.694 222.505,302.676 223.195,290.246 223.886,277.693 224.576,265.153 225.267,252.707 225.957,240.410 226.648,228.308 227.338,216.435 228.029,204.824 228.719,193.506 229.410,182.506 230.100,171.853 230.791,161.569 231.481,151.678 232.172,142.204 232.863,133.166 233.553,124.584 234.244,116.479 234.934,108.866 235.625,101.764 236.315,95.187 237.006,89.150 237.696,83.666 238.387,78.747 239.077,74.404 239.768,70.645 240.458,67.480 241.149,64.915 241.839,62.956 242.530,61.607 243.220,60.871 243.911,60.750 244.602,61.244 245.292,62.351 245.983,64.071 246.673,66.399 247.364,69.330 248.054,72.858 248.745,76.976 249.435,81.674 250.126,86.942 250.816,92.770 251.507,99.145 252.197,106.051 252.888,113.473 253.578,121.377 254.269,129.842 254.959,138.710 255.650,148.033 256.340,157.784 257.031,167.939 257.722,178.477 258.412,189.372 259.103,200.598 259.793,212.130 260.484,223.937 261.174,235.989 261.865,248.251 262.555,260.681 263.246,273.228 263.936,285.822 264.627,298.349 265.317,310.588 266.008,321.991 266.698,330.851 267.389,332.691 268.079,325.863 268.770,315.108 269.460,303.085 270.151,290.622 270.842,278.024 271.532,265.434 272.223,252.934 272.913,240.583 273.604,228.425 274.294,216.495 274.985,204.829 275.675,193.454 276.366,182.400 277.056,171.692 277.747,161.356 278.437,151.415 279.128,141.891 279.818,132.806 280.509,124.179 281.199,116.031 281.890,108.379 282.580,101.240 283.271,94.629 283.962,88.561 284.652,83.050 285.343,78.107 286.033,73.743 286.724,69.968 287.414,66.789 288.105,64.215 288.795,62.250 289.486,60.900 290.176,60.166 290.867,60.052 291.557,60.556 292.248,61.678 292.938,63.417 293.629,65.767 294.319,68.725 295.010,72.283 295.701,76.435 296.391,81.171 297.082,86.482 297.772,92.355 298.463,98.778 299.153,105.738 299.844,113.219 300.534,121.204 301.225,129.677 301.915,138.619 302.606,148.010 303.296,157.829 303.987,168.054 304.677,178.662 305.368,189.628 306.058,200.927 306.749,212.532 307.439,224.412 308.130,236.536 308.821,248.869 309.511,261.367 310.202,273.978 310.892,286.628 311.583,299.197 312.273,311.443 312.964,322.759 313.654,331.233 314.345,332.210 315.035,324.809 315.726,313.832 316.416,301.695 317.107,289.153 317.797,276.491 318.488,263.845 319.178,251.297 319.869,238.903 320.559,226.706 321.250,214.743 321.941,203.048 322.631,191.651 323.322,180.579 324.012,169.859 324.703,159.516 325.393,149.573 326.084,140.054 326.774,130.980 327.465,122.370 328.155,114.245 328.846,106.621 329.536,99.517 330.227,92.947 330.917,86.927 331.608,81.469 332.298,76.585 332.989,72.287 333.680,68.583 334.370,65.483 335.061,62.992 335.751,61.117 336.442,59.861 337.132,59.227 337.823,59.218 338.513,59.833 339.204,61.070 339.894,62.928 340.585,65.403 341.275,68.488 341.966,72.179 342.656,76.465 343.347,81.340 344.037,86.791 344.728,92.808 345.418,99.377 346.109,106.484 346.800,114.113 347.490,122.248 348.181,130.870 348.871,139.962 349.562,149.502 350.252,159.469 350.943,169.841 351.633,180.594 352.324,191.702 353.014,203.140 353.705,214.880 354.395,226.890 355.086,239.138 355.776,251.586 356.467,264.188 357.157,276.888 357.848,289.602 358.538,302.183 359.229,314.330 359.920,325.219 360.610,332.246 361.301,330.652 361.991,321.850 362.682,310.378 363.372,298.022 364.063,285.358 364.753,272.616 365.444,259.916 366.134,247.332 366.825,234.914 367.515,222.707 368.206,210.746 368.896,199.064 369.587,187.692 370.277,176.668 370.968,165.968 371.658,155.685 372.349,145.810 373.040,136.368 373.730,127.381 374.421,118.869 375.111,110.852 375.802,103.348 376.492,96.372 377.183,89.941 377.873,84.069 378.564,78.769 379.254,74.053 379.945,69.930 380.635,66.412 381.326,63.505 382.016,61.215 382.707,59.548 383.397,58.509 384.088,58.098 384.779,58.318 385.469,59.168 386.160,60.646 386.850,62.750 387.541,65.474 388.231,68.813 388.922,72.760 389.612,77.307 390.303,82.443 390.993,88.157 391.684,94.437 392.374,101.270 393.065,108.639 393.755,116.530 394.446,124.925 395.136,133.805 395.827,143.150 396.517,152.939 397.208,163.151 397.899,173.762 398.589,184.747 399.280,196.080 399.970,207.733 400.661,219.678 401.351,231.882 402.042,244.310 402.732,256.919 403.423,269.660 404.113,282.463 404.804,295.220 405.494,307.728 406.185,319.505 406.875,329.111 407.566,332.475 408.256,326.738 408.947,316.232 409.637,304.150 410.328,291.522 411.019,278.714 411.709,265.894 412.400,253.154 413.090,240.557 413.781,228.152 414.471,215.977 415.162,204.067 415.852,192.455 416.543,181.168 417.233,170.236 417.924,159.683 418.614,149.534 419.305,139.814 419.995,130.543 420.686,121.744 421.376,113.436 422.067,105.638 422.758,98.367 423.448,91.640 424.139,85.472 "/>
<g>
</g>
</g>
    </g>
    <g>
      <polyline fill="none" stroke="#262626" stroke-width="0.5pt" stroke-dasharray="none" points="135.482,350.438 135.482,346.475 "/>
      <polyline fill="none" stroke="#262626" stroke-width="0.5pt" stroke-dasharray="none" points="192.089,350.438 192.089,346.475 "/>
      <polyline fill="none" stroke="#262626" stroke-width="0.5pt" stroke-dasharray="none" points="248.696,350.438 248.696,346.475 "/>
      <polyline fill="none" stroke="#262626" stroke-width="0.5pt" stroke-dasharray="none" points="305.304,350.438 305.304,346.475 "/>
      <polyline fill="none" stroke="#262626" stroke-width="0.5pt" stroke-dasharray="none" points="361.911,350.438 361.911,346.475 "/>
      <polyline fill="none" stroke="#262626" stroke-width="0.5pt" stroke-dasharray="none" points="418.518,350.438 418.518,346.475 "/>
      <polyline fill="none" stroke="#262626" stroke-width="0.5pt" stroke-dasharray="none" points="78.875,350.438 475.125,350.438 "/>
      <polyline fill="none" stroke="#262626" stroke-width="0.5pt" stroke-dasharray="none" points="135.482,29.531 135.482,33.494 "/>
      <polyline fill="none" stroke="#262626" stroke-width="0.5pt" stroke-dasharray="none" points="192.089,29.531 192.089,33.494 "/>
      <polyline fill="none" stroke="#262626" stroke-width="0.5pt" stroke-dasharray="none" points="248.696,29.531 248.696,33.494 "/>
      <polyline fill="none" stroke="#262626" stroke-width="0.5pt" stroke-dasharray="none" points="305.304,29.531 305.304,33.494 "/>
      <polyline fill="none" stroke="#262626" stroke-width="0.5pt" stroke-dasharray="none" points="361.911,29.531 361.911,33.494 "/>
      <polyline fill="none" stroke="#262626" stroke-width="0.5pt" stroke-dasharray="none" points="418.518,29.531 418.518,33.494 "/>
      <polyline fill="none" stroke="#262626" stroke-width="0.5pt" stroke-dasharray="none" points="78.875,29.531 475.125,29.531 "/>
  <g transform="translate(78.875,367.918)">
    <g transform="rotate(-0.0)">
      <text x="0.000" y="0.000" font-family="Helvetica" text-anchor="middle" font-size="9pt" fill="#262626" >0</text>
    </g>
  </g>
  <g transform="translate(135.482,367.918)">
    <g transform="rotate(-0.0)">
      <text x="0.000" y="0.000" font-family="Helvetica" text-anchor="middle" font-size="9pt" fill="#262626" >1</text>
    </g>
  </g>
  <g transform="translate(192.089,367.918)">
    <g transform="rotate(-0.0)">
      <text x="0.000" y="0.000" font-family="Helvetica" text-anchor="middle" font-size="9pt" fill="#262626" >2</text>
    </g>
  </g>
  <g transform="translate(248.696,367.918)">
    <g transform="rotate(-0.0)">
      <text x="0.000" y="0.000" font-family="Helvetica" text-anchor="middle" font-size="9pt" fill="#262626" >3</text>
    </g>
  </g>
  <g transform="translate(305.304,367.918)">
    <g transform="rotate(-0.0)">
      <text x="0.000" y="0.000" font-family="Helvetica" text-anchor="middle" font-size="9pt" fill="#262626" >4</text>
    </g>
  </g>
  <g transform="translate(361.911,367.918)">
    <g transform="rotate(-0.0)">
      <text x="0.000" y="0.000" font-family="Helvetica" text-anchor="middle" font-size="9pt" fill="#262626" >5</text>
    </g>
  </g>
  <g transform="translate(418.518,367.918)">
    <g transform="rotate(-0.0)">
      <text x="0.000" y="0.000" font-family="Helvetica" text-anchor="middle" font-size="9pt" fill="#262626" >6</text>
    </g>
  </g>
  <g transform="translate(475.125,367.918)">
    <g transform="rotate(-0.0)">
      <text x="0.000" y="0.000" font-family="Helvetica" text-anchor="middle" font-size="9pt" fill="#262626" >7</text>
    </g>
  </g>
      <polyline fill="none" stroke="#262626" stroke-width="0.5pt" stroke-dasharray="none" points="78.875,304.594 82.837,304.594 "/>
      <polyline fill="none" stroke="#262626" stroke-width="0.5pt" stroke-dasharray="none" points="78.875,258.750 82.837,258.750 "/>
      <polyline fill="none" stroke="#262626" stroke-width="0.5pt" stroke-dasharray="none" points="78.875,212.906 82.837,212.906 "/>
      <polyline fill="none" stroke="#262626" stroke-width="0.5pt" stroke-dasharray="none" points="78.875,167.063 82.837,167.063 "/>
      <polyline fill="none" stroke="#262626" stroke-width="0.5pt" stroke-dasharray="none" points="78.875,121.219 82.837,121.219 "/>
      <polyline fill="none" stroke="#262626" stroke-width="0.5pt" stroke-dasharray="none" points="78.875,75.375 82.837,75.375 "/>
      <polyline fill="none" stroke="#262626" stroke-width="0.5pt" stroke-dasharray="none" points="78.875,350.438 78.875,29.531 "/>
      <polyline fill="none" stroke="#262626" stroke-width="0.5pt" stroke-dasharray="none" points="475.125,304.594 471.162,304.594 "/>
      <polyline fill="none" stroke="#262626" stroke-width="0.5pt" stroke-dasharray="none" points="475.125,258.750 471.162,258.750 "/>
      <polyline fill="none" stroke="#262626" stroke-width="0.5pt" stroke-dasharray="none" points="475.125,212.906 471.162,212.906 "/>
      <polyline fill="none" stroke="#262626" stroke-width="0.5pt" stroke-dasharray="none" points="475.125,167.063 471.162,167.063 "/>
      <polyline fill="none" stroke="#262626" stroke-width="0.5pt" stroke-dasharray="none" points="475.125,121.219 471.162,121.219 "/>
      <polyline fill="none" stroke="#262626" stroke-width="0.5pt" stroke-dasharray="none" points="475.125,75.375 471.162,75.375 "/>
      <polyline fill="none" stroke="#262626" stroke-width="0.5pt" stroke-dasharray="none" points="475.125,350.438 475.125,29.531 "/>
  <g transform="translate(70.950,354.656)">
    <g transform="rotate(-0.0)">
      <text x="0.000" y="0.000" font-family="Helvetica" text-anchor="end" font-size="9pt" fill="#262626" >0</text>
    </g>
  </g>
  <g transform="translate(70.950,308.813)">
    <g transform="rotate(-0.0)">
      <text x="0.000" y="0.000" font-family="Helvetica" text-anchor="end" font-size="9pt" fill="#262626" >0.142857</text>
    </g>
  </g>
  <g transform="translate(70.950,262.969)">
    <g transform="rotate(-0.0)">
      <text x="0.000" y="0.000" font-family="Helvetica" text-anchor="end" font-size="9pt" fill="#262626" >0.285714</text>
    </g>
  </g>
  <g transform="translate(70.950,217.125)">
    <g transform="rotate(-0.0)">
      <text x="0.000" y="0.000" font-family="Helvetica" text-anchor="end" font-size="9pt" fill="#262626" >0.428571</text>
    </g>
  </g>
  <g transform="translate(70.950,171.281)">
    <g transform="rotate(-0.0)">
      <text x="0.000" y="0.000" font-family="Helvetica" text-anchor="end" font-size="9pt" fill="#262626" >0.571429</text>
    </g>
  </g>
  <g transform="translate(70.950,125.438)">
    <g transform="rotate(-0.0)">
      <text x="0.000" y="0.000" font-family="Helvetica" text-anchor="end" font-size="9pt" fill="#262626" >0.714286</text>
    </g>
  </g>
  <g transform="translate(70.950,79.594)">
    <g transform="rotate(-0.0)">
      <text x="0.000" y="0.000" font-family="Helvetica" text-anchor="end" font-size="9pt" fill="#262626" >0.857143</text>
    </g>
  </g>
  <g transform="translate(70.950,33.750)">
    <g transform="rotate(-0.0)">
      <text x="0.000" y="0.000" font-family="Helvetica" text-anchor="end" font-size="9pt" fill="#262626" >1</text>
    </g>
  </g>
      <polyline fill="none" stroke="#262626" stroke-width="0.5pt" stroke-dasharray="none" points="78.875,350.438 78.875,347.228 "/>
      <polyline fill="none" stroke="#262626" stroke-width="0.5pt" stroke-dasharray="none" points="78.875,350.438 78.875,350.438 "/>
    </g>
  </g>
  </g>
</svg>
