<?xml version="1.0" encoding="utf-8" standalone="no"?><!DOCTYPE svg PUBLIC "-//W3C//DTD SVG 1.1//EN" "http://www.w3.org/Graphics/SVG/1.1/DTD/svg11.dtd">
<svg preserveAspectRatio="xMinYMin meet" width="100%" height="100%" viewBox="0 0 525.000 393.750"  version="1.1" xmlns="http://www.w3.org/2000/svg" xmlns:xlink="http://www.w3.org/1999/xlink">
  <desc>Matlab Figure Converted by PLOT2SVG written by Juerg Schwizer</desc>
  <g id="topgroup">
  <rect x="0" y="0" width="525.000" height="393.750" fill="#ffffff" stroke="none" />
  <g id ="ID000000">
  <clipPath id="ID000001">
    <rect x="68.250" y="29.531" width="406.875" height="320.906"/>
  </clipPath>
      <polygon fill="#ffffff" fill-opacity="1.00" stroke="none" stroke-width="0.5pt" stroke-opacity="1.00" stroke-dasharray="none" points="68.250,350.438 475.125,350.438 475.125,29.531 68.250,29.531 "/>
      <polygon fill="#ffffff" fill-opacity="1.00" stroke="none" stroke-width="0.5pt" stroke-opacity="1.00" stroke-dasharray="none" points="68.250,29.531 475.125,29.531 475.125,29.531 68.250,29.531 "/>
      <polygon fill="#ffffff" fill-opacity="1.00" stroke="none" stroke-width="0.5pt" stroke-opacity="1.00" stroke-dasharray="none" points="68.250,350.438 68.250,350.437 68.250,29.531 68.250,29.531 "/>
    <g>
<g id="ID000002" >
  <g transform="translate(35.359,189.984)">
    <g transform="rotate(-90.0)">
      <text x="0.000" y="0.000" font-family="Helvetica" text-anchor="middle" font-size="10pt" fill="#262626" >Magnitude</text>
    </g>
  </g>
</g>
<g id="ID000003" >
  <g transform="translate(271.688,384.748)">
    <g transform="rotate(-0.0)">
      <text x="0.000" y="0.000" font-family="Helvetica" text-anchor="middle" font-size="10pt" fill="#262626" >Time [ps]</text>
    </g>
  </g>
</g>
<g id="ID000004" >
  <g transform="translate(271.688,24.380)">
    <g transform="rotate(-0.0)">
      <text x="0.000" y="0.000" font-family="Helvetica" text-anchor="middle" font-size="10pt" font-weight="bold" fill="#000000" >Source Signal Waveform</text>
    </g>
  </g>
</g>
<g id="ID000005" clip-path="url(#ID000001)" >
      <polyline fill="none" stroke="#0071bc" stroke-width="0.5pt" stroke-dasharray="none" points="69.064,189.984 69.877,189.984 70.691,189.984 71.505,189.984 72.319,189.984 73.133,189.983 73.946,189.981 74.760,189.979 75.574,189.974 76.388,189.965 77.201,189.949 78.015,189.921 78.829,189.875 79.643,189.798 80.456,189.675 81.270,189.479 82.084,189.175 82.897,188.716 83.711,188.034 84.525,187.046 85.339,185.644 86.153,183.700 86.966,181.067 87.780,177.581 88.594,173.073 89.407,167.383 90.221,160.378 91.035,151.969 91.849,142.138 92.662,130.957 93.476,118.606 94.290,105.379 95.104,91.687 95.918,78.040 96.731,65.023 97.545,53.255 98.359,43.341 99.172,35.823 99.986,31.128 100.800,29.531 101.614,31.128 102.428,35.823 103.241,43.341 104.055,53.255 104.869,65.023 105.682,78.040 106.496,91.687 107.310,105.379 108.124,118.606 108.938,130.957 109.751,142.138 110.565,151.969 111.379,160.378 112.193,167.383 113.006,173.073 113.820,177.581 114.634,181.067 115.447,183.700 116.261,185.644 117.075,187.046 117.889,188.034 118.703,188.716 119.516,189.175 120.330,189.479 121.144,189.675 121.958,189.798 122.771,189.875 123.585,189.921 124.399,189.949 125.213,189.965 126.026,189.974 126.840,189.979 127.654,189.981 128.468,189.983 129.281,189.984 130.095,189.984 130.909,189.984 131.723,189.984 132.536,189.984 133.350,189.984 134.164,189.984 134.977,189.984 135.791,189.984 136.605,189.984 137.419,189.984 138.232,189.984 139.046,189.984 139.860,189.984 140.674,189.984 141.487,189.984 142.301,189.984 143.115,189.984 143.929,189.984 144.743,189.984 145.556,189.984 146.370,189.984 147.184,189.984 147.998,189.984 148.811,189.984 149.625,189.984 150.439,189.984 151.252,189.984 152.066,189.984 152.880,189.984 153.694,189.984 154.507,189.984 155.321,189.984 156.135,189.984 156.949,189.984 157.762,189.984 158.576,189.984 159.390,189.984 160.204,189.984 161.017,189.984 161.831,189.984 162.645,189.984 163.459,189.984 164.273,189.984 165.086,189.984 165.900,189.984 166.714,189.984 167.528,189.984 168.341,189.984 169.155,189.984 169.969,189.984 170.783,189.984 171.596,189.984 172.410,189.984 173.224,189.984 174.038,189.984 174.851,189.984 175.665,189.984 176.479,189.984 177.292,189.984 178.106,189.984 178.920,189.984 179.734,189.984 180.548,189.984 181.361,189.984 182.175,189.984 182.989,189.984 183.802,189.984 184.616,189.984 185.430,189.984 186.244,189.984 187.058,189.984 187.871,189.984 188.685,189.984 189.499,189.984 190.313,189.984 191.126,189.984 191.940,189.984 192.754,189.984 193.568,189.984 194.381,189.984 195.195,189.984 196.009,189.984 196.823,189.984 197.636,189.984 198.450,189.984 199.264,189.984 200.077,189.984 200.891,189.984 201.705,189.984 202.519,189.984 203.333,189.984 204.146,189.984 204.960,189.984 205.774,189.984 206.588,189.984 207.401,189.984 208.215,189.984 209.029,189.984 209.843,189.984 210.656,189.984 211.470,189.984 212.284,189.984 213.098,189.984 213.911,189.984 214.725,189.984 215.539,189.984 216.353,189.984 217.166,189.984 217.980,189.984 218.794,189.984 219.608,189.984 220.421,189.984 221.235,189.984 222.049,189.984 222.863,189.984 223.676,189.984 224.490,189.984 225.304,189.984 226.118,189.984 226.931,189.984 227.745,189.984 228.559,189.984 229.373,189.984 230.186,189.984 231.000,189.984 231.814,189.984 232.628,189.984 233.441,189.984 234.255,189.984 235.069,189.984 235.882,189.984 236.696,189.984 237.510,189.984 238.324,189.984 239.138,189.984 239.951,189.984 240.765,189.984 241.579,189.984 242.393,189.984 243.206,189.984 244.020,189.984 244.834,189.984 245.648,189.984 246.461,189.984 247.275,189.984 248.089,189.984 248.903,189.984 249.716,189.984 250.530,189.984 251.344,189.984 252.158,189.984 252.971,189.984 253.785,189.984 254.599,189.984 255.413,189.984 256.226,189.984 257.040,189.984 257.854,189.984 258.668,189.984 259.481,189.984 260.295,189.984 261.109,189.984 261.923,189.984 262.736,189.984 263.550,189.984 264.364,189.984 265.178,189.984 265.991,189.984 266.805,189.984 267.619,189.984 268.433,189.984 269.246,189.984 270.060,189.984 270.874,189.984 271.688,189.984 272.501,189.984 273.315,189.984 274.129,189.984 274.943,189.984 275.756,189.984 276.570,189.984 277.384,189.984 278.198,189.984 279.011,189.984 279.825,189.984 280.639,189.984 281.452,189.984 282.266,189.984 283.080,189.984 283.894,189.984 284.707,189.984 285.521,189.984 286.335,189.984 287.149,189.984 287.962,189.984 288.776,189.984 289.590,189.984 290.404,189.984 291.217,189.984 292.031,189.984 292.845,189.984 293.659,189.984 294.473,189.984 295.286,189.984 296.100,189.984 296.914,189.984 297.727,189.984 298.541,189.984 299.355,189.984 300.169,189.984 300.982,189.984 301.796,189.984 302.610,189.984 303.424,189.984 304.237,189.984 305.051,189.984 305.865,189.984 306.679,189.984 307.493,189.984 308.306,189.984 309.120,189.984 309.934,189.984 310.748,189.984 311.561,189.984 312.375,189.984 313.189,189.984 314.003,189.984 314.816,189.984 315.630,189.984 316.444,189.984 317.258,189.984 318.071,189.984 318.885,189.984 319.699,189.984 320.513,189.984 321.326,189.984 322.140,189.984 322.954,189.984 323.768,189.984 324.581,189.984 325.395,189.984 326.209,189.984 327.022,189.984 327.836,189.984 328.650,189.984 329.464,189.984 330.277,189.984 331.091,189.984 331.905,189.984 332.719,189.984 333.533,189.984 334.346,189.984 335.160,189.984 335.974,189.984 336.788,189.984 337.601,189.984 338.415,189.984 339.229,189.984 340.043,189.984 340.856,189.984 341.670,189.984 342.484,189.984 343.298,189.984 344.111,189.984 344.925,189.984 345.739,189.984 346.553,189.984 347.366,189.984 348.180,189.984 348.994,189.984 349.808,189.984 350.621,189.984 351.435,189.984 352.249,189.984 353.063,189.984 353.876,189.984 354.690,189.984 355.504,189.984 356.318,189.984 357.131,189.984 357.945,189.984 358.759,189.984 359.572,189.984 360.386,189.984 361.200,189.984 362.014,189.984 362.828,189.984 363.641,189.984 364.455,189.984 365.269,189.984 366.083,189.984 366.896,189.984 367.710,189.984 368.524,189.984 369.338,189.984 370.151,189.984 370.965,189.984 371.779,189.984 372.592,189.984 373.406,189.984 374.220,189.984 375.034,189.984 375.847,189.984 376.661,189.984 377.475,189.984 378.289,189.984 379.103,189.984 379.916,189.984 380.730,189.984 381.544,189.984 382.358,189.984 383.171,189.984 383.985,189.984 384.799,189.984 385.613,189.984 386.426,189.984 387.240,189.984 388.054,189.984 388.868,189.984 389.681,189.984 390.495,189.984 391.309,189.984 392.123,189.984 392.936,189.984 393.750,189.984 394.564,189.984 395.378,189.984 396.191,189.984 397.005,189.984 397.819,189.984 398.633,189.984 399.446,189.984 400.260,189.984 401.074,189.984 401.887,189.984 402.701,189.984 403.515,189.984 404.329,189.984 405.142,189.984 405.956,189.984 406.770,189.984 407.584,189.984 408.398,189.984 409.211,189.984 410.025,189.984 410.839,189.984 411.653,189.984 412.466,189.984 413.280,189.984 414.094,189.984 414.908,189.984 415.721,189.984 416.535,189.984 417.349,189.984 418.162,189.984 418.976,189.984 419.790,189.984 420.604,189.984 421.417,189.984 422.231,189.984 423.045,189.984 423.859,189.984 424.673,189.984 425.486,189.984 426.300,189.984 427.114,189.984 427.928,189.984 428.741,189.984 429.555,189.984 430.369,189.984 431.183,189.984 431.996,189.984 432.810,189.984 433.624,189.984 434.438,189.984 435.251,189.984 436.065,189.984 436.879,189.984 437.693,189.984 438.506,189.984 439.320,189.984 440.134,189.984 440.948,189.984 441.761,189.984 442.575,189.984 443.389,189.984 444.203,189.984 445.016,189.984 445.830,189.984 446.644,189.984 447.458,189.984 448.271,189.984 449.085,189.984 449.899,189.984 450.712,189.984 451.526,189.984 452.340,189.984 453.154,189.984 453.968,189.984 454.781,189.984 455.595,189.984 456.409,189.984 457.223,189.984 458.036,189.984 458.850,189.984 459.664,189.984 460.478,189.984 461.291,189.984 462.105,189.984 462.919,189.984 463.732,189.984 464.546,189.984 465.360,189.984 466.174,189.984 466.987,189.984 467.801,189.984 468.615,189.984 469.429,189.984 470.243,189.984 471.056,189.984 471.870,189.984 472.684,189.984 473.498,189.984 474.311,189.984 475.125,189.984 475.939,189.984 476.753,189.984 477.566,189.984 478.380,189.984 479.194,189.984 480.007,189.984 480.821,189.984 481.635,189.984 482.449,189.984 483.263,189.984 484.076,189.984 484.890,189.984 485.704,189.984 486.518,189.984 487.331,189.984 488.145,189.984 488.959,189.984 489.773,189.984 490.586,189.984 491.400,189.984 492.214,189.984 493.028,189.984 493.841,189.984 494.655,189.984 495.469,189.984 496.283,189.984 497.096,189.984 497.910,189.984 498.724,189.984 499.538,189.984 500.351,189.984 501.165,189.984 501.979,189.984 502.793,189.984 503.606,189.984 504.420,189.984 505.234,189.984 506.048,189.984 506.861,189.984 507.675,189.984 508.489,189.984 509.303,189.984 510.116,189.984 510.930,189.984 511.744,189.984 512.558,189.984 513.371,189.984 514.185,189.984 514.999,189.984 515.813,189.984 516.626,189.984 517.440,189.984 518.254,189.984 519.068,189.984 519.881,189.984 520.695,189.984 521.509,189.984 522.323,189.984 523.136,189.984 523.950,189.984 524.764,189.984 525.578,189.984 526.391,189.984 527.205,189.984 528.019,189.984 528.832,189.984 529.646,189.984 530.460,189.984 531.274,189.984 532.088,189.984 532.901,189.984 533.715,189.984 534.529,189.984 535.342,189.984 536.156,189.984 536.970,189.984 537.784,189.984 538.597,189.984 539.411,189.984 540.225,189.984 541.039,189.984 541.852,189.984 542.666,189.984 543.480,189.984 544.294,189.984 545.107,189.984 545.921,189.984 546.735,189.984 547.549,189.984 548.362,189.984 549.176,189.984 549.990,189.984 550.804,189.984 551.617,189.984 552.431,189.984 553.245,189.984 554.059,189.984 554.872,189.984 555.686,189.984 556.500,189.984 557.314,189.984 558.127,189.984 558.941,189.984 559.755,189.984 560.569,189.984 561.383,189.984 562.196,189.984 563.010,189.984 563.824,189.984 564.637,189.984 565.451,189.984 566.265,189.984 567.079,189.984 567.893,189.984 568.706,189.984 569.520,189.984 570.334,189.984 571.147,189.984 571.961,189.984 572.775,189.984 573.589,189.984 574.403,189.984 575.216,189.984 576.030,189.984 576.844,189.984 577.658,189.984 578.471,189.984 579.285,189.984 580.099,189.984 580.913,189.984 581.726,189.984 582.540,189.984 583.354,189.984 584.168,189.984 584.981,189.984 585.795,189.984 586.609,189.984 587.423,189.984 588.236,189.984 589.050,189.984 589.864,189.984 590.678,189.984 591.491,189.984 592.305,189.984 593.119,189.984 593.933,189.984 594.746,189.984 595.560,189.984 596.374,189.984 597.188,189.984 598.001,189.984 598.815,189.984 599.629,189.984 600.443,189.984 601.256,189.984 602.070,189.984 602.884,189.984 603.698,189.984 604.511,189.984 605.325,189.984 606.139,189.984 606.952,189.984 607.766,189.984 608.580,189.984 609.394,189.984 610.208,189.984 611.021,189.984 611.835,189.984 612.649,189.984 613.463,189.984 614.276,189.984 615.090,189.984 615.904,189.984 616.718,189.984 617.531,189.984 618.345,189.984 619.159,189.984 619.973,189.984 620.786,189.984 621.600,189.984 622.414,189.984 623.228,189.984 624.041,189.984 624.855,189.984 625.669,189.984 626.483,189.984 627.296,189.984 628.110,189.984 628.924,189.984 629.737,189.984 630.551,189.984 631.365,189.984 632.179,189.984 632.992,189.984 633.806,189.984 634.620,189.984 635.434,189.984 636.247,189.984 637.061,189.984 637.875,189.984 638.689,189.984 639.503,189.984 640.316,189.984 641.130,189.984 641.944,189.984 642.757,189.984 643.571,189.984 644.385,189.984 645.199,189.984 646.013,189.984 646.826,189.984 647.640,189.984 648.454,189.984 649.267,189.984 650.081,189.984 650.895,189.984 651.709,189.984 652.523,189.984 653.336,189.984 654.150,189.984 654.964,189.984 655.777,189.984 656.591,189.984 657.405,189.984 658.219,189.984 659.033,189.984 659.846,189.984 660.660,189.984 661.474,189.984 662.287,189.984 663.101,189.984 663.915,189.984 664.729,189.984 665.543,189.984 666.356,189.984 667.170,189.984 667.984,189.984 668.797,189.984 669.611,189.984 670.425,189.984 671.239,189.984 672.053,189.984 672.866,189.984 673.680,189.984 674.494,189.984 675.308,189.984 676.121,189.984 676.935,189.984 677.749,189.984 678.563,189.984 679.376,189.984 680.190,189.984 681.004,189.984 681.818,189.984 682.631,189.984 683.445,189.984 684.259,189.984 685.072,189.984 685.886,189.984 686.700,189.984 687.514,189.984 688.328,189.984 689.141,189.984 689.955,189.984 690.769,189.984 691.582,189.984 692.396,189.984 693.210,189.984 694.024,189.984 694.838,189.984 695.651,189.984 696.465,189.984 697.279,189.984 698.092,189.984 698.906,189.984 699.720,189.984 700.534,189.984 701.348,189.984 702.161,189.984 702.975,189.984 703.789,189.984 704.603,189.984 705.416,189.984 706.230,189.984 707.044,189.984 707.858,189.984 708.671,189.984 709.485,189.984 710.299,189.984 711.113,189.984 711.926,189.984 712.740,189.984 713.554,189.984 714.368,189.984 715.181,189.984 715.995,189.984 716.809,189.984 717.623,189.984 718.436,189.984 719.250,189.984 720.064,189.984 720.877,189.984 721.691,189.984 722.505,189.984 723.319,189.984 724.133,189.984 724.946,189.984 725.760,189.984 726.574,189.984 727.387,189.984 728.201,189.984 729.015,189.984 729.829,189.984 730.643,189.984 731.456,189.984 732.270,189.984 733.084,189.984 733.897,189.984 734.711,189.984 735.525,189.984 736.339,189.984 737.153,189.984 737.966,189.984 738.780,189.984 739.594,189.984 740.407,189.984 741.221,189.984 742.035,189.984 742.849,189.984 743.663,189.984 744.476,189.984 745.290,189.984 746.104,189.984 746.917,189.984 747.731,189.984 748.545,189.984 749.359,189.984 750.173,189.984 750.986,189.984 751.800,189.984 752.614,189.984 753.427,189.984 754.241,189.984 755.055,189.984 755.869,189.984 756.683,189.984 757.496,189.984 758.310,189.984 759.124,189.984 759.937,189.984 760.751,189.984 761.565,189.984 762.379,189.984 763.193,189.984 764.006,189.984 764.820,189.984 765.634,189.984 766.448,189.984 767.261,189.984 768.075,189.984 768.889,189.984 769.702,189.984 770.516,189.984 771.330,189.984 772.144,189.984 772.958,189.984 773.771,189.984 774.585,189.984 775.399,189.984 776.212,189.984 777.026,189.984 777.840,189.984 778.654,189.984 779.468,189.984 780.281,189.984 781.095,189.984 781.909,189.984 782.722,189.984 783.536,189.984 784.350,189.984 785.164,189.984 785.978,189.984 786.791,189.984 787.605,189.984 788.419,189.984 789.232,189.984 790.046,189.984 790.860,189.984 791.674,189.984 792.488,189.984 793.301,189.984 794.115,189.984 794.929,189.984 795.743,189.984 796.556,189.984 797.370,189.984 798.184,189.984 798.998,189.984 799.811,189.984 800.625,189.984 801.439,189.984 802.253,189.984 803.066,189.984 803.880,189.984 804.694,189.984 805.508,189.984 806.321,189.984 807.135,189.984 807.949,189.984 808.763,189.984 809.576,189.984 810.390,189.984 811.204,189.984 812.017,189.984 812.831,189.984 813.645,189.984 814.459,189.984 815.273,189.984 816.086,189.984 816.900,189.984 817.714,189.984 818.527,189.984 819.341,189.984 820.155,189.984 820.969,189.984 821.783,189.984 822.596,189.984 823.410,189.984 824.224,189.984 825.038,189.984 825.851,189.984 826.665,189.984 827.479,189.984 828.293,189.984 829.106,189.984 829.920,189.984 830.734,189.984 831.547,189.984 832.361,189.984 833.175,189.984 833.989,189.984 834.803,189.984 835.616,189.984 836.430,189.984 837.244,189.984 838.057,189.984 838.871,189.984 839.685,189.984 840.499,189.984 841.313,189.984 842.126,189.984 842.940,189.984 843.754,189.984 844.567,189.984 845.381,189.984 846.195,189.984 847.009,189.984 847.822,189.984 848.636,189.984 849.450,189.984 850.264,189.984 851.078,189.984 851.891,189.984 852.705,189.984 853.519,189.984 854.332,189.984 855.146,189.984 855.960,189.984 856.774,189.984 857.588,189.984 858.401,189.984 859.215,189.984 860.029,189.984 860.842,189.984 861.656,189.984 862.470,189.984 863.284,189.984 864.098,189.984 864.911,189.984 865.725,189.984 866.539,189.984 867.352,189.984 868.166,189.984 868.980,189.984 869.794,189.984 870.608,189.984 871.421,189.984 872.235,189.984 873.049,189.984 873.862,189.984 874.676,189.984 875.490,189.984 876.304,189.984 877.118,189.984 877.931,189.984 878.745,189.984 879.559,189.984 880.372,189.984 881.186,189.984 882.000,189.984 882.814,189.984 883.628,189.984 884.441,189.984 885.255,189.984 886.069,189.984 886.883,189.984 887.696,189.984 888.510,189.984 889.324,189.984 890.138,189.984 890.951,189.984 891.765,189.984 892.579,189.984 893.393,189.984 894.206,189.984 895.020,189.984 895.834,189.984 896.648,189.984 897.461,189.984 898.275,189.984 899.089,189.984 899.903,189.984 900.716,189.984 901.530,189.984 902.344,189.984 903.157,189.984 903.971,189.984 904.785,189.984 905.599,189.984 906.413,189.984 907.226,189.984 908.040,189.984 908.854,189.984 909.667,189.984 910.481,189.984 911.295,189.984 912.109,189.984 912.923,189.984 913.736,189.984 914.550,189.984 915.364,189.984 916.178,189.984 916.991,189.984 917.805,189.984 918.619,189.984 919.433,189.984 920.246,189.984 921.060,189.984 921.874,189.984 922.688,189.984 923.501,189.984 924.315,189.984 925.129,189.984 925.943,189.984 926.756,189.984 927.570,189.984 928.384,189.984 929.198,189.984 930.011,189.984 930.825,189.984 931.639,189.984 932.452,189.984 933.266,189.984 934.080,189.984 934.894,189.984 935.708,189.984 936.521,189.984 937.335,189.984 938.149,189.984 938.962,189.984 939.776,189.984 940.590,189.984 941.404,189.984 942.218,189.984 943.031,189.984 943.845,189.984 944.659,189.984 945.472,189.984 946.286,189.984 947.100,189.984 947.914,189.984 948.728,189.984 949.541,189.984 950.355,189.984 951.169,189.984 951.983,189.984 952.796,189.984 953.610,189.984 954.424,189.984 955.238,189.984 956.051,189.984 956.865,189.984 957.679,189.984 958.493,189.984 959.306,189.984 960.120,189.984 960.934,189.984 961.748,189.984 962.561,189.984 963.375,189.984 964.189,189.984 965.003,189.984 965.816,189.984 966.630,189.984 967.444,189.984 968.258,189.984 969.071,189.984 969.885,189.984 970.699,189.984 971.513,189.984 972.326,189.984 973.140,189.984 973.954,189.984 974.768,189.984 975.581,189.984 976.395,189.984 977.209,189.984 978.023,189.984 978.836,189.984 979.650,189.984 980.464,189.984 981.278,189.984 982.091,189.984 982.905,189.984 983.719,189.984 984.532,189.984 985.346,189.984 986.160,189.984 986.974,189.984 987.788,189.984 988.601,189.984 989.415,189.984 990.229,189.984 991.042,189.984 991.856,189.984 992.670,189.984 993.484,189.984 994.297,189.984 995.111,189.984 995.925,189.984 996.739,189.984 997.553,189.984 998.366,189.984 999.180,189.984 999.994,189.984 1000.807,189.984 1001.621,189.984 1002.435,189.984 1003.249,189.984 1004.063,189.984 1004.876,189.984 1005.690,189.984 1006.504,189.984 1007.317,189.984 1008.131,189.984 1008.945,189.984 1009.759,189.984 1010.573,189.984 1011.386,189.984 1012.200,189.984 1013.014,189.984 1013.827,189.984 1014.641,189.984 1015.455,189.984 1016.269,189.984 1017.083,189.984 1017.896,189.984 1018.710,189.984 1019.524,189.984 1020.337,189.984 1021.151,189.984 1021.965,189.984 1022.779,189.984 1023.593,189.984 1024.406,189.984 1025.220,189.984 1026.034,189.984 1026.847,189.984 1027.661,189.984 1028.475,189.984 1029.289,189.984 1030.103,189.984 1030.916,189.984 1031.730,189.984 1032.544,189.984 1033.358,189.984 1034.171,189.984 1034.985,189.984 1035.799,189.984 1036.613,189.984 1037.426,189.984 1038.240,189.984 1039.054,189.984 1039.868,189.984 1040.681,189.984 1041.495,189.984 1042.309,189.984 1043.122,189.984 1043.936,189.984 1044.750,189.984 1045.564,189.984 1046.378,189.984 1047.191,189.984 1048.005,189.984 1048.819,189.984 1049.632,189.984 1050.446,189.984 1051.260,189.984 1052.074,189.984 1052.888,189.984 1053.701,189.984 1054.515,189.984 1055.329,189.984 1056.142,189.984 1056.956,189.984 1057.770,189.984 1058.584,189.984 1059.398,189.984 1060.211,189.984 1061.025,189.984 1061.839,189.984 1062.653,189.984 1063.466,189.984 1064.280,189.984 1065.094,189.984 1065.908,189.984 1066.721,189.984 1067.535,189.984 1068.349,189.984 1069.163,189.984 1069.976,189.984 1070.790,189.984 1071.604,189.984 1072.418,189.984 1073.231,189.984 1074.045,189.984 1074.859,189.984 1075.673,189.984 1076.486,189.984 1077.300,189.984 1078.114,189.984 1078.928,189.984 1079.741,189.984 1080.555,189.984 1081.369,189.984 1082.183,189.984 1082.996,189.984 1083.810,189.984 1084.624,189.984 1085.438,189.984 1086.251,189.984 1087.065,189.984 1087.879,189.984 1088.693,189.984 1089.506,189.984 1090.320,189.984 1091.134,189.984 1091.948,189.984 1092.761,189.984 1093.575,189.984 1094.389,189.984 1095.203,189.984 1096.016,189.984 1096.830,189.984 1097.644,189.984 1098.458,189.984 1099.271,189.984 1100.085,189.984 1100.899,189.984 1101.713,189.984 1102.526,189.984 1103.340,189.984 1104.154,189.984 1104.968,189.984 1105.781,189.984 1106.595,189.984 1107.409,189.984 1108.223,189.984 1109.036,189.984 1109.850,189.984 1110.664,189.984 1111.478,189.984 1112.291,189.984 1113.105,189.984 1113.919,189.984 1114.733,189.984 1115.546,189.984 1116.360,189.984 1117.174,189.984 1117.988,189.984 1118.801,189.984 1119.615,189.984 1120.429,189.984 1121.243,189.984 1122.056,189.984 1122.870,189.984 1123.684,189.984 1124.498,189.984 1125.311,189.984 1126.125,189.984 1126.939,189.984 1127.753,189.984 1128.566,189.984 1129.380,189.984 1130.194,189.984 1131.008,189.984 1131.821,189.984 1132.635,189.984 1133.449,189.984 1134.262,189.984 1135.076,189.984 1135.890,189.984 1136.704,189.984 1137.517,189.984 1138.331,189.984 1139.145,189.984 1139.959,189.984 1140.772,189.984 1141.586,189.984 1142.400,189.984 1143.214,189.984 1144.027,189.984 1144.841,189.984 1145.655,189.984 1146.469,189.984 1147.283,189.984 1148.096,189.984 1148.910,189.984 1149.724,189.984 1150.537,189.984 1151.351,189.984 1152.165,189.984 1152.979,189.984 1153.793,189.984 1154.606,189.984 1155.420,189.984 1156.234,189.984 1157.047,189.984 1157.861,189.984 1158.675,189.984 1159.489,189.984 1160.303,189.984 1161.116,189.984 1161.930,189.984 1162.744,189.984 1163.557,189.984 1164.371,189.984 1165.185,189.984 1165.999,189.984 1166.813,189.984 1167.626,189.984 1168.440,189.984 1169.254,189.984 1170.067,189.984 1170.881,189.984 1171.695,189.984 1172.509,189.984 1173.323,189.984 1174.136,189.984 1174.950,189.984 1175.764,189.984 1176.578,189.984 1177.391,189.984 1178.205,189.984 1179.019,189.984 1179.833,189.984 1180.646,189.984 1181.460,189.984 1182.274,189.984 1183.088,189.984 1183.901,189.984 1184.715,189.984 1185.529,189.984 1186.343,189.984 1187.156,189.984 1187.970,189.984 1188.784,189.984 1189.597,189.984 1190.411,189.984 1191.225,189.984 1192.039,189.984 1192.853,189.984 1193.666,189.984 1194.480,189.984 1195.294,189.984 1196.107,189.984 1196.921,189.984 1197.735,189.984 1198.549,189.984 1199.363,189.984 1200.176,189.984 1200.990,189.984 1201.804,189.984 1202.617,189.984 1203.431,189.984 1204.245,189.984 1205.059,189.984 1205.872,189.984 1206.686,189.984 1207.500,189.984 1208.314,189.984 1209.127,189.984 1209.941,189.984 1210.755,189.984 1211.569,189.984 1212.382,189.984 1213.196,189.984 1214.010,189.984 1214.824,189.984 1215.637,189.984 1216.451,189.984 1217.265,189.984 1218.079,189.984 1218.892,189.984 1219.706,189.984 1220.520,189.984 1221.334,189.984 1222.147,189.984 1222.961,189.984 1223.775,189.984 1224.589,189.984 1225.402,189.984 1226.216,189.984 1227.030,189.984 1227.844,189.984 1228.658,189.984 1229.471,189.984 1230.285,189.984 1231.099,189.984 1231.912,189.984 1232.726,189.984 1233.540,189.984 1234.354,189.984 1235.168,189.984 1235.981,189.984 1236.795,189.984 1237.609,189.984 1238.422,189.984 1239.236,189.984 1240.050,189.984 1240.864,189.984 1241.678,189.984 1242.491,189.984 1243.305,189.984 1244.119,189.984 1244.932,189.984 1245.746,189.984 1246.560,189.984 1247.374,189.984 1248.188,189.984 1249.001,189.984 1249.815,189.984 1250.629,189.984 1251.442,189.984 1252.256,189.984 1253.070,189.984 1253.884,189.984 1254.698,189.984 1255.511,189.984 1256.325,189.984 1257.139,189.984 1257.953,189.984 1258.766,189.984 1259.580,189.984 1260.394,189.984 1261.208,189.984 1262.021,189.984 1262.835,189.984 1263.649,189.984 1264.463,189.984 1265.276,189.984 1266.090,189.984 1266.904,189.984 1267.718,189.984 1268.531,189.984 1269.345,189.984 1270.159,189.984 1270.973,189.984 1271.786,189.984 1272.600,189.984 1273.414,189.984 1274.228,189.984 1275.041,189.984 1275.855,189.984 1276.669,189.984 1277.483,189.984 1278.296,189.984 1279.110,189.984 1279.924,189.984 1280.738,189.984 1281.551,189.984 1282.365,189.984 1283.179,189.984 1283.993,189.984 1284.806,189.984 1285.620,189.984 1286.434,189.984 1287.247,189.984 1288.061,189.984 1288.875,189.984 1289.689,189.984 1290.503,189.984 1291.316,189.984 1292.130,189.984 1292.944,189.984 1293.758,189.984 1294.571,189.984 1295.385,189.984 1296.199,189.984 1297.013,189.984 1297.826,189.984 1298.640,189.984 1299.454,189.984 1300.268,189.984 1301.081,189.984 1301.895,189.984 1302.709,189.984 1303.523,189.984 1304.336,189.984 1305.150,189.984 1305.964,189.984 1306.778,189.984 1307.591,189.984 1308.405,189.984 1309.219,189.984 1310.033,189.984 1310.846,189.984 1311.660,189.984 1312.474,189.984 1313.288,189.984 1314.101,189.984 1314.915,189.984 1315.729,189.984 1316.543,189.984 1317.356,189.984 1318.170,189.984 1318.984,189.984 1319.797,189.984 1320.611,189.984 1321.425,189.984 1322.239,189.984 1323.053,189.984 1323.866,189.984 1324.680,189.984 1325.494,189.984 1326.307,189.984 1327.121,189.984 1327.935,189.984 1328.749,189.984 1329.563,189.984 1330.376,189.984 1331.190,189.984 1332.004,189.984 1332.817,189.984 1333.631,189.984 1334.445,189.984 1335.259,189.984 1336.073,189.984 1336.886,189.984 1337.700,189.984 1338.514,189.984 1339.327,189.984 1340.141,189.984 1340.955,189.984 1341.769,189.984 1342.583,189.984 1343.396,189.984 1344.210,189.984 1345.024,189.984 1345.837,189.984 1346.651,189.984 1347.465,189.984 1348.279,189.984 1349.093,189.984 1349.906,189.984 1350.720,189.984 1351.534,189.984 1352.347,189.984 1353.161,189.984 1353.975,189.984 1354.789,189.984 1355.603,189.984 1356.416,189.984 1357.230,189.984 1358.044,189.984 1358.858,189.984 1359.671,189.984 1360.485,189.984 1361.299,189.984 1362.113,189.984 1362.926,189.984 1363.740,189.984 1364.554,189.984 1365.368,189.984 1366.181,189.984 1366.995,189.984 1367.809,189.984 1368.622,189.984 1369.436,189.984 1370.250,189.984 1371.064,189.984 1371.878,189.984 1372.691,189.984 1373.505,189.984 1374.319,189.984 1375.132,189.984 1375.946,189.984 1376.760,189.984 1377.574,189.984 1378.388,189.984 1379.201,189.984 1380.015,189.984 1380.829,189.984 1381.642,189.984 1382.456,189.984 1383.270,189.984 1384.084,189.984 1384.898,189.984 1385.711,189.984 1386.525,189.984 1387.339,189.984 1388.153,189.984 1388.966,189.984 1389.780,189.984 1390.594,189.984 1391.407,189.984 1392.221,189.984 1393.035,189.984 1393.849,189.984 1394.662,189.984 1395.476,189.984 1396.290,189.984 1397.104,189.984 1397.917,189.984 1398.731,189.984 1399.545,189.984 1400.359,189.984 1401.172,189.984 1401.986,189.984 1402.800,189.984 1403.614,189.984 1404.428,189.984 1405.241,189.984 1406.055,189.984 1406.869,189.984 1407.682,189.984 1408.496,189.984 1409.310,189.984 1410.124,189.984 1410.938,189.984 1411.751,189.984 1412.565,189.984 1413.379,189.984 1414.192,189.984 1415.006,189.984 1415.820,189.984 1416.634,189.984 1417.448,189.984 1418.261,189.984 1419.075,189.984 1419.889,189.984 1420.702,189.984 1421.516,189.984 1422.330,189.984 1423.144,189.984 1423.958,189.984 1424.771,189.984 1425.585,189.984 1426.399,189.984 1427.212,189.984 1428.026,189.984 1428.840,189.984 1429.654,189.984 1430.468,189.984 1431.281,189.984 1432.095,189.984 1432.909,189.984 1433.722,189.984 1434.536,189.984 1435.350,189.984 1436.164,189.984 1436.978,189.984 1437.791,189.984 1438.605,189.984 1439.419,189.984 1440.233,189.984 1441.046,189.984 1441.860,189.984 1442.674,189.984 1443.488,189.984 1444.301,189.984 1445.115,189.984 1445.929,189.984 1446.743,189.984 1447.556,189.984 1448.370,189.984 1449.184,189.984 1449.997,189.984 1450.811,189.984 1451.625,189.984 1452.439,189.984 1453.253,189.984 1454.066,189.984 1454.880,189.984 1455.694,189.984 1456.507,189.984 1457.321,189.984 1458.135,189.984 1458.949,189.984 1459.763,189.984 1460.576,189.984 1461.390,189.984 1462.204,189.984 1463.017,189.984 1463.831,189.984 1464.645,189.984 1465.459,189.984 1466.273,189.984 1467.086,189.984 1467.900,189.984 1468.714,189.984 1469.528,189.984 1470.341,189.984 1471.155,189.984 1471.969,189.984 1472.783,189.984 1473.596,189.984 1474.410,189.984 1475.224,189.984 1476.038,189.984 1476.851,189.984 1477.665,189.984 1478.479,189.984 1479.293,189.984 1480.106,189.984 1480.920,189.984 1481.734,189.984 1482.548,189.984 1483.361,189.984 1484.175,189.984 1484.989,189.984 1485.803,189.984 1486.616,189.984 1487.430,189.984 1488.244,189.984 1489.058,189.984 1489.871,189.984 1490.685,189.984 1491.499,189.984 1492.313,189.984 1493.126,189.984 1493.940,189.984 1494.754,189.984 1495.568,189.984 1496.381,189.984 1497.195,189.984 1498.009,189.984 1498.823,189.984 1499.636,189.984 1500.450,189.984 1501.264,189.984 1502.078,189.984 1502.891,189.984 1503.705,189.984 1504.519,189.984 1505.333,189.984 1506.146,189.984 1506.960,189.984 1507.774,189.984 1508.587,189.984 1509.401,189.984 1510.215,189.984 1511.029,189.984 1511.843,189.984 1512.656,189.984 1513.470,189.984 1514.284,189.984 1515.097,189.984 1515.911,189.984 1516.725,189.984 1517.539,189.984 1518.353,189.984 1519.166,189.984 1519.980,189.984 1520.794,189.984 1521.607,189.984 1522.421,189.984 1523.235,189.984 1524.049,189.984 1524.863,189.984 1525.676,189.984 1526.490,189.984 1527.304,189.984 1528.117,189.984 1528.931,189.984 1529.745,189.984 1530.559,189.984 1531.372,189.984 1532.186,189.984 1533.000,189.984 1533.814,189.984 1534.628,189.984 1535.441,189.984 1536.255,189.984 1537.069,189.984 1537.882,189.984 1538.696,189.984 1539.510,189.984 1540.324,189.984 1541.138,189.984 1541.951,189.984 1542.765,189.984 1543.579,189.984 1544.392,189.984 1545.206,189.984 1546.020,189.984 1546.834,189.984 1547.648,189.984 1548.461,189.984 1549.275,189.984 1550.089,189.984 1550.902,189.984 1551.716,189.984 1552.530,189.984 1553.344,189.984 1554.158,189.984 1554.971,189.984 1555.785,189.984 1556.599,189.984 1557.412,189.984 1558.226,189.984 1559.040,189.984 1559.854,189.984 1560.668,189.984 1561.481,189.984 1562.295,189.984 1563.109,189.984 1563.922,189.984 1564.736,189.984 1565.550,189.984 1566.364,189.984 1567.178,189.984 1567.991,189.984 1568.805,189.984 1569.619,189.984 1570.433,189.984 1571.246,189.984 1572.060,189.984 1572.874,189.984 1573.688,189.984 1574.501,189.984 1575.315,189.984 1576.129,189.984 1576.943,189.984 1577.756,189.984 1578.570,189.984 1579.384,189.984 1580.198,189.984 1581.011,189.984 1581.825,189.984 1582.639,189.984 1583.453,189.984 1584.266,189.984 1585.080,189.984 1585.894,189.984 1586.708,189.984 1587.521,189.984 1588.335,189.984 1589.149,189.984 1589.963,189.984 1590.776,189.984 1591.590,189.984 1592.404,189.984 1593.218,189.984 1594.031,189.984 1594.845,189.984 1595.659,189.984 1596.472,189.984 1597.286,189.984 1598.100,189.984 1598.914,189.984 1599.728,189.984 1600.541,189.984 1601.355,189.984 1602.169,189.984 1602.982,189.984 1603.796,189.984 1604.610,189.984 1605.424,189.984 1606.238,189.984 1607.051,189.984 1607.865,189.984 1608.679,189.984 1609.492,189.984 1610.306,189.984 1611.120,189.984 1611.934,189.984 1612.747,189.984 1613.561,189.984 1614.375,189.984 1615.189,189.984 1616.003,189.984 1616.816,189.984 1617.630,189.984 1618.444,189.984 1619.257,189.984 1620.071,189.984 1620.885,189.984 1621.699,189.984 1622.513,189.984 1623.326,189.984 1624.140,189.984 1624.954,189.984 1625.767,189.984 1626.581,189.984 1627.395,189.984 1628.209,189.984 1629.023,189.984 1629.836,189.984 1630.650,189.984 1631.464,189.984 1632.277,189.984 1633.091,189.984 1633.905,189.984 1634.719,189.984 1635.533,189.984 1636.346,189.984 1637.160,189.984 1637.974,189.984 1638.787,189.984 1639.601,189.984 1640.415,189.984 1641.229,189.984 1642.043,189.984 1642.856,189.984 1643.670,189.984 1644.484,189.984 1645.297,189.984 1646.111,189.984 1646.925,189.984 1647.739,189.984 1648.553,189.984 1649.366,189.984 1650.180,189.984 1650.994,189.984 1651.808,189.984 1652.621,189.984 1653.435,189.984 1654.249,189.984 1655.063,189.984 1655.876,189.984 1656.690,189.984 1657.504,189.984 1658.318,189.984 1659.131,189.984 1659.945,189.984 1660.759,189.984 1661.573,189.984 1662.386,189.984 1663.200,189.984 1664.014,189.984 1664.828,189.984 1665.641,189.984 1666.455,189.984 1667.269,189.984 1668.083,189.984 1668.896,189.984 1669.710,189.984 1670.524,189.984 1671.338,189.984 1672.151,189.984 1672.965,189.984 1673.779,189.984 1674.593,189.984 1675.406,189.984 1676.220,189.984 1677.034,189.984 1677.848,189.984 1678.661,189.984 1679.475,189.984 1680.289,189.984 1681.103,189.984 1681.916,189.984 1682.730,189.984 1683.544,189.984 1684.358,189.984 1685.171,189.984 1685.985,189.984 1686.799,189.984 1687.613,189.984 1688.426,189.984 1689.240,189.984 1690.054,189.984 1690.867,189.984 1691.681,189.984 1692.495,189.984 1693.309,189.984 1694.122,189.984 1694.936,189.984 1695.750,189.984 1696.564,189.984 1697.377,189.984 1698.191,189.984 1699.005,189.984 1699.819,189.984 1700.632,189.984 1701.446,189.984 1702.260,189.984 1703.074,189.984 1703.887,189.984 1704.701,189.984 1705.515,189.984 1706.329,189.984 1707.142,189.984 1707.956,189.984 1708.770,189.984 1709.584,189.984 1710.397,189.984 1711.211,189.984 1712.025,189.984 1712.839,189.984 1713.652,189.984 1714.466,189.984 1715.280,189.984 1716.094,189.984 1716.907,189.984 1717.721,189.984 1718.535,189.984 1719.349,189.984 1720.162,189.984 1720.976,189.984 1721.790,189.984 1722.604,189.984 1723.417,189.984 1724.231,189.984 1725.045,189.984 1725.859,189.984 1726.672,189.984 1727.486,189.984 1728.300,189.984 1729.114,189.984 1729.927,189.984 1730.741,189.984 1731.555,189.984 1732.369,189.984 1733.182,189.984 1733.996,189.984 1734.810,189.984 1735.624,189.984 1736.437,189.984 1737.251,189.984 1738.065,189.984 1738.879,189.984 1739.692,189.984 1740.506,189.984 1741.320,189.984 1742.134,189.984 1742.947,189.984 1743.761,189.984 1744.575,189.984 1745.389,189.984 1746.202,189.984 1747.016,189.984 1747.830,189.984 1748.644,189.984 1749.457,189.984 1750.271,189.984 1751.085,189.984 1751.899,189.984 1752.712,189.984 1753.526,189.984 1754.340,189.984 1755.154,189.984 1755.967,189.984 1756.781,189.984 1757.595,189.984 1758.409,189.984 1759.222,189.984 1760.036,189.984 1760.850,189.984 1761.664,189.984 1762.478,189.984 1763.291,189.984 1764.105,189.984 1764.919,189.984 1765.732,189.984 1766.546,189.984 1767.360,189.984 1768.174,189.984 1768.988,189.984 1769.801,189.984 1770.615,189.984 1771.429,189.984 1772.242,189.984 1773.056,189.984 1773.870,189.984 1774.684,189.984 1775.497,189.984 1776.311,189.984 1777.125,189.984 1777.939,189.984 1778.752,189.984 1779.566,189.984 1780.380,189.984 1781.194,189.984 1782.007,189.984 1782.821,189.984 1783.635,189.984 1784.449,189.984 1785.262,189.984 1786.076,189.984 1786.890,189.984 1787.704,189.984 1788.517,189.984 1789.331,189.984 1790.145,189.984 1790.959,189.984 1791.772,189.984 1792.586,189.984 1793.400,189.984 1794.214,189.984 1795.027,189.984 1795.841,189.984 1796.655,189.984 1797.469,189.984 1798.283,189.984 1799.096,189.984 1799.910,189.984 1800.724,189.984 1801.537,189.984 1802.351,189.984 1803.165,189.984 1803.979,189.984 1804.793,189.984 1805.606,189.984 1806.420,189.984 1807.234,189.984 1808.047,189.984 1808.861,189.984 1809.675,189.984 1810.489,189.984 1811.303,189.984 1812.116,189.984 1812.930,189.984 1813.744,189.984 1814.557,189.984 1815.371,189.984 1816.185,189.984 1816.999,189.984 1817.813,189.984 1818.626,189.984 1819.440,189.984 1820.254,189.984 1821.067,189.984 1821.881,189.984 1822.695,189.984 1823.509,189.984 1824.323,189.984 1825.136,189.984 1825.950,189.984 1826.764,189.984 1827.578,189.984 1828.391,189.984 1829.205,189.984 1830.019,189.984 1830.833,189.984 1831.646,189.984 1832.460,189.984 1833.274,189.984 1834.088,189.984 1834.901,189.984 1835.715,189.984 1836.529,189.984 1837.343,189.984 1838.156,189.984 1838.970,189.984 1839.784,189.984 1840.598,189.984 1841.411,189.984 1842.225,189.984 1843.039,189.984 1843.853,189.984 1844.666,189.984 1845.480,189.984 1846.294,189.984 1847.108,189.984 1847.921,189.984 1848.735,189.984 1849.549,189.984 1850.363,189.984 1851.176,189.984 1851.990,189.984 1852.804,189.984 1853.618,189.984 1854.431,189.984 1855.245,189.984 1856.059,189.984 1856.872,189.984 1857.686,189.984 1858.500,189.984 1859.314,189.984 1860.128,189.984 1860.941,189.984 1861.755,189.984 1862.569,189.984 1863.383,189.984 1864.196,189.984 1865.010,189.984 1865.824,189.984 1866.638,189.984 1867.451,189.984 1868.265,189.984 1869.079,189.984 1869.893,189.984 1870.706,189.984 1871.520,189.984 1872.334,189.984 1873.147,189.984 1873.961,189.984 1874.775,189.984 1875.589,189.984 1876.402,189.984 1877.216,189.984 1878.030,189.984 1878.844,189.984 1879.657,189.984 1880.471,189.984 1881.285,189.984 1882.099,189.984 1882.912,189.984 1883.726,189.984 1884.540,189.984 1885.354,189.984 1886.167,189.984 1886.981,189.984 1887.795,189.984 1888.609,189.984 1889.422,189.984 1890.236,189.984 1891.050,189.984 1891.864,189.984 1892.678,189.984 1893.491,189.984 1894.305,189.984 1895.119,189.984 1895.932,189.984 1896.746,189.984 1897.560,189.984 1898.374,189.984 1899.188,189.984 1900.001,189.984 1900.815,189.984 1901.629,189.984 1902.442,189.984 1903.256,189.984 1904.070,189.984 1904.884,189.984 1905.698,189.984 1906.511,189.984 1907.325,189.984 1908.139,189.984 1908.952,189.984 1909.766,189.984 1910.580,189.984 1911.394,189.984 1912.208,189.984 1913.021,189.984 1913.835,189.984 1914.649,189.984 1915.462,189.984 1916.276,189.984 1917.090,189.984 1917.904,189.984 1918.718,189.984 1919.531,189.984 1920.345,189.984 1921.159,189.984 1921.972,189.984 1922.786,189.984 1923.600,189.984 1924.414,189.984 1925.228,189.984 1926.041,189.984 1926.855,189.984 1927.669,189.984 1928.483,189.984 1929.296,189.984 1930.110,189.984 1930.924,189.984 1931.738,189.984 1932.551,189.984 1933.365,189.984 1934.179,189.984 1934.993,189.984 1935.806,189.984 1936.620,189.984 1937.434,189.984 1938.247,189.984 1939.061,189.984 1939.875,189.984 1940.689,189.984 1941.503,189.984 1942.316,189.984 1943.130,189.984 1943.944,189.984 1944.757,189.984 1945.571,189.984 1946.385,189.984 1947.199,189.984 1948.013,189.984 1948.826,189.984 1949.640,189.984 1950.454,189.984 1951.267,189.984 1952.081,189.984 1952.895,189.984 1953.709,189.984 1954.523,189.984 1955.336,189.984 1956.150,189.984 1956.964,189.984 1957.778,189.984 1958.591,189.984 1959.405,189.984 1960.219,189.984 1961.033,189.984 1961.846,189.984 1962.660,189.984 1963.474,189.984 1964.288,189.984 1965.101,189.984 1965.915,189.984 1966.729,189.984 1967.543,189.984 1968.356,189.984 1969.170,189.984 1969.984,189.984 1970.798,189.984 1971.611,189.984 1972.425,189.984 1973.239,189.984 1974.053,189.984 1974.866,189.984 1975.680,189.984 1976.494,189.984 1977.308,189.984 1978.121,189.984 1978.935,189.984 1979.749,189.984 1980.563,189.984 1981.376,189.984 1982.190,189.984 1983.004,189.984 1983.818,189.984 1984.631,189.984 1985.445,189.984 1986.259,189.984 1987.073,189.984 1987.886,189.984 1988.700,189.984 1989.514,189.984 1990.328,189.984 1991.141,189.984 1991.955,189.984 1992.769,189.984 1993.583,189.984 1994.396,189.984 1995.210,189.984 1996.024,189.984 1996.838,189.984 1997.651,189.984 1998.465,189.984 1999.279,189.984 2000.093,189.984 2000.906,189.984 2001.720,189.984 2002.534,189.984 2003.348,189.984 2004.161,189.984 2004.975,189.984 2005.789,189.984 2006.603,189.984 2007.416,189.984 2008.230,189.984 2009.044,189.984 2009.858,189.984 2010.671,189.984 2011.485,189.984 2012.299,189.984 2013.113,189.984 2013.926,189.984 2014.740,189.984 2015.554,189.984 2016.368,189.984 2017.181,189.984 2017.995,189.984 2018.809,189.984 2019.623,189.984 2020.436,189.984 2021.250,189.984 2022.064,189.984 2022.878,189.984 2023.691,189.984 2024.505,189.984 2025.319,189.984 2026.133,189.984 2026.946,189.984 2027.760,189.984 2028.574,189.984 2029.388,189.984 2030.201,189.984 2031.015,189.984 2031.829,189.984 2032.643,189.984 2033.456,189.984 2034.270,189.984 2035.084,189.984 2035.898,189.984 2036.711,189.984 2037.525,189.984 2038.339,189.984 2039.153,189.984 2039.966,189.984 2040.780,189.984 2041.594,189.984 2042.408,189.984 2043.221,189.984 2044.035,189.984 2044.849,189.984 2045.663,189.984 2046.476,189.984 2047.290,189.984 2048.104,189.984 2048.918,189.984 2049.731,189.984 2050.545,189.984 2051.359,189.984 2052.173,189.984 2052.986,189.984 2053.800,189.984 2054.614,189.984 2055.428,189.984 2056.241,189.984 2057.055,189.984 2057.869,189.984 2058.683,189.984 2059.496,189.984 2060.310,189.984 2061.124,189.984 2061.938,189.984 2062.751,189.984 2063.565,189.984 2064.379,189.984 2065.193,189.984 2066.006,189.984 2066.820,189.984 2067.634,189.984 2068.448,189.984 2069.261,189.984 2070.075,189.984 2070.889,189.984 2071.703,189.984 2072.516,189.984 2073.330,189.984 2074.144,189.984 2074.958,189.984 2075.771,189.984 2076.585,189.984 2077.399,189.984 2078.213,189.984 2079.026,189.984 2079.840,189.984 2080.654,189.984 2081.468,189.984 2082.281,189.984 2083.095,189.984 2083.909,189.984 2084.723,189.984 2085.536,189.984 2086.350,189.984 2087.164,189.984 2087.978,189.984 2088.791,189.984 2089.605,189.984 2090.419,189.984 2091.233,189.984 2092.046,189.984 2092.860,189.984 2093.674,189.984 2094.488,189.984 2095.301,189.984 2096.115,189.984 2096.929,189.984 2097.743,189.984 2098.556,189.984 2099.370,189.984 2100.184,189.984 2100.998,189.984 2101.811,189.984 2102.625,189.984 2103.439,189.984 2104.253,189.984 2105.066,189.984 2105.880,189.984 2106.694,189.984 2107.507,189.984 2108.321,189.984 2109.135,189.984 2109.949,189.984 2110.763,189.984 2111.576,189.984 2112.390,189.984 2113.204,189.984 2114.017,189.984 2114.831,189.984 2115.645,189.984 2116.459,189.984 2117.273,189.984 2118.086,189.984 2118.900,189.984 2119.714,189.984 2120.528,189.984 2121.341,189.984 2122.155,189.984 2122.969,189.984 2123.783,189.984 2124.596,189.984 2125.410,189.984 2126.224,189.984 2127.037,189.984 2127.851,189.984 2128.665,189.984 2129.479,189.984 2130.293,189.984 2131.106,189.984 2131.920,189.984 2132.734,189.984 2133.548,189.984 2134.361,189.984 2135.175,189.984 2135.989,189.984 2136.803,189.984 2137.616,189.984 2138.430,189.984 2139.244,189.984 2140.057,189.984 2140.871,189.984 2141.685,189.984 2142.499,189.984 2143.313,189.984 2144.126,189.984 2144.940,189.984 2145.754,189.984 2146.568,189.984 2147.381,189.984 2148.195,189.984 2149.009,189.984 2149.823,189.984 2150.636,189.984 2151.450,189.984 2152.264,189.984 2153.077,189.984 2153.891,189.984 2154.705,189.984 2155.519,189.984 2156.333,189.984 2157.146,189.984 2157.960,189.984 2158.774,189.984 2159.588,189.984 2160.401,189.984 2161.215,189.984 2162.029,189.984 2162.842,189.984 2163.656,189.984 2164.470,189.984 2165.284,189.984 2166.097,189.984 2166.911,189.984 2167.725,189.984 2168.539,189.984 2169.352,189.984 2170.166,189.984 2170.980,189.984 2171.794,189.984 2172.608,189.984 2173.421,189.984 2174.235,189.984 2175.049,189.984 2175.862,189.984 2176.676,189.984 2177.490,189.984 2178.304,189.984 2179.117,189.984 2179.931,189.984 2180.745,189.984 2181.559,189.984 2182.372,189.984 2183.186,189.984 2184.000,189.984 2184.814,189.984 2185.628,189.984 2186.441,189.984 2187.255,189.984 2188.069,189.984 2188.882,189.984 2189.696,189.984 2190.510,189.984 2191.324,189.984 2192.137,189.984 2192.951,189.984 2193.765,189.984 2194.579,189.984 2195.392,189.984 2196.206,189.984 2197.020,189.984 2197.834,189.984 2198.648,189.984 2199.461,189.984 2200.275,189.984 2201.089,189.984 2201.902,189.984 2202.716,189.984 2203.530,189.984 2204.344,189.984 2205.157,189.984 2205.971,189.984 2206.785,189.984 2207.599,189.984 2208.412,189.984 2209.226,189.984 2210.040,189.984 2210.854,189.984 2211.668,189.984 2212.481,189.984 2213.295,189.984 2214.109,189.984 2214.922,189.984 2215.736,189.984 2216.550,189.984 2217.364,189.984 2218.178,189.984 2218.991,189.984 2219.805,189.984 2220.619,189.984 2221.432,189.984 2222.246,189.984 2223.060,189.984 2223.874,189.984 2224.688,189.984 2225.501,189.984 2226.315,189.984 2227.129,189.984 2227.942,189.984 2228.756,189.984 2229.570,189.984 2230.384,189.984 2231.198,189.984 2232.011,189.984 2232.825,189.984 2233.639,189.984 2234.452,189.984 2235.266,189.984 2236.080,189.984 2236.894,189.984 2237.708,189.984 2238.521,189.984 2239.335,189.984 2240.149,189.984 2240.962,189.984 2241.776,189.984 2242.590,189.984 2243.404,189.984 2244.218,189.984 2245.031,189.984 2245.845,189.984 2246.659,189.984 2247.472,189.984 2248.286,189.984 2249.100,189.984 2249.914,189.984 2250.728,189.984 2251.541,189.984 2252.355,189.984 2253.169,189.984 2253.983,189.984 2254.796,189.984 2255.610,189.984 2256.424,189.984 2257.238,189.984 2258.051,189.984 2258.865,189.984 2259.679,189.984 2260.492,189.984 2261.306,189.984 2262.120,189.984 2262.934,189.984 2263.747,189.984 2264.561,189.984 2265.375,189.984 2266.189,189.984 2267.003,189.984 2267.816,189.984 2268.630,189.984 2269.444,189.984 2270.258,189.984 2271.071,189.984 2271.885,189.984 2272.699,189.984 2273.512,189.984 2274.326,189.984 2275.140,189.984 2275.954,189.984 2276.767,189.984 2277.581,189.984 2278.395,189.984 2279.209,189.984 2280.023,189.984 2280.836,189.984 2281.650,189.984 2282.464,189.984 2283.278,189.984 2284.091,189.984 2284.905,189.984 2285.719,189.984 2286.532,189.984 2287.346,189.984 2288.160,189.984 2288.974,189.984 2289.788,189.984 2290.601,189.984 2291.415,189.984 2292.229,189.984 2293.043,189.984 2293.856,189.984 2294.670,189.984 2295.484,189.984 2296.298,189.984 2297.111,189.984 2297.925,189.984 2298.739,189.984 2299.552,189.984 2300.366,189.984 2301.180,189.984 2301.994,189.984 2302.808,189.984 2303.621,189.984 2304.435,189.984 2305.249,189.984 2306.063,189.984 2306.876,189.984 2307.690,189.984 2308.504,189.984 2309.318,189.984 2310.131,189.984 2310.945,189.984 2311.759,189.984 2312.572,189.984 2313.386,189.984 2314.200,189.984 2315.014,189.984 2315.828,189.984 2316.641,189.984 2317.455,189.984 2318.269,189.984 2319.083,189.984 2319.896,189.984 2320.710,189.984 2321.524,189.984 2322.338,189.984 2323.151,189.984 2323.965,189.984 2324.779,189.984 2325.593,189.984 2326.406,189.984 2327.220,189.984 2328.034,189.984 2328.848,189.984 2329.661,189.984 2330.475,189.984 2331.289,189.984 2332.103,189.984 2332.916,189.984 2333.730,189.984 2334.544,189.984 2335.357,189.984 2336.171,189.984 2336.985,189.984 2337.799,189.984 2338.613,189.984 2339.426,189.984 2340.240,189.984 2341.054,189.984 2341.867,189.984 2342.681,189.984 2343.495,189.984 2344.309,189.984 2345.122,189.984 2345.936,189.984 2346.750,189.984 2347.564,189.984 2348.378,189.984 2349.191,189.984 2350.005,189.984 2350.819,189.984 2351.633,189.984 2352.446,189.984 2353.260,189.984 2354.074,189.984 2354.887,189.984 2355.701,189.984 2356.515,189.984 2357.329,189.984 2358.142,189.984 2358.956,189.984 2359.770,189.984 2360.584,189.984 2361.398,189.984 2362.211,189.984 2363.025,189.984 2363.839,189.984 2364.653,189.984 2365.466,189.984 2366.280,189.984 2367.094,189.984 2367.907,189.984 2368.721,189.984 2369.535,189.984 2370.349,189.984 2371.162,189.984 2371.976,189.984 2372.790,189.984 2373.604,189.984 2374.418,189.984 2375.231,189.984 2376.045,189.984 2376.859,189.984 2377.673,189.984 2378.486,189.984 2379.300,189.984 2380.114,189.984 2380.927,189.984 2381.741,189.984 2382.555,189.984 2383.369,189.984 2384.183,189.984 2384.996,189.984 2385.810,189.984 2386.624,189.984 2387.438,189.984 2388.251,189.984 2389.065,189.984 2389.879,189.984 2390.693,189.984 2391.506,189.984 2392.320,189.984 2393.134,189.984 2393.947,189.984 2394.761,189.984 2395.575,189.984 2396.389,189.984 2397.203,189.984 2398.016,189.984 2398.830,189.984 2399.644,189.984 2400.458,189.984 2401.271,189.984 2402.085,189.984 2402.899,189.984 2403.713,189.984 2404.526,189.984 2405.340,189.984 2406.154,189.984 2406.967,189.984 2407.781,189.984 2408.595,189.984 2409.409,189.984 2410.223,189.984 2411.036,189.984 2411.850,189.984 2412.664,189.984 2413.478,189.984 2414.291,189.984 2415.105,189.984 2415.919,189.984 2416.733,189.984 2417.546,189.984 2418.360,189.984 2419.174,189.984 2419.988,189.984 2420.801,189.984 2421.615,189.984 2422.429,189.984 2423.243,189.984 2424.056,189.984 2424.870,189.984 2425.684,189.984 2426.497,189.984 2427.311,189.984 2428.125,189.984 2428.939,189.984 2429.753,189.984 2430.566,189.984 2431.380,189.984 2432.194,189.984 2433.008,189.984 2433.821,189.984 2434.635,189.984 2435.449,189.984 2436.263,189.984 2437.076,189.984 2437.890,189.984 2438.704,189.984 2439.517,189.984 2440.331,189.984 2441.145,189.984 2441.959,189.984 2442.773,189.984 2443.586,189.984 2444.400,189.984 2445.214,189.984 2446.028,189.984 2446.841,189.984 2447.655,189.984 2448.469,189.984 2449.283,189.984 2450.096,189.984 2450.910,189.984 2451.724,189.984 2452.537,189.984 2453.351,189.984 2454.165,189.984 2454.979,189.984 2455.793,189.984 2456.606,189.984 2457.420,189.984 2458.234,189.984 2459.048,189.984 2459.861,189.984 2460.675,189.984 2461.489,189.984 2462.303,189.984 2463.116,189.984 2463.930,189.984 2464.744,189.984 2465.557,189.984 2466.371,189.984 2467.185,189.984 2467.999,189.984 2468.813,189.984 2469.626,189.984 2470.440,189.984 2471.254,189.984 2472.068,189.984 2472.881,189.984 2473.695,189.984 2474.509,189.984 2475.323,189.984 2476.136,189.984 2476.950,189.984 2477.764,189.984 2478.578,189.984 2479.391,189.984 2480.205,189.984 2481.019,189.984 2481.833,189.984 2482.646,189.984 2483.460,189.984 2484.274,189.984 2485.088,189.984 2485.901,189.984 2486.715,189.984 2487.529,189.984 2488.343,189.984 2489.156,189.984 2489.970,189.984 2490.784,189.984 2491.598,189.984 2492.411,189.984 2493.225,189.984 2494.039,189.984 2494.853,189.984 2495.666,189.984 2496.480,189.984 2497.294,189.984 2498.108,189.984 2498.921,189.984 2499.735,189.984 2500.549,189.984 2501.363,189.984 2502.176,189.984 2502.990,189.984 2503.804,189.984 2504.618,189.984 2505.431,189.984 2506.245,189.984 2507.059,189.984 2507.873,189.984 2508.686,189.984 2509.500,189.984 2510.314,189.984 2511.128,189.984 2511.941,189.984 2512.755,189.984 2513.569,189.984 2514.383,189.984 2515.196,189.984 2516.010,189.984 2516.824,189.984 2517.637,189.984 2518.451,189.984 2519.265,189.984 2520.079,189.984 2520.892,189.984 2521.706,189.984 2522.520,189.984 2523.334,189.984 2524.148,189.984 2524.961,189.984 2525.775,189.984 2526.589,189.984 2527.402,189.984 2528.216,189.984 2529.030,189.984 2529.844,189.984 2530.657,189.984 2531.471,189.984 2532.285,189.984 2533.099,189.984 2533.912,189.984 2534.726,189.984 2535.540,189.984 2536.354,189.984 2537.168,189.984 2537.981,189.984 2538.795,189.984 2539.609,189.984 2540.422,189.984 2541.236,189.984 2542.050,189.984 2542.864,189.984 2543.677,189.984 2544.491,189.984 2545.305,189.984 2546.119,189.984 2546.932,189.984 2547.746,189.984 2548.560,189.984 2549.374,189.984 2550.188,189.984 2551.001,189.984 2551.815,189.984 2552.629,189.984 2553.442,189.984 2554.256,189.984 2555.070,189.984 2555.884,189.984 2556.697,189.984 2557.511,189.984 2558.325,189.984 2559.139,189.984 2559.952,189.984 2560.766,189.984 2561.580,189.984 2562.394,189.984 2563.208,189.984 2564.021,189.984 2564.835,189.984 2565.649,189.984 2566.462,189.984 2567.276,189.984 2568.090,189.984 2568.904,189.984 2569.717,189.984 2570.531,189.984 2571.345,189.984 2572.159,189.984 2572.972,189.984 2573.786,189.984 2574.600,189.984 2575.414,189.984 2576.228,189.984 2577.041,189.984 2577.855,189.984 2578.669,189.984 2579.482,189.984 2580.296,189.984 2581.110,189.984 2581.924,189.984 2582.738,189.984 2583.551,189.984 2584.365,189.984 2585.179,189.984 2585.992,189.984 2586.806,189.984 2587.620,189.984 2588.434,189.984 2589.247,189.984 2590.061,189.984 2590.875,189.984 2591.689,189.984 2592.502,189.984 2593.316,189.984 2594.130,189.984 2594.944,189.984 2595.758,189.984 2596.571,189.984 2597.385,189.984 2598.199,189.984 2599.012,189.984 2599.826,189.984 2600.640,189.984 2601.454,189.984 2602.267,189.984 2603.081,189.984 2603.895,189.984 2604.709,189.984 2605.522,189.984 2606.336,189.984 2607.150,189.984 2607.964,189.984 2608.778,189.984 2609.591,189.984 2610.405,189.984 2611.219,189.984 2612.032,189.984 2612.846,189.984 2613.660,189.984 2614.474,189.984 2615.287,189.984 2616.101,189.984 2616.915,189.984 2617.729,189.984 2618.543,189.984 2619.356,189.984 2620.170,189.984 2620.984,189.984 2621.798,189.984 2622.611,189.984 2623.425,189.984 2624.239,189.984 2625.052,189.984 2625.866,189.984 2626.680,189.984 2627.494,189.984 2628.307,189.984 2629.121,189.984 2629.935,189.984 2630.749,189.984 2631.563,189.984 2632.376,189.984 2633.190,189.984 2634.004,189.984 2634.818,189.984 2635.631,189.984 2636.445,189.984 2637.259,189.984 2638.072,189.984 2638.886,189.984 2639.700,189.984 2640.514,189.984 2641.328,189.984 2642.141,189.984 2642.955,189.984 2643.769,189.984 2644.583,189.984 2645.396,189.984 2646.210,189.984 2647.024,189.984 2647.838,189.984 2648.651,189.984 2649.465,189.984 2650.279,189.984 2651.092,189.984 2651.906,189.984 2652.720,189.984 2653.534,189.984 2654.348,189.984 2655.161,189.984 2655.975,189.984 2656.789,189.984 2657.603,189.984 2658.416,189.984 2659.230,189.984 2660.044,189.984 2660.858,189.984 2661.671,189.984 2662.485,189.984 2663.299,189.984 2664.112,189.984 2664.926,189.984 2665.740,189.984 2666.554,189.984 2667.368,189.984 2668.181,189.984 2668.995,189.984 2669.809,189.984 2670.622,189.984 2671.436,189.984 2672.250,189.984 2673.064,189.984 2673.878,189.984 2674.691,189.984 2675.505,189.984 2676.319,189.984 2677.133,189.984 2677.946,189.984 2678.760,189.984 2679.574,189.984 2680.388,189.984 2681.201,189.984 2682.015,189.984 2682.829,189.984 2683.642,189.984 2684.456,189.984 2685.270,189.984 2686.084,189.984 2686.898,189.984 2687.711,189.984 2688.525,189.984 2689.339,189.984 2690.153,189.984 2690.966,189.984 2691.780,189.984 2692.594,189.984 2693.408,189.984 2694.221,189.984 2695.035,189.984 2695.849,189.984 2696.662,189.984 2697.476,189.984 2698.290,189.984 2699.104,189.984 2699.918,189.984 2700.731,189.984 2701.545,189.984 2702.359,189.984 2703.173,189.984 2703.986,189.984 2704.800,189.984 2705.614,189.984 2706.427,189.984 2707.241,189.984 2708.055,189.984 2708.869,189.984 2709.682,189.984 2710.496,189.984 2711.310,189.984 2712.124,189.984 2712.938,189.984 2713.751,189.984 2714.565,189.984 2715.379,189.984 2716.193,189.984 2717.006,189.984 2717.820,189.984 2718.634,189.984 2719.447,189.984 2720.261,189.984 2721.075,189.984 2721.889,189.984 2722.702,189.984 2723.516,189.984 2724.330,189.984 2725.144,189.984 2725.958,189.984 2726.771,189.984 2727.585,189.984 2728.399,189.984 2729.213,189.984 2730.026,189.984 2730.840,189.984 2731.654,189.984 2732.467,189.984 2733.281,189.984 2734.095,189.984 2734.909,189.984 2735.722,189.984 2736.536,189.984 2737.350,189.984 2738.164,189.984 2738.978,189.984 2739.791,189.984 2740.605,189.984 2741.419,189.984 2742.233,189.984 2743.046,189.984 2743.860,189.984 2744.674,189.984 2745.487,189.984 2746.301,189.984 2747.115,189.984 2747.929,189.984 2748.743,189.984 2749.556,189.984 2750.370,189.984 2751.184,189.984 2751.997,189.984 2752.811,189.984 2753.625,189.984 2754.439,189.984 2755.253,189.984 2756.066,189.984 2756.880,189.984 2757.694,189.984 2758.507,189.984 2759.321,189.984 2760.135,189.984 2760.949,189.984 2761.763,189.984 2762.576,189.984 2763.390,189.984 2764.204,189.984 2765.017,189.984 2765.831,189.984 2766.645,189.984 2767.459,189.984 2768.273,189.984 2769.086,189.984 2769.900,189.984 2770.714,189.984 2771.528,189.984 2772.341,189.984 2773.155,189.984 2773.969,189.984 2774.783,189.984 2775.596,189.984 2776.410,189.984 2777.224,189.984 2778.037,189.984 2778.851,189.984 2779.665,189.984 2780.479,189.984 2781.293,189.984 2782.106,189.984 2782.920,189.984 2783.734,189.984 2784.548,189.984 2785.361,189.984 2786.175,189.984 2786.989,189.984 2787.803,189.984 2788.616,189.984 2789.430,189.984 2790.244,189.984 2791.057,189.984 2791.871,189.984 2792.685,189.984 2793.499,189.984 2794.313,189.984 2795.126,189.984 2795.940,189.984 2796.754,189.984 2797.568,189.984 2798.381,189.984 2799.195,189.984 2800.009,189.984 2800.823,189.984 2801.636,189.984 2802.450,189.984 2803.264,189.984 2804.077,189.984 2804.891,189.984 2805.705,189.984 2806.519,189.984 2807.333,189.984 2808.146,189.984 2808.960,189.984 2809.774,189.984 2810.588,189.984 2811.401,189.984 2812.215,189.984 2813.029,189.984 2813.843,189.984 2814.656,189.984 2815.470,189.984 2816.284,189.984 2817.097,189.984 2817.911,189.984 2818.725,189.984 2819.539,189.984 2820.353,189.984 2821.166,189.984 2821.980,189.984 2822.794,189.984 2823.608,189.984 2824.421,189.984 2825.235,189.984 2826.049,189.984 2826.863,189.984 2827.676,189.984 2828.490,189.984 2829.304,189.984 2830.117,189.984 2830.931,189.984 2831.745,189.984 2832.559,189.984 2833.373,189.984 2834.186,189.984 2835.000,189.984 2835.814,189.984 2836.628,189.984 2837.441,189.984 2838.255,189.984 2839.069,189.984 2839.883,189.984 2840.696,189.984 2841.510,189.984 2842.324,189.984 2843.138,189.984 2843.951,189.984 2844.765,189.984 2845.579,189.984 2846.393,189.984 2847.206,189.984 2848.020,189.984 2848.834,189.984 2849.648,189.984 2850.461,189.984 2851.275,189.984 2852.089,189.984 2852.903,189.984 2853.716,189.984 2854.530,189.984 2855.344,189.984 2856.158,189.984 2856.971,189.984 2857.785,189.984 2858.599,189.984 2859.413,189.984 2860.226,189.984 2861.040,189.984 2861.854,189.984 2862.668,189.984 2863.481,189.984 2864.295,189.984 2865.109,189.984 2865.923,189.984 2866.736,189.984 2867.550,189.984 2868.364,189.984 2869.178,189.984 2869.991,189.984 2870.805,189.984 2871.619,189.984 2872.433,189.984 2873.246,189.984 2874.060,189.984 2874.874,189.984 2875.688,189.984 2876.501,189.984 2877.315,189.984 2878.129,189.984 2878.943,189.984 2879.756,189.984 2880.570,189.984 2881.384,189.984 2882.198,189.984 2883.011,189.984 2883.825,189.984 2884.639,189.984 2885.453,189.984 2886.266,189.984 2887.080,189.984 2887.894,189.984 2888.708,189.984 2889.521,189.984 2890.335,189.984 2891.149,189.984 2891.963,189.984 2892.776,189.984 2893.590,189.984 2894.404,189.984 2895.218,189.984 2896.031,189.984 2896.845,189.984 2897.659,189.984 2898.472,189.984 2899.286,189.984 2900.100,189.984 2900.914,189.984 2901.728,189.984 2902.541,189.984 2903.355,189.984 2904.169,189.984 2904.983,189.984 2905.796,189.984 2906.610,189.984 2907.424,189.984 2908.238,189.984 2909.051,189.984 2909.865,189.984 2910.679,189.984 2911.492,189.984 2912.306,189.984 2913.120,189.984 2913.934,189.984 2914.748,189.984 2915.561,189.984 2916.375,189.984 2917.189,189.984 2918.002,189.984 2918.816,189.984 2919.630,189.984 2920.444,189.984 2921.257,189.984 2922.071,189.984 2922.885,189.984 2923.699,189.984 2924.512,189.984 2925.326,189.984 2926.140,189.984 2926.954,189.984 2927.767,189.984 2928.581,189.984 2929.395,189.984 2930.209,189.984 2931.022,189.984 2931.836,189.984 2932.650,189.984 2933.464,189.984 2934.278,189.984 2935.091,189.984 2935.905,189.984 2936.719,189.984 2937.532,189.984 2938.346,189.984 2939.160,189.984 2939.974,189.984 2940.787,189.984 2941.601,189.984 2942.415,189.984 2943.229,189.984 2944.042,189.984 2944.856,189.984 2945.670,189.984 2946.484,189.984 2947.298,189.984 2948.111,189.984 2948.925,189.984 2949.739,189.984 2950.552,189.984 2951.366,189.984 2952.180,189.984 2952.994,189.984 2953.807,189.984 2954.621,189.984 2955.435,189.984 2956.249,189.984 2957.062,189.984 2957.876,189.984 2958.690,189.984 2959.504,189.984 2960.318,189.984 2961.131,189.984 2961.945,189.984 2962.759,189.984 2963.572,189.984 2964.386,189.984 2965.200,189.984 2966.014,189.984 2966.827,189.984 2967.641,189.984 2968.455,189.984 2969.269,189.984 2970.083,189.984 2970.896,189.984 2971.710,189.984 2972.524,189.984 2973.338,189.984 2974.151,189.984 2974.965,189.984 2975.779,189.984 2976.592,189.984 2977.406,189.984 2978.220,189.984 2979.034,189.984 2979.847,189.984 2980.661,189.984 2981.475,189.984 2982.289,189.984 2983.103,189.984 2983.916,189.984 2984.730,189.984 2985.544,189.984 2986.358,189.984 2987.171,189.984 2987.985,189.984 2988.799,189.984 2989.612,189.984 2990.426,189.984 2991.240,189.984 2992.054,189.984 2992.867,189.984 2993.681,189.984 2994.495,189.984 2995.309,189.984 2996.122,189.984 2996.936,189.984 2997.750,189.984 2998.564,189.984 2999.378,189.984 3000.191,189.984 3001.005,189.984 3001.819,189.984 3002.632,189.984 3003.446,189.984 3004.260,189.984 3005.074,189.984 3005.888,189.984 3006.701,189.984 3007.515,189.984 3008.329,189.984 3009.142,189.984 3009.956,189.984 3010.770,189.984 3011.584,189.984 3012.398,189.984 3013.211,189.984 3014.025,189.984 3014.839,189.984 3015.652,189.984 3016.466,189.984 3017.280,189.984 3018.094,189.984 3018.908,189.984 3019.721,189.984 3020.535,189.984 3021.349,189.984 3022.162,189.984 3022.976,189.984 3023.790,189.984 3024.604,189.984 3025.418,189.984 3026.231,189.984 3027.045,189.984 3027.859,189.984 3028.672,189.984 3029.486,189.984 3030.300,189.984 3031.114,189.984 3031.928,189.984 3032.741,189.984 3033.555,189.984 3034.369,189.984 3035.182,189.984 3035.996,189.984 3036.810,189.984 3037.624,189.984 3038.438,189.984 3039.251,189.984 3040.065,189.984 3040.879,189.984 3041.693,189.984 3042.506,189.984 3043.320,189.984 3044.134,189.984 3044.948,189.984 3045.761,189.984 3046.575,189.984 3047.389,189.984 3048.202,189.984 3049.016,189.984 3049.830,189.984 3050.644,189.984 3051.458,189.984 3052.271,189.984 3053.085,189.984 3053.899,189.984 3054.713,189.984 3055.526,189.984 3056.340,189.984 3057.154,189.984 3057.968,189.984 3058.781,189.984 3059.595,189.984 3060.409,189.984 3061.222,189.984 3062.036,189.984 3062.850,189.984 3063.664,189.984 3064.478,189.984 3065.291,189.984 3066.105,189.984 3066.919,189.984 3067.733,189.984 3068.546,189.984 3069.360,189.984 3070.174,189.984 3070.988,189.984 3071.801,189.984 3072.615,189.984 3073.429,189.984 3074.242,189.984 3075.056,189.984 3075.870,189.984 3076.684,189.984 3077.498,189.984 3078.311,189.984 3079.125,189.984 3079.939,189.984 3080.753,189.984 3081.566,189.984 3082.380,189.984 3083.194,189.984 3084.007,189.984 3084.821,189.984 3085.635,189.984 3086.449,189.984 3087.262,189.984 3088.076,189.984 3088.890,189.984 3089.704,189.984 3090.517,189.984 3091.331,189.984 3092.145,189.984 3092.959,189.984 3093.773,189.984 3094.586,189.984 3095.400,189.984 3096.214,189.984 3097.027,189.984 3097.841,189.984 3098.655,189.984 3099.469,189.984 3100.283,189.984 3101.096,189.984 3101.910,189.984 3102.724,189.984 3103.537,189.984 3104.351,189.984 3105.165,189.984 3105.979,189.984 3106.793,189.984 3107.606,189.984 3108.420,189.984 3109.234,189.984 3110.047,189.984 3110.861,189.984 3111.675,189.984 3112.489,189.984 3113.303,189.984 3114.116,189.984 3114.930,189.984 3115.744,189.984 3116.557,189.984 3117.371,189.984 3118.185,189.984 3118.999,189.984 3119.813,189.984 3120.626,189.984 3121.440,189.984 3122.254,189.984 3123.067,189.984 3123.881,189.984 3124.695,189.984 3125.509,189.984 3126.323,189.984 3127.136,189.984 3127.950,189.984 3128.764,189.984 3129.577,189.984 3130.391,189.984 3131.205,189.984 3132.019,189.984 3132.833,189.984 3133.646,189.984 3134.460,189.984 3135.274,189.984 3136.088,189.984 3136.901,189.984 3137.715,189.984 3138.529,189.984 3139.343,189.984 3140.156,189.984 3140.970,189.984 3141.784,189.984 3142.597,189.984 3143.411,189.984 3144.225,189.984 3145.039,189.984 3145.853,189.984 3146.666,189.984 3147.480,189.984 3148.294,189.984 3149.108,189.984 3149.921,189.984 3150.735,189.984 3151.549,189.984 3152.363,189.984 3153.176,189.984 3153.990,189.984 3154.804,189.984 3155.617,189.984 3156.431,189.984 3157.245,189.984 3158.059,189.984 3158.872,189.984 3159.686,189.984 3160.500,189.984 3161.314,189.984 3162.128,189.984 3162.941,189.984 3163.755,189.984 3164.569,189.984 3165.383,189.984 3166.196,189.984 3167.010,189.984 3167.824,189.984 3168.637,189.984 3169.451,189.984 3170.265,189.984 3171.079,189.984 3171.893,189.984 3172.706,189.984 3173.520,189.984 3174.334,189.984 3175.148,189.984 3175.961,189.984 3176.775,189.984 3177.589,189.984 3178.403,189.984 3179.216,189.984 3180.030,189.984 3180.844,189.984 3181.657,189.984 3182.471,189.984 3183.285,189.984 3184.099,189.984 3184.913,189.984 3185.726,189.984 3186.540,189.984 3187.354,189.984 3188.168,189.984 3188.981,189.984 3189.795,189.984 3190.609,189.984 3191.423,189.984 3192.236,189.984 3193.050,189.984 3193.864,189.984 3194.678,189.984 3195.491,189.984 3196.305,189.984 3197.119,189.984 3197.933,189.984 3198.746,189.984 3199.560,189.984 3200.374,189.984 3201.188,189.984 3202.001,189.984 3202.815,189.984 3203.629,189.984 3204.443,189.984 3205.256,189.984 3206.070,189.984 3206.884,189.984 3207.698,189.984 3208.511,189.984 3209.325,189.984 3210.139,189.984 3210.953,189.984 3211.766,189.984 3212.580,189.984 3213.394,189.984 3214.208,189.984 3215.021,189.984 3215.835,189.984 3216.649,189.984 3217.463,189.984 3218.276,189.984 3219.090,189.984 3219.904,189.984 3220.718,189.984 3221.531,189.984 3222.345,189.984 3223.159,189.984 3223.973,189.984 3224.786,189.984 3225.600,189.984 3226.414,189.984 3227.228,189.984 3228.041,189.984 3228.855,189.984 3229.669,189.984 3230.483,189.984 3231.296,189.984 3232.110,189.984 3232.924,189.984 3233.738,189.984 3234.551,189.984 3235.365,189.984 3236.179,189.984 3236.993,189.984 3237.806,189.984 3238.620,189.984 3239.434,189.984 3240.247,189.984 3241.061,189.984 3241.875,189.984 3242.689,189.984 3243.503,189.984 3244.316,189.984 3245.130,189.984 3245.944,189.984 3246.758,189.984 3247.571,189.984 3248.385,189.984 3249.199,189.984 3250.013,189.984 3250.826,189.984 3251.640,189.984 3252.454,189.984 3253.267,189.984 3254.081,189.984 3254.895,189.984 3255.709,189.984 3256.523,189.984 3257.336,189.984 3258.150,189.984 3258.964,189.984 3259.778,189.984 3260.591,189.984 3261.405,189.984 3262.219,189.984 3263.032,189.984 3263.846,189.984 3264.660,189.984 3265.474,189.984 3266.288,189.984 3267.101,189.984 3267.915,189.984 3268.729,189.984 3269.543,189.984 3270.356,189.984 3271.170,189.984 3271.984,189.984 3272.798,189.984 3273.611,189.984 3274.425,189.984 3275.239,189.984 3276.052,189.984 3276.866,189.984 3277.680,189.984 3278.494,189.984 3279.308,189.984 3280.121,189.984 3280.935,189.984 3281.749,189.984 3282.563,189.984 3283.376,189.984 3284.190,189.984 3285.004,189.984 3285.818,189.984 3286.631,189.984 3287.445,189.984 3288.259,189.984 3289.072,189.984 3289.886,189.984 3290.700,189.984 3291.514,189.984 3292.328,189.984 3293.141,189.984 3293.955,189.984 3294.769,189.984 3295.583,189.984 3296.396,189.984 3297.210,189.984 3298.024,189.984 3298.838,189.984 3299.651,189.984 3300.465,189.984 3301.279,189.984 3302.093,189.984 3302.906,189.984 3303.720,189.984 3304.534,189.984 3305.348,189.984 3306.161,189.984 3306.975,189.984 3307.789,189.984 3308.603,189.984 3309.416,189.984 3310.230,189.984 3311.044,189.984 3311.858,189.984 3312.671,189.984 3313.485,189.984 3314.299,189.984 3315.113,189.984 3315.926,189.984 3316.740,189.984 3317.554,189.984 3318.368,189.984 3319.181,189.984 3319.995,189.984 3320.809,189.984 3321.622,189.984 3322.436,189.984 3323.250,189.984 3324.064,189.984 3324.878,189.984 3325.691,189.984 3326.505,189.984 3327.319,189.984 3328.133,189.984 3328.946,189.984 3329.760,189.984 3330.574,189.984 3331.387,189.984 3332.201,189.984 3333.015,189.984 3333.829,189.984 3334.642,189.984 3335.456,189.984 3336.270,189.984 3337.084,189.984 3337.898,189.984 3338.711,189.984 3339.525,189.984 3340.339,189.984 3341.153,189.984 3341.966,189.984 3342.780,189.984 3343.594,189.984 3344.407,189.984 3345.221,189.984 3346.035,189.984 3346.849,189.984 3347.662,189.984 3348.476,189.984 3349.290,189.984 3350.104,189.984 3350.918,189.984 3351.731,189.984 3352.545,189.984 3353.359,189.984 3354.173,189.984 3354.986,189.984 3355.800,189.984 3356.614,189.984 3357.428,189.984 3358.241,189.984 3359.055,189.984 3359.869,189.984 3360.683,189.984 3361.496,189.984 3362.310,189.984 3363.124,189.984 3363.938,189.984 3364.751,189.984 3365.565,189.984 3366.379,189.984 3367.193,189.984 3368.006,189.984 3368.820,189.984 3369.634,189.984 3370.448,189.984 3371.261,189.984 3372.075,189.984 3372.889,189.984 3373.703,189.984 3374.516,189.984 3375.330,189.984 3376.144,189.984 3376.958,189.984 3377.771,189.984 3378.585,189.984 3379.399,189.984 3380.213,189.984 3381.026,189.984 3381.840,189.984 3382.654,189.984 3383.468,189.984 3384.281,189.984 3385.095,189.984 3385.909,189.984 3386.723,189.984 3387.536,189.984 3388.350,189.984 3389.164,189.984 3389.978,189.984 3390.791,189.984 3391.605,189.984 3392.419,189.984 3393.233,189.984 3394.046,189.984 3394.860,189.984 3395.674,189.984 3396.488,189.984 3397.301,189.984 3398.115,189.984 3398.929,189.984 3399.743,189.984 3400.556,189.984 3401.370,189.984 "/>
<g>
</g>
</g>
    </g>
    <g>
      <polyline fill="none" stroke="#262626" stroke-width="0.5pt" stroke-dasharray="none" points="108.938,350.438 108.938,346.369 "/>
      <polyline fill="none" stroke="#262626" stroke-width="0.5pt" stroke-dasharray="none" points="149.625,350.438 149.625,346.369 "/>
      <polyline fill="none" stroke="#262626" stroke-width="0.5pt" stroke-dasharray="none" points="190.313,350.438 190.313,346.369 "/>
      <polyline fill="none" stroke="#262626" stroke-width="0.5pt" stroke-dasharray="none" points="231.000,350.438 231.000,346.369 "/>
      <polyline fill="none" stroke="#262626" stroke-width="0.5pt" stroke-dasharray="none" points="271.688,350.438 271.688,346.369 "/>
      <polyline fill="none" stroke="#262626" stroke-width="0.5pt" stroke-dasharray="none" points="312.375,350.438 312.375,346.369 "/>
      <polyline fill="none" stroke="#262626" stroke-width="0.5pt" stroke-dasharray="none" points="353.063,350.438 353.063,346.369 "/>
      <polyline fill="none" stroke="#262626" stroke-width="0.5pt" stroke-dasharray="none" points="393.750,350.438 393.750,346.369 "/>
      <polyline fill="none" stroke="#262626" stroke-width="0.5pt" stroke-dasharray="none" points="434.438,350.438 434.438,346.369 "/>
      <polyline fill="none" stroke="#262626" stroke-width="0.5pt" stroke-dasharray="none" points="68.250,350.438 475.125,350.438 "/>
      <polyline fill="none" stroke="#262626" stroke-width="0.5pt" stroke-dasharray="none" points="108.938,29.531 108.938,33.600 "/>
      <polyline fill="none" stroke="#262626" stroke-width="0.5pt" stroke-dasharray="none" points="149.625,29.531 149.625,33.600 "/>
      <polyline fill="none" stroke="#262626" stroke-width="0.5pt" stroke-dasharray="none" points="190.313,29.531 190.313,33.600 "/>
      <polyline fill="none" stroke="#262626" stroke-width="0.5pt" stroke-dasharray="none" points="231.000,29.531 231.000,33.600 "/>
      <polyline fill="none" stroke="#262626" stroke-width="0.5pt" stroke-dasharray="none" points="271.688,29.531 271.688,33.600 "/>
      <polyline fill="none" stroke="#262626" stroke-width="0.5pt" stroke-dasharray="none" points="312.375,29.531 312.375,33.600 "/>
      <polyline fill="none" stroke="#262626" stroke-width="0.5pt" stroke-dasharray="none" points="353.063,29.531 353.063,33.600 "/>
      <polyline fill="none" stroke="#262626" stroke-width="0.5pt" stroke-dasharray="none" points="393.750,29.531 393.750,33.600 "/>
      <polyline fill="none" stroke="#262626" stroke-width="0.5pt" stroke-dasharray="none" points="434.438,29.531 434.438,33.600 "/>
      <polyline fill="none" stroke="#262626" stroke-width="0.5pt" stroke-dasharray="none" points="68.250,29.531 475.125,29.531 "/>
  <g transform="translate(68.250,367.918)">
    <g transform="rotate(-0.0)">
      <text x="0.000" y="0.000" font-family="Helvetica" text-anchor="middle" font-size="9pt" fill="#262626" >0</text>
    </g>
  </g>
  <g transform="translate(108.938,367.918)">
    <g transform="rotate(-0.0)">
      <text x="0.000" y="0.000" font-family="Helvetica" text-anchor="middle" font-size="9pt" fill="#262626" >50</text>
    </g>
  </g>
  <g transform="translate(149.625,367.918)">
    <g transform="rotate(-0.0)">
      <text x="0.000" y="0.000" font-family="Helvetica" text-anchor="middle" font-size="9pt" fill="#262626" >100</text>
    </g>
  </g>
  <g transform="translate(190.313,367.918)">
    <g transform="rotate(-0.0)">
      <text x="0.000" y="0.000" font-family="Helvetica" text-anchor="middle" font-size="9pt" fill="#262626" >150</text>
    </g>
  </g>
  <g transform="translate(231.000,367.918)">
    <g transform="rotate(-0.0)">
      <text x="0.000" y="0.000" font-family="Helvetica" text-anchor="middle" font-size="9pt" fill="#262626" >200</text>
    </g>
  </g>
  <g transform="translate(271.688,367.918)">
    <g transform="rotate(-0.0)">
      <text x="0.000" y="0.000" font-family="Helvetica" text-anchor="middle" font-size="9pt" fill="#262626" >250</text>
    </g>
  </g>
  <g transform="translate(312.375,367.918)">
    <g transform="rotate(-0.0)">
      <text x="0.000" y="0.000" font-family="Helvetica" text-anchor="middle" font-size="9pt" fill="#262626" >300</text>
    </g>
  </g>
  <g transform="translate(353.063,367.918)">
    <g transform="rotate(-0.0)">
      <text x="0.000" y="0.000" font-family="Helvetica" text-anchor="middle" font-size="9pt" fill="#262626" >350</text>
    </g>
  </g>
  <g transform="translate(393.750,367.918)">
    <g transform="rotate(-0.0)">
      <text x="0.000" y="0.000" font-family="Helvetica" text-anchor="middle" font-size="9pt" fill="#262626" >400</text>
    </g>
  </g>
  <g transform="translate(434.438,367.918)">
    <g transform="rotate(-0.0)">
      <text x="0.000" y="0.000" font-family="Helvetica" text-anchor="middle" font-size="9pt" fill="#262626" >450</text>
    </g>
  </g>
  <g transform="translate(475.125,367.918)">
    <g transform="rotate(-0.0)">
      <text x="0.000" y="0.000" font-family="Helvetica" text-anchor="middle" font-size="9pt" fill="#262626" >500</text>
    </g>
  </g>
      <polyline fill="none" stroke="#262626" stroke-width="0.5pt" stroke-dasharray="none" points="68.250,318.347 72.319,318.347 "/>
      <polyline fill="none" stroke="#262626" stroke-width="0.5pt" stroke-dasharray="none" points="68.250,286.256 72.319,286.256 "/>
      <polyline fill="none" stroke="#262626" stroke-width="0.5pt" stroke-dasharray="none" points="68.250,254.166 72.319,254.166 "/>
      <polyline fill="none" stroke="#262626" stroke-width="0.5pt" stroke-dasharray="none" points="68.250,222.075 72.319,222.075 "/>
      <polyline fill="none" stroke="#262626" stroke-width="0.5pt" stroke-dasharray="none" points="68.250,189.984 72.319,189.984 "/>
      <polyline fill="none" stroke="#262626" stroke-width="0.5pt" stroke-dasharray="none" points="68.250,157.894 72.319,157.894 "/>
      <polyline fill="none" stroke="#262626" stroke-width="0.5pt" stroke-dasharray="none" points="68.250,125.803 72.319,125.803 "/>
      <polyline fill="none" stroke="#262626" stroke-width="0.5pt" stroke-dasharray="none" points="68.250,93.712 72.319,93.712 "/>
      <polyline fill="none" stroke="#262626" stroke-width="0.5pt" stroke-dasharray="none" points="68.250,61.622 72.319,61.622 "/>
      <polyline fill="none" stroke="#262626" stroke-width="0.5pt" stroke-dasharray="none" points="68.250,350.438 68.250,29.531 "/>
      <polyline fill="none" stroke="#262626" stroke-width="0.5pt" stroke-dasharray="none" points="475.125,318.347 471.056,318.347 "/>
      <polyline fill="none" stroke="#262626" stroke-width="0.5pt" stroke-dasharray="none" points="475.125,286.256 471.056,286.256 "/>
      <polyline fill="none" stroke="#262626" stroke-width="0.5pt" stroke-dasharray="none" points="475.125,254.166 471.056,254.166 "/>
      <polyline fill="none" stroke="#262626" stroke-width="0.5pt" stroke-dasharray="none" points="475.125,222.075 471.056,222.075 "/>
      <polyline fill="none" stroke="#262626" stroke-width="0.5pt" stroke-dasharray="none" points="475.125,189.984 471.056,189.984 "/>
      <polyline fill="none" stroke="#262626" stroke-width="0.5pt" stroke-dasharray="none" points="475.125,157.894 471.056,157.894 "/>
      <polyline fill="none" stroke="#262626" stroke-width="0.5pt" stroke-dasharray="none" points="475.125,125.803 471.056,125.803 "/>
      <polyline fill="none" stroke="#262626" stroke-width="0.5pt" stroke-dasharray="none" points="475.125,93.712 471.056,93.712 "/>
      <polyline fill="none" stroke="#262626" stroke-width="0.5pt" stroke-dasharray="none" points="475.125,61.622 471.056,61.622 "/>
      <polyline fill="none" stroke="#262626" stroke-width="0.5pt" stroke-dasharray="none" points="475.125,350.438 475.125,29.531 "/>
  <g transform="translate(60.112,354.656)">
    <g transform="rotate(-0.0)">
      <text x="0.000" y="0.000" font-family="Helvetica" text-anchor="end" font-size="9pt" fill="#262626" >-1</text>
    </g>
  </g>
  <g transform="translate(60.112,322.566)">
    <g transform="rotate(-0.0)">
      <text x="0.000" y="0.000" font-family="Helvetica" text-anchor="end" font-size="9pt" fill="#262626" >-0.8</text>
    </g>
  </g>
  <g transform="translate(60.112,290.475)">
    <g transform="rotate(-0.0)">
      <text x="0.000" y="0.000" font-family="Helvetica" text-anchor="end" font-size="9pt" fill="#262626" >-0.6</text>
    </g>
  </g>
  <g transform="translate(60.112,258.384)">
    <g transform="rotate(-0.0)">
      <text x="0.000" y="0.000" font-family="Helvetica" text-anchor="end" font-size="9pt" fill="#262626" >-0.4</text>
    </g>
  </g>
  <g transform="translate(60.112,226.294)">
    <g transform="rotate(-0.0)">
      <text x="0.000" y="0.000" font-family="Helvetica" text-anchor="end" font-size="9pt" fill="#262626" >-0.2</text>
    </g>
  </g>
  <g transform="translate(60.112,194.203)">
    <g transform="rotate(-0.0)">
      <text x="0.000" y="0.000" font-family="Helvetica" text-anchor="end" font-size="9pt" fill="#262626" >0</text>
    </g>
  </g>
  <g transform="translate(60.112,162.112)">
    <g transform="rotate(-0.0)">
      <text x="0.000" y="0.000" font-family="Helvetica" text-anchor="end" font-size="9pt" fill="#262626" >0.2</text>
    </g>
  </g>
  <g transform="translate(60.112,130.022)">
    <g transform="rotate(-0.0)">
      <text x="0.000" y="0.000" font-family="Helvetica" text-anchor="end" font-size="9pt" fill="#262626" >0.4</text>
    </g>
  </g>
  <g transform="translate(60.112,97.931)">
    <g transform="rotate(-0.0)">
      <text x="0.000" y="0.000" font-family="Helvetica" text-anchor="end" font-size="9pt" fill="#262626" >0.6</text>
    </g>
  </g>
  <g transform="translate(60.112,65.841)">
    <g transform="rotate(-0.0)">
      <text x="0.000" y="0.000" font-family="Helvetica" text-anchor="end" font-size="9pt" fill="#262626" >0.8</text>
    </g>
  </g>
  <g transform="translate(60.112,33.750)">
    <g transform="rotate(-0.0)">
      <text x="0.000" y="0.000" font-family="Helvetica" text-anchor="end" font-size="9pt" fill="#262626" >1</text>
    </g>
  </g>
      <polyline fill="none" stroke="#262626" stroke-width="0.5pt" stroke-dasharray="none" points="68.250,350.438 68.250,347.228 "/>
      <polyline fill="none" stroke="#262626" stroke-width="0.5pt" stroke-dasharray="none" points="68.250,350.438 68.250,350.437 "/>
    </g>
  </g>
  </g>
</svg>
