<?xml version="1.0" encoding="utf-8" standalone="no"?><!DOCTYPE svg PUBLIC "-//W3C//DTD SVG 1.1//EN" "http://www.w3.org/Graphics/SVG/1.1/DTD/svg11.dtd">
<svg preserveAspectRatio="xMinYMin meet" width="100%" height="100%" viewBox="0 0 525.000 393.750"  version="1.1" xmlns="http://www.w3.org/2000/svg" xmlns:xlink="http://www.w3.org/1999/xlink">
  <desc>Matlab Figure Converted by PLOT2SVG written by Juerg Schwizer</desc>
  <g id="topgroup">
  <rect x="0" y="0" width="525.000" height="393.750" fill="#ffffff" stroke="none" />
  <g id ="ID000000">
  <clipPath id="ID000001">
    <rect x="78.875" y="29.531" width="396.250" height="320.906"/>
  </clipPath>
      <polygon fill="#ffffff" fill-opacity="1.00" stroke="none" stroke-width="0.5pt" stroke-opacity="1.00" stroke-dasharray="none" points="78.875,350.438 475.125,350.438 475.125,29.531 78.875,29.531 "/>
      <polygon fill="#ffffff" fill-opacity="1.00" stroke="none" stroke-width="0.5pt" stroke-opacity="1.00" stroke-dasharray="none" points="78.875,29.531 475.125,29.531 475.125,29.531 78.875,29.531 "/>
      <polygon fill="#ffffff" fill-opacity="1.00" stroke="none" stroke-width="0.5pt" stroke-opacity="1.00" stroke-dasharray="none" points="78.875,350.438 78.875,350.438 78.875,29.531 78.875,29.531 "/>
    <g>
<g id="ID000002" >
  <g transform="translate(16.032,189.984)">
    <g transform="rotate(-90.0)">
      <text x="0.000" y="0.000" font-family="Helvetica" text-anchor="middle" font-size="10pt" fill="#262626" >Normalized Magnitude</text>
    </g>
  </g>
</g>
<g id="ID000003" >
  <g transform="translate(277.000,384.748)">
    <g transform="rotate(-0.0)">
      <text x="0.000" y="0.000" font-family="Helvetica" text-anchor="middle" font-size="10pt" fill="#262626" >Frequency [GHz]</text>
    </g>
  </g>
</g>
<g id="ID000004" >
  <g transform="translate(277.000,24.380)">
    <g transform="rotate(-0.0)">
      <text x="0.000" y="0.000" font-family="Helvetica" text-anchor="middle" font-size="10pt" font-weight="bold" fill="#000000" >Signal Spectrum</text>
    </g>
  </g>
</g>
<g id="ID000005" clip-path="url(#ID000001)" >
      <polyline fill="none" stroke="#0071bc" stroke-width="0.5pt" stroke-dasharray="none" points="79.566,34.279 80.256,34.447 80.947,34.726 81.637,35.117 82.328,35.619 83.018,36.232 83.709,36.956 84.399,37.791 85.090,38.736 85.780,39.791 86.471,40.956 87.161,42.229 87.852,43.612 88.542,45.102 89.233,46.701 89.923,48.406 90.614,50.217 91.304,52.134 91.995,54.156 92.686,56.281 93.376,58.511 94.067,60.842 94.757,63.275 95.448,65.809 96.138,68.442 96.829,71.174 97.519,74.004 98.210,76.930 98.900,79.952 99.591,83.067 100.281,86.276 100.972,89.577 101.662,92.968 102.353,96.449 103.043,100.018 103.734,103.673 104.425,107.413 105.115,111.238 105.806,115.144 106.496,119.132 107.187,123.199 107.877,127.344 108.568,131.565 109.258,135.860 109.949,140.229 110.639,144.669 111.330,149.179 112.020,153.756 112.711,158.400 113.401,163.109 114.092,167.880 114.782,172.712 115.473,177.604 116.163,182.552 116.854,187.556 117.545,192.614 118.235,197.723 118.926,202.882 119.616,208.088 120.307,213.340 120.997,218.637 121.688,223.975 122.378,229.352 123.069,234.768 123.759,240.220 124.450,245.705 125.140,251.222 125.831,256.768 126.521,262.342 127.212,267.942 127.902,273.565 128.593,279.209 129.283,284.873 129.974,290.554 130.665,296.249 131.355,301.958 132.046,307.678 132.736,313.406 133.427,319.140 134.117,324.879 134.808,330.621 135.498,336.362 136.189,342.102 136.879,347.838 137.570,347.308 138.260,341.587 138.951,335.876 139.641,330.177 140.332,324.493 141.022,318.825 141.713,313.177 142.403,307.548 143.094,301.943 143.785,296.362 144.475,290.808 145.166,285.283 145.856,279.789 146.547,274.327 147.237,268.900 147.928,263.510 148.618,258.159 149.309,252.848 149.999,247.579 150.690,242.355 151.380,237.177 152.071,232.047 152.761,226.966 153.452,221.938 154.142,216.962 154.833,212.042 155.524,207.179 156.214,202.374 156.905,197.629 157.595,192.947 158.286,188.327 158.976,183.773 159.667,179.286 160.357,174.867 161.048,170.517 161.738,166.239 162.429,162.033 163.119,157.902 163.810,153.846 164.500,149.866 165.191,145.965 165.881,142.144 166.572,138.403 167.262,134.744 167.953,131.168 168.644,127.677 169.334,124.271 170.025,120.951 170.715,117.719 171.406,114.576 172.096,111.523 172.787,108.560 173.477,105.688 174.168,102.909 174.858,100.223 175.549,97.631 176.239,95.134 176.930,92.732 177.620,90.427 178.311,88.218 179.001,86.107 179.692,84.094 180.382,82.180 181.073,80.364 181.764,78.648 182.454,77.032 183.145,75.517 183.835,74.102 184.526,72.788 185.216,71.575 185.907,70.464 186.597,69.455 187.288,68.547 187.978,67.741 188.669,67.038 189.359,66.436 190.050,65.936 190.740,65.538 191.431,65.242 192.121,65.048 192.812,64.956 193.503,64.964 194.193,65.074 194.884,65.285 195.574,65.596 196.265,66.008 196.955,66.519 197.646,67.129 198.336,67.838 199.027,68.646 199.717,69.552 200.408,70.554 201.098,71.654 201.789,72.849 202.479,74.140 203.170,75.525 203.860,77.004 204.551,78.576 205.241,80.240 205.932,81.996 206.623,83.842 207.313,85.778 208.004,87.802 208.694,89.914 209.385,92.112 210.075,94.396 210.766,96.765 211.456,99.216 212.147,101.750 212.837,104.366 213.528,107.061 214.218,109.834 214.909,112.685 215.599,115.613 216.290,118.615 216.980,121.690 217.671,124.838 218.361,128.057 219.052,131.345 219.743,134.701 220.433,138.123 221.124,141.611 221.814,145.163 222.505,148.776 223.195,152.450 223.886,156.183 224.576,159.974 225.267,163.821 225.957,167.722 226.648,171.676 227.338,175.680 228.029,179.735 228.719,183.837 229.410,187.985 230.100,192.178 230.791,196.414 231.481,200.691 232.172,205.007 232.863,209.361 233.553,213.751 234.244,218.175 234.934,222.631 235.625,227.118 236.315,231.634 237.006,236.178 237.696,240.746 238.387,245.339 239.077,249.953 239.768,254.587 240.458,259.240 241.149,263.909 241.839,268.593 242.530,273.290 243.220,277.998 243.911,282.715 244.602,287.440 245.292,292.171 245.983,296.906 246.673,301.643 247.364,306.381 248.054,311.118 248.745,315.851 249.435,320.580 250.126,325.303 250.816,330.017 251.507,334.721 252.197,339.414 252.888,344.094 253.578,348.758 254.269,347.469 254.959,342.839 255.650,338.229 256.340,333.641 257.031,329.076 257.722,324.536 258.412,320.022 259.103,315.537 259.793,311.080 260.484,306.655 261.174,302.263 261.865,297.904 262.555,293.581 263.246,289.296 263.936,285.048 264.627,280.841 265.317,276.675 266.008,272.551 266.698,268.472 267.389,264.438 268.079,260.451 268.770,256.512 269.460,252.623 270.151,248.783 270.842,244.996 271.532,241.262 272.223,237.581 272.913,233.956 273.604,230.388 274.294,226.877 274.985,223.425 275.675,220.032 276.366,216.700 277.056,213.429 277.747,210.221 278.437,207.077 279.128,203.997 279.818,200.983 280.509,198.034 281.199,195.153 281.890,192.339 282.580,189.594 283.271,186.918 283.962,184.313 284.652,181.777 285.343,179.313 286.033,176.921 286.724,174.602 287.414,172.355 288.105,170.182 288.795,168.083 289.486,166.059 290.176,164.109 290.867,162.235 291.557,160.437 292.248,158.714 292.938,157.068 293.629,155.498 294.319,154.005 295.010,152.590 295.701,151.251 296.391,149.990 297.082,148.806 297.772,147.700 298.463,146.672 299.153,145.721 299.844,144.848 300.534,144.053 301.225,143.335 301.915,142.695 302.606,142.132 303.296,141.647 303.987,141.238 304.677,140.906 305.368,140.651 306.058,140.473 306.749,140.370 307.439,140.343 308.130,140.392 308.821,140.515 309.511,140.713 310.202,140.986 310.892,141.332 311.583,141.751 312.273,142.243 312.964,142.807 313.654,143.443 314.345,144.150 315.035,144.928 315.726,145.775 316.416,146.691 317.107,147.676 317.797,148.729 318.488,149.848 319.178,151.034 319.869,152.286 320.559,153.602 321.250,154.982 321.941,156.425 322.631,157.931 323.322,159.498 324.012,161.125 324.703,162.812 325.393,164.557 326.084,166.360 326.774,168.220 327.465,170.135 328.155,172.106 328.846,174.129 329.536,176.206 330.227,178.334 330.917,180.513 331.608,182.741 332.298,185.018 332.989,187.341 333.680,189.711 334.370,192.126 335.061,194.585 335.751,197.087 336.442,199.630 337.132,202.214 337.823,204.836 338.513,207.497 339.204,210.195 339.894,212.928 340.585,215.696 341.275,218.497 341.966,221.330 342.656,224.193 343.347,227.087 344.037,230.008 344.728,232.956 345.418,235.930 346.109,238.929 346.800,241.951 347.490,244.995 348.181,248.059 348.871,251.143 349.562,254.245 350.252,257.364 350.943,260.499 351.633,263.648 352.324,266.811 353.014,269.985 353.705,273.170 354.395,276.364 355.086,279.566 355.776,282.775 356.467,285.990 357.157,289.209 357.848,292.432 358.538,295.656 359.229,298.881 359.920,302.106 360.610,305.329 361.301,308.549 361.991,311.764 362.682,314.975 363.372,318.179 364.063,321.376 364.753,324.564 365.444,327.742 366.134,330.908 366.825,334.063 367.515,337.205 368.206,340.332 368.896,343.443 369.587,346.538 370.277,349.616 370.968,348.200 371.658,345.161 372.349,342.143 373.040,339.146 373.730,336.172 374.421,333.222 375.111,330.296 375.802,327.396 376.492,324.523 377.183,321.677 377.873,318.859 378.564,316.070 379.254,313.312 379.945,310.584 380.635,307.889 381.326,305.226 382.016,302.596 382.707,300.001 383.397,297.440 384.088,294.915 384.779,292.427 385.469,289.975 386.160,287.562 386.850,285.187 387.541,282.851 388.231,280.554 388.922,278.299 389.612,276.084 390.303,273.910 390.993,271.779 391.684,269.690 392.374,267.645 393.065,265.643 393.755,263.685 394.446,261.771 395.136,259.903 395.827,258.080 396.517,256.302 397.208,254.571 397.899,252.886 398.589,251.249 399.280,249.658 399.970,248.114 400.661,246.619 401.351,245.171 402.042,243.771 402.732,242.420 403.423,241.117 404.113,239.863 404.804,238.658 405.494,237.501 406.185,236.394 406.875,235.336 407.566,234.327 408.256,233.368 408.947,232.458 409.637,231.597 410.328,230.785 411.019,230.023 411.709,229.310 412.400,228.646 413.090,228.031 413.781,227.465 414.471,226.948 415.162,226.480 415.852,226.060 416.543,225.688 417.233,225.365 417.924,225.089 418.614,224.862 419.305,224.681 419.995,224.548 420.686,224.462 421.376,224.422 422.067,224.429 422.758,224.482 423.448,224.580 424.139,224.724 "/>
<g>
</g>
</g>
    </g>
    <g>
      <polyline fill="none" stroke="#262626" stroke-width="0.5pt" stroke-dasharray="none" points="135.482,350.438 135.482,346.475 "/>
      <polyline fill="none" stroke="#262626" stroke-width="0.5pt" stroke-dasharray="none" points="192.089,350.438 192.089,346.475 "/>
      <polyline fill="none" stroke="#262626" stroke-width="0.5pt" stroke-dasharray="none" points="248.696,350.438 248.696,346.475 "/>
      <polyline fill="none" stroke="#262626" stroke-width="0.5pt" stroke-dasharray="none" points="305.304,350.438 305.304,346.475 "/>
      <polyline fill="none" stroke="#262626" stroke-width="0.5pt" stroke-dasharray="none" points="361.911,350.438 361.911,346.475 "/>
      <polyline fill="none" stroke="#262626" stroke-width="0.5pt" stroke-dasharray="none" points="418.518,350.438 418.518,346.475 "/>
      <polyline fill="none" stroke="#262626" stroke-width="0.5pt" stroke-dasharray="none" points="78.875,350.438 475.125,350.438 "/>
      <polyline fill="none" stroke="#262626" stroke-width="0.5pt" stroke-dasharray="none" points="135.482,29.531 135.482,33.494 "/>
      <polyline fill="none" stroke="#262626" stroke-width="0.5pt" stroke-dasharray="none" points="192.089,29.531 192.089,33.494 "/>
      <polyline fill="none" stroke="#262626" stroke-width="0.5pt" stroke-dasharray="none" points="248.696,29.531 248.696,33.494 "/>
      <polyline fill="none" stroke="#262626" stroke-width="0.5pt" stroke-dasharray="none" points="305.304,29.531 305.304,33.494 "/>
      <polyline fill="none" stroke="#262626" stroke-width="0.5pt" stroke-dasharray="none" points="361.911,29.531 361.911,33.494 "/>
      <polyline fill="none" stroke="#262626" stroke-width="0.5pt" stroke-dasharray="none" points="418.518,29.531 418.518,33.494 "/>
      <polyline fill="none" stroke="#262626" stroke-width="0.5pt" stroke-dasharray="none" points="78.875,29.531 475.125,29.531 "/>
  <g transform="translate(78.875,367.918)">
    <g transform="rotate(-0.0)">
      <text x="0.000" y="0.000" font-family="Helvetica" text-anchor="middle" font-size="9pt" fill="#262626" >0</text>
    </g>
  </g>
  <g transform="translate(135.482,367.918)">
    <g transform="rotate(-0.0)">
      <text x="0.000" y="0.000" font-family="Helvetica" text-anchor="middle" font-size="9pt" fill="#262626" >1</text>
    </g>
  </g>
  <g transform="translate(192.089,367.918)">
    <g transform="rotate(-0.0)">
      <text x="0.000" y="0.000" font-family="Helvetica" text-anchor="middle" font-size="9pt" fill="#262626" >2</text>
    </g>
  </g>
  <g transform="translate(248.696,367.918)">
    <g transform="rotate(-0.0)">
      <text x="0.000" y="0.000" font-family="Helvetica" text-anchor="middle" font-size="9pt" fill="#262626" >3</text>
    </g>
  </g>
  <g transform="translate(305.304,367.918)">
    <g transform="rotate(-0.0)">
      <text x="0.000" y="0.000" font-family="Helvetica" text-anchor="middle" font-size="9pt" fill="#262626" >4</text>
    </g>
  </g>
  <g transform="translate(361.911,367.918)">
    <g transform="rotate(-0.0)">
      <text x="0.000" y="0.000" font-family="Helvetica" text-anchor="middle" font-size="9pt" fill="#262626" >5</text>
    </g>
  </g>
  <g transform="translate(418.518,367.918)">
    <g transform="rotate(-0.0)">
      <text x="0.000" y="0.000" font-family="Helvetica" text-anchor="middle" font-size="9pt" fill="#262626" >6</text>
    </g>
  </g>
  <g transform="translate(475.125,367.918)">
    <g transform="rotate(-0.0)">
      <text x="0.000" y="0.000" font-family="Helvetica" text-anchor="middle" font-size="9pt" fill="#262626" >7</text>
    </g>
  </g>
      <polyline fill="none" stroke="#262626" stroke-width="0.5pt" stroke-dasharray="none" points="78.875,314.781 82.837,314.781 "/>
      <polyline fill="none" stroke="#262626" stroke-width="0.5pt" stroke-dasharray="none" points="78.875,279.125 82.837,279.125 "/>
      <polyline fill="none" stroke="#262626" stroke-width="0.5pt" stroke-dasharray="none" points="78.875,243.469 82.837,243.469 "/>
      <polyline fill="none" stroke="#262626" stroke-width="0.5pt" stroke-dasharray="none" points="78.875,207.813 82.837,207.813 "/>
      <polyline fill="none" stroke="#262626" stroke-width="0.5pt" stroke-dasharray="none" points="78.875,172.156 82.837,172.156 "/>
      <polyline fill="none" stroke="#262626" stroke-width="0.5pt" stroke-dasharray="none" points="78.875,136.500 82.837,136.500 "/>
      <polyline fill="none" stroke="#262626" stroke-width="0.5pt" stroke-dasharray="none" points="78.875,100.844 82.837,100.844 "/>
      <polyline fill="none" stroke="#262626" stroke-width="0.5pt" stroke-dasharray="none" points="78.875,65.188 82.837,65.188 "/>
      <polyline fill="none" stroke="#262626" stroke-width="0.5pt" stroke-dasharray="none" points="78.875,350.438 78.875,29.531 "/>
      <polyline fill="none" stroke="#262626" stroke-width="0.5pt" stroke-dasharray="none" points="475.125,314.781 471.162,314.781 "/>
      <polyline fill="none" stroke="#262626" stroke-width="0.5pt" stroke-dasharray="none" points="475.125,279.125 471.162,279.125 "/>
      <polyline fill="none" stroke="#262626" stroke-width="0.5pt" stroke-dasharray="none" points="475.125,243.469 471.162,243.469 "/>
      <polyline fill="none" stroke="#262626" stroke-width="0.5pt" stroke-dasharray="none" points="475.125,207.813 471.162,207.813 "/>
      <polyline fill="none" stroke="#262626" stroke-width="0.5pt" stroke-dasharray="none" points="475.125,172.156 471.162,172.156 "/>
      <polyline fill="none" stroke="#262626" stroke-width="0.5pt" stroke-dasharray="none" points="475.125,136.500 471.162,136.500 "/>
      <polyline fill="none" stroke="#262626" stroke-width="0.5pt" stroke-dasharray="none" points="475.125,100.844 471.162,100.844 "/>
      <polyline fill="none" stroke="#262626" stroke-width="0.5pt" stroke-dasharray="none" points="475.125,65.188 471.162,65.188 "/>
      <polyline fill="none" stroke="#262626" stroke-width="0.5pt" stroke-dasharray="none" points="475.125,350.438 475.125,29.531 "/>
  <g transform="translate(70.950,354.656)">
    <g transform="rotate(-0.0)">
      <text x="0.000" y="0.000" font-family="Helvetica" text-anchor="end" font-size="9pt" fill="#262626" >0</text>
    </g>
  </g>
  <g transform="translate(70.950,319.000)">
    <g transform="rotate(-0.0)">
      <text x="0.000" y="0.000" font-family="Helvetica" text-anchor="end" font-size="9pt" fill="#262626" >0.111111</text>
    </g>
  </g>
  <g transform="translate(70.950,283.344)">
    <g transform="rotate(-0.0)">
      <text x="0.000" y="0.000" font-family="Helvetica" text-anchor="end" font-size="9pt" fill="#262626" >0.222222</text>
    </g>
  </g>
  <g transform="translate(70.950,247.688)">
    <g transform="rotate(-0.0)">
      <text x="0.000" y="0.000" font-family="Helvetica" text-anchor="end" font-size="9pt" fill="#262626" >0.333333</text>
    </g>
  </g>
  <g transform="translate(70.950,212.031)">
    <g transform="rotate(-0.0)">
      <text x="0.000" y="0.000" font-family="Helvetica" text-anchor="end" font-size="9pt" fill="#262626" >0.444444</text>
    </g>
  </g>
  <g transform="translate(70.950,176.375)">
    <g transform="rotate(-0.0)">
      <text x="0.000" y="0.000" font-family="Helvetica" text-anchor="end" font-size="9pt" fill="#262626" >0.555556</text>
    </g>
  </g>
  <g transform="translate(70.950,140.719)">
    <g transform="rotate(-0.0)">
      <text x="0.000" y="0.000" font-family="Helvetica" text-anchor="end" font-size="9pt" fill="#262626" >0.666667</text>
    </g>
  </g>
  <g transform="translate(70.950,105.063)">
    <g transform="rotate(-0.0)">
      <text x="0.000" y="0.000" font-family="Helvetica" text-anchor="end" font-size="9pt" fill="#262626" >0.777778</text>
    </g>
  </g>
  <g transform="translate(70.950,69.406)">
    <g transform="rotate(-0.0)">
      <text x="0.000" y="0.000" font-family="Helvetica" text-anchor="end" font-size="9pt" fill="#262626" >0.888889</text>
    </g>
  </g>
  <g transform="translate(70.950,33.750)">
    <g transform="rotate(-0.0)">
      <text x="0.000" y="0.000" font-family="Helvetica" text-anchor="end" font-size="9pt" fill="#262626" >1</text>
    </g>
  </g>
      <polyline fill="none" stroke="#262626" stroke-width="0.5pt" stroke-dasharray="none" points="78.875,350.438 78.875,347.228 "/>
      <polyline fill="none" stroke="#262626" stroke-width="0.5pt" stroke-dasharray="none" points="78.875,350.438 78.875,350.438 "/>
    </g>
  </g>
  </g>
</svg>
