<?xml version="1.0" encoding="utf-8" standalone="no"?><!DOCTYPE svg PUBLIC "-//W3C//DTD SVG 1.1//EN" "http://www.w3.org/Graphics/SVG/1.1/DTD/svg11.dtd">
<svg preserveAspectRatio="xMinYMin meet" width="100%" height="100%" viewBox="0 0 525.000 393.750"  version="1.1" xmlns="http://www.w3.org/2000/svg" xmlns:xlink="http://www.w3.org/1999/xlink">
  <desc>Matlab Figure Converted by PLOT2SVG written by Juerg Schwizer</desc>
  <g id="topgroup">
  <rect x="0" y="0" width="525.000" height="393.750" fill="#ffffff" stroke="none" />
  <g id ="ID000000">
  <clipPath id="ID000001">
    <rect x="78.875" y="29.531" width="396.250" height="320.906"/>
  </clipPath>
      <polygon fill="#ffffff" fill-opacity="1.00" stroke="none" stroke-width="0.5pt" stroke-opacity="1.00" stroke-dasharray="none" points="78.875,350.438 475.125,350.438 475.125,29.531 78.875,29.531 "/>
      <polygon fill="#ffffff" fill-opacity="1.00" stroke="none" stroke-width="0.5pt" stroke-opacity="1.00" stroke-dasharray="none" points="78.875,29.531 475.125,29.531 475.125,29.531 78.875,29.531 "/>
      <polygon fill="#ffffff" fill-opacity="1.00" stroke="none" stroke-width="0.5pt" stroke-opacity="1.00" stroke-dasharray="none" points="78.875,350.438 78.875,350.438 78.875,29.531 78.875,29.531 "/>
    <g>
<g id="ID000002" >
  <g transform="translate(16.032,189.984)">
    <g transform="rotate(-90.0)">
      <text x="0.000" y="0.000" font-family="Helvetica" text-anchor="middle" font-size="10pt" fill="#262626" >Normalized Magnitude</text>
    </g>
  </g>
</g>
<g id="ID000003" >
  <g transform="translate(277.000,384.748)">
    <g transform="rotate(-0.0)">
      <text x="0.000" y="0.000" font-family="Helvetica" text-anchor="middle" font-size="10pt" fill="#262626" >Frequency [GHz]</text>
    </g>
  </g>
</g>
<g id="ID000004" >
  <g transform="translate(277.000,24.380)">
    <g transform="rotate(-0.0)">
      <text x="0.000" y="0.000" font-family="Helvetica" text-anchor="middle" font-size="10pt" font-weight="bold" fill="#000000" >Signal Spectrum</text>
    </g>
  </g>
</g>
<g id="ID000005" clip-path="url(#ID000001)" >
      <polyline fill="none" stroke="#0071bc" stroke-width="0.5pt" stroke-dasharray="none" points="79.068,156.807 79.262,66.810 79.455,128.615 79.648,309.142 79.842,189.104 80.035,72.823 80.228,105.125 80.422,268.721 80.615,224.822 80.808,84.720 81.002,86.835 81.195,230.033 81.389,263.202 81.582,102.251 81.775,74.133 81.969,193.897 82.162,303.431 82.355,125.042 82.549,67.288 82.742,161.079 82.935,344.658 83.129,152.612 83.322,66.445 83.515,132.275 83.709,314.868 83.902,184.376 84.095,71.623 84.289,108.096 84.482,274.273 84.675,219.660 84.869,82.712 85.062,89.053 85.255,235.292 85.449,257.717 85.642,99.476 85.836,75.552 86.029,198.751 86.222,297.740 86.416,121.560 86.609,67.878 86.802,165.426 86.996,338.880 87.189,148.496 87.382,66.193 87.576,136.022 87.769,320.609 87.962,179.713 88.156,70.534 88.349,111.163 88.542,279.855 88.736,214.551 88.929,80.809 89.122,91.376 89.316,240.597 89.509,252.269 89.702,96.800 89.896,77.081 90.089,203.666 90.283,292.069 90.476,118.167 90.669,68.580 90.863,169.846 91.056,333.107 91.249,144.459 91.443,66.054 91.636,139.854 91.829,326.362 92.023,175.118 92.216,69.556 92.409,114.326 92.603,285.466 92.796,209.494 92.989,79.013 93.183,93.802 93.376,245.946 93.569,246.859 93.763,94.224 93.956,78.718 94.149,208.640 94.343,286.420 94.536,114.867 94.730,69.394 94.923,174.339 95.116,327.339 95.310,140.504 95.503,66.027 95.696,143.771 95.890,332.126 96.083,170.592 96.276,68.690 96.470,117.582 96.663,291.103 96.856,204.494 97.050,77.325 97.243,96.330 97.436,251.337 97.630,241.490 97.823,91.750 98.016,80.463 98.210,213.670 98.403,280.797 98.596,111.660 98.790,70.319 98.983,178.902 99.176,321.581 99.370,136.632 99.563,66.114 99.757,147.769 99.950,337.897 100.143,166.137 100.337,67.935 100.530,120.932 100.723,296.764 100.917,199.550 101.110,75.745 101.303,98.959 101.497,256.768 101.690,236.163 101.883,89.379 102.077,82.316 102.270,218.756 102.463,275.200 102.657,108.547 102.850,71.356 103.043,183.534 103.237,315.833 103.430,132.844 103.623,66.313 103.817,151.849 104.010,343.674 104.204,161.754 104.397,67.292 104.590,124.373 104.784,302.448 104.977,194.666 105.170,74.274 105.364,101.688 105.557,262.237 105.750,230.880 105.944,87.110 106.137,84.275 106.330,223.895 106.524,269.631 106.717,105.529 106.910,72.504 107.104,188.233 107.297,310.097 107.490,129.141 107.684,66.625 107.877,156.009 108.070,349.456 108.264,157.445 108.457,66.761 108.651,127.905 108.844,308.152 109.037,189.842 109.231,72.912 109.424,104.517 109.617,267.743 109.811,225.644 110.004,84.946 110.197,86.341 110.391,229.085 110.584,264.094 110.777,102.608 110.971,73.763 111.164,192.998 111.357,304.376 111.551,125.526 111.744,67.050 111.937,160.247 112.131,345.637 112.324,153.212 112.517,66.343 112.711,131.526 112.904,313.874 113.098,185.081 113.291,71.660 113.484,107.444 113.678,273.283 113.871,220.456 114.064,82.886 114.258,88.512 114.451,234.325 114.644,258.590 114.838,99.785 115.031,75.132 115.224,197.826 115.418,298.672 115.611,121.998 115.804,67.587 115.998,164.561 116.191,339.854 116.384,149.056 116.578,66.038 116.771,135.234 116.964,319.612 117.158,180.384 117.351,70.518 117.545,110.468 117.738,278.855 117.931,215.319 118.125,80.932 118.318,90.787 118.511,239.612 118.705,253.120 118.898,97.060 119.091,76.610 119.285,202.717 119.478,292.987 119.671,118.561 119.865,68.237 120.058,168.951 120.251,334.074 120.445,144.978 120.638,65.845 120.831,139.030 121.025,325.365 121.218,175.753 121.411,69.487 121.605,113.589 121.798,284.457 121.992,210.233 122.185,79.084 122.378,93.167 122.572,244.945 122.765,247.687 122.958,94.435 123.152,78.198 123.345,207.667 123.538,287.323 123.732,115.214 123.925,68.999 124.118,173.414 124.312,328.298 124.505,140.981 124.698,65.765 124.892,142.910 125.085,331.129 125.278,171.190 125.472,68.567 125.665,116.804 125.858,290.087 126.052,205.201 126.245,77.344 126.439,95.649 126.632,250.322 126.825,242.294 127.019,91.911 127.212,79.894 127.405,212.676 127.599,281.681 127.792,111.960 127.985,69.873 128.179,177.948 128.372,322.530 128.565,137.066 128.759,65.799 128.952,146.874 129.145,336.902 129.339,166.697 129.532,67.758 129.725,120.114 129.919,295.743 130.112,200.225 130.305,75.711 130.499,98.233 130.692,255.740 130.886,236.941 131.079,89.488 131.272,81.698 131.466,217.742 131.659,276.065 131.852,108.799 132.046,70.858 132.239,182.553 132.432,316.770 132.626,133.233 132.819,65.945 133.012,150.921 133.206,342.684 133.399,162.274 133.592,67.062 133.786,123.516 133.979,301.424 134.172,195.307 134.366,74.187 134.559,100.919 134.752,261.199 134.946,231.631 135.139,87.168 135.332,83.610 135.526,222.862 135.719,270.476 135.913,105.732 136.106,71.956 136.299,187.227 136.493,311.020 136.686,129.485 136.879,66.204 137.073,155.049 137.266,348.471 137.459,157.925 137.653,66.478 137.846,127.010 138.039,307.126 138.233,190.448 138.426,72.771 138.619,103.705 138.813,266.695 139.006,226.365 139.199,84.952 139.393,85.628 139.586,228.036 139.779,264.917 139.973,102.761 140.166,73.164 140.360,191.968 140.553,305.284 140.746,125.824 140.940,66.576 141.133,159.256 141.326,346.613 141.520,153.649 141.713,66.006 141.906,130.594 142.100,312.848 142.293,185.650 142.486,71.465 142.680,106.590 142.873,272.227 143.066,221.147 143.260,82.839 143.453,87.753 143.646,233.260 143.840,259.388 144.033,99.888 144.226,74.483 144.420,196.774 144.613,299.563 144.807,122.249 145.000,67.061 145.193,163.541 145.387,340.821 145.580,149.450 145.773,65.647 145.967,134.267 146.160,318.588 146.353,180.915 146.547,70.270 146.740,109.573 146.933,277.793 147.127,215.977 147.320,80.832 147.513,89.983 147.707,238.534 147.900,253.893 148.093,97.112 148.287,75.912 148.480,201.643 148.673,293.860 148.867,118.763 149.060,67.659 149.254,167.902 149.447,335.030 149.640,145.329 149.834,65.401 150.027,138.028 150.220,324.344 150.414,176.245 150.607,69.184 150.800,112.654 150.994,283.391 151.187,210.857 151.380,78.931 151.574,92.317 151.767,243.855 151.960,248.433 152.154,94.435 152.347,77.451 152.540,206.574 152.734,288.175 152.927,115.367 153.120,68.370 153.314,172.339 153.507,329.242 153.701,141.286 153.894,65.267 154.087,141.876 154.281,330.113 154.474,171.641 154.667,68.210 154.861,115.830 155.054,289.018 155.247,205.791 155.441,77.137 155.634,94.756 155.827,249.221 156.021,243.010 156.214,91.858 156.407,79.099 156.601,211.565 156.794,282.512 156.987,112.063 157.181,69.192 157.374,176.849 157.567,323.458 157.761,137.324 157.954,65.247 158.148,145.808 158.341,335.894 158.534,167.106 158.728,67.348 158.921,119.102 159.114,294.674 159.308,200.778 159.501,75.450 159.694,97.297 159.888,254.631 160.081,237.627 160.274,89.382 160.468,80.856 160.661,216.615 160.854,276.872 161.048,108.851 161.241,70.127 161.434,181.430 161.628,317.682 161.821,133.444 162.014,65.340 162.208,149.825 162.401,341.684 162.595,162.640 162.788,66.597 162.981,122.468 163.175,300.355 163.368,195.822 163.561,73.871 163.755,99.940 163.948,260.083 164.141,232.285 164.335,87.009 164.528,82.721 164.721,221.721 164.915,271.258 165.108,105.733 165.301,71.174 165.495,186.082 165.688,311.914 165.881,129.648 166.075,65.547 166.268,153.923 166.461,347.482 166.655,158.246 166.848,65.958 167.042,125.926 167.235,306.060 167.428,190.923 167.622,72.400 167.815,102.685 168.008,265.574 168.202,226.986 168.395,84.738 168.588,84.693 168.782,226.881 168.975,265.671 169.168,102.710 169.362,72.333 169.555,190.802 169.748,306.159 169.942,125.936 170.135,65.866 170.328,158.103 170.522,347.590 170.715,153.926 170.908,65.432 171.102,129.476 171.295,311.787 171.488,186.085 171.682,71.039 171.875,105.530 172.069,271.103 172.262,221.733 172.455,82.571 172.649,86.773 172.842,232.094 173.035,260.114 173.229,99.783 173.422,73.602 173.615,195.589 173.809,300.416 174.002,122.312 174.195,66.299 174.389,162.362 174.582,341.784 174.775,149.680 174.969,65.018 175.162,133.117 175.355,317.533 175.549,181.308 175.742,69.788 175.935,108.475 176.129,276.667 176.322,216.526 176.516,80.509 176.709,88.959 176.902,237.358 177.096,254.589 177.289,96.954 177.482,74.983 177.676,200.442 177.869,294.689 178.062,118.775 178.256,66.845 178.449,166.699 178.642,335.977 178.836,145.510 179.029,64.718 179.222,136.847 179.416,323.297 179.609,176.594 179.802,68.648 179.996,111.518 180.189,282.265 180.382,211.369 180.576,78.552 180.769,91.250 180.963,242.672 181.156,249.097 181.349,94.222 181.543,76.474 181.736,205.357 181.929,288.979 182.123,115.327 182.316,67.504 182.509,171.112 182.703,330.171 182.896,141.419 183.089,64.531 183.283,140.664 183.476,329.076 183.669,171.946 183.863,67.618 184.056,114.658 184.249,287.894 184.443,206.263 184.636,76.702 184.829,93.646 185.023,248.032 185.216,243.641 185.410,91.591 185.603,78.075 185.796,210.334 185.990,283.290 186.183,111.969 186.376,68.276 186.570,175.601 186.763,324.368 186.956,137.407 187.150,64.457 187.343,144.568 187.536,334.868 187.730,167.365 187.923,66.700 188.116,117.894 188.310,293.553 188.503,201.209 188.696,74.959 188.890,96.146 189.083,253.438 189.276,238.223 189.470,89.060 189.663,79.786 189.857,215.371 190.050,277.622 190.243,108.704 190.437,69.161 190.630,180.162 190.823,318.571 191.017,133.476 191.210,64.497 191.403,148.557 191.597,340.672 191.790,162.852 191.983,65.894 192.177,121.226 192.370,299.240 192.563,196.211 192.757,73.324 192.950,98.750 193.143,258.886 193.337,232.844 193.530,86.630 193.723,81.605 193.917,220.467 194.110,271.978 194.304,105.531 194.497,70.158 194.690,184.795 194.884,312.781 195.077,129.628 195.270,64.650 195.464,152.629 195.657,346.485 195.850,158.410 196.044,65.200 196.237,124.652 196.430,304.952 196.624,191.269 196.817,71.797 197.010,101.455 197.204,264.377 197.397,227.508 197.590,84.303 197.784,83.533 197.977,225.618 198.170,266.359 198.364,102.453 198.557,71.267 198.751,189.499 198.944,307.001 199.137,125.864 199.331,64.917 199.524,156.785 199.717,348.570 199.911,154.040 200.104,64.618 200.297,128.170 200.491,310.688 200.684,186.386 200.877,70.379 201.071,104.262 201.264,269.906 201.457,222.215 201.651,82.079 201.844,85.569 202.037,230.824 202.231,260.769 202.424,99.470 202.617,72.488 202.811,194.270 203.004,301.232 203.198,122.185 203.391,65.297 203.584,161.021 203.778,342.745 203.971,149.744 204.164,64.150 204.358,131.780 204.551,316.445 204.744,181.563 204.938,69.072 205.131,107.170 205.324,275.473 205.518,216.968 205.711,79.960 205.904,87.712 206.098,236.083 206.291,255.209 206.484,96.584 206.678,73.821 206.871,199.109 207.064,295.477 207.258,118.594 207.451,65.791 207.644,165.336 207.838,336.918 208.031,145.523 208.225,63.794 208.418,135.481 208.611,322.221 208.805,176.802 208.998,67.874 209.191,110.177 209.385,281.076 209.578,211.768 209.771,77.946 209.965,89.962 210.158,241.392 210.351,249.681 210.545,93.796 210.738,75.265 210.931,204.012 211.125,289.738 211.318,115.091 211.511,66.399 211.705,169.730 211.898,331.090 212.091,141.379 212.285,63.553 212.478,139.271 212.672,328.015 212.865,172.105 213.058,66.788 213.252,113.283 213.445,286.711 213.638,206.618 213.832,76.038 214.025,92.317 214.218,246.750 214.412,244.187 214.605,91.107 214.798,76.820 214.992,208.979 215.185,284.017 215.378,111.677 215.572,67.120 215.765,174.199 215.958,325.263 216.152,137.314 216.345,63.424 216.538,143.149 216.732,333.824 216.925,167.474 217.119,65.813 217.312,116.486 217.505,292.379 217.699,201.520 217.892,74.237 218.085,94.778 218.279,252.156 218.472,238.730 218.665,88.518 218.859,78.485 219.052,214.008 219.245,278.316 219.439,108.355 219.632,67.954 219.825,178.744 220.019,319.440 220.212,133.328 220.405,63.410 220.599,147.113 220.792,339.646 220.985,162.910 221.179,64.950 221.372,119.786 221.566,298.075 221.759,196.475 221.952,72.543 222.146,97.342 222.339,257.606 222.532,233.310 222.726,86.030 222.919,80.260 223.112,219.096 223.306,272.637 223.499,105.125 223.692,68.902 223.886,183.362 224.079,313.622 224.272,129.425 224.466,63.510 224.659,151.163 224.852,345.478 225.046,158.416 225.239,64.200 225.432,123.181 225.626,303.799 225.819,191.485 226.013,70.958 226.206,100.010 226.399,263.100 226.593,227.931 226.786,83.644 226.979,82.144 227.173,224.243 227.366,266.983 227.559,101.988 227.753,69.962 227.946,188.052 228.139,307.812 228.333,125.605 228.526,63.723 228.719,155.296 228.913,349.555 229.106,153.993 229.299,63.562 229.493,126.670 229.686,309.549 229.879,186.552 230.073,69.483 230.266,102.781 230.460,268.635 230.653,222.594 230.846,81.361 231.040,84.137 231.233,229.445 231.426,261.355 231.620,98.947 231.813,71.135 232.006,192.812 232.200,302.013 232.393,121.869 232.586,64.051 232.780,159.512 232.973,343.707 233.166,149.642 233.360,63.037 233.553,130.252 233.746,315.321 233.940,181.679 234.133,68.116 234.326,105.654 234.520,274.209 234.713,217.301 234.907,79.182 235.100,86.239 235.293,234.703 235.487,255.755 235.680,96.002 235.873,72.420 236.067,197.641 236.260,296.225 236.453,118.219 236.647,64.493 236.840,163.810 237.033,337.854 237.227,145.366 237.420,62.626 237.613,133.927 237.807,321.115 238.000,176.867 238.193,66.861 238.387,108.627 238.580,279.820 238.773,212.055 238.967,77.109 239.160,88.448 239.354,240.012 239.547,250.186 239.740,93.154 239.934,73.818 240.127,202.536 240.320,290.452 240.514,114.658 240.707,65.049 240.900,168.186 241.094,331.999 241.287,141.166 241.480,62.329 241.674,137.692 241.867,326.927 242.060,172.117 242.254,65.716 242.447,111.700 242.640,285.467 242.834,206.857 243.027,75.141 243.220,90.764 243.414,245.373 243.607,244.649 243.800,90.404 243.994,75.327 244.187,207.496 244.381,284.694 244.574,111.185 244.767,65.719 244.961,172.641 245.154,326.143 245.347,137.043 245.541,62.146 245.734,141.546 245.927,332.757 246.121,167.432 246.314,64.683 246.507,114.872 246.701,291.146 246.894,201.709 247.087,73.280 247.281,93.186 247.474,250.782 247.667,239.148 247.861,87.754 248.054,76.947 248.247,212.520 248.441,278.956 248.634,107.802 248.828,66.503 249.021,177.172 249.214,320.290 249.408,132.999 249.601,62.077 249.794,145.489 249.988,338.601 250.181,162.813 250.374,63.762 250.568,118.142 250.761,296.857 250.954,196.613 251.148,71.526 251.341,95.713 251.534,256.238 251.728,233.682 251.921,85.205 252.114,78.679 252.308,217.606 252.501,273.237 252.694,104.511 252.888,67.401 253.081,181.779 253.275,314.440 253.468,129.037 253.661,62.122 253.855,149.518 254.048,344.459 254.241,158.263 254.435,62.954 254.628,121.509 254.821,302.598 255.015,191.571 255.208,69.881 255.401,98.345 255.595,261.740 255.788,228.256 255.981,82.758 256.175,80.520 256.368,222.751 256.561,267.542 256.755,101.314 256.948,68.413 257.141,186.459 257.335,308.596 257.528,125.156 257.722,62.282 257.915,153.633 258.108,350.327 258.302,153.782 258.495,62.258 258.688,124.971 258.882,308.365 259.075,186.585 259.268,68.344 259.462,101.081 259.655,267.284 259.848,222.871 260.042,80.413 260.235,82.472 260.428,227.954 260.622,261.871 260.815,98.210 261.008,69.538 261.202,191.210 261.395,302.760 261.588,121.360 261.782,62.556 261.975,157.832 262.169,344.672 262.362,149.373 262.555,61.676 262.749,128.528 262.942,314.158 263.135,181.656 263.329,66.918 263.522,103.920 263.715,272.869 263.909,217.528 264.102,78.172 264.295,84.532 264.489,233.214 264.682,256.227 264.875,95.202 265.069,70.776 265.262,196.032 265.455,296.935 265.649,117.649 265.842,62.946 266.035,162.114 266.229,338.789 266.422,145.037 266.616,61.208 266.809,132.178 267.002,319.973 267.196,176.788 267.389,65.602 267.582,106.862 267.776,278.494 267.969,212.230 268.162,76.037 268.356,86.702 268.549,238.528 268.742,250.612 268.936,92.292 269.129,72.128 269.322,200.923 269.516,291.122 269.709,114.025 269.902,63.450 270.096,166.477 270.289,332.902 270.482,140.776 270.676,60.854 270.869,135.921 271.063,325.810 271.256,171.981 271.449,64.397 271.643,109.904 271.836,284.156 272.029,206.979 272.223,74.006 272.416,88.979 272.609,243.895 272.803,245.028 272.996,89.479 273.189,73.592 273.383,205.880 273.576,285.324 273.769,110.489 273.963,64.069 274.156,170.920 274.349,327.012 274.543,136.592 274.736,60.615 274.929,139.755 275.123,331.665 275.316,167.237 275.510,63.304 275.703,113.047 275.896,289.853 276.090,201.776 276.283,72.083 276.476,91.364 276.670,249.312 276.863,239.477 277.056,86.765 277.250,75.168 277.443,210.903 277.636,279.542 277.830,107.042 278.023,64.803 278.216,175.441 278.410,321.123 278.603,132.486 278.796,60.490 278.990,143.678 279.183,337.537 279.376,162.559 279.570,62.324 279.763,116.289 279.956,295.583 280.150,196.624 280.343,70.267 280.537,93.856 280.730,254.778 280.923,233.962 281.117,84.152 281.310,76.856 281.503,215.989 281.697,273.780 281.890,103.687 282.083,65.651 282.277,180.039 282.470,315.236 282.663,128.460 282.857,60.480 283.050,147.690 283.243,343.424 283.437,157.948 283.630,61.456 283.823,119.629 284.017,301.344 284.210,191.525 284.403,68.559 284.597,96.453 284.790,260.292 284.984,228.483 285.177,81.640 285.370,78.655 285.564,221.137 285.757,268.038 285.950,100.425 286.144,66.614 286.337,184.712 286.530,309.353 286.724,124.516 286.917,60.586 287.110,151.789 287.304,349.323 287.497,153.405 287.690,60.701 287.884,123.067 288.077,307.134 288.270,186.481 288.464,66.960 288.657,99.156 288.850,265.850 289.044,223.044 289.237,79.231 289.431,80.566 289.624,226.345 289.817,262.320 290.011,97.256 290.204,67.691 290.397,189.459 290.591,303.476 290.784,120.655 290.977,60.806 291.171,155.974 291.364,345.642 291.557,148.933 291.751,60.061 291.944,126.601 292.137,312.952 292.331,181.493 292.524,65.471 292.717,101.964 292.911,271.451 293.104,217.646 293.297,76.925 293.491,82.587 293.684,231.612 293.878,256.626 294.071,94.182 294.264,68.882 294.458,194.278 294.651,297.608 294.844,116.878 295.038,61.143 295.231,160.243 295.424,339.724 295.618,144.534 295.811,59.534 296.004,130.229 296.198,318.794 296.391,176.564 296.584,64.093 296.778,104.874 296.971,277.093 297.164,212.292 297.358,74.724 297.551,84.717 297.744,236.934 297.938,250.960 298.131,91.205 298.325,70.187 298.518,199.168 298.711,291.751 298.905,113.188 299.098,61.594 299.291,164.596 299.485,333.800 299.678,140.208 299.871,59.122 300.065,133.952 300.258,324.659 300.451,171.695 300.645,62.826 300.838,107.888 301.031,282.775 301.225,206.982 301.418,72.629 301.611,86.957 301.805,242.311 301.998,245.324 302.191,88.326 302.385,71.606 302.578,204.126 302.772,285.907 302.965,109.585 303.158,62.161 303.352,169.030 303.545,327.872 303.738,135.958 303.932,58.826 304.125,137.767 304.318,330.545 304.512,166.888 304.705,61.671 304.898,111.003 305.092,288.494 305.285,201.721 305.478,70.640 305.672,89.306 305.865,247.741 306.058,239.719 306.252,85.545 306.445,73.138 306.638,209.151 306.832,280.077 307.025,106.071 307.219,62.844 307.412,173.544 307.605,321.942 307.799,131.786 307.992,58.644 308.185,141.674 308.379,336.450 308.572,162.146 308.765,60.629 308.959,114.219 309.152,294.247 309.345,196.508 309.539,68.759 309.732,91.763 309.925,253.222 310.119,234.147 310.312,82.865 310.505,74.784 310.699,214.242 310.892,274.265 311.085,102.648 311.279,63.642 311.472,178.137 311.666,316.012 311.859,127.693 312.052,58.578 312.246,145.671 312.439,342.371 312.632,157.469 312.826,59.700 313.019,117.535 313.212,300.034 313.406,191.348 313.599,66.986 313.792,94.328 313.986,258.751 314.179,228.611 314.372,80.285 314.566,76.542 314.759,219.397 314.952,268.472 315.146,99.317 315.339,64.556 315.532,182.807 315.726,310.085 315.919,123.680 316.112,58.628 316.306,149.757 316.499,348.306 316.693,152.860 316.886,58.884 317.079,120.950 317.273,305.852 317.466,186.240 317.659,65.323 317.853,96.999 318.046,264.328 318.239,223.113 318.433,77.809 318.626,78.412 318.819,224.613 319.013,262.700 319.206,96.079 319.399,65.585 319.593,187.552 319.786,304.162 319.979,119.750 320.173,58.794 320.366,153.931 320.559,346.620 320.753,148.321 320.946,58.183 321.140,124.463 321.333,311.699 321.526,181.188 321.720,63.769 321.913,99.775 322.106,269.949 322.300,217.655 322.493,75.435 322.686,80.393 322.880,229.890 323.073,256.952 323.266,92.936 323.460,66.729 323.653,192.372 323.846,298.246 324.040,115.904 324.233,59.076 324.426,158.190 324.620,340.662 324.813,143.853 325.006,57.597 325.200,128.072 325.393,317.573 325.587,176.193 325.780,62.326 325.973,102.657 326.167,275.614 326.360,212.239 326.553,73.166 326.747,82.486 326.940,235.225 327.133,251.230 327.327,89.889 327.520,67.989 327.713,197.264 327.907,292.339 328.100,112.143 328.293,59.474 328.487,162.535 328.680,334.696 328.873,139.458 329.067,57.126 329.260,131.777 329.453,323.472 329.647,171.257 329.840,60.995 330.034,105.644 330.227,281.320 330.420,206.867 330.614,71.003 330.807,84.690 331.000,240.617 331.194,245.535 331.387,86.940 331.580,69.363 331.774,202.227 331.967,286.443 332.160,108.469 332.354,59.989 332.547,166.964 332.740,328.724 332.934,135.138 333.127,56.770 333.320,135.577 333.514,329.393 333.707,166.382 333.900,59.776 334.094,108.733 334.287,287.065 334.481,201.541 334.674,68.946 334.867,87.004 335.061,246.063 335.254,239.871 335.447,84.088 335.641,70.851 335.834,207.259 336.027,280.560 336.221,104.884 336.414,60.620 336.607,171.474 336.801,322.748 336.994,130.894 337.187,56.530 337.381,139.469 337.574,335.336 337.767,161.570 337.961,58.670 338.154,111.925 338.347,292.847 338.541,196.263 338.734,66.997 338.928,89.427 339.121,251.563 339.314,234.238 339.508,81.337 339.701,72.454 339.894,212.358 340.088,274.693 340.281,101.389 340.474,61.368 340.668,176.065 340.861,316.770 341.054,126.729 341.248,56.407 341.441,143.454 341.634,341.297 341.828,156.823 342.021,57.678 342.214,115.219 342.408,298.665 342.601,191.035 342.794,65.156 342.988,91.959 343.181,257.113 343.375,228.640 343.568,78.687 343.761,74.171 343.955,217.523 344.148,268.843 344.341,97.985 344.535,62.232 344.728,180.735 344.921,310.793 345.115,122.644 345.308,56.400 345.501,147.530 345.695,347.274 345.888,152.143 346.081,56.799 346.275,118.613 346.468,304.515 346.661,185.859 346.855,63.425 347.048,94.600 347.241,262.712 347.435,223.078 347.628,76.139 347.822,76.001 348.015,222.752 348.208,263.013 348.402,94.674 348.595,63.213 348.788,185.483 348.982,304.819 349.175,118.640 349.368,56.510 349.562,151.695 349.755,347.610 349.948,147.531 350.142,56.036 350.335,122.107 350.528,310.397 350.722,180.737 350.915,61.804 351.108,97.347 351.302,268.359 351.495,217.554 351.688,73.694 351.882,77.944 352.075,228.044 352.268,257.205 352.462,91.458 352.655,64.310 352.849,190.306 353.042,298.850 353.235,114.720 353.429,56.736 353.622,155.948 353.815,341.606 354.009,142.990 354.202,55.387 354.395,125.699 354.589,316.307 354.782,175.671 354.975,60.294 355.169,100.202 355.362,274.051 355.555,212.071 355.749,71.354 355.942,79.999 356.135,233.395 356.329,251.421 356.522,88.337 356.715,65.523 356.909,195.204 357.102,292.887 357.296,110.884 357.489,57.081 357.682,160.288 357.876,335.592 358.069,138.521 358.262,54.855 358.456,129.388 358.649,322.245 358.842,170.663 359.036,58.896 359.229,103.162 359.422,279.786 359.616,206.630 359.809,69.120 360.002,82.167 360.196,238.806 360.389,245.663 360.582,85.313 360.776,66.852 360.969,200.175 361.162,286.934 361.356,107.135 361.549,57.542 361.743,164.714 361.936,329.570 362.129,134.126 362.323,54.439 362.516,133.174 362.709,328.207 362.903,165.715 363.096,57.610 363.289,106.227 363.483,285.562 363.676,201.234 363.869,66.992 364.063,84.447 364.256,244.274 364.449,239.933 364.643,82.388 364.836,68.296 365.029,205.218 365.223,280.993 365.416,103.474 365.609,58.121 365.803,169.223 365.996,323.543 366.190,129.806 366.383,54.139 366.576,137.055 366.770,334.192 366.963,160.828 367.156,56.438 367.350,109.397 367.543,291.378 367.736,195.885 367.930,64.972 368.123,86.837 368.316,249.796 368.510,234.234 368.703,79.562 368.896,69.857 369.090,210.329 369.283,275.065 369.476,99.902 369.670,58.817 369.863,173.816 370.056,317.512 370.250,125.564 370.443,53.957 370.637,141.030 370.830,340.198 371.023,156.006 371.217,55.380 371.410,112.670 371.603,297.230 371.797,190.584 371.990,63.060 372.183,89.338 372.377,255.372 372.570,228.568 372.763,76.837 372.957,71.532 373.150,215.509 373.343,269.153 373.537,96.422 373.730,59.631 373.923,178.489 374.117,311.480 374.310,121.402 374.503,53.891 374.697,145.098 374.890,346.222 375.084,151.249 375.277,54.436 375.470,116.045 375.664,303.119 375.857,185.334 376.050,61.258 376.244,91.949 376.437,260.998 376.630,222.936 376.824,74.214 377.017,73.322 377.210,220.755 377.404,263.259 377.597,93.034 377.790,60.563 377.984,183.242 378.177,305.449 378.370,117.320 378.564,53.944 378.757,149.257 378.950,348.612 379.144,146.560 379.337,53.608 379.531,119.522 379.724,309.040 379.917,180.137 380.111,59.566 380.304,94.669 380.497,266.674 380.691,217.341 380.884,71.695 381.077,75.227 381.271,226.065 381.464,257.384 381.657,89.739 381.851,61.612 382.044,188.074 382.237,299.420 382.431,113.320 382.624,54.114 382.817,153.507 383.011,342.558 383.204,141.940 383.397,52.896 383.591,123.099 383.784,314.992 383.978,174.995 384.171,57.986 384.364,97.497 384.558,272.398 384.751,211.785 384.944,69.280 385.138,77.246 385.331,231.438 385.524,251.533 385.718,86.541 385.911,62.778 386.104,192.982 386.298,293.397 386.491,109.405 386.684,54.403 386.878,157.845 387.071,336.491 387.264,137.392 387.458,52.300 387.651,126.775 387.844,320.974 388.038,169.909 388.231,56.518 388.424,100.433 388.618,278.167 388.811,206.270 389.005,66.971 389.198,79.379 389.391,236.872 389.585,245.705 389.778,83.439 389.971,64.062 390.165,197.964 390.358,287.381 390.551,105.576 390.745,54.810 390.938,162.271 391.131,330.414 391.325,132.916 391.518,51.821 391.711,130.550 391.905,326.982 392.098,164.882 392.291,55.163 392.485,103.476 392.678,283.979 392.871,200.798 393.065,64.768 393.258,81.625 393.452,242.365 393.645,239.905 393.838,80.435 394.032,65.463 394.225,203.021 394.418,281.375 394.612,101.834 394.805,55.335 394.998,166.783 395.192,324.330 395.385,128.516 395.578,51.460 395.772,134.422 395.965,333.016 396.158,159.916 396.352,53.922 396.545,106.625 396.738,289.833 396.932,195.372 397.125,62.673 397.318,83.983 397.512,247.915 397.705,234.133 397.899,77.530 398.092,66.980 398.285,208.149 398.479,275.380 398.672,98.181 398.865,55.979 399.059,171.380 399.252,318.240 399.445,124.192 399.639,51.217 399.832,138.390 400.025,339.072 400.219,155.012 400.412,52.796 400.605,109.879 400.799,295.727 400.992,189.992 401.185,60.687 401.379,86.454 401.572,253.520 401.765,228.392 401.959,74.727 402.152,68.615 402.346,213.347 402.539,269.400 402.732,94.619 402.926,56.742 403.119,176.060 403.312,312.146 403.506,119.946 403.699,51.091 403.892,142.452 404.086,345.148 404.279,150.173 404.472,51.785 404.666,113.237 404.859,301.658 405.052,184.663 405.246,58.811 405.439,89.036 405.632,259.179 405.826,222.685 406.019,72.025 406.212,70.365 406.406,218.614 406.599,263.435 406.793,91.149 406.986,57.624 407.179,180.823 407.373,306.052 407.566,115.781 407.759,51.085 407.953,146.608 408.146,349.631 408.339,145.401 408.533,50.890 408.726,116.698 408.919,307.624 409.113,179.384 409.306,57.046 409.499,91.729 409.693,264.890 409.886,217.013 410.079,69.427 410.273,72.232 410.466,223.947 410.659,257.489 410.853,87.772 411.046,58.624 411.240,185.665 411.433,299.958 411.626,111.697 411.820,51.197 412.013,150.857 412.206,343.520 412.400,140.697 412.593,50.111 412.786,120.262 412.980,313.624 413.173,174.160 413.366,55.393 413.560,94.532 413.753,270.650 413.946,211.378 414.140,66.933 414.333,74.215 414.526,229.345 414.720,251.564 414.913,84.491 415.106,59.744 415.300,190.586 415.493,293.868 415.687,107.698 415.880,51.429 416.073,155.196 416.267,337.394 416.460,136.064 416.653,49.450 416.847,123.928 417.040,319.655 417.233,168.991 417.427,53.852 417.620,97.445 417.813,276.458 418.007,205.782 418.200,64.545 418.393,76.313 418.587,234.807 418.780,245.661 418.973,81.306 419.167,60.981 419.360,195.585 419.553,287.783 419.747,103.783 419.940,51.780 420.134,159.626 420.327,331.257 420.520,131.502 420.714,48.906 420.907,127.693 421.100,325.715 421.294,163.879 421.487,52.424 421.680,100.466 421.874,282.312 422.067,200.229 422.260,62.264 422.454,78.525 422.647,240.330 422.840,239.784 423.034,78.219 423.227,62.338 423.420,200.659 423.614,281.706 423.807,99.956 424.000,52.251 424.194,164.144 424.387,325.109 424.580,127.015 424.774,48.481 424.967,131.558 425.161,331.802 425.354,158.827 425.547,51.112 425.741,103.596 425.934,288.209 426.127,194.719 426.321,60.091 426.514,80.852 426.707,245.912 426.901,233.933 427.094,75.232 427.287,63.813 427.481,205.808 427.674,275.639 427.867,96.217 428.061,52.841 428.254,168.748 428.447,318.954 428.641,122.604 428.834,48.174 429.027,135.521 429.221,337.914 429.414,153.836 429.608,49.914 429.801,106.832 429.994,294.149 430.188,189.255 430.381,58.027 430.574,83.293 430.768,251.552 430.961,228.112 431.154,72.345 431.348,65.406 431.541,211.029 431.734,269.584 431.928,92.568 432.121,53.552 432.314,173.439 432.508,312.794 432.701,118.270 432.894,47.987 433.088,139.581 433.281,344.049 433.474,148.910 433.668,48.832 433.861,110.175 434.055,300.128 434.248,183.840 434.441,56.073 434.635,85.847 434.828,257.248 435.021,222.322 435.215,69.560 435.408,67.117 435.601,216.320 435.795,263.543 435.988,89.011 436.181,54.383 436.375,178.213 436.568,306.630 436.761,114.016 436.955,47.919 437.148,143.737 437.341,350.205 437.535,144.048 437.728,47.867 437.921,113.623 438.115,306.144 438.308,178.474 438.502,54.231 438.695,88.515 438.888,262.998 439.082,216.566 439.275,66.879 439.468,68.945 439.662,221.681 439.855,257.519 440.048,85.547 440.242,55.334 440.435,183.071 440.628,300.465 440.822,109.843 441.015,47.972 441.208,147.987 441.402,344.496 441.595,139.254 441.788,47.019 441.982,117.176 442.175,312.197 442.368,173.161 442.562,52.500 442.755,91.294 442.949,268.800 443.142,210.846 443.335,64.302 443.529,70.891 443.722,227.109 443.915,251.513 444.109,82.178 444.302,56.405 444.495,188.009 444.689,294.302 444.882,105.753 445.075,48.145 445.269,152.331 445.462,338.305 445.655,134.530 445.849,46.290 446.042,120.832 446.235,318.283 446.429,167.902 446.622,50.883 446.815,94.184 447.009,274.652 447.202,205.164 447.396,61.831 447.589,72.954 447.782,232.603 447.976,245.529 448.169,78.905 448.362,57.596 448.556,193.028 448.749,288.142 448.942,101.748 449.136,48.438 449.329,156.767 449.522,332.101 449.716,129.877 449.909,45.679 450.102,124.591 450.296,324.401 450.489,162.699 450.682,49.380 450.876,97.186 451.069,280.553 451.262,199.522 451.456,59.467 451.649,75.134 451.843,238.160 452.036,239.567 452.229,75.731 452.423,58.907 452.616,198.124 452.809,281.987 453.003,97.829 453.196,48.852 453.389,161.293 453.583,325.884 453.776,125.297 453.969,45.187 454.163,128.451 454.356,330.547 454.549,157.555 454.743,47.992 454.936,100.297 455.129,286.499 455.323,193.923 455.516,57.212 455.709,77.430 455.903,243.780 456.096,233.631 456.290,72.655 456.483,60.339 456.676,203.297 456.870,275.841 457.063,93.998 457.256,49.388 457.450,165.909 457.643,319.657 457.836,120.792 458.030,44.815 458.223,132.412 458.416,336.722 458.610,152.471 458.803,46.719 458.996,103.518 459.190,292.490 459.383,188.368 459.576,55.066 459.770,79.842 459.963,249.460 460.156,227.723 460.350,69.680 460.543,61.890 460.736,208.545 460.930,269.704 461.123,90.257 461.317,50.045 461.510,170.613 461.703,313.423 461.897,116.364 462.090,44.563 462.283,136.472 462.477,342.921 462.670,147.450 462.863,45.564 463.057,106.847 463.250,298.523 463.443,182.860 463.637,53.030 463.830,82.369 464.023,255.198 464.217,221.845 464.410,66.807 464.603,63.561 464.797,213.866 464.990,263.581 465.183,86.608 465.377,50.824 465.570,175.404 "/>
<g>
</g>
</g>
    </g>
    <g>
      <polyline fill="none" stroke="#262626" stroke-width="0.5pt" stroke-dasharray="none" points="158.125,350.438 158.125,346.475 "/>
      <polyline fill="none" stroke="#262626" stroke-width="0.5pt" stroke-dasharray="none" points="237.375,350.438 237.375,346.475 "/>
      <polyline fill="none" stroke="#262626" stroke-width="0.5pt" stroke-dasharray="none" points="316.625,350.438 316.625,346.475 "/>
      <polyline fill="none" stroke="#262626" stroke-width="0.5pt" stroke-dasharray="none" points="395.875,350.438 395.875,346.475 "/>
      <polyline fill="none" stroke="#262626" stroke-width="0.5pt" stroke-dasharray="none" points="78.875,350.438 475.125,350.438 "/>
      <polyline fill="none" stroke="#262626" stroke-width="0.5pt" stroke-dasharray="none" points="158.125,29.531 158.125,33.494 "/>
      <polyline fill="none" stroke="#262626" stroke-width="0.5pt" stroke-dasharray="none" points="237.375,29.531 237.375,33.494 "/>
      <polyline fill="none" stroke="#262626" stroke-width="0.5pt" stroke-dasharray="none" points="316.625,29.531 316.625,33.494 "/>
      <polyline fill="none" stroke="#262626" stroke-width="0.5pt" stroke-dasharray="none" points="395.875,29.531 395.875,33.494 "/>
      <polyline fill="none" stroke="#262626" stroke-width="0.5pt" stroke-dasharray="none" points="78.875,29.531 475.125,29.531 "/>
  <g transform="translate(78.875,367.918)">
    <g transform="rotate(-0.0)">
      <text x="0.000" y="0.000" font-family="Helvetica" text-anchor="middle" font-size="9pt" fill="#262626" >0</text>
    </g>
  </g>
  <g transform="translate(158.125,367.918)">
    <g transform="rotate(-0.0)">
      <text x="0.000" y="0.000" font-family="Helvetica" text-anchor="middle" font-size="9pt" fill="#262626" >1</text>
    </g>
  </g>
  <g transform="translate(237.375,367.918)">
    <g transform="rotate(-0.0)">
      <text x="0.000" y="0.000" font-family="Helvetica" text-anchor="middle" font-size="9pt" fill="#262626" >2</text>
    </g>
  </g>
  <g transform="translate(316.625,367.918)">
    <g transform="rotate(-0.0)">
      <text x="0.000" y="0.000" font-family="Helvetica" text-anchor="middle" font-size="9pt" fill="#262626" >3</text>
    </g>
  </g>
  <g transform="translate(395.875,367.918)">
    <g transform="rotate(-0.0)">
      <text x="0.000" y="0.000" font-family="Helvetica" text-anchor="middle" font-size="9pt" fill="#262626" >4</text>
    </g>
  </g>
  <g transform="translate(475.125,367.918)">
    <g transform="rotate(-0.0)">
      <text x="0.000" y="0.000" font-family="Helvetica" text-anchor="middle" font-size="9pt" fill="#262626" >5</text>
    </g>
  </g>
      <polyline fill="none" stroke="#262626" stroke-width="0.5pt" stroke-dasharray="none" points="78.875,304.594 82.837,304.594 "/>
      <polyline fill="none" stroke="#262626" stroke-width="0.5pt" stroke-dasharray="none" points="78.875,258.750 82.837,258.750 "/>
      <polyline fill="none" stroke="#262626" stroke-width="0.5pt" stroke-dasharray="none" points="78.875,212.906 82.837,212.906 "/>
      <polyline fill="none" stroke="#262626" stroke-width="0.5pt" stroke-dasharray="none" points="78.875,167.063 82.837,167.063 "/>
      <polyline fill="none" stroke="#262626" stroke-width="0.5pt" stroke-dasharray="none" points="78.875,121.219 82.837,121.219 "/>
      <polyline fill="none" stroke="#262626" stroke-width="0.5pt" stroke-dasharray="none" points="78.875,75.375 82.837,75.375 "/>
      <polyline fill="none" stroke="#262626" stroke-width="0.5pt" stroke-dasharray="none" points="78.875,350.438 78.875,29.531 "/>
      <polyline fill="none" stroke="#262626" stroke-width="0.5pt" stroke-dasharray="none" points="475.125,304.594 471.162,304.594 "/>
      <polyline fill="none" stroke="#262626" stroke-width="0.5pt" stroke-dasharray="none" points="475.125,258.750 471.162,258.750 "/>
      <polyline fill="none" stroke="#262626" stroke-width="0.5pt" stroke-dasharray="none" points="475.125,212.906 471.162,212.906 "/>
      <polyline fill="none" stroke="#262626" stroke-width="0.5pt" stroke-dasharray="none" points="475.125,167.063 471.162,167.063 "/>
      <polyline fill="none" stroke="#262626" stroke-width="0.5pt" stroke-dasharray="none" points="475.125,121.219 471.162,121.219 "/>
      <polyline fill="none" stroke="#262626" stroke-width="0.5pt" stroke-dasharray="none" points="475.125,75.375 471.162,75.375 "/>
      <polyline fill="none" stroke="#262626" stroke-width="0.5pt" stroke-dasharray="none" points="475.125,350.438 475.125,29.531 "/>
  <g transform="translate(70.950,354.656)">
    <g transform="rotate(-0.0)">
      <text x="0.000" y="0.000" font-family="Helvetica" text-anchor="end" font-size="9pt" fill="#262626" >0</text>
    </g>
  </g>
  <g transform="translate(70.950,308.813)">
    <g transform="rotate(-0.0)">
      <text x="0.000" y="0.000" font-family="Helvetica" text-anchor="end" font-size="9pt" fill="#262626" >0.142857</text>
    </g>
  </g>
  <g transform="translate(70.950,262.969)">
    <g transform="rotate(-0.0)">
      <text x="0.000" y="0.000" font-family="Helvetica" text-anchor="end" font-size="9pt" fill="#262626" >0.285714</text>
    </g>
  </g>
  <g transform="translate(70.950,217.125)">
    <g transform="rotate(-0.0)">
      <text x="0.000" y="0.000" font-family="Helvetica" text-anchor="end" font-size="9pt" fill="#262626" >0.428571</text>
    </g>
  </g>
  <g transform="translate(70.950,171.281)">
    <g transform="rotate(-0.0)">
      <text x="0.000" y="0.000" font-family="Helvetica" text-anchor="end" font-size="9pt" fill="#262626" >0.571429</text>
    </g>
  </g>
  <g transform="translate(70.950,125.437)">
    <g transform="rotate(-0.0)">
      <text x="0.000" y="0.000" font-family="Helvetica" text-anchor="end" font-size="9pt" fill="#262626" >0.714286</text>
    </g>
  </g>
  <g transform="translate(70.950,79.594)">
    <g transform="rotate(-0.0)">
      <text x="0.000" y="0.000" font-family="Helvetica" text-anchor="end" font-size="9pt" fill="#262626" >0.857143</text>
    </g>
  </g>
  <g transform="translate(70.950,33.750)">
    <g transform="rotate(-0.0)">
      <text x="0.000" y="0.000" font-family="Helvetica" text-anchor="end" font-size="9pt" fill="#262626" >1</text>
    </g>
  </g>
      <polyline fill="none" stroke="#262626" stroke-width="0.5pt" stroke-dasharray="none" points="78.875,350.438 78.875,347.228 "/>
      <polyline fill="none" stroke="#262626" stroke-width="0.5pt" stroke-dasharray="none" points="78.875,350.438 78.875,350.438 "/>
    </g>
  </g>
  </g>
</svg>
