<?xml version="1.0" encoding="utf-8" standalone="no"?><!DOCTYPE svg PUBLIC "-//W3C//DTD SVG 1.1//EN" "http://www.w3.org/Graphics/SVG/1.1/DTD/svg11.dtd">
<svg preserveAspectRatio="xMinYMin meet" width="100%" height="100%" viewBox="0 0 525.000 393.750"  version="1.1" xmlns="http://www.w3.org/2000/svg" xmlns:xlink="http://www.w3.org/1999/xlink">
  <desc>Matlab Figure Converted by PLOT2SVG written by Juerg Schwizer</desc>
  <g id="topgroup">
  <rect x="0" y="0" width="525.000" height="393.750" fill="#ffffff" stroke="none" />
  <g id ="ID000000">
  <clipPath id="ID000001">
    <rect x="68.250" y="29.531" width="406.875" height="320.906"/>
  </clipPath>
      <polygon fill="#ffffff" fill-opacity="1.00" stroke="none" stroke-width="0.5pt" stroke-opacity="1.00" stroke-dasharray="none" points="68.250,350.438 475.125,350.438 475.125,29.531 68.250,29.531 "/>
      <polygon fill="#ffffff" fill-opacity="1.00" stroke="none" stroke-width="0.5pt" stroke-opacity="1.00" stroke-dasharray="none" points="68.250,29.531 475.125,29.531 475.125,29.531 68.250,29.531 "/>
      <polygon fill="#ffffff" fill-opacity="1.00" stroke="none" stroke-width="0.5pt" stroke-opacity="1.00" stroke-dasharray="none" points="68.250,350.438 68.250,350.437 68.250,29.531 68.250,29.531 "/>
    <g>
<g id="ID000002" >
  <g transform="translate(35.359,189.984)">
    <g transform="rotate(-90.0)">
      <text x="0.000" y="0.000" font-family="Helvetica" text-anchor="middle" font-size="10pt" fill="#262626" >Magnitude</text>
    </g>
  </g>
</g>
<g id="ID000003" >
  <g transform="translate(271.688,384.748)">
    <g transform="rotate(-0.0)">
      <text x="0.000" y="0.000" font-family="Helvetica" text-anchor="middle" font-size="10pt" fill="#262626" >Time [ps]</text>
    </g>
  </g>
</g>
<g id="ID000004" >
  <g transform="translate(271.688,24.380)">
    <g transform="rotate(-0.0)">
      <text x="0.000" y="0.000" font-family="Helvetica" text-anchor="middle" font-size="10pt" font-weight="bold" fill="#000000" >Source Signal Waveform</text>
    </g>
  </g>
</g>
<g id="ID000005" clip-path="url(#ID000001)" >
      <polyline fill="none" stroke="#0071bc" stroke-width="0.5pt" stroke-dasharray="none" points="69.064,189.984 69.877,189.984 70.691,189.984 71.505,189.984 72.319,189.984 73.133,189.983 73.946,189.981 74.760,189.979 75.574,189.974 76.388,189.965 77.201,189.949 78.015,189.921 78.829,189.875 79.643,189.798 80.456,189.675 81.270,189.479 82.084,189.175 82.897,188.716 83.711,188.034 84.525,187.046 85.339,185.644 86.153,183.700 86.966,181.067 87.780,177.581 88.594,173.073 89.407,167.383 90.221,160.378 91.035,151.969 91.849,142.138 92.662,130.957 93.476,118.606 94.290,105.379 95.104,91.687 95.918,78.040 96.731,65.023 97.545,53.255 98.359,43.341 99.172,35.823 99.986,31.128 100.800,29.531 101.614,31.128 102.428,35.823 103.241,43.341 104.055,53.255 104.869,65.023 105.682,78.040 106.496,91.687 107.310,105.379 108.124,118.606 108.938,130.957 109.751,142.138 110.565,151.969 111.379,160.378 112.193,167.383 113.006,173.073 113.820,177.581 114.634,181.067 115.447,183.700 116.261,185.644 117.075,187.046 117.889,188.034 118.703,188.716 119.516,189.175 120.330,189.479 121.144,189.675 121.958,189.798 122.771,189.875 123.585,189.921 124.399,189.949 125.213,189.965 126.026,189.974 126.840,189.979 127.654,189.981 128.468,189.983 129.281,189.984 130.095,189.984 130.909,189.984 131.723,189.984 132.536,189.984 133.350,189.984 134.164,189.984 134.977,189.984 135.791,189.984 136.605,189.984 137.419,189.984 138.232,189.984 139.046,189.984 139.860,189.984 140.674,189.984 141.487,189.984 142.301,189.984 143.115,189.984 143.929,189.984 144.743,189.984 145.556,189.984 146.370,189.984 147.184,189.984 147.998,189.984 148.811,189.984 149.625,189.984 150.439,189.984 151.252,189.984 152.066,189.984 152.880,189.984 153.694,189.984 154.507,189.984 155.321,189.984 156.135,189.984 156.949,189.984 157.762,189.984 158.576,189.984 159.390,189.984 160.204,189.984 161.017,189.984 161.831,189.984 162.645,189.984 163.459,189.984 164.273,189.984 165.086,189.984 165.900,189.984 166.714,189.984 167.528,189.984 168.341,189.984 169.155,189.984 169.969,189.984 170.783,189.984 171.596,189.984 172.410,189.984 173.224,189.984 174.038,189.984 174.851,189.984 175.665,189.984 176.479,189.984 177.292,189.984 178.106,189.984 178.920,189.984 179.734,189.984 180.548,189.984 181.361,189.984 182.175,189.984 182.989,189.984 183.802,189.984 184.616,189.984 185.430,189.984 186.244,189.984 187.058,189.984 187.871,189.984 188.685,189.984 189.499,189.984 190.313,189.984 191.126,189.984 191.940,189.984 192.754,189.984 193.568,189.984 194.381,189.984 195.195,189.984 196.009,189.984 196.823,189.984 197.636,189.984 198.450,189.984 199.264,189.984 200.077,189.984 200.891,189.984 201.705,189.984 202.519,189.984 203.333,189.984 204.146,189.984 204.960,189.984 205.774,189.984 206.588,189.984 207.401,189.984 208.215,189.984 209.029,189.984 209.843,189.984 210.656,189.984 211.470,189.984 212.284,189.984 213.098,189.984 213.911,189.984 214.725,189.984 215.539,189.984 216.353,189.984 217.166,189.984 217.980,189.984 218.794,189.984 219.608,189.984 220.421,189.984 221.235,189.984 222.049,189.984 222.863,189.984 223.676,189.984 224.490,189.984 225.304,189.984 226.118,189.984 226.931,189.984 227.745,189.984 228.559,189.984 229.373,189.984 230.186,189.984 231.000,189.984 231.814,189.984 232.628,189.984 233.441,189.984 234.255,189.984 235.069,189.984 235.882,189.984 236.696,189.984 237.510,189.984 238.324,189.984 239.138,189.984 239.951,189.984 240.765,189.984 241.579,189.984 242.393,189.984 243.206,189.984 244.020,189.984 244.834,189.984 245.648,189.984 246.461,189.984 247.275,189.984 248.089,189.984 248.903,189.984 249.716,189.984 250.530,189.984 251.344,189.984 252.158,189.984 252.971,189.984 253.785,189.984 254.599,189.984 255.413,189.984 256.226,189.984 257.040,189.984 257.854,189.984 258.668,189.984 259.481,189.984 260.295,189.984 261.109,189.984 261.923,189.984 262.736,189.984 263.550,189.984 264.364,189.984 265.178,189.984 265.991,189.984 266.805,189.984 267.619,189.984 268.433,189.984 269.246,189.984 270.060,189.984 270.874,189.984 271.688,189.984 272.501,189.984 273.315,189.984 274.129,189.984 274.943,189.984 275.756,189.984 276.570,189.984 277.384,189.984 278.198,189.984 279.011,189.984 279.825,189.984 280.639,189.984 281.452,189.984 282.266,189.984 283.080,189.984 283.894,189.984 284.707,189.984 285.521,189.984 286.335,189.984 287.149,189.984 287.962,189.984 288.776,189.984 289.590,189.984 290.404,189.984 291.217,189.984 292.031,189.984 292.845,189.984 293.659,189.984 294.473,189.984 295.286,189.984 296.100,189.984 296.914,189.984 297.727,189.984 298.541,189.984 299.355,189.984 300.169,189.984 300.982,189.984 301.796,189.984 302.610,189.984 303.424,189.984 304.237,189.984 305.051,189.984 305.865,189.984 306.679,189.984 307.493,189.984 308.306,189.984 309.120,189.984 309.934,189.984 310.748,189.984 311.561,189.984 312.375,189.984 313.189,189.984 314.003,189.984 314.816,189.984 315.630,189.984 316.444,189.984 317.258,189.984 318.071,189.984 318.885,189.984 319.699,189.984 320.513,189.984 321.326,189.984 322.140,189.984 322.954,189.984 323.768,189.984 324.581,189.984 325.395,189.984 326.209,189.984 327.022,189.984 327.836,189.984 328.650,189.984 329.464,189.984 330.277,189.984 331.091,189.984 331.905,189.984 332.719,189.984 333.533,189.984 334.346,189.984 335.160,189.984 335.974,189.984 336.788,189.984 337.601,189.984 338.415,189.984 339.229,189.984 340.043,189.984 340.856,189.984 341.670,189.984 342.484,189.984 343.298,189.984 344.111,189.984 344.925,189.984 345.739,189.984 346.553,189.984 347.366,189.984 348.180,189.984 348.994,189.984 349.808,189.984 350.621,189.984 351.435,189.984 352.249,189.984 353.063,189.984 353.876,189.984 354.690,189.984 355.504,189.984 356.318,189.984 357.131,189.984 357.945,189.984 358.759,189.984 359.572,189.984 360.386,189.984 361.200,189.984 362.014,189.984 362.828,189.984 363.641,189.984 364.455,189.984 365.269,189.984 366.083,189.984 366.896,189.984 367.710,189.984 368.524,189.984 369.338,189.984 370.151,189.984 370.965,189.984 371.779,189.984 372.592,189.984 373.406,189.984 374.220,189.984 375.034,189.984 375.847,189.984 376.661,189.984 377.475,189.984 378.289,189.984 379.103,189.984 379.916,189.984 380.730,189.984 381.544,189.984 382.358,189.984 383.171,189.984 383.985,189.984 384.799,189.984 385.613,189.984 386.426,189.984 387.240,189.984 388.054,189.984 388.868,189.984 389.681,189.984 390.495,189.984 391.309,189.984 392.123,189.984 392.936,189.984 393.750,189.984 394.564,189.984 395.378,189.984 396.191,189.984 397.005,189.984 397.819,189.984 398.633,189.984 399.446,189.984 400.260,189.984 401.074,189.984 401.887,189.984 402.701,189.984 403.515,189.984 404.329,189.984 405.142,189.984 405.956,189.984 406.770,189.984 407.584,189.984 408.398,189.984 409.211,189.984 410.025,189.984 410.839,189.984 411.653,189.984 412.466,189.984 413.280,189.984 414.094,189.984 414.908,189.984 415.721,189.984 416.535,189.984 417.349,189.984 418.162,189.984 418.976,189.984 419.790,189.984 420.604,189.984 421.417,189.984 422.231,189.984 423.045,189.984 423.859,189.984 424.673,189.984 425.486,189.984 426.300,189.984 427.114,189.984 427.928,189.984 428.741,189.984 429.555,189.984 430.369,189.984 431.183,189.984 431.996,189.984 432.810,189.984 433.624,189.984 434.438,189.984 435.251,189.984 436.065,189.984 436.879,189.984 437.693,189.984 438.506,189.984 439.320,189.984 440.134,189.984 440.948,189.984 441.761,189.984 442.575,189.984 443.389,189.984 444.203,189.984 445.016,189.984 445.830,189.984 446.644,189.984 447.458,189.984 448.271,189.984 449.085,189.984 449.899,189.984 450.712,189.984 451.526,189.984 452.340,189.984 453.154,189.984 453.968,189.984 454.781,189.984 455.595,189.984 456.409,189.984 457.223,189.984 458.036,189.984 458.850,189.984 459.664,189.984 460.478,189.984 461.291,189.984 462.105,189.984 462.919,189.984 463.732,189.984 464.546,189.984 465.360,189.984 466.174,189.984 466.987,189.984 467.801,189.984 468.615,189.984 469.429,189.984 470.243,189.984 471.056,189.984 471.870,189.984 472.684,189.984 473.498,189.984 474.311,189.984 475.125,189.984 "/>
<g>
</g>
</g>
    </g>
    <g>
      <polyline fill="none" stroke="#262626" stroke-width="0.5pt" stroke-dasharray="none" points="108.938,350.438 108.938,346.369 "/>
      <polyline fill="none" stroke="#262626" stroke-width="0.5pt" stroke-dasharray="none" points="149.625,350.438 149.625,346.369 "/>
      <polyline fill="none" stroke="#262626" stroke-width="0.5pt" stroke-dasharray="none" points="190.313,350.438 190.313,346.369 "/>
      <polyline fill="none" stroke="#262626" stroke-width="0.5pt" stroke-dasharray="none" points="231.000,350.438 231.000,346.369 "/>
      <polyline fill="none" stroke="#262626" stroke-width="0.5pt" stroke-dasharray="none" points="271.688,350.438 271.688,346.369 "/>
      <polyline fill="none" stroke="#262626" stroke-width="0.5pt" stroke-dasharray="none" points="312.375,350.438 312.375,346.369 "/>
      <polyline fill="none" stroke="#262626" stroke-width="0.5pt" stroke-dasharray="none" points="353.063,350.438 353.063,346.369 "/>
      <polyline fill="none" stroke="#262626" stroke-width="0.5pt" stroke-dasharray="none" points="393.750,350.438 393.750,346.369 "/>
      <polyline fill="none" stroke="#262626" stroke-width="0.5pt" stroke-dasharray="none" points="434.438,350.438 434.438,346.369 "/>
      <polyline fill="none" stroke="#262626" stroke-width="0.5pt" stroke-dasharray="none" points="68.250,350.438 475.125,350.438 "/>
      <polyline fill="none" stroke="#262626" stroke-width="0.5pt" stroke-dasharray="none" points="108.938,29.531 108.938,33.600 "/>
      <polyline fill="none" stroke="#262626" stroke-width="0.5pt" stroke-dasharray="none" points="149.625,29.531 149.625,33.600 "/>
      <polyline fill="none" stroke="#262626" stroke-width="0.5pt" stroke-dasharray="none" points="190.313,29.531 190.313,33.600 "/>
      <polyline fill="none" stroke="#262626" stroke-width="0.5pt" stroke-dasharray="none" points="231.000,29.531 231.000,33.600 "/>
      <polyline fill="none" stroke="#262626" stroke-width="0.5pt" stroke-dasharray="none" points="271.688,29.531 271.688,33.600 "/>
      <polyline fill="none" stroke="#262626" stroke-width="0.5pt" stroke-dasharray="none" points="312.375,29.531 312.375,33.600 "/>
      <polyline fill="none" stroke="#262626" stroke-width="0.5pt" stroke-dasharray="none" points="353.063,29.531 353.063,33.600 "/>
      <polyline fill="none" stroke="#262626" stroke-width="0.5pt" stroke-dasharray="none" points="393.750,29.531 393.750,33.600 "/>
      <polyline fill="none" stroke="#262626" stroke-width="0.5pt" stroke-dasharray="none" points="434.438,29.531 434.438,33.600 "/>
      <polyline fill="none" stroke="#262626" stroke-width="0.5pt" stroke-dasharray="none" points="68.250,29.531 475.125,29.531 "/>
  <g transform="translate(68.250,367.918)">
    <g transform="rotate(-0.0)">
      <text x="0.000" y="0.000" font-family="Helvetica" text-anchor="middle" font-size="9pt" fill="#262626" >0</text>
    </g>
  </g>
  <g transform="translate(108.938,367.918)">
    <g transform="rotate(-0.0)">
      <text x="0.000" y="0.000" font-family="Helvetica" text-anchor="middle" font-size="9pt" fill="#262626" >50</text>
    </g>
  </g>
  <g transform="translate(149.625,367.918)">
    <g transform="rotate(-0.0)">
      <text x="0.000" y="0.000" font-family="Helvetica" text-anchor="middle" font-size="9pt" fill="#262626" >100</text>
    </g>
  </g>
  <g transform="translate(190.313,367.918)">
    <g transform="rotate(-0.0)">
      <text x="0.000" y="0.000" font-family="Helvetica" text-anchor="middle" font-size="9pt" fill="#262626" >150</text>
    </g>
  </g>
  <g transform="translate(231.000,367.918)">
    <g transform="rotate(-0.0)">
      <text x="0.000" y="0.000" font-family="Helvetica" text-anchor="middle" font-size="9pt" fill="#262626" >200</text>
    </g>
  </g>
  <g transform="translate(271.688,367.918)">
    <g transform="rotate(-0.0)">
      <text x="0.000" y="0.000" font-family="Helvetica" text-anchor="middle" font-size="9pt" fill="#262626" >250</text>
    </g>
  </g>
  <g transform="translate(312.375,367.918)">
    <g transform="rotate(-0.0)">
      <text x="0.000" y="0.000" font-family="Helvetica" text-anchor="middle" font-size="9pt" fill="#262626" >300</text>
    </g>
  </g>
  <g transform="translate(353.063,367.918)">
    <g transform="rotate(-0.0)">
      <text x="0.000" y="0.000" font-family="Helvetica" text-anchor="middle" font-size="9pt" fill="#262626" >350</text>
    </g>
  </g>
  <g transform="translate(393.750,367.918)">
    <g transform="rotate(-0.0)">
      <text x="0.000" y="0.000" font-family="Helvetica" text-anchor="middle" font-size="9pt" fill="#262626" >400</text>
    </g>
  </g>
  <g transform="translate(434.438,367.918)">
    <g transform="rotate(-0.0)">
      <text x="0.000" y="0.000" font-family="Helvetica" text-anchor="middle" font-size="9pt" fill="#262626" >450</text>
    </g>
  </g>
  <g transform="translate(475.125,367.918)">
    <g transform="rotate(-0.0)">
      <text x="0.000" y="0.000" font-family="Helvetica" text-anchor="middle" font-size="9pt" fill="#262626" >500</text>
    </g>
  </g>
      <polyline fill="none" stroke="#262626" stroke-width="0.5pt" stroke-dasharray="none" points="68.250,318.347 72.319,318.347 "/>
      <polyline fill="none" stroke="#262626" stroke-width="0.5pt" stroke-dasharray="none" points="68.250,286.256 72.319,286.256 "/>
      <polyline fill="none" stroke="#262626" stroke-width="0.5pt" stroke-dasharray="none" points="68.250,254.166 72.319,254.166 "/>
      <polyline fill="none" stroke="#262626" stroke-width="0.5pt" stroke-dasharray="none" points="68.250,222.075 72.319,222.075 "/>
      <polyline fill="none" stroke="#262626" stroke-width="0.5pt" stroke-dasharray="none" points="68.250,189.984 72.319,189.984 "/>
      <polyline fill="none" stroke="#262626" stroke-width="0.5pt" stroke-dasharray="none" points="68.250,157.894 72.319,157.894 "/>
      <polyline fill="none" stroke="#262626" stroke-width="0.5pt" stroke-dasharray="none" points="68.250,125.803 72.319,125.803 "/>
      <polyline fill="none" stroke="#262626" stroke-width="0.5pt" stroke-dasharray="none" points="68.250,93.712 72.319,93.712 "/>
      <polyline fill="none" stroke="#262626" stroke-width="0.5pt" stroke-dasharray="none" points="68.250,61.622 72.319,61.622 "/>
      <polyline fill="none" stroke="#262626" stroke-width="0.5pt" stroke-dasharray="none" points="68.250,350.438 68.250,29.531 "/>
      <polyline fill="none" stroke="#262626" stroke-width="0.5pt" stroke-dasharray="none" points="475.125,318.347 471.056,318.347 "/>
      <polyline fill="none" stroke="#262626" stroke-width="0.5pt" stroke-dasharray="none" points="475.125,286.256 471.056,286.256 "/>
      <polyline fill="none" stroke="#262626" stroke-width="0.5pt" stroke-dasharray="none" points="475.125,254.166 471.056,254.166 "/>
      <polyline fill="none" stroke="#262626" stroke-width="0.5pt" stroke-dasharray="none" points="475.125,222.075 471.056,222.075 "/>
      <polyline fill="none" stroke="#262626" stroke-width="0.5pt" stroke-dasharray="none" points="475.125,189.984 471.056,189.984 "/>
      <polyline fill="none" stroke="#262626" stroke-width="0.5pt" stroke-dasharray="none" points="475.125,157.894 471.056,157.894 "/>
      <polyline fill="none" stroke="#262626" stroke-width="0.5pt" stroke-dasharray="none" points="475.125,125.803 471.056,125.803 "/>
      <polyline fill="none" stroke="#262626" stroke-width="0.5pt" stroke-dasharray="none" points="475.125,93.712 471.056,93.712 "/>
      <polyline fill="none" stroke="#262626" stroke-width="0.5pt" stroke-dasharray="none" points="475.125,61.622 471.056,61.622 "/>
      <polyline fill="none" stroke="#262626" stroke-width="0.5pt" stroke-dasharray="none" points="475.125,350.438 475.125,29.531 "/>
  <g transform="translate(60.112,354.656)">
    <g transform="rotate(-0.0)">
      <text x="0.000" y="0.000" font-family="Helvetica" text-anchor="end" font-size="9pt" fill="#262626" >-1</text>
    </g>
  </g>
  <g transform="translate(60.112,322.566)">
    <g transform="rotate(-0.0)">
      <text x="0.000" y="0.000" font-family="Helvetica" text-anchor="end" font-size="9pt" fill="#262626" >-0.8</text>
    </g>
  </g>
  <g transform="translate(60.112,290.475)">
    <g transform="rotate(-0.0)">
      <text x="0.000" y="0.000" font-family="Helvetica" text-anchor="end" font-size="9pt" fill="#262626" >-0.6</text>
    </g>
  </g>
  <g transform="translate(60.112,258.384)">
    <g transform="rotate(-0.0)">
      <text x="0.000" y="0.000" font-family="Helvetica" text-anchor="end" font-size="9pt" fill="#262626" >-0.4</text>
    </g>
  </g>
  <g transform="translate(60.112,226.294)">
    <g transform="rotate(-0.0)">
      <text x="0.000" y="0.000" font-family="Helvetica" text-anchor="end" font-size="9pt" fill="#262626" >-0.2</text>
    </g>
  </g>
  <g transform="translate(60.112,194.203)">
    <g transform="rotate(-0.0)">
      <text x="0.000" y="0.000" font-family="Helvetica" text-anchor="end" font-size="9pt" fill="#262626" >0</text>
    </g>
  </g>
  <g transform="translate(60.112,162.112)">
    <g transform="rotate(-0.0)">
      <text x="0.000" y="0.000" font-family="Helvetica" text-anchor="end" font-size="9pt" fill="#262626" >0.2</text>
    </g>
  </g>
  <g transform="translate(60.112,130.022)">
    <g transform="rotate(-0.0)">
      <text x="0.000" y="0.000" font-family="Helvetica" text-anchor="end" font-size="9pt" fill="#262626" >0.4</text>
    </g>
  </g>
  <g transform="translate(60.112,97.931)">
    <g transform="rotate(-0.0)">
      <text x="0.000" y="0.000" font-family="Helvetica" text-anchor="end" font-size="9pt" fill="#262626" >0.6</text>
    </g>
  </g>
  <g transform="translate(60.112,65.841)">
    <g transform="rotate(-0.0)">
      <text x="0.000" y="0.000" font-family="Helvetica" text-anchor="end" font-size="9pt" fill="#262626" >0.8</text>
    </g>
  </g>
  <g transform="translate(60.112,33.750)">
    <g transform="rotate(-0.0)">
      <text x="0.000" y="0.000" font-family="Helvetica" text-anchor="end" font-size="9pt" fill="#262626" >1</text>
    </g>
  </g>
      <polyline fill="none" stroke="#262626" stroke-width="0.5pt" stroke-dasharray="none" points="68.250,350.438 68.250,347.228 "/>
      <polyline fill="none" stroke="#262626" stroke-width="0.5pt" stroke-dasharray="none" points="68.250,350.438 68.250,350.437 "/>
    </g>
  </g>
  </g>
</svg>
